<svg id="Layer_1" data-name="Layer 1" xmlns="http://www.w3.org/2000/svg" width="200" height="70" viewBox="0 0 200 70">
  <g>
    <path id="polygon8" d="M0,30.42H12.53V17.48H42V6.74H0Z" style="fill: #ed2224"/>
    <path id="polygon10" d="M0,64.86H42V54.11H12.53V41.17H0Z" style="fill: #ed2224"/>
    <path id="rect12" d="M12.53,30.42h27V41.17h-27Z" style="fill: #ed2224"/>
    <path id="path14" d="M94.31,12.08a17.7,17.7,0,0,0-6.23-3.87,25.93,25.93,0,0,0-9.32-1.47h-26V64.86H65.33V41.17H78.76A26,26,0,0,0,88,39.7a17.58,17.58,0,0,0,6.27-3.87,14.82,14.82,0,0,0,3.5-5.48,19.08,19.08,0,0,0,0-12.74A14.89,14.89,0,0,0,94.31,12.08Zm-8.77,15.2a6.27,6.27,0,0,1-2.48,2,12.34,12.34,0,0,1-3.59.93,33.22,33.22,0,0,1-4.23.24H65.33V17.48h9.92a35.18,35.18,0,0,1,4.23.25,11.76,11.76,0,0,1,3.59.94,6.15,6.15,0,0,1,2.47,2,5.57,5.57,0,0,1,.94,3.29A5.5,5.5,0,0,1,85.54,27.28Z" style="fill: #ed2224"/>
    <path id="polygon16" d="M170.49,54.11V6.74H158V64.86h42V54.11Z" style="fill: #ed2224"/>
    <path id="polygon18" d="M106.83,30.42h12.54V17.48h29.51V6.74h-42Z" style="fill: #ed2224"/>
    <path id="rect20" d="M106.83,41.17h12.54V64.86H106.83Z" style="fill: #ed2224"/>
    <path id="rect22" d="M119.37,30.42h27V41.17h-27Z" style="fill: #ed2224"/>
  </g>
</svg>
