<svg id="Layer_1" data-name="Layer 1" xmlns="http://www.w3.org/2000/svg" width="200" height="70" viewBox="0 0 200 70">
  <defs>
    <clipPath id="clip-path">
      <rect x="14.67" y="34.5" width="58.67" height="31.91" style="fill: none"/>
    </clipPath>
  </defs>
  <g id="surface1">
    <path d="M195.17,58.37a1.55,1.55,0,0,0-.73-1.34,8.47,8.47,0,0,0-3-1,13.07,13.07,0,0,1-4.69-1.88,4.22,4.22,0,0,1-1.88-3.69,5.29,5.29,0,0,1,2-4,8,8,0,0,1,5.43-1.74,8.92,8.92,0,0,1,5.69,1.67A5.35,5.35,0,0,1,200,50.66h-5a2.37,2.37,0,0,0-.67-1.74,3.07,3.07,0,0,0-2.14-.67,3,3,0,0,0-1.95.54,1.88,1.88,0,0,0-.67,1.41,1.55,1.55,0,0,0,.74,1.34,7.68,7.68,0,0,0,2.68.87,16.25,16.25,0,0,1,5,1.81,4.26,4.26,0,0,1,2,4,5,5,0,0,1-2.08,4,9.07,9.07,0,0,1-5.69,1.61,8.07,8.07,0,0,1-5.9-2,5.82,5.82,0,0,1-2.08-4.22h4.69A2.58,2.58,0,0,0,190,59.65a4,4,0,0,0,2.35.6c1.81.13,2.81-.54,2.81-1.88M174,48.72a3.33,3.33,0,0,0-3.15,1.81v13h-5V45h4.63l.2,2.15A6.47,6.47,0,0,1,176,44.7a5.88,5.88,0,0,1,4.29,1.54c1.07,1.07,1.6,2.88,1.6,5.5V63.53h-5V51.74a3.15,3.15,0,0,0-.73-2.42,3.44,3.44,0,0,0-2.22-.6m-23.12,5.36v.34a7.46,7.46,0,0,0,.87,3.82,3.54,3.54,0,0,0,4.89,1,3.44,3.44,0,0,0,1-1,8.45,8.45,0,0,0,.87-3.82v-.34a7.63,7.63,0,0,0-.87-3.82,3.05,3.05,0,0,0-2.95-1.61,3.18,3.18,0,0,0-2.95,1.61,7.8,7.8,0,0,0-.87,3.82m-5,.41v-.34a10.15,10.15,0,0,1,2.28-6.7,9.14,9.14,0,0,1,12.93,0,10.1,10.1,0,0,1,2.28,6.7v.34a10.12,10.12,0,0,1-2.28,6.7,9.14,9.14,0,0,1-12.93,0,10.17,10.17,0,0,1-2.28-6.7m-2.81,9h-5V45h5Zm-5.23-23.25a2.63,2.63,0,0,1,.73-1.81,3.23,3.23,0,0,1,4,0,2.63,2.63,0,0,1,0,3.68,3.23,3.23,0,0,1-4,0,2.31,2.31,0,0,1-.73-1.87M135.79,63.4a11,11,0,0,1-1.34.34,14.55,14.55,0,0,1-1.61.13A5.89,5.89,0,0,1,129,62.6c-.94-.81-1.4-2.22-1.4-4.23V48.65H124.8V45h2.75V40.48h5V45h3.14v3.62h-3.14V57.9a1.88,1.88,0,0,0,.46,1.55,2.74,2.74,0,0,0,1.41.4,3.17,3.17,0,0,0,.81-.07c.26,0,.46-.07.6-.07Zm-21-3.28a4.88,4.88,0,0,0,2.14-.54,3.71,3.71,0,0,0,1.28-1.21V55.16h-2a4.42,4.42,0,0,0-2.89.8,2.72,2.72,0,0,0-.93,2,2.13,2.13,0,0,0,.6,1.54,3.13,3.13,0,0,0,1.81.61m4.09,3.41a4.78,4.78,0,0,1-.47-1.67,5.67,5.67,0,0,1-1.88,1.41,7,7,0,0,1-7.24-.94,5.05,5.05,0,0,1-1.8-4,5.31,5.31,0,0,1,2.14-4.49c1.41-1.07,3.55-1.61,6.37-1.61h2.21V51.2a3,3,0,0,0-.67-2.08,2.61,2.61,0,0,0-2.08-.73c-1.74,0-2.61.73-2.61,2.21h-5a5.25,5.25,0,0,1,2.14-4.16,9.28,9.28,0,0,1,5.7-1.74A8.36,8.36,0,0,1,121,46.31a5.7,5.7,0,0,1,2.08,4.89V59a16.72,16.72,0,0,0,.2,2.54,7.18,7.18,0,0,0,.54,1.68v.33ZM104.49,38.67V63.53h-5.1l-10-16.42V63.53H84.25V38.67h5.16l10,16.42V38.67Zm63.94-13.88a7.32,7.32,0,0,0,.8,3.76A2.83,2.83,0,0,0,172,30.09a3.41,3.41,0,0,0,3.22-1.88v-7.3A3.36,3.36,0,0,0,172,19a2.89,2.89,0,0,0-2.75,1.61,7.83,7.83,0,0,0-.8,3.89Zm7.24,9.05-.27-1.94a6.16,6.16,0,0,1-2,1.67,5.92,5.92,0,0,1-2.68.61,6.09,6.09,0,0,1-5.3-2.68,11,11,0,0,1-1.87-6.71v-.33a11.33,11.33,0,0,1,1.87-6.84A6.21,6.21,0,0,1,170.78,15a5.33,5.33,0,0,1,4.42,2V7.64h5v26.2ZM153.75,19A2.86,2.86,0,0,0,151.34,20a5.92,5.92,0,0,0-1.14,2.75H157v-.4a4.2,4.2,0,0,0-.81-2.48,3.07,3.07,0,0,0-2.48-.94m7.78,11.87a8,8,0,0,1-2.68,2.27,9.62,9.62,0,0,1-4.49,1.08,8.74,8.74,0,0,1-6.77-2.62,8.87,8.87,0,0,1-2.42-6.3v-.67a9.82,9.82,0,0,1,2.35-6.84,7.87,7.87,0,0,1,6.3-2.68c2.68,0,4.69.81,6,2.49a10.24,10.24,0,0,1,2.08,6.56V26.2H150.2a4.65,4.65,0,0,0,1.41,2.88,4.26,4.26,0,0,0,3.08,1.08,5.17,5.17,0,0,0,4.42-2.08ZM143.7,33.71a8.89,8.89,0,0,1-2.95.47,6,6,0,0,1-3.89-1.28c-.94-.8-1.41-2.21-1.41-4.22V19h-2.74V15.34h2.74V10.78h5v4.56h3.15V19h-3.15v9.25a1.89,1.89,0,0,0,.47,1.54,2.63,2.63,0,0,0,1.41.41,3.17,3.17,0,0,0,.81-.07c.26,0,.46-.07.6-.07Zm-12.8.06h-5V15.34h5Zm-5.3-23.19a2.59,2.59,0,0,1,.74-1.81,3.24,3.24,0,0,1,4,0,2.36,2.36,0,0,1,.74,1.81,2.57,2.57,0,0,1-.74,1.81,3.22,3.22,0,0,1-4,0,2.57,2.57,0,0,1-.74-1.81M114.48,19a3.43,3.43,0,0,0-3.16,1.74V33.77h-5V15.34H111l.13,2.08a6.58,6.58,0,0,1,5.3-2.48,5.79,5.79,0,0,1,4.22,1.54c1.07,1.08,1.61,2.88,1.61,5.5V33.71h-5V22a3.13,3.13,0,0,0-.74-2.41,2.79,2.79,0,0,0-2.07-.67M98,9h5.16V25.33c0,2.88-.87,5.09-2.68,6.57a11.49,11.49,0,0,1-13.68,0c-1.81-1.48-2.68-3.69-2.68-6.57V9h5.16V25.33a4.57,4.57,0,0,0,1.21,3.55,5.21,5.21,0,0,0,6.43,0,4.61,4.61,0,0,0,1.14-3.55" style="fill: #010101"/>
    <g style="clip-path: url(#clip-path)">
      <path d="M72.92,36.05a12,12,0,0,1-3.08,4.83,43.93,43.93,0,0,0-4.43,5c0,.06-.13,0-.06-.07a13.62,13.62,0,0,0,.4-5.7c-.27-1.61-.94-3.35-1.14-5.29l-.07-.07c0,.07-.07.13-.07.2a18.93,18.93,0,0,0-.8,3.89c-.07,1.61.2,3.69.07,5.29a14.06,14.06,0,0,1-1.14,5.5v.13l4-2.48a15.11,15.11,0,0,0,4.22-4,12,12,0,0,0,2.21-7V36a.26.26,0,0,0-.13.06M70.37,46.11a14.35,14.35,0,0,1-3.35,3,20.92,20.92,0,0,1-3.42,1.87,17,17,0,0,0-4.22,2.48l-.27.2c-.07,0-.07,0-.07-.06a12.24,12.24,0,0,0,2.62-6.3,24.69,24.69,0,0,1,.67-4.49v-.14a19.53,19.53,0,0,0-3.22,5.77L57.9,51.81a9.86,9.86,0,0,1-2.47,4.08l-.14.14v.06c.14,0,.27-.06.4-.06l3.89-.81a13.39,13.39,0,0,0,5.9-2.48,13.57,13.57,0,0,0,4.22-5,15.54,15.54,0,0,0,.67-1.6c.14-.14.07-.14,0-.07m-5.9,9a9.34,9.34,0,0,1-2.81,1.47,16.17,16.17,0,0,1-4.43.67c-1.94.07-3.82.21-5.76.47-.13,0-.2,0-.13-.06A7.13,7.13,0,0,0,55.09,54L57,50.2v-.14c-.14.07-2,1.68-2.89,2.48l-3.15,3.08A12.15,12.15,0,0,1,46,58.17H46l-.06.07,3.62.87a22.55,22.55,0,0,0,4.76.87,11.18,11.18,0,0,0,10.32-4.82c0-.07-.07-.07-.14-.07M57.9,60.92a9.47,9.47,0,0,1-6.23.74,22.29,22.29,0,0,1-4.15-1.41l-3-1.21a14.46,14.46,0,0,0-7.91-.2h-.27a13.34,13.34,0,0,0-7.91.2c-1,.34-1.94.81-2.95,1.21a23.59,23.59,0,0,1-4.15,1.47A9.56,9.56,0,0,1,15.14,61l-.27-.14c-.06,0-.06,0-.06.07a10.16,10.16,0,0,0,4.69,2.75,10,10,0,0,0,3.69.27,12.22,12.22,0,0,0,5.22-2l2.82-1.88a4.76,4.76,0,0,1,3.55-.67c.67.07.13.4.07.47a26.23,26.23,0,0,0-4.76,2.95,37.16,37.16,0,0,0-2.82,2.48l1.34,1.14,1.48-1.61a26.43,26.43,0,0,1,6.17-4.76.48.48,0,0,1,.6,0A26.43,26.43,0,0,1,43,64.81l1.47,1.61,1.34-1.14L43,62.8a26.94,26.94,0,0,0-4.76-2.95c-.14-.07-.61-.4.06-.47a4.79,4.79,0,0,1,3.56.67l2.81,1.88a12.21,12.21,0,0,0,5.23,2,10,10,0,0,0,3.69-.27,11.59,11.59,0,0,0,4.69-2.75.24.24,0,0,0-.14-.07l-.27.07" style="fill: #0b9eda"/>
    </g>
    <path d="M46.91,24.19c-.2,0-.26.2-.06.34a.57.57,0,0,0,.47-.07.45.45,0,0,0,.26-.4c0-.2-.26-.47-.13-.61s.33.07.47,0a.36.36,0,0,0,.2-.33c0-.14-.07-.54-.34-.54s-.53.54-.53.54a.55.55,0,0,0,0,.47c.07.27,0,.6-.34.6M50.2,33.1c.27-.06.2-.46,0-.46s-.47.33-.41.33.27.2.41.13m-9.05-8.31c.13.07.6-.2.54-.26s-.67-.34-.67-.21a.62.62,0,0,0,.13.47m-.13.14c-.21-.07-.94.8-.81.94a2.42,2.42,0,0,0,.81-.94m-5.1,11.79c.2-.26-.27-.47-.4,0s.2.34.4,0M9,16l2.95-2.42a16.37,16.37,0,0,0,2.34-2.88A14.83,14.83,0,0,1,16.75,7.7l.2-.2V7.37a11.08,11.08,0,0,0-4.62,2.28C9.85,11.59,9,15.41,9,16M5.42,19.1l.07,3.21v1h.07A24.51,24.51,0,0,1,8.71,20l2.68-2.28a8.59,8.59,0,0,0,2.08-4v-.2H13.4l-.33.47a8.54,8.54,0,0,1-2.28,2.08,11.59,11.59,0,0,0-3.62,3c-.07.06-.14.06-.07-.07l.6-2.21a37.16,37.16,0,0,1,.94-4.09,6,6,0,0,1,1.27-1.88v-.13a.65.65,0,0,0-.33.13A7.66,7.66,0,0,0,6,14.74,7.43,7.43,0,0,0,5.42,18V19.1M3,28.88l1.14,3.49a.07.07,0,0,0,.07-.07,20,20,0,0,1,2.61-5L7,27a20.89,20.89,0,0,0,2.42-3.61c.4-.94,1-2.95,1.07-3.15h-.2A13.32,13.32,0,0,1,7.9,22.92a9,9,0,0,0-2.81,3.15c-.07.2-.2.4-.27.6l-.4,1.14s-.07.13-.07,0,.14-1.68.14-1.94a19.28,19.28,0,0,0-.41-4,12.54,12.54,0,0,1,.07-5,1,1,0,0,1,.13-.4c0-.07.07-.2.07-.27s0-.07-.07-.13a13,13,0,0,0-2.34,9c.33,1.27.67,2.55,1.07,3.75M5.83,41.42c.06-.07.06-.07.06-.21a10.51,10.51,0,0,1,.74-5,38.79,38.79,0,0,0,2-7.9c0-.34.07-.94.07-1.08s-.07,0-.07.07a24.52,24.52,0,0,1-1.81,3.22,10,10,0,0,0-2.28,5,7.22,7.22,0,0,0,0,1.61.06.06,0,0,1-.06.06v-.06L4,35.52c-.94-3.09-3.09-5-3.09-9.59l-.06-.06c-.14.26-.21.53-.34.8-1.94,6.3,2,10.86,2.82,11.8s1.87,2.07,2.48,3m.73,5.89,4,2.48a.21.21,0,0,0,.07-.13,14.29,14.29,0,0,1-1.14-5.5c-.13-1.67.14-3.68.07-5.29a19.73,19.73,0,0,0-.8-4c0-.06-.07-.13-.07-.2l-.07.07A46.78,46.78,0,0,1,7.5,40.07a13.77,13.77,0,0,0,.4,5.7c.07.07-.06.14-.06.07a39.37,39.37,0,0,0-4.43-5A11.63,11.63,0,0,1,.33,36.05.26.26,0,0,0,.2,36c-.07,0,0,.13,0,.26a12.11,12.11,0,0,0,2.21,7,14.88,14.88,0,0,0,4.15,4M17.35,56c.14,0,.21.06.41.06V56l-.14-.14a10.68,10.68,0,0,1-2.48-4.08l-1.2-3.42a19.53,19.53,0,0,0-3.22-5.77v.14a25.66,25.66,0,0,1,.74,4.49,12.22,12.22,0,0,0,2.61,6.23c0,.07,0,.13-.07.07l-.26-.2a16.61,16.61,0,0,0-4.23-2.48A21.83,21.83,0,0,1,6.09,49a14.12,14.12,0,0,1-3.35-3H2.68a15.69,15.69,0,0,0,.67,1.61,13.92,13.92,0,0,0,4.29,5,12.14,12.14,0,0,0,5.89,2.48c1.28.33,2.55.67,3.82.94M18.9,60a21.29,21.29,0,0,0,4.62-.87l3.62-.87h.07a.07.07,0,0,0-.07-.07h-.07a13,13,0,0,1-5-2.55l-3.15-3-2.88-2.48v.13c.27.4,1.27,2.62,1.88,3.82a6.85,6.85,0,0,0,3.75,3.62c.07.07,0,.07-.13.07a54.52,54.52,0,0,0-5.77-.47,16.55,16.55,0,0,1-4.42-.67,9.62,9.62,0,0,1-2.82-1.47H8.44a11.72,11.72,0,0,0,5.36,4.15,14.48,14.48,0,0,0,5.1.67M56.43,7.77a17.62,17.62,0,0,1,2.48,3,13.78,13.78,0,0,0,2.35,2.88c.6.6,2.41,2,2.88,2.41-.07-.53-.94-4.35-3.29-6.23A12,12,0,0,0,56.23,7.5v.13l.2.14m6.9,3.15a5.16,5.16,0,0,1,1.28,1.87,37.88,37.88,0,0,1,.94,4.1l.6,2.21c0,.06-.07.13-.13.06a13.37,13.37,0,0,0-3.62-3,8.86,8.86,0,0,1-2.35-2.08l-.33-.47a.1.1,0,0,0-.14,0v.2a8.64,8.64,0,0,0,2.08,4c.87.81,1.81,1.54,2.68,2.28a29.66,29.66,0,0,1,3.22,3.22s.06.07.06,0V22.25L67.69,19V18a8.88,8.88,0,0,0-.6-3.22,7.45,7.45,0,0,0-3.49-3.82c-.07-.07-.2-.07-.33-.14a.24.24,0,0,0,.06.14M68.7,27.74l-.41-1.07-.26-.6A9.36,9.36,0,0,0,65.28,23a12.49,12.49,0,0,1-2.41-2.68h-.21c.07.2.67,2.21,1.08,3.15a18.54,18.54,0,0,0,2.41,3.62l.2.27a18.14,18.14,0,0,1,2.62,5,.06.06,0,0,0,.06.06L70.17,29a35.65,35.65,0,0,0,1-3.75,13,13,0,0,0-2.28-9,.24.24,0,0,0-.07.14l.07.27L69,17a12.37,12.37,0,0,1,.07,5,19.1,19.1,0,0,0-.34,3.95c0,.2.14,1.88.14,1.95s-.07,0-.14,0m-.13,9.25h0a12.32,12.32,0,0,0-.07-1.61c-.13-1.88-1.27-3.42-2.28-5a25,25,0,0,1-1.81-3.22.21.21,0,0,0-.13-.06,6.68,6.68,0,0,0,.07,1.07,32.26,32.26,0,0,0,2,7.91,11.53,11.53,0,0,1,.67,5c0,.13,0,.13.06.2.61-.87,1.82-2.08,2.55-3s4.76-5.49,2.82-11.79a4,4,0,0,0-.34-.81l-.07.07c0,4.56-2.21,6.5-3.08,9.58a15.91,15.91,0,0,0-.4,1.75" style="fill: #0b9eda"/>
    <path d="M25.4,33.71a3.93,3.93,0,0,0,.2-1.21c0-.33-.2-.6-.27-.6s0,.2.07.53a6,6,0,0,1-.2,1c0,.07.13.4.2.27m.13,1.2c0-.13,0-.67-.13-.8s-.14.07-.2.07-.07-.27-.14-.27,0,.4.14.67.33.67.33.33m5.36,0c.14,0,.21-.4.14-.6s-.47-.07-.47.07a1.1,1.1,0,0,0,.33.53m4.16-4.35c-.34-.07-.27.13-.54.13s-.06-.27-.2-.4-.27.27-.33.47,0,.4.13.47l1.27.13c.27,0,0-.74-.33-.8M34.24,30c.21,0,.21-.13.27-.13s0,.13.2.13.41-.47-.2-.47-.4.47-.27.47m1.28,4.49c-.14-.07-.34.07-.4-.07a.11.11,0,0,0-.21,0,.36.36,0,0,0,.07.34.42.42,0,0,0,.54,0,.2.2,0,0,0,0-.27m6.1-25.87c-.6-.27-2.82-.27-2.75.34s1.27,0,1.61,0,1.67-.07,1.14-.34M38.94,10c-.47-.27-.07-.67-.41-.94a1,1,0,0,0-1.07.2c-.33.41.4.27.61.41s.87.6.93.53a.13.13,0,0,0-.06-.2M49,12.86c.2.07.2-.33-.13-.6s-.87-.14-.74,0a4.08,4.08,0,0,0,.87.6m2.35,11.4a12,12,0,0,0,.4,1.2c.07.2.13.94.27.87s.13-.46.06-.67a8.43,8.43,0,0,0-.33-1.4c-.07-.27-.54-1.28-.67-1.21s.2.67.27.94-.07.13,0,.27" style="fill: #0b9eda"/>
    <path d="M18.9,13.87l2.74,2.75A20.57,20.57,0,0,0,16,30.16H12.13A24.78,24.78,0,0,1,18.9,13.87M36.06,6.29v3.89a20.57,20.57,0,0,0-13.54,5.63l-2.75-2.75A24.18,24.18,0,0,1,36.06,6.29m.6,20a.28.28,0,0,1-.07.33c-.13.14-.53-.33-.6.07s.27.2.27.27a1.25,1.25,0,0,0,.8.47c.27,0,.67,0,.67.27s.34.13.4.26.2.54.34.47.33.07.4.2,0,.2-.07.34.2.13.27.54-.33.13-.4.4-.27.33-.4.53.06.2.13.14.2-.27.4-.27.4.74.61.8.13.34.2.41-.34,0-.27.13.47.2.47.4a.5.5,0,0,1-.47.4c-.2,0-.54-.47-.54-.33s.14.54.34.54.67-.21.47.06-.14.67-.27.67-.2,0-.07.2a.7.7,0,0,1-.13.61c-.14.13-.47,0-.47-.07s.4-.07.4-.27-.2-.27-.6-.13c-.2.06-.27-.07-.4-.07s-.54.47-.54.54v.33a1.15,1.15,0,0,1-.2.67,2.66,2.66,0,0,1-.74.07,4.77,4.77,0,0,1-3-1.14,1.26,1.26,0,0,1,.54-.13c.2.06.27-.07.4-.14s.47.14.67,0a2.25,2.25,0,0,0,.6-1.2c-.06-.21.47-.54.41-.61s-.14.07-.14,0,.14-.07,0-.33-.33-.14-.47-.14-.53-.2-.6-.13-.27-.14-.33-.07a.22.22,0,0,0-.21.2c-.06.14.07.27.07.4s-.47.47-.47.68-.2.06-.27.13,0,.2-.13.2-.34.34-.47.6c-.2-.26-.4-.6-.6-.87.13-.06.26-.13.33-.06s1-1.28.87-1.68-.33-.13-.53-.07-.2-.13-.14-.2.94-.07.47-.33c-.2-.14-.74-.14-.67-.34s.34,0,.4,0c.34.14.54-.53.74-.53s.2-.68-.13-.47-.47.13-.61.33-.47.47-.47.2.74-.53.88-.74a1.49,1.49,0,0,0,.33-.53c.07-.2,1-.34,1.21-.47a.84.84,0,0,0,.26-.54c0-.2-.26-.13-.33-.27s.33,0,.33-.2-.33,0-.46-.13,0-.07.06-.13a4.16,4.16,0,0,1,1.48-.27h.13m.34-5a9.26,9.26,0,0,1,5.69,2.34l-.13.14-.13-.07c-.34-.13-1,.54-.88.6s.41-.26.54-.2h.07l-1.14,1.21c-.34.13-.67.4-.67.6V26l-.4.4-.21-.2a3.24,3.24,0,0,0-1.07-.6,1,1,0,0,0,.34-.61c0-.4-.14-.26-.34-.06s-.4.27-.53.47a3,3,0,0,0-1.08-.2V21.31Zm0-5a14.47,14.47,0,0,1,9.25,3.82l-2.75,2.75a10.62,10.62,0,0,0-6.5-2.68Zm0-5a19.66,19.66,0,0,1,8.24,2.08,2.86,2.86,0,0,0,.54,1.21,6.29,6.29,0,0,0,.53.93c.21.2.07.61.14.94,0,.14.13.27.2.4v.54c0,.07.27.07.47-.07s.33-.4.6-.33.6.6.81.94l-1.28,1.27c-.13-.27-.27-.6-.2-.6s.2.06.27.06c.27,0-.2-.2-.2-.26-.2-.21-.2-.47-.47-.68s-.67-.06-.81-.33a3.62,3.62,0,0,0-1.07-1.21c-.07,0,.54.74.34.87s-.94-.46-1-.33.81.47,1.07.74.41.53.67.87a15.5,15.5,0,0,0-8.84-3.15Zm0-5a24.48,24.48,0,0,1,16.35,6.77L50.8,15.74c-.13-.06-.27-.13-.2-.26s-.2-.2-.27-.74a2.14,2.14,0,0,0-1-1.28,9.16,9.16,0,0,0-.88-.6c-.33-.13-1-.53-1.34-.4a2.23,2.23,0,0,1-.67.14,20.36,20.36,0,0,0-9.25-2.42ZM61,30.16H57a19.78,19.78,0,0,0-2-8.32l.07-.06c.27-.27-1.27-2.28-1.54-2.48a10.14,10.14,0,0,1-.87-.87,11.54,11.54,0,0,1-1.48-1.75l2.88-2.88A24,24,0,0,1,61,30.16M54.15,47.58,51.4,44.83A20.47,20.47,0,0,0,57,31.29h4a24.08,24.08,0,0,1-6.84,16.29M43.63,39.47a9.59,9.59,0,0,1,1.27.27c.27.13.47.4.67.07a5.53,5.53,0,0,0,.81-2c.13-1-.07-1.34-.2-1.34s-.41.26-.67.26-.14.27-.14.47-.27.41-.33.27-.21-.07-.14.07-.53.07-.8-.07.47-.2.87-.53.67-.61,1-.94.21-.74.54-1,.87-.2.94-.6.13-.34.33-.27,2.08-.07,2.08-.67c0-.27-.4-.6-.8-.67s-.34-.54-.47-.81a6.15,6.15,0,0,0-.47-.8h2.81a14.45,14.45,0,0,1-3.82,9.25l-.06-.07v-.27c.06-.53-.34-1.4-.47-1.27s0,.14-.4.74c-.14.2-.34.53-.61.53s-.27-.13-.67-.06a3.2,3.2,0,0,1-1.07,0A7.48,7.48,0,0,1,42,39.14c.07-.07.27.06.27-.14s1.07.4,1.34.47m1.07-13.6-.13.2c-.07.13-.41-.14-.47-.07s.47.74-.07.54-.2-.21-.2-.41-.47-.33-.2-.47,0-.33.27-.4.2-.33-.14-.4-.27.74-.47.6a2,2,0,0,0-.6-.06l.94-.94a.57.57,0,0,0,.33.07,4.58,4.58,0,0,0,.74,1.34M49.33,24a.07.07,0,0,1-.07.07c-.07.06-.4-.47-.4-.07s.13.54.4.6.13.2.33.27a.56.56,0,0,1,.27.13,12.66,12.66,0,0,1,.74,2.28,1.35,1.35,0,0,0-.27.2c-.13.14-.07.41-.2.61s-.27.53-.8.4c-.34-.13-.07-.54,0-.87s.2-.27.2-.47-.67-.94-1-.67-.27.53-.53.8-.27.14-.47,0-.27-.27-.2-.4-.47-.74-.67-1a1.41,1.41,0,0,0-1.08-.54,10,10,0,0,0-1.27-1.74l2.75-2.75A14.49,14.49,0,0,1,49.33,24m-.54,5.5c-.34-.47.13-.54.6-.74.27-.14.61.06.61-.07a.7.7,0,0,1,.26-.47,1,1,0,0,0,.41-.33c0,.13.06.26.06.4a1.58,1.58,0,0,0-.2.74c0,.2,0,.47.2,0,0-.07.07-.07.07-.14a4.49,4.49,0,0,1,.13,1.28H48.05v-.07c.2-.34.94-.27.74-.6m-1.68,16c.21-.33.61-.93.81-1.27s-.54-.8-.94-.94-.4-.33-.4-.67a4.07,4.07,0,0,0,.6-.53l2.75,2.74a18.91,18.91,0,0,1-3,2.28c-.07-.13.4-.6.54-.8s-.54-.47-.41-.81m3.22-2.68c-.13-.26-.2-.6-.33-.87s-.61-.27-.61-.13a3.6,3.6,0,0,1-.06.8v.07l-1.41-1.41a15.54,15.54,0,0,0,4.15-10H56A19.15,19.15,0,0,1,50.67,44l-.2-.2a1.63,1.63,0,0,0-.14-.94M48,20.1l.93-.94a1.69,1.69,0,0,0,.94.54.58.58,0,0,1,.54.54c.07.33.4.46.74.53s.53.47.8.47,1.14,1.21,1.47,1.61c.21.2.47.54.67.27s.21-.2.34-.27a19.7,19.7,0,0,1,1.68,7.31H52.21a11.69,11.69,0,0,0-.34-2.62,1.8,1.8,0,0,0,.2-.87.27.27,0,0,0-.47-.2A9.22,9.22,0,0,0,51.07,25c-.07-.26-.14-.6-.2-.87,0-.06-.14-.13-.27-.27a6,6,0,0,0-.34-.67c.21-.13.27-.47,0-.4s-.13-.2-.26-.33-.14,0-.21.06a17.77,17.77,0,0,0-1.74-2.27v-.07c-.13,0-.13-.07-.06-.07M37.13,55.16v-4a20.06,20.06,0,0,0,6-1.07.25.25,0,0,0,.2.07,1.44,1.44,0,0,0,.74-.27,8.13,8.13,0,0,0,1.81-1,20.15,20.15,0,0,0,4.83-3.42l2.74,2.75a24.32,24.32,0,0,1-16.28,6.91m0-10V44.7c.87-.13.67.4,1.27.2a.53.53,0,0,1,.54.13,15.58,15.58,0,0,0-1.81.14m2.28.8a2.34,2.34,0,0,1,.87.67c.2.34.26.47.13.81-.33.6-.2,1,.47,1.2.4.14.54.54.8.81a21,21,0,0,1-4.55.67V46.24A22.46,22.46,0,0,0,39.41,46m-3.56-6.23c-.2-.13-.33.13-.6.27a9.65,9.65,0,0,1-5-2.28L33,35a5.46,5.46,0,0,0,3,1.21c0,.13.13.27.13.53s-.2.41-.13.54.67,0,.74-.2-.21-.34-.27-.54-.07-.2-.14-.33h.2a1.79,1.79,0,0,0,.61-.07.15.15,0,0,0,.13-.13c0-.07.07-.14.07-.2s.07-.07.07-.14l.06.07c.07.13.2.53.34.47s.2-.67.13-.81a.51.51,0,0,1,0-.6c0-.07.07-.47.2-.4s0,.4,0,.53.14.47.34.34.27-.27.4-.2-.34.2-.4.33.2.2.13.27-.13,0-.2.07.13.47,0,.53-.6.21-.74.27-.26-.06-.2-.13,0-.34-.13-.34-.14.07-.14.2.14.34.14.41-.2.13-.34.2a1.91,1.91,0,0,1-.53.53c-.2.14-.61.14-.61.27s.21.14.27.2.2.47-.06.61-.61-.2-.74-.14-.2.4-.27.81.74.53,1.14.33.2-.53.47-.67.2-.4.47-.33.2-.2.47-.2.26.2.6.26c.54.14.54.54.6.34s.14-.34-.27-.47-.6-.6-.26-.47.73.2.8.4.47.14.54.34.33,0,.13-.2-.13-.27,0-.41.2.07.4-.2-.06-.2-.13-.33,0-.87.27-.74.53-.07.4-.13.07-.47.13-.47,0,.27.07.33.74-.2.8.14-.46.53-.6.53-.47.27-.67.54-.4.33-.27.6.4.2.67.07.47-.34.61-.4.47.67.33.8-.4.2-.53.34a2.91,2.91,0,0,1-1.28.4c-.27.07-.27.13-.33.4s-1.28.07-1.54.07.2-.61-.21-.54l-1.2.2c-.07,0-.47.34-.81.07M36,45.1a14.43,14.43,0,0,1-9.25-3.82l2.75-2.75A10.39,10.39,0,0,0,34,41c-.6.26-.87.67-.8,1s-.4.54-.4.94.53.67.6,1.07a3.09,3.09,0,0,0,.94.81,4.13,4.13,0,0,0,1.54.13Zm0,5a19.45,19.45,0,0,1-12.8-5.3l.47-.47a1.35,1.35,0,0,0,.33.21,1.48,1.48,0,0,0,.94.13c.27-.07.8-.54,1.14-.54s.87.14,1.2-.06-.2-.87-.4-1.21c-.06-.07-.06-.13-.13-.2a15,15,0,0,0,9.38,3.55Zm0,5A24.22,24.22,0,0,1,19.7,48.32l2.75-2.75A20.49,20.49,0,0,0,36,51.2ZM21,31.23a11.92,11.92,0,0,0,.2,2.14c-.06,0-.06-.2-.27-.13a11.69,11.69,0,0,0-1.27,1.87c-.27.47.13,1.48-.27,1.82a3.87,3.87,0,0,1-1.2.2h-.07a18.85,18.85,0,0,1-1.07-5.77ZM25.2,20.1A15.61,15.61,0,0,0,21,30.16H17.15a19.5,19.5,0,0,1,5.3-12.81Zm.8-.74-2.75-2.74a19.43,19.43,0,0,1,12.81-5.3v3.89A15.45,15.45,0,0,0,26,19.36m3.49,3.56-2.68-2.75a14.43,14.43,0,0,1,9.25-3.82v3.89a10.15,10.15,0,0,0-6.57,2.68M27.34,32.5l.14.2c.13.14.26.27.4.2a1.56,1.56,0,0,1,.53,0,1.17,1.17,0,0,1,.47.34c.14.2.4.07.61.2s.4.27.13.4.27.4.33.4.14-.13.14-.33.13-.34.34-.27.8.8,1,.54.07-.61.13-.74a.14.14,0,0,1,.14-.13,4.08,4.08,0,0,0,.6.87l-2.75,2.75a8.45,8.45,0,0,1-2.21-4.43m-1.2-3.15c0,.27-.07.54-.07.81H24.66a.69.69,0,0,1,.13-.61.73.73,0,0,1,.81-.33,2.06,2.06,0,0,1,.54.13m3.35-4.89,2.41,2.41h-.27c-.27,0-.27-.2-.47-.2-.4.07-.47.2-.54.13a3.79,3.79,0,0,0-1-.67,1.86,1.86,0,0,0-1.34.07c-.07,0-.07.07-.13.07.46-.61.93-1.21,1.34-1.81m-2.55,2c-.07,0-.07.07-.13.07-.21.2-.74.13-.67.33s1.47-.47,1.47-.33-.6.33-1,.53-.53.54-1.2.54c-.34,0-.47.27-.61.47a5.55,5.55,0,0,0-.47.8,2.65,2.65,0,0,1-.26,1.21H22.11a14.56,14.56,0,0,1,3.82-9.25l2.75,2.75a18.24,18.24,0,0,0-1.74,2.88M22.78,43.69l-.33.34L22,43.56a.73.73,0,0,1,.8.13m-.33-9.92a15.87,15.87,0,0,1-.34-2.54h1.61c-.13.2-.47.4-.53.6S22.72,32.7,23,33c.61.67-.13.94-.53.8m2.61,4.7a2.5,2.5,0,0,1-.27-1.21,2.29,2.29,0,0,0-.33-1.14,3.28,3.28,0,0,1-.14-.8c0-.47-.4-.34-.4-.47s.34,0,.34-.14a1.6,1.6,0,0,0-.74-.8c-.33-.14-.2-.34-.2-.54a.72.72,0,0,0-.13-.53c-.07-.27,0-.74.33-.74.14,0,.34.13.54,0s.06-.54.06-.87H26c0,.27.07.6.07.87-.14.07-.2.2-.14.27s.14.13.21.06a10.29,10.29,0,0,0,2.54,5.23l-2.75,2.75a6.86,6.86,0,0,1-.6-.74v-.2c0-.47-.33-.74-.47-1.14M32.3,32h0v.14c0-.14-.07-.21-.13-.34S32,31.7,32,31.7h-.34l-.13.06h-.94c-.13,0-.2,0-.2-.06-.07-.27.33-.07.6-.87.07-.07.07-.21.14-.27l.06-.14.13-.13a.52.52,0,0,1,.41-.13h.13l.14.13.2.4c.06.07.13.07.13.14a.76.76,0,0,1,.27.2l.07.06v.07c.06.07.06.07.13.07H33c.13-.07.13,0,.2,0v.06c0,.07,0,.07-.07.14s-.06.07-.06.13-.14.14-.21.14a3,3,0,0,1-.33-.07c-.07,0-.13,0-.13.07V32m1.94-6.37-.27.14a3.57,3.57,0,0,0-1,.67l-2.75-2.75a9.2,9.2,0,0,1,5.7-2.35v3.89a5.47,5.47,0,0,0-1.41.34,2.4,2.4,0,0,1,.4-.54,2.2,2.2,0,0,0-.67.6M12.19,31.23h3.89a21.16,21.16,0,0,0,1,5.83,2.33,2.33,0,0,1-.61-.27c-.26-.13-.47.07-.53.07-.27,0-.61-.2-.61,0s.27.07.27.2-.67.13-.74-.13-.2-.54-.26-.21-.34.27-.47.34a.5.5,0,0,0-.14.33c0,.14-.33.07-.33.27s.2.27.27.47.26.34.13.4-.07-.06-.2,0a5.12,5.12,0,0,0,.74,2c.13-.06-.2-.67-.2-.93a.44.44,0,0,1,.26-.47c.2-.14.74.8.94.67s-.07-.27.14-.34.8.87,1,.6.27.14.27.21c.2.33.54.33.74.73s.67,1.14,1,1.14.14-.33.27-.33.27.47.47.74a1,1,0,0,0,.6.4c.47.6,1,1.2,1.54,1.81L18.9,47.52a23.55,23.55,0,0,1-6.71-16.29m6.37,17.49a25.5,25.5,0,1,0,0-36.06,25.44,25.44,0,0,0,0,36.06" style="fill: #0b9eda"/>
  </g>
</svg>
