<svg xmlns:xlink="http://www.w3.org/1999/xlink"
     xmlns="http://www.w3.org/2000/svg"
     viewBox="0 0 70 55" xml:space="preserve"
     fill="hsl(216, 54%, 55%)"
>
    <path d="M15.49,54.93a13.48,13.48,0,0,1-8.37-2.58,16.61,16.61,0,0,1-5.26-7A26.79,26.79,0,0,1,0,34.9,39.52,39.52,0,0,1,2.37,21.47,37.43,37.43,0,0,1,9.7,9.29,39.55,39.55,0,0,1,22.51,0l8.67,8.05a32.3,32.3,0,0,0-9.81,5.17,30.65,30.65,0,0,0-6.92,7.43,23.5,23.5,0,0,0-3.51,8.47l.83.41a7.21,7.21,0,0,1,2.06-1,12.38,12.38,0,0,1,3.72-.42,10.37,10.37,0,0,1,5.06,1.45,12.93,12.93,0,0,1,4.44,4.23,13,13,0,0,1,1.86,7.33A13.53,13.53,0,0,1,27.05,48a14.36,14.36,0,0,1-4.85,5.06A12.48,12.48,0,0,1,15.49,54.93Zm38.82,0a13.48,13.48,0,0,1-8.37-2.58,16.61,16.61,0,0,1-5.26-7A26.79,26.79,0,0,1,38.82,34.9a39.52,39.52,0,0,1,2.37-13.43A37.29,37.29,0,0,1,48.53,9.29,39.39,39.39,0,0,1,61.33,0L70,8.05a32.3,32.3,0,0,0-9.81,5.17,30.65,30.65,0,0,0-6.92,7.43,23.5,23.5,0,0,0-3.51,8.47l.83.41a7.21,7.21,0,0,1,2.06-1,12.38,12.38,0,0,1,3.72-.42,10.37,10.37,0,0,1,5.06,1.45,12.37,12.37,0,0,1,6.3,11.56A13.53,13.53,0,0,1,65.87,48,14.36,14.36,0,0,1,61,53.07,12.48,12.48,0,0,1,54.31,54.93Z"/>
</svg>