<?xml version="1.0" encoding="utf-8"?>
<!-- Generator: Adobe Illustrator 24.1.2, SVG Export Plug-In . SVG Version: 6.00 Build 0)  -->
<svg version="1.1"
	 id="svg3132" xmlns:cc="http://creativecommons.org/ns#" xmlns:dc="http://purl.org/dc/elements/1.1/" xmlns:inkscape="http://www.inkscape.org/namespaces/inkscape" xmlns:rdf="http://www.w3.org/1999/02/22-rdf-syntax-ns#" xmlns:sodipodi="http://sodipodi.sourceforge.net/DTD/sodipodi-0.dtd" xmlns:svg="http://www.w3.org/2000/svg"
	 xmlns="http://www.w3.org/2000/svg" xmlns:xlink="http://www.w3.org/1999/xlink" x="0px" y="0px" viewBox="0 0 1000 1000"
	 style="enable-background:new 0 0 1000 1000;" xml:space="preserve">
<style type="text/css">
	.st0{fill:#878E88;stroke:#FFFFFF;stroke-width:0.7972;stroke-miterlimit:6.3366;}
	.st1{fill:#878E88;stroke:#FFFFFF;stroke-width:0.4783;stroke-miterlimit:6.3366;}
	.st2{fill:#FBC700;stroke:#FFFFFF;stroke-width:0.4783;stroke-miterlimit:6.3366;}
	.st3{fill:#FBC700;stroke:#FFFFFF;stroke-width:0.7972;stroke-miterlimit:6.3366;}
	.st4{fill:#B9B9B9;stroke:#FFFFFF;stroke-width:0.4783;stroke-miterlimit:6.3366;}
	.st5{fill:#B9B9B9;fill-opacity:0;}
	.st6{fill:#878E88;fill-opacity:0;}
</style>
<sodipodi:namedview  bordercolor="#666666" borderopacity="1" gridtolerance="10" guidetolerance="10" id="namedview3277" inkscape:current-layer="g3137" inkscape:cx="612.61112" inkscape:cy="405.92828" inkscape:pageopacity="0" inkscape:pageshadow="2" inkscape:window-height="972" inkscape:window-maximized="1" inkscape:window-width="1280" inkscape:window-x="-8" inkscape:window-y="-8" inkscape:zoom="1.0649028" objecttolerance="10" pagecolor="#ffffff" showgrid="false">
	</sodipodi:namedview>
<g id="g3137" transform="matrix(1.59433, 0, 0, 1.59433, -1721.78, -693.262)">
	<path id="bf" class="st0" d="M1228.9,669.2c0.5-1.4,1-3,0.7-4.5c-0.3-1.6,0.6-0.7,1.2-1.9c0.4-0.8,1.2-3,0.3-3.7
		c-0.6-0.5,0.6-1.5-1.2-2c0.8,0,1.4-0.6,2-1c1-0.6,2.5-0.1,3.6-0.8c1.3-0.8,2.9-3.9,1.7-5.3c-0.5-0.6,0.3-1.1,1-1
		c1.1,0.1,1-0.9,0.8-1.7c-0.1-0.6-1.2-1.4-0.3-1.7c0.7-0.3,1.8-2.4,2.2-3c-0.1,1.3,2.9,2.8,4,2.9c-0.2-1.2,0.5-1,1.5-1
		c-0.1-1.1,0.4-2.6-0.2-3.6c0.8,0.2,1.7,0.2,2.4,0.6c1.1-1.6,1-5.2,3.8-5.5c1.4-0.1,3.1,2.1,3.4-0.4c0.1-1.3,1.6-1.2,2.5-1.6
		c1.2-0.6,2.1-1.5,3.3-2.1c1.5-0.7,4.2-4.3,6.2-2.5c0.4,0.4,1.3-0.5,2-0.3c0.9,0.3,1.7,0.6,2.5,1c1.2,0.6-1,3.8,0.9,4.8
		c1.2,0.6,0.3,2.6,1.1,3.5c0.5,0.5,1.5,1.5,1.3,2.2c0.9,0.4,3.4,2,5,3.3c-0.7,0.3-1.4,0.3-2-0.1c-1,2.5,2.3,5.4,4.3,6.3
		c1.6,0.8,2.5-1.1,3.6-0.8c0.9,0.3,1.1,1.7,1.5,2.5c-2.5,0.9-0.4,2.3,0.5,4.1c1,1.9-1.4,4.5-3.2,4.7c-0.4,0-2.2,0.5-2.5,0.3
		c-0.9-0.7-1.1-0.4-1.8,0.3c-1.5,1.3-2.3,3.1-4.2,3.3c-2.9,0.4-3.4-0.5-5.1-0.8c-0.8-0.2-1.6-0.4-2.5-0.4c-0.8,0-2.7,1.9-3.3,1.7
		c-1.4-0.6,1.6-0.6-8.6-0.6c-3.4,0-5.4,0.2-8.1,0c0.3,1.6-1.2,2.4-0.7,3.3c0.6,1.3,0.9,2.3,1.1,3.6c0.2,1.1,0.3,2.6,0.2,3.9
		c-0.1,1.1,0.8,2.5,0,3.1c-1.3-0.9-2.5-3.2-3.3-4.5c-0.7,1.1-3.6-0.2-4.8,0.2c-1.2,0.5-3.8,0.8-3.8,2.6c-0.8-0.1-3.5-1.3-4-1.9
		c-0.4-0.6-0.9-0.8-1-1.3c-0.2-0.9-1-2.5-1.6-2.8C1230.4,670,1229.3,670.8,1228.9,669.2"/>
	<path id="ly" class="st0" d="M1342.4,499.7c-1-0.8,1.1-1.8,1.6-2.1c1.6-0.7,2.5-1.2,3.4-2.7c0.8-1.3,1.6-1.9,1.3-3.5
		c-0.3-1.4-0.9-2.8-0.8-4.3c0.2-2,2.6-1.5,3-2.9c0.4-1.6,1.7-2.4,3-3c1-0.5,4.2-1.4,4.3-2.7c0-0.7-0.7-1.1-0.6-1.9
		c0.1-1.3,0.2-2.7,0.3-4c1.3,0.9,3,1.4,4.4,2.2c1.5,0.9,3.1,1.2,4.8,1c1.7-0.2,3-1.3,4.7-0.6c1.6,0.6,3.2,0.6,4.8,1.3
		c1.4,0.6,2.5,1.6,3.8,2.2c1.2,0.5,2.8,0,3.9,0.7c1.3,0.9,1.5,2.4,1.7,3.8c0.3,1.8,1,3.2,2.4,4.4c2.5,2.2,5.6,1.7,8.7,2.2
		c3,0.6,7.4,1.9,9.8,3.9c2,1.6,3.8,4.3,6.5,4c3.2-0.3,6.7-3.1,7.4-6.4c0.3-1.5-0.7-2.7-1.1-4c-0.5-1.5-0.9-3.2-0.4-4.7
		c0.9-2.8,5.6-6.3,8.5-6.4c1.5-0.1,2.4-1.2,3.8-1.3c1.4-0.1,3-0.1,4.4,0.2c1.6,0.4,3.1,1.2,4.6,1.8c1.8,0.7,1.4,1,1.4,2.6
		c0.1,1.3,2.2,1.6,3.1,1.7c1.8,0.1,3,1,4.7,1.5c1.7,0.5,3.4-0.1,5.1,0.2c1,0.2,2.4,2.1,2.1,3.1c-0.4,1.1-1.7,1.3-1.8,2.5
		c-0.3,1.7,0.8,2.9,1.1,4.4c0.3,1.7-0.8,3.3-1.4,4.8c-0.6,1.6,1,3.5,1.3,5.2c0.5,2.8,1,5.5,1.1,8.4l1.8,75.3c-2.5,0-5,0-7.5,0
		c0.1,1.4,0,2.9,0.1,4.3l-59.7-33.8l-13.5,6.5c-1.1,0.3-2.6-1.6-3.2-2.2c-2.8-2.8-5.8-3.4-9.5-4.2c-1.3-0.3-3.1-0.5-4.2-1.2
		c-0.9-0.6-1.4-2.2-1.8-3.2c-1.1-2.8-2.5-3.6-5.3-4.6c-0.9-0.3-1.8-1.1-2.8-1.1c-1,0-2,1.1-2.9,0.1c-0.7-0.8-2-2.9-2-4
		c0-2.3-0.3-3.2-1.5-5.1c-1-1.5-4.2-4.2-2.8-6.2c1.6-2.3,4.1-1.4,3-5.3c-0.5-1.9-0.9-3.4-0.3-5.3c0.6-1.7,0.9-3,0.3-4.8
		c-0.6-1.8-0.1-3.6,0-5.5c0.2-2.2-0.1-4.4-0.9-6.4C1344.4,502.9,1343.5,501.2,1342.4,499.7"/>
	<g id="mg" transform="translate(-29.9017, -45.0745)">
		<path id="path2622" class="st1" d="M1625.4,995.6c0.6,2.4-0.6,5.3,1.1,7.4c0.8,1,0.8,2.2,1.2,3.4c0.4,1.1,1.5,1.3,0.4,2.5
			c-1.1,1.2-0.9,5.2-0.2,6.6c0.6,1.3,1.3,2.3,1.6,3.7c0.5,1.9,1.7,2.4,3.1,3.6c-1.8-1-0.2,0.3,0.2,0.5c0.6,0.2,1.3,0.1,2,0.3
			c1.6,0.4,2.4,2.1,4,2.5c2.7,0.6,5.5-2.9,8-3.6c0.9-0.3,1.9,0.3,2.7,0c0.7-0.2,1.2-0.7,2-0.8c1-0.2,1.6-1.4,2-2.2
			c0.5-1.1,0.9-2.3,1.2-3.5c0.4-1.6,1.4-3,1.9-4.5c0.9-2.9,1.9-5.7,2.7-8.6c1.1-4.2,2.8-8,4.3-12.1c1.2-3.3,1.9-6.7,3.3-9.9
			c0.4-0.9,1.2-2.4,0.8-3.5c0.5,0,1.1-2,1.2-2.4c0.8-2.2,1.3-4.6,2.2-6.8c1.3-3.2,2.6-6,3.3-9.4c0.5-2.6-1.2-6.4,1.9-8.1
			c0.6-0.3,1.3-2.3,1.4-3.1c0.1-0.7-0.1-1.4,0-2.1c0.2-1-1-0.9-1-1.8c0-0.7-0.7-6.2,1-5.4c1.5,0.6,1,3.8,2.4,4.3
			c1.6,0.6,2.7-3.8,2.9-4.8c0.3-1.4-0.7-2.1-1-3.3c-0.7-2.3-0.6-4.5-0.7-6.8c-0.2-4.3-1.2-8.8-2.9-12.7c-0.2,0.2-0.5,0.3-0.7,0.5
			c0.2-0.6-0.1-0.7-0.4-1.1c-0.6-0.6,0.3-0.9-0.2-1.6c-0.5-0.6-0.8-2.9-2.1-2.1c-0.1-0.3-0.1-0.5-0.1-0.8c2.2,0.2-1-3.1-0.6-0.3
			c0.1,1.1-2.1,3.1-3.1,3.1c1.9,1,0.7,3.8,0.3,5.1c-0.6,1.9-0.5,3.1-2.9,3.2c0.3,1.4-0.1,0.3-0.8,1.1c-0.5,0.6-0.5,1.4-0.7,2.1
			c-0.6,0-2.7-4.4-3-1.3c-0.1,1.1,0.3,1.8,0.7,2.8c0.4,0.9-0.3,3.3-0.4,1.6c-0.2,0.9-2.8,1-1.8,2.9c0.6,1,2.7,0.6,1.8,2.3
			c0.3-1.3-1.1-1.4-1.9-0.8c-1.1,0.9-1,2.8-2.6,3.3c-0.2-1.1,0.9-2,0.6-3.1c-1.1,0.2-0.9,1-1.3,1.8c-0.4,0.8-1.7,1.2-1.9,2.1
			c-0.1,0.6,0.5,1.3,0.8,1.8c0.5,1-1.3,1.2-1.9,1.7c0.1-0.7,1.4-2.7-0.4-2.7c-1,0-1.8,1.3-2.6,1.8c-0.5,0.4-1.9,1.1-1.8,1.9
			c0.1,0.4-0.3,0.9-0.1,1.3c0.2,0.5,0.9,0.4,1.1,1.1c-0.8-0.1-1.6,0.1-1.8-1c-0.2-1.4-1.6-1.4-1.6,0.1c-0.3-0.6-1.9-0.7-2.5-0.4
			c-0.7,0.3-0.4,1.5-1,2c0-1.5-1.7-0.3-1.8,0.6c-0.2-0.5-0.5-0.9-0.9-1.3c-0.9,0.6-1.5,1.6-2.5,2c-0.9,0.3-2.6-0.4-3.4,0.3
			c-0.4,0.3-0.1,3.2-0.4,2.9c0.3,1.2-0.6,2.5-1.1,3.4c-0.9,1.6-3.9,4.5-2.8,6.4c0.8,1.3,0.1,3.7,0.2,5.2c0.1,1.7,1.4,3.2,1.4,4.9
			c0,1.6-0.1,2.6,0.7,4c0.9,1.5,0.4,2.2-0.1,3.6c-0.3,1.1,1,1.4,0.4,2.5c-0.7,1.2-1.5,2.4-2.3,3.5c-0.8,1.3-1.7,2.5-2.3,3.9
			c-0.4,1.1-0.1,2.9-1.4,3.3c-1.6,0.6-2,0.6-2.2,2.5C1627.2,992.6,1625.8,994,1625.4,995.6"/>
		<path id="path2624" class="st1" d="M1667.4,920.7c0.4-0.6-0.1-1.3-0.5-1.7C1666.2,919.6,1666.4,920.7,1667.4,920.7"/>
		<path id="path2628" class="st1" d="M1678.8,949.6c0-0.1,0-0.3,0-0.4c-0.4,0.8-1.5,1.7-1.1,2.7
			C1678.1,951.2,1678.3,950.3,1678.8,949.6"/>
	</g>
	<path id="ci" class="st0" d="M1205,703.2c0.4-0.9,1.5-1.1,1.9-2.1c0.3-0.7,0.5-1.7,0.5-2.4c0.1-1.3-0.4-3.6-1.3-4.5
		c0.6-0.6,1.4-0.3,2,0.1c0.1-0.8,1.3-1.6,0.9-2.4c-0.4-0.7,0.2-2.1,1.2-1.6c-0.7-1-1.9-1.7-2.2-2.9c-0.6-2.4,3.8-0.5,4.6-0.2
		c-0.5-1.6-0.3-3.3-2.4-3.7c0.4-1.1,0.4-2.2,1.7-2.4c-1.1-1.3-1.3-1-0.9-3c-2.4,1.6-2.3-3.8-2-5c0.3-1.2,1.1-1.4,2.1-1.7
		c0.6-0.2,0.6-1.2,1-1.6c0.6-0.5,1.4-0.2,2.1-0.5c-0.2,1.4,2.7,2.8,3.8,2.3c-0.8-1.3,0.5-1.3,1.5-1.3c1.2,0,0.8-2,0.8-2.9
		c0.5,0.3,1,1.2,1.7,1c0.6-0.2,0.8-1.4,1.4-1.7c0.6,1-0.2,4.4,1.2,4.7c1.3,0.3,0.3-2.5,4.2-2.4c0.4,0-0.8,1.1,2.3,1.3
		c1.5,0.1,1.8,3,2,3.3c1,1.2,3,2.5,4.9,2.9c0-1.7,2.6-2.1,3.8-2.6c1.1-0.4,4,0.9,4.8-0.2c1.2,1.4,1.7,3,3.3,4.5
		c0.2-0.2,0.4-0.5,0.5-0.7c0.5,1.4-0.6,2.8-0.4,3.5c0.3,1.2,1.1,1.8,1.2,3.2c0.1,1.1,0.8,3.1,0.4,4.2c-0.5,1.2-1.1,1.9-1.7,3
		c-0.8,1.5-2.1,2.3-2.1,4c0.1,2.1-1,3.7-1.4,5.3c-0.5,1.7-0.2,4.4,0.8,5.7c1,1.3,1.5,3.1,1.1,4.6c2.6-0.7,1.1,3.2,1.5,4.4
		c-0.5,0-1,0.1-1.5,0.2c0.1-0.3,0.3-0.5,0.5-0.8c-1.2,1.8-2.2-0.5-2.5-1.4c-0.7,0.7-0.9,1.7-2,1.8c-0.7,0.1-1.6-0.3-2.2-0.8
		c-0.4,0.7-1.3,0-1.7-0.3c0.6-0.1,1.3,0.5,1.8-0.2c-0.2-0.2-0.4-0.4-0.7-0.6c0.3,1.4-0.3,0.1-1.3,0.4c0.2,0.4-2.4,0.2-3,0.3
		c-0.3,0-3.5,0.6-3.3,0.7c1.6,0.9,4.7-1.9,6-0.3c-2,0.1-3.9,0.4-5.9,0.8c-0.4,0.1-1.4,0.3-1.6-0.3c-0.4-0.7-2.3-0.4-3,0.3
		c1.1-0.5,1.8-0.3,2.9,0.1c-2.5,0.3-5.1,0.1-7.4,1.1c-2,0.9-3.8,2.5-6,2.7c-1.1,0.1-3.6,1.4-4.4,2.2c-1.9,1.8-2.2-1.5-1.9-2.9
		c0.3-1.6,0.9-3.4,1.4-4.8c0.6-1.8,0.1-3.8-1.3-4.9c-0.9-0.7-2.1-1-2-2.6c0.2-1.7-5.1-0.2-4.1-2.2
		C1206.1,703.9,1205.5,703.7,1205,703.2"/>
	<path id="dz" class="st0" d="M1208.9,523.4l0.5-10.9c-0.5-2.9,4-3.9,5.6-5.4c0.8-0.7,2.1-2.2,3.3-2.1c1.1,0.1,1.3-1.5,2.7-1.8
		c2.3-0.4,3.5,1.8,4.8-1.3c0.4-0.9,1.9-0.5,2.7-0.7c1.5-0.2,3-0.4,4.4-0.9c2.8-1,2.9-4,5.3-5.3c1-0.5,2.3-0.6,3.3-1
		c1.3-0.5,2.1-1.9,3.4-2.2c0.5-0.1,3.1-0.3,2-1.7c-0.7-0.9-1.8-1.2-0.4-2.5c-2-0.6-0.2-2.7,1.3-2.5c2,0.2,3.8-0.5,4.5-2.4
		c1.3-3.5,10.4-0.4,13-1.1c-3-1.3,2.2-3,0.6-4.2c-0.8-0.6-1.6-1.1-2.2-1.9c-0.7-0.9-0.3-2.1-1-3.2c-0.7-1.1-0.3-2-0.1-3.1
		c0.2-1-0.6-1-0.5-2.1c0.1-0.9,0.1-2.1,0.1-3c0-1.3-0.8-2.3,0.4-3.2c-1.3-0.5-0.8-1.2-1-2.2c-0.2-1.3-2.5-1.7-3-3
		c2.4,0,3.4-0.6,5.5-1.6c0.9-0.5,1.4-0.5,2-1.4c0.5-0.8,0.8-1.5,1.7-2c0.5-0.3,1.5-1,2-0.6c0.7,0.5,1.5-0.4,2-0.8
		c1.2-1.1,2.8,1.6,4-0.8c1.6-3.3,7.2-4.7,10.4-5.1c2.3-0.3,4.6-0.9,7-0.7c1.7,0.1,2.9-2.1,4.4-1.2c0.7,0.4,0.5,0.2,0.8-0.2
		c0.1-0.1,2.7-0.1,3-0.2c2.3-0.9,4.5-0.6,6.9-0.6c2-0.1,2.4,0.4,3.9,1.5c1.9,1.4,2.6-0.7,4.2-0.9c0.5-0.1,3.9-0.2,3.7-1.2
		c-0.3-1.8,2.1-0.7,2.7-0.3c1.2,0.8,3,1.2,4.2,0.2c0.7-0.5,0.2-1.2,1.5-0.9c0.9,0.2,1.6,0.9,2.6,0.8c-0.8,1.4,1.2,0.9,1.9,0.7
		c1.3-0.3,2.7,0,4-0.4c0.1,1.8-2.2,2.7-3.2,3.8c2.7,0.6,0.1,4.4,0.7,6.1c0.9,3,0.6,5.3-0.1,8.3c-0.5,2.5-3.3,4.4-5.1,6
		c-1.1,0.9-0.5,3.4,0.1,4.4c1,1.7,0.5,3.5,2.6,4.3c2.8,1.1,2,4.7,4.3,6.4c1.1,0.8,2.3,1.4,3.2,2.4c1.2,1.3,1.4,3.5,1.7,5.2
		c0.6,3.5,2.2,7.4,2.2,11c0,1-2,0.6-0.7,2.3c1.3,1.7,2.3,3.7,2.7,5.7c1.4,7.1-0.7,7.1,0.4,10.7c0.5,1.7,0.5,3-0.1,4.7
		c-0.8,1.9-0.1,3.7,0.3,5.6c0.6,2.9-0.7,2.9-2.7,4.5c-2.3,1.8,1.5,5.2,2.6,6.8c1.9,2.9,0.8,6.4,3.3,9.1c1,1,2.1-0.2,3.1-0.1
		c1.3,0.1,2.7,1.1,3.9,1.5c2.8,1,3.7,3.4,4.8,6c0.5,1.3,1,1.4-0.4,2.2c-14.2,9.1-28.5,18.1-40.6,29.9c-0.7,1-2.9,3.5-4.7,4.5
		c-1.3,0.7-3.3,0.8-4.7,1.1c-2,0.4-4,0.8-6,1.2c-1,0.2-9.7,3.2-9.3,0.1c0.1-1.1,0.9-1.5,0.8-2.7c0-0.5,0.1-2.9-0.4-3.1
		c-1.5-0.7-3.3-1.1-4.9-1.4c-0.8-0.2-1.9-2.2-2.5-2c-3.5,0.9-4-2.6-4.7-3.1c-0.7-0.6-2-0.7-2.7-1.2c-0.8-0.6-0.1-2-0.6-2.8
		c-0.6-1-1.6-1.8-2.5-2.4c-1.6-1-3.1-2.1-4.6-3.2c-3.7-2.8-7.3-5.8-10.9-8.7c-14.1-11.1-28.2-22.1-42.9-32.3
		C1215.9,528.2,1212.4,525.8,1208.9,523.4"/>
	<path id="cm" class="st0" d="M1336.2,717.9c0.9-0.8,1.5-2,1.6-3.2c0-1.1,1.5-3.3,1.1-4c-0.4-0.8-0.6-1.1,0.6-2.4
		c1.2-1.3,2.3-2.6,3.6-3.8c0.7-0.7,1.6-1,2-1.9c0.3-0.8,1.6-3,2.5-3.2c1-0.3,1.6,1,2.8,0.8c1-0.2,1-1.6,1.2-2.3
		c0.2,0.8,2.3,2.9,3,3.1c0.7,0.2,0.9,1.2,0.6,2c-0.2,0.6,0.8,1.4,1.9,1.2c0.3-0.6,2.2-2.3,1.7-3.3c-0.3-0.7,1.2-1.7,1.7-2.1
		c0.9-0.7,0-1.7,0.5-2.7c0.9-1.8,2.2-3.5,2.8-5.8c0.3-1-0.1-2,0.2-2.9c0.2-0.7,1.3-1,1.3-2.1c-0.3-0.1,2.5,0.3,3.1-2.5
		c0.1-0.6,1.2-3.8,0.2-4c1.2-0.6,3-1.4,3.2-2.8c0.1-0.9,0.1-1.7,0.1-2.6c0-1,1-0.9,1.4-1.5c0.5-0.8,0.5-1.9,0.8-2.9
		c0.3-1,0.6-2,0.8-2.7c0.3-1.2,1-3.5,2.2-4c0.7-0.3,4.7-0.2,5.2-2.5c0.1-0.6-0.5-1.1-0.4-1.9c0.2-1.3,0.2-2,0.5-3
		c0.3-1.1-1.8-2.1-2.5-1.9c-0.6,0.2-1.3-1-1.5-2.5c-0.2-2.3-0.1-3.2-0.4-3.9c0.9,0,2.2-0.1,2.9,0.7c1,1.1,0,2.2,2.2,2.9
		c1.1,0.3,1.3,3,1.3,3.9c0.1,0.9-0.1,0.1,0.8,1.1c1.9,1.8-0.1,7.2,0.1,9.6c0.4,3.3,1.9,7.1,4.9,8.7c-1.2,1-2.7,0.5-3.7,0.1
		c-1,0.1-1.2,0.3-2.3,0.3c-2.2,0.1-4.5-1.4-5.6,0.5c-1.4,2.2-1.2,2.6,0.6,4.7c1.8,2.1,3.8,3.9,5.8,5.8c0.6,0.6,1.4,1.5,1.8,2.2
		c0.8,1.5,1.4,4.5,2.3,5.9c0.9,1.5-0.9,2.5-1.3,3.1c-0.7,0.9-1.7,3.1-2.3,4.6c-0.2,0.5-0.7,1.3-0.9,1.8c-0.4,0.9-1,1.7-1.4,2.6
		c-0.6,1.3-3.7,2.5-1.9,3.3c1.3,0.5,1.2,1.9,1,3.6c-0.1,0.8-0.1,1.5-0.6,2.2c0.1-0.1,1,1.2,1,1.3c0.2,1.5-0.1,3.7,0.8,4.9
		c0.6,0.7,1.4,1,1.7,2.1c0.2,0.8,0.6,2,1.3,2.5c-2.5,0.1,3.1,6.6,3.6,7c1.2,1,2.9,1.5,3.1,2.4c0.2,0.7,0.3,1,0.3,1.6
		c0.1,1.6,0.4,3.3,0.8,4.8c-1.9,0.9,0.2,4-1,4.9c-1.1-1.1-2.3-2-3.7-2.5c-0.6-0.2-2.5-1-3-0.6c-0.7,0.4-2,0.4-2.4-0.6
		c0,0-2.2-0.5-2.4-0.5c-0.7-0.3-2.6-0.1-3.5-0.1c-1.6-0.1-3.3-0.1-4.9-0.3c-0.3,0-1.1,0.2-1.4,0.1c-0.6-0.3,0.3-0.9-0.9-0.8
		c-1.5,0.1-2.8,0.4-4.3,0.1c-1.8-0.4-3.2-0.1-5-0.1c-1.2,0-3.2-0.7-4.4-0.1c-0.3,0.2-0.2,1.1-0.5,1.1c-1.1,0-2.2,0-3.3,0
		c-1.5,0-3.1,0.1-4.6,0.1c-3.3,0.1-4-1.7-3.3-4.8c0.4-1.7,1-3.6,0.1-5.3c-0.4-0.8-2-2.1-0.4-2.7c-0.9,0.5-2.7-0.3-1.6-1.4
		c0.6-0.6,1.8-1.5,0.2-1.6c0.3-0.3,0.5-0.8,0.5-1.2c-0.5,1.2-1,0.3-1.9,0.3c0.3,0.4,0.5,0.7,0,0.4c0,0.4,0,0.8-0.1,1.2
		c-0.7,0-1-0.5-0.8-1.2c-0.6,1-2.2-0.3-2.4-1c-0.3-1.2-0.4-3.3-1.3-4.2c-1,1.2-0.8-0.2-1.4-0.2c0.1,0.5,0.2,1,0.2,1.4
		C1334.8,720.9,1335.9,719,1336.2,717.9"/>
	<path id="bw" class="st0" d="M1421.3,973.8l0.9-24l6.8,0l1-31.8c2.4-0.6,8.6-0.9,12.1-2.2c1.1-0.4,3.8-0.9,4.8-0.3
		c1.5,0.8,1.8,2.6,2.5,4c1.9-1.5,3.4-4.6,5.7-4.7c0.8,0,0.8,0.5,1.4,0.6c0.8,0.1,1.3-1,1.9-1.4c1.9-1.2,4-1,3.6-0.3
		c-0.1,0.2,0,1.3,0.1,1.5c0.5,1.3,1.3,2.6,2.1,3.7c0.8,1.1,1.5,1.7,2.1,3.6c0.4,1.3,0.6,1.6,1,2.9c0.8,2.7,2.8,5,5.2,6.2
		c2.6,1.3,4.9,1.1,4.1,5.2c2.4-0.6,4.2-0.3,3.2,2.9c-0.4,1.1-0.2,1.9,0.4,2.8c0.7,1,1.1,3.4,2.2,3.8c2.2,0.7,4,0.6,6.3,1.3
		c1.7,0.6,0.2,1.4,0.8,2.3c0.4,0.7,1.9,0.5,2.2,1.4c-2.7,0.3-2.3,0.9-3.3,2.3c-1.1,1.6-4.1,0.8-5.5,2.2c-1.2,1.3-2.2,3.4-3.8,4.7
		c-0.2,0.1-0.8,0.7-1.4,1.2c-1.1,0.8-2.3,1-3.1,2c-1.1,1.2-1.3,1.6-1.5,3.5c-0.2,2.3-1.6,2.8-3.2,4.8c-1,1.1-2.5,1.5-4.1,1.7
		c-1.2,0.2-0.5,0.6-0.7,1.8c-0.3,1.5-1,2.8-1.5,4.2c-0.7,2.1-1.8,2.8-4,2.6c-1.9-0.2-1.7,1.2-4.2,0.7c-1-0.2-3.4-1.3-4.2-1.4
		c-1.2-0.1-2-0.9-2.8-1.7c-1.1-1.3-4-2.3-5.5-0.4c-1.4,1.8-0.8,3.7-2,5.6c-0.6,0.9-1.5,1.5-2.4,2.1c-1,0.7-1.3,1.9-2.2,2.7
		c-0.7,0.6-1.2,0.3-2,0.6c-0.2,0.2-0.3,0.5-0.2,0.8c-0.3,0.8-1.5,1-2.2,1c-1.1-0.1-1.7-0.3-2.8-0.4c-1-0.1-1.8-0.5-3.1,0.6
		c-1.8-3.5,2-5,0.6-9.7c-0.5-1.8-1.2-3.8-2.1-5.4C1423.8,975.8,1422.3,975.1,1421.3,973.8"/>
	<path id="ke" class="st0" d="M1530.8,768.6c1.5-1.1-2.3-5.7,3-4.6c0-0.3,0.3-0.9,0-1.4l3.1-0.4c-2.1-3.1-3-0.7-4,0.2
		c-0.8,0.7-2.9-2.5-2.8-4.5c0.8-1.4,0.3-2.1,1.8-3.5c1.1-1,2-4.3,3.8-5.1c0.9-0.4,0.7-0.5,0.7-1.3c-0.1-1.2,1.3-1.7,1.6-2.8
		c0.4-1.2,0.5-2.4,0.6-3.7c0.1-1.1-1-1.9-1.2-3.1c-0.5-2.8-2.2-3.4-2.5-4.6c-0.2-1-0.7-1.8-1.1-2.7c-0.2-0.4-0.3-0.8-0.4-1.3
		c0-0.6,0.7-1,0.5-1.6c-0.2-0.6-0.8-0.7-1.3-0.9c-1.1-0.4-0.3-1.3-1.5-1.2c0.5-1.1-0.9-2.2-0.8-3c0.1-0.8,1.1-1.4,1.6-2
		c1.9-2,4.1-1.4,6.6-1.4c1.4,0,2.8-0.1,4.2-0.1c0.7,0,1.4,0,2.1,0.1c0.6,0.1,0.8,1.1,1.5,1.4c2.2,0.8,4.6-0.2,6.8,0.8
		c2.3,1.1,4.8,3.1,6.6,4.8c0.9,0.9,1.7,1.5,3,1.7c0.9,0.1,2.8-0.4,3.5,0c1.9,1.2,4.8,0.1,6.5,1.7c0.2-1.1,1.8-2.8,2.5-3.8
		c1.2-1.7,3.9-2.4,5.8-3.3c2-0.9,2.3,1.2,3.8,2.1c1,0.6,2.1,0.2,3.2,0c0.8-0.2,1.9,0.4,2.7,0c-1.2,2.1-2.4,4.4-3.8,6.3
		c-1.6,2-3,3.2-3,5.9c0,6.4,0.1,12.9,0.1,19.3c0,4.8-1,9.4,2.3,13.4c1.1,1.3,2.8,3.1,1.6,4.8c-0.7,1-2.8,2.9-4.1,1.7
		c-0.1,0.3-0.2,0.5-0.3,0.8c-0.2-0.2-0.4-0.5-0.6-0.8c0.3,0.8,1.2,2.2,0.4,3c-0.1-2-0.9,0.3-1.1,0.7c-0.4,0.9-1.2,1.1-2.1,1.2
		c-2,0.3-2.8,2-2.1,3.7c0.3,0.8-1.1,2.9-1.7,3.4c-1,0.8-1.8,6.1-2.9,5.6c0.5,2.1-1.6,3.5-1.9,5.4c-0.8-0.6-0.7,0.5-1.4,0.3
		c-0.9-0.2-2-1.7-2.7-2.3c-3-2.3-6.8-4.8-8.6-7.3c-0.5-0.7-1.4-0.8-0.4-1.9c1.4-1.6-1.1-3.5-2.4-4.3L1530.8,768.6"/>
	<g id="sl" transform="translate(-29.9017, -45.0745)">
		<path id="path2896" class="st2" d="M1202.4,738.7c-0.1,0.2-0.1,0.3-0.2,0.5c1,0.3,1.9,0.7,2.9,0.9c0.2-0.4,0.3-0.9-0.1-1.2
			C1204.3,738.4,1203.2,738.8,1202.4,738.7"/>
		<path id="path2902" class="st3" d="M1199.4,726.5c0.6-0.6,1.4-0.1,2.1-0.5c0.7-0.4,0.5-1.6,1.3-1.8c1.3-0.4,2.2-3,2.6-4.1
			c0.7-1.9,2.8-0.5,4.2-1.5c1.2-0.8,4.7-0.9,5.9,0c1.2,0.9,1.8,2.4,2.5,3.6c0.4,0.6,0.8,1.3,1.1,2c0.2,0.5-0.4,1.2,0,1.5
			c0.4,0.5,0.9,0.4,1,1.1c0,0.6-0.2,1.7,0.3,2.1c0.6,0.7-1.5,2.9-1.4,4.1c0.2-0.4,1.8-1.2,2.2-1.4c1.5-0.9,1.2,0.3,0.9,1.4
			c-0.4,1.3-2.3,0.9-2.4,2.8c-0.2,1.8-0.2,1.7-1.2,2.7c-0.8,0.8-1.5,1.6-2.7,2.5c-1.5,1.1-2.2,3.9-2.8,3.7c-0.7-0.2-6.5-3.3-7.5-4.1
			c1.6,0.5,0.3-0.3-0.1-0.6c0.7-0.5,1.6-0.5,2.2-1.1c-1.3,0.2-3.3,0.4-2.2-1.6c-0.9,2-2-0.2-2.7-0.1c-0.5,0.1-1-3.5-1-3.9
			c-1.1,0.3-2.8-0.7-2-2.1c0.5,0.4,1,0.7,1.5,1c-1.3-0.6,0.6-1.7,1.3-1.7c-0.3-0.5-0.2-0.4-0.1-0.9c-0.6,1.3-1.3,0.6-2.1,0.1
			c-0.1,0.3-0.2,0.5-0.3,0.8c-0.9-1.6-0.2-2.2,1.2-2.5C1200.9,727.3,1199.8,727.4,1199.4,726.5"/>
	</g>
	<path id="ml" class="st0" d="M1178.5,631.8c1.4-0.3,2,0.4,3.1-1c0.9-1.2,0.5-3.7,1-5.2c1-3.4,5.7,2.2,6.2,3.3
		c0.9-2.5,2.4-3.8,5.2-2.7c1.9,0.8,5.8,0.6,6.2-1.9c1.1,2.6,6.3,1.4,8.3,1.3c5-0.4,10.1-0.1,15.1-0.1c1.8,0,3.9-0.2,5.7,0
		c1.3,0.1,0.9-2,1-3.1c0.1-1.2,1.3-3.6,0.1-4.5c-2.2-1.4-1.6-2.7-1.6-4.5l-5.2-70.1l13.2,0c13.7,10.3,26.5,20.5,39.5,30.7
		c1.6,1.1,4.5,2.3,4.3,4.6c-0.1,0.7-0.2,1.4,1.1,1.9c0.6,0.3,1.3,0.4,1.9,0.8c0.9,0.6,0.8,1.7,1.5,2.4c0.7,0.7,1.4,0.8,2.3,0.9
		c0.6,0.1,0.2-0.6,1.3,0c0.8,0.4,1.2,1.5,2.1,1.8c1.5,0.5,3.4,0.6,4.8,1.4c1,0.6,0.7,3.4,0.3,4.3c-0.6,1.3-1.4,2.6,0.7,2.9
		c2.3,0.3,4.8-0.9,7-1.2c-0.3,6.1,0.6,12.7-0.2,18.8c-0.1,0.7,0.1,1.2-0.4,4.5c-0.2,1.1,0.2-0.3-1.3,2.9c-0.5,1-0.4,2.2-0.9,3.2
		c-0.4,1-1.4,1.3-2.1,1.9c-1,0.7-0.3,1.7-1.6,1.5c-0.3-0.1-2.9-0.8-3-0.3c-0.3,1.2-8.5,0.8-9.8,0.9c-3,0.2-3-0.1-5.1,2.2
		c-0.7,0.7-2,1-2.9,0.8c-0.5-0.1-1.8-0.1-2.4-0.1c-1,0-0.9-0.8-0.9,0.5c-0.7-0.3-1.4-0.6-2.1-0.9c-1.7-0.7-2.1,0.5-2.8,0
		c-0.6-0.5-1.7-1.1-3.1,0.2c-1.5,1.3-3.6,2.4-4.5,3c-1.4,0.9-2.5,1.7-3.9,2.1c-1.2,0.3-0.2,2.8-2,2c-1.1-0.5-2.1-1.1-3.2-0.3
		c-1,0.7-1.5,1.9-1.9,3c-0.2,0.6-0.5,1.6-0.8,2.2c-0.2-0.2-1.8-0.6-2.5-0.7c0.6,1,0,2.5,0.1,3.6c-1,0-1.8-0.2-1.5,1
		c-1-0.1-4-1.6-4-2.9c-1.9,4.5-3.3,2.4-2.3,4c0.5,0.9,0.6,1.6,0.3,2.3c-0.1,0.3-2.4-0.1-1.8,0.9c1,1.8,0.6,3.7-1.4,5.3
		c-0.9,0.8-2,0.5-3.1,0.7c-1,0.2-1.6,1.3-2.7,1.3c2,0.5,0.5,1.5,1.2,1.9c1,0.6,0.2,3.2-0.4,4.2c-0.2,0.3-1.3,0.4-1.2,0.7
		c0.3,1.5,0.5,3.4-0.5,4.7c-0.4,0.5-1.6,0.5-2.2,0.7c-1.2,0.3-0.6,2-2.2,1.8c-1.7-0.2-0.6-3.6-1.2-4.7c-0.7,0.3-0.8,1.5-1.4,1.7
		c-0.7,0.2-1.2-0.7-1.7-1c0,0.8,0.4,2.9-0.8,2.9c-0.9,0-2.2,0.1-1.5,1.3c-1.1,0.5-4-0.9-3.8-2.3c-0.6,0.3-1.5,0-2,0.5
		c-0.7,0.8-0.6,1.8-2,2c1-1.9-2.4-2.2-2.4-3.8c0-1,0.3-2.2,0-3.2c-0.3-1.4-2.3,0.2-2.9,0.2c0.3-0.9,1-3.4,2.4-2.9
		c0.5-1.4-2.4-1.9-2.5-3.2c-0.9,0.5-0.8-0.5-0.7-1.1c0.2-1.3-0.3-1.8-0.9-2.9c-0.4-0.9,0.1-2.1-0.9-2.6c-0.4-0.2-1.8-1-2.2-0.6
		c-0.5,0.4,1,1.5,0,2c-1.1,0.5-2,1.4-3.1,2c-0.8,0.4-1.6-0.7-2.3-1c-1.4-0.6-2.4-0.5-3.4,0.7c-2.4,2.9-1.1-0.6-3.2-1.3
		c-1.4-0.5-2.8,3.9-4.2,0.5c-0.4-1.1,1.4-2.1,0.5-3.3c-0.5-0.7-0.1-2.4,0.2-3.1c0.3-0.9-2.3-5.8-2.9-3.7c-0.6-0.2-1.6-2.1-1.9-2.7
		c-0.2-0.5,0.6-1.6,0.5-2.6c0-1.6,0.1-2.2-1-3.5c-0.4-0.4-0.8-0.9-0.5-1.6C1179.3,632.8,1179,632.8,1178.5,631.8"/>
	<path id="cd" class="st0" d="M1363.8,809.5c0.7-0.5,1.5-0.1,1.8-1c0.2-0.8,0.8-3.7,0.3-4.3c-1.4-1.6,4-4,5-4.9c0.3,1.1,2,1.3,2,2.5
		c0.5-0.6,1.2-0.9,1.8-1.4c0.8-0.7,0.5-1.8,1.2-2.6c1.2,1.6,3-1.5,4.4-0.7c1.4,0.7,0.1,1-0.1,1.8c-0.2,1,0.4,2,0.4,2.9
		c0.6-0.8,1.9,0.2,2.7-0.4c1.2-0.8,1.9-2.4,2.8-3.5c0.5-0.6,2.4-1.5,2.5-2c0.3-1.4,1.4-1.7,2.6-2.2c2.7-1.1,3.1-6.1,3.1-8.5
		c0-1.8,0.1-3.5-0.1-5.3c-0.2-1.7,2-2.2,2.7-3.6c1.7-3.2,1.6-5.3,5.1-7.7c1.5-1,2.4-2.2,3.4-3.6c1-1.4,0.3-3.4,0.7-5
		c0.4-1.4,1-7.4,1.1-8.9c0.1-1.8,1.1-3.3,1.4-5c0.3-1.7-0.2-3.4,0.2-5.1c0.7-3.1,2.6-5.7,3.6-8.6c0.6-1.7,0.3-3.5,0.3-5.3
		c0-0.8,0.4-1.7,0.2-2.4c-0.1-0.7-0.5-1.3-0.7-2c-0.3-1.1,1.6-1,2-2c0.6-1.4,1.2-2.5,2.3-3.6c1-1.1,2.2-2,3.7-1.9
		c1.3,0,1.8,1.1,2.6,1.3c1.9,0.4,3.7,2.5,4.4,4.2c0.6,1.4,2.6,0.4,3.8,0.7c0.6,0.2,0.9,1,1.7,1c0.6,0,0.8-0.1,1.4,0.2
		c1,0.5,1.2,0,2.2-0.1c0.7,0,1.4,0.3,2,0.5c1.1,0.4,2.5,1.2,3.7,0.8c2.1-0.7,1.5-5.7,4.2-5.9c1.6-0.1,2,3.1,4.1,1.2
		c0.9-0.8,6.9-1.6,6.6-3.6c1.3-0.1,1.7,1.7,2.9,1.5c1.4-0.1,3.9-0.4,4.5-1.9c0.2-0.6-0.4-1.2,0.4-1.5c0.9-0.5,1.7-0.2,2.4,0.5
		c1.2,1.1,2.2-0.2,3.5,0.4c0.6,0.3,1.2,0.8,1.8,1.1c0.7,0.4,1.2,0.1,2,0.2c1.8,0.3,2.5-1.8,4.5-0.7c0.7,0.4,3.3,2,3.3,3
		c0,0.5,0.6,1.6,1.1,1.8c1.9,0.8,3.7,3.6,5.7,1.7c1.1-1.1,2-1.3,3.5-0.6c1.6,0.8,2.2,0.5,3.1-1.4c1.2-2.4,4.3,3.6,4.5,4
		c0.7,1.8,5.5,2,4,4.7c0.9-0.2,2-0.3,2.3,0.9c0.1,0.3,0.3,0.6,0.5,0.9c0.1,0.6-0.7,1.7-0.6,2.4c0.3,2-0.1,4-0.3,5.9
		c-0.2,1,0.6,0.9,1.7,0.7c0.5-0.1,2.5,1.3,2.1,2.4c-0.9,2.6-4.1,5.2-6,7.2c-0.6,0.6-1.9,2.4-2.6,3c-0.8,0.6-0.8,0.1-1.3,0.9
		c-0.5,1,0.1,2.3-0.5,3.4c-0.7,1.2-1.4,2.9-1.6,4.3c-0.1,1.2-0.1,2.5-0.2,3.7c-0.1,1.5-0.3,2.7-0.4,4.1c-0.1,1,0.2,2.4-0.3,3.3
		c-0.5,1.1-1.4,1.4-2.1,2.3c-1.2,1.3-1.1,1.7-1.1,3.3c0,1-1.1,2.2-1.7,2.9c-1.2,1.6,0.5,3.3,1.4,4.8c0.7,1.2,1.2,2,0.7,3.5
		c-1.9,1.7,0.4,6.9-1.4,8.7c1.3,0.8,1.1-2.6,1.5-2.1c0.5,2.7-1.2,4.6-1.2,7.2c0,3.4,2.8,5,1.6,7.3c-0.7,1.4-1.4,1.7-0.8,2.5
		c0.9,1.3,1.3,3.5,3.1,7c1.2,2.3,4.6,1.9,4.8,7.5c0.1,2.2,1.8,1,2.5,4.4c-4.7,1.1-8.2,1.2-12.9,2.2c2,3.2-3.1,4.6-4,7
		c2.7,0.8,1.8,5,1.6,7.1c-0.1,1.5,0.4,2.9,0.3,4.4c0,0.8-0.2,1.5-0.5,2.2c-0.4,1-0.8,1.7-1,2.7c-0.5,2-1.2,3.2,0.1,5.1
		c0.9,1.4,2.5,3,3.7,4.2c0.5,0.5,3.3,2.2,3.5,1.2c0.4-1.8,0.9-1.5,2.7-2c0,2.9-0.1,5.8-0.2,8.7c0,0.4,0.3,2.4-0.4,2.4
		c-0.9,0.1-1.1-0.9-0.5-1.4c-1.3-1.6-4.2,3.4-5.6,0.4c-0.5-1-0.9-2.3-1.6-3.2c-0.4-0.5-1.4-1.2-1.5-1.8c-0.2-1.2-0.5-2.6-2-2.6
		c-1.2,0-1.8-1.3-3-1.5c-1-0.1-1.6,0.6-2.3-0.5c-0.5-0.9-0.6-2.1-1.3-2.8c-1.1-1-1.9-4.5-2.9-1.4c-1,3.2-2.8,1.5-5.3,1.6
		c-1.7,0.1-2.1-0.5-3.5-1.1c-0.1,0-1.6-0.4-1.6-0.4c-2.3,0.4-3-3.1-2.2-4.6c-1.4,0.1-2.8,0.4-4.1,0.9c-1.6,0.6-1.9,1.4-3.7,0.7
		c0.7-1.2,0.7-2.9,0.1-2.8c-0.8,0-1.1-0.6-1.6-1.1c-1.3-1.2-1.1,0.2-1.4,0.3c-1.1,0.4-1.6,0.3-2.6,0.1c-1.2-0.3-2,0.5-3,0.9
		c-1.4,0.5-2.2-0.4-3.1-0.3c-0.3,0.1-1.6-0.1-1.6-0.1c-0.9,0.5-1.3,1.8-2.5,1.7c0.3-0.9-0.3-1.6-0.4-2.4c-0.2-1.1,0.6-1.4,0.8-2.2
		c0.6-2-0.2-5.6-1.5-7.2c-1.5-2-2.2-3.3-2-5.9c0.2-2.7,1.1-5.5,0.4-8.2c-0.3-1-1-1.9-1-3c0-1.2,0.7-2.4,0.8-3.6
		c0.2-2-1.1-1.8-2.8-1.8c-1.5,0-3.1,0-4.6,0c-3.2,0.1-2.7-0.6-1.8-3.2c-0.7,0-1.4-0.2-2.1,0.1c-0.5,0.2-0.1,0.4-0.4,0.6
		c-0.8,0.7-4.7,0.1-5.8,0.1c0.4,0.9-0.3,2.1-0.2,3.1c0.1,0.8,0.2,2.1-1.1,1.8c0.4,1.2-0.3,2.5-0.1,3.7c-0.5,0-4,0.1-4.5-0.2
		c-1.6-1-4.5,0.8-5.1,0.9c-1.3-0.2-2.5-0.2-4-0.1c-1.8-0.4-2.6-4.2-3.5-5.5c-0.3-0.5-0.6-0.8-0.9-1.3c-0.6-0.9-0.3-1.5-0.5-2.4
		c-0.2-1.6-1.9-2.7-1.7-4.5c0.2-1.6,0-2.9-0.7-3.8c-1-1.3-1-1.7-2.6-1.7c-4.4,0.2-8.7,0.4-13.1,0.1c-3.5-0.2-7.7,0.4-11.2-0.3
		C1367.7,809.5,1365.4,813.7,1363.8,809.5"/>
	<path id="so" class="st0" d="M1583.7,739.5c0-1.4-0.4-3.4,0.2-4.7c0.6-1.3,1.8-2.2,2.6-3.4c1.6-2.3,3-6.3,5.4-7.8
		c2.2-1.3,4.8-0.5,6.7-2.5c2.2-2.3,4.3-3.9,7.6-4.4c2.5-0.4,6.8,1.4,8.5-0.9l21.7-25.6c-2.6,0-5.3,0.4-7.9-0.2
		c-2.9-0.8-5.7-2.2-8.5-3.2c-2.9-1.1-5.8-2.2-8.7-3.3c-2.7-1-5-1.7-7.1-3.8c-0.7-0.7-0.9-1.1-1.9-1.3c-1-0.3-1.4-1.8-1.8-2.6
		c-0.8-1.4-1.3-2.5-2.4-3.6c-1.3-1.4-2.8-3.3-2.2-5.4c0.7-2.3,2.7-4.4,3.6-6.7c2.4,1.3,3.7,4.5,5.4,6.6c2.1,2.6,5.2,3.3,8.4,2.3
		c1.2-0.4,2.8-1.5,3.8-2.2c1.8-1.4,2.4-1.1,4.6-0.8c2.3,0.4,3.4,0.9,5.6-0.5c1.1-0.7,3.6-3.2,5-2.7c1.6,0.6,2.6,0.6,4.3,0
		c1-0.3,2-0.9,3-1.1c1.2-0.3,2,0.3,3.2,0.4c1.9,0.2,3.3-0.9,4.9-1.6c1.7-0.7,3.6-0.4,5.3-1.3c1.4-0.7,1.6-2.6,2.8-3.2
		c1.2-0.6,5,0.4,4.5,2.1c-0.6,2.2-1,3.5-0.6,5.8c0.3,1.6,0.7,3.9-0.7,5.2c0.9,0.4,1.7,0.1,1.5-0.9c0.5,0.3,1,0.5,1.5,0.6
		c-0.3,1.6-3.8-0.6-3.8,2.1c0,2.2,0.2,4.5-0.4,6.7c-0.5,1.9-1.6,3.3-2.7,4.9c-1.2,1.8-1.1,4.5-2.6,6.3c-0.6,0.7-1.4,0.9-1.8,1.8
		c-0.4,0.9-0.1,1.9-0.4,2.9c-0.8,2.2-2.3,3.9-3.4,5.9c-1.4,2.6-1.5,5.6-2.7,8.3c-1.1,2.8-2.9,5.2-4.5,7.7c-1.6,2.4-2.6,5.2-4.4,7.5
		c-2,2.5-4,5-6.1,7.5c-4.1,5-8.3,9.1-13.8,12.6c-2.3,1.5-4.6,3-6.5,5c-2.2,2.2-4.6,4.4-6.6,6.8c-1.9,2.4-4,4.6-5.9,7
		c-0.9,1.2-1.7,2.4-2.6,3.6c-0.6,0.7-2.2,3.3-2.5,1.8c0,2.5-1.6,4.9-3.1,6.7c0.1-1.9-1.7-3.5-3.1-5.5c-1.5-2.2-1.3-3.7-1.3-6.2
		C1583.5,754.7,1583.7,747.2,1583.7,739.5"/>
	<g id="gw" transform="translate(-29.9017, -45.0745)">
		<path id="path3430" class="st1" d="M1176.9,705.3c0-0.2,0-0.4-0.1-0.6c-0.3,0.2-0.5,0.3-0.7,0.6
			C1176.4,705.3,1176.6,705.3,1176.9,705.3"/>
		<path id="path3432" class="st1" d="M1177.3,702.2c0.7-0.3,0.6-0.6-0.3-0.7C1177.2,701.7,1177.3,702,1177.3,702.2"/>
		<path id="path3434" class="st1" d="M1178,709.3c0.3-0.2,0.6-0.4,0.9-0.5C1178.3,707.6,1176.8,708.4,1178,709.3"/>
		<path id="path3436" class="st1" d="M1179.2,701.8c-0.4,0-0.7,0.1-1.1,0.1C1178.2,703,1179.5,702.8,1179.2,701.8"/>
		<path id="path3438" class="st1" d="M1179.1,705c-0.1,0.2-0.2,0.5-0.3,0.7c0.6,0.3,1,0,1.1-0.6C1179.7,705,1179.4,705,1179.1,705"
			/>
		<path id="path3440" class="st1" d="M1181,708c0.4-0.3,0.7-0.7,0.8-1.2C1181.3,707,1180.9,707.5,1181,708"/>
		<path id="path3442" class="st1" d="M1184.5,708.2c0.2-0.7,0-0.9-0.7-0.6C1184.1,707.8,1184.3,708,1184.5,708.2"/>
		<path id="path3444" class="st0" d="M1174,698c0.7-0.5,1.6-0.1,2.4-0.5c0.8-0.4,1.6-0.8,2.5-0.8c1.9-0.1,3.7,0.5,5.3-0.9
			c1.4-1.2,3.2-0.9,4.9-0.9c2.6,0,5.2,0,7.8,0c-0.2,1,0.9,2.2,0,3.1c-0.5,0.5-1.8,0.4-2,1.1c-0.3,1,3.4,1.9,1.6,3.9
			c-1,1.1-2.3,0.5-3.5,0.7c-1.1,0.2-2.5,1.1-3.6,1.4c-2,0.6-1,4.1-3.1,4.8c-0.5-1.9-0.8-2.1-2.4-3c0.2-0.3,0.3-0.5,0.5-0.8
			c-1.4,1.1-0.1-3.4,2-1.7c-0.5-1.4-1.8-0.5-2.5,0.1c-0.7-1.3-0.8-2.1,0.7-2.7c1.3-0.5,1.8,0.9,3,0.9c-0.7-0.3-1-1.1-0.4-1.7
			c-0.5-0.2-0.9-0.1-1.4,0.2c-0.7,0.4-1.3-0.1-2,0c-0.7,0.1-1.2,0.7-1.7,1.1c-0.7,0.5-1.6,0.5-2.4,0.6c0.1-1.3,1.1-1.7,2-2.4
			c-1.2-0.1-2.2,1.2-3.5,0.9c-2.4-0.5-0.9-2.6,0.3-3.4c-0.5,0-0.9,0.1-1.4,0.2c-0.2,0.3-0.5,0.6-0.8,0.8
			C1175.4,699.2,1174.9,698.2,1174,698"/>
	</g>
	<path id="gh" class="st0" d="M1246.5,705.5c-0.5-2.5-0.6-4.4,0.5-6.7c0.9-2,0.4-2.7,1.1-4.7c0.5-1.5,2.5-3.5,3.1-4.8
		c0.8-1.7,0.2-4.3-0.4-6.1c-0.2-0.7-0.5-1.2-0.8-1.8c-0.3-0.7,0.2-1.5,0.2-2.2c0.1-1.7-0.7-2.9-0.3-4.5c0.4-1.7-0.3-3.6-0.7-5.3
		c-0.2-0.8-1-1.7-0.5-2.5c0.4-0.7,0.9-1.6,0.7-2.4c4.2,0.4,8.1-0.3,12.5,0c0.9,0.1,3.6-0.2,3.8,0.3c0.4,1,2-0.6,2.8-1.2
		c0.8-0.6,3.2-0.1,2.7,1c-0.8,1.6-1,3.3,1.4,5c1.9,1.5,0.8,0.9,1.2,2.4c0.2,0.7,0.3,0.7,0.2,1.5c-0.1,0.9-0.1,2.2-0.3,3.3
		c-1.1-0.2-0.6,0.6-1.1,1.2c0.6,0.1,1.1-0.6,1.7-0.5c0.9,0.2,0.9,1.5,0.7,2.2c-0.4,1.2,0.5,4.4-1.2,4.1c0.4,1.1,1.5,1.7,2.2,2.6
		c0.8,1.1,0.1,1.4-0.3,2.4c-0.5,1.2,0.5,2.9-0.2,4c-0.8,1.4-0.9,2.1,0.2,3.3c0.5,0.6-0.1,2-0.3,2.6c-0.6,1.6-0.8,2.2,0.1,3.8
		c0.6,1,1.7,1.8,2.6,2.5c0.2,0.2,1.8,1.1,1.8,1.2c0.2,0.8-1.1,1.2-1.3,1.9c-0.3,0.9-0.9,1.7-2.1,1.6c-0.6-0.1-0.8-1.5-1.2-1.9
		c-0.7-0.9-2-0.6-3-1c0.8,0.6,2.1,0.2,2.9,0.9c1.7,1.2-0.9,2-1.7,2.1c-3.1,0.6-5.1,2.3-7.7,3.9c-1.5,0.9-3.2,0.9-4.7,1.5
		c-1,0.4-2.1,0.6-2.9,1.3c-0.7,0.6-1.3,1.3-2,1.7c-0.8,0.4-1.5,0.3-2.1-0.4c-0.8-0.9-1.7-1-2.8-1.3c-1.1-0.3-2.1-0.1-2.8-1.2
		c0.9,0,0.5-0.2,1.4-0.1c-0.4-1.2,1-5.1-1.6-4.4C1249.1,709.4,1247.4,706.7,1246.5,705.5"/>
	<path id="ug" class="st0" d="M1496.5,769.6c0.5-1.4,0.3-3.2,0.5-4.6c0.3-1.8,0.4-3.6,0.7-5.4c0.3-2.2,1.6-3.5,1.8-4.6
		c0.1-0.7-0.1-1.4,0-2.1c0.2-1.1,1.3-0.8,1.8-1.6c1.6-2.5,4-4.2,6.1-6.4c0.8-0.8,1.9-2.3,2.3-3.4c0.3-0.9-1.5-1.9-2.1-2.3
		c-0.5-0.3-1.4,0.6-1.8-0.3c-0.3-0.7-0.1-1.7,0.1-2.4c0.4-2.2-0.4-3.9,0.7-5.9c0.3-0.6-0.5-0.7-0.3-1.4c0.2-0.7,0.8-1.2,1.3-1.6
		c0.5-0.4,1.1-0.8,1.8-0.7c0.6,0.1,1.6,1.3,2.2,1c0.7-0.3,1.7-1.6,2.5-0.6c0.8,1.1,1,1.4,2.4,1.9c-0.8-1.3,1.4-1.8,2.4-2
		c1.3-0.2,2.7-1.2,3.9-1c1.7,0.2,2.2,1.7,4.1,0.4c1.3-0.9,2.2-2.3,3.3-3.5c0.6,0.8,1.2,1.9,0.9,3c1.2-0.1,0.4,0.7,1.5,1.1
		c1.2,0.3,1.6,0.6,1.1,2.1c-0.6,1.9,1.3,4,2.3,6.3c0.2,0.5,1.4,2,1.3,2.4c0,0.8,0.9,2.1,1.1,2.9c0.4,1.4,0,3.4-0.6,4.8
		c-0.5,1.2-1.5,1.4-1.3,2.8c0.1,0.7-1.1,1.2-1.6,1.5c-1.1,0.5-1.1,2-1.8,3c-0.5,0.8-1.3,1.2-1.6,2c-0.4,1.1-0.9,1.9-1.4,3
		c-0.5,0-2.3,0.6-2-1c-1.2,0.4-0.8,0.8-1.3,0.8c-1.4,0.2-1.4-0.6-0.4-0.6c-0.3-0.6-1.2-1.3-0.9-1.7c-0.8,0.3-0.3,0.1-1.4,0.5
		l0.3,0.6c-0.9,0.3-0.2,1.2-1.4,1.1c0.2,1.9-2.6,0.9-3,1c-0.1,0,0.1-1.7-0.1-1.4c-1.4,3.2-1.8,1.5-2.1,1.6c0,0.7-0.5,0.7-1.6,0.8
		c-0.5,0.8-1.8,0.8-1.7,1c1,2.6-1.1,3-1.5,4.9c-0.3,1.6,0.3,1.7,0.5,2.7c-7.2,0,1.6,0.3-5.6-0.2c-2.5-0.2-5.4,0.3-6.8,2.1
		c-0.5,0.6-1.2,2.4-2.1,1.8c-0.2-0.2-0.4-1-0.8-1c-0.7,0.1-1.8,0.8-2.1,1.1C1496.4,771.4,1497.3,770.3,1496.5,769.6"/>
	<g id="mz" transform="translate(-28.7126, 62.0078)">
		<path id="path3382" class="st1" d="M1566.1,886.1c0.3-0.7,0.4-1.5,0.4-2.2C1566.2,884.5,1565.8,885.3,1566.1,886.1"/>
		<path id="path3384" class="st1" d="M1573.7,861c0.6-0.6,0.5-0.8-0.4-0.7C1573.4,860.5,1573.5,860.7,1573.7,861"/>
		<path id="path3462" class="st0" d="M1528.6,827.3c5.5-2.1,11.1-4.1,16.7-6.1c1.2-0.4,2.4-1,3.7-1.5c0.4-0.2,1.5-0.8,1.9-0.7
			l4.2,4.7c0-0.9,2-0.6,3-0.9c0.8-0.2,2-1,2.7-0.1c1.2,1.6,1.2,5.5,0.6,7.2c-0.8,2.2-2.7,4.3-1.5,6.6c0.3,0.5,0.1,1.2,0.5,1.7
			c0.4,0.6,1,0.9,1.4,1.5c0.7,1.1,1.9,2.2,2.9,3.1c1,0.8,0.9,1,0.3,2.1c-0.7,1.2,1.6,1.6,1.8,0c0.1-1.5-0.3-2.9-1.2-4.2
			c1.4-1,0.7-3.1,2.7-3.6c2.8-0.6,3-1.8,3.1-4.6c0-1-0.2-2.1-0.1-3.1c0.1-1.7,1-3.5,0.3-5.2c-0.7-1.6-2.2-3.2-3.2-4.7
			c-0.9-1.4-1.8-3-2.9-4.2c-0.8-0.9-0.5-0.1-1.3-0.9c-0.2-0.7,0.2-2.1-0.3-3.5c-0.6-1.8,0.5-2.9,0.2-3.7c-1.4-4.7-0.5-3.5-0.6-4.1
			c0.5-1.2,2.3-1,1.9-5.4c1.5,0.1,2.9,0.5,4.6,0c1-0.3,1.9-1.5,3-0.8c0.8,0.5,1.1,1.4,1.9,1.8c0.6,0.3,2.6,0.4,3.3,0.3
			c1.1-0.3,1.9-2.2,3.2-0.8c2.3,2.5,5.2-0.5,6.3-2.3c0.6-1,1.7-1.1,2.7-0.4c1.6,1,2,1,3.5-0.1c1.3-0.9,2.3-1.5,3.9-1.2
			c0.9,0.2,2.8-1.6,3.7-2c1.7-0.8,3.2-1.9,4.7-3.1c1.8-1.4,3,1,1.4,1.7c0.2,0.1,0.5,0.2,0.7,0.4c-0.7,0.9-0.3,2-0.7,3
			c-0.2,0.6-1.6,1.3-0.8,1.9c0.7,0.5,0.5,3.1,0.6,4.1c0.1,0.7,0.1,1.5,0.1,2.3c-0.1,1.1-0.5,0.9-0.1,1.9c0.1,0.4,0,0.7-0.1,1.1
			c-0.1,0.7,0.3,0.9,0.5,1.5c0.3,0.9-0.1,2.1-0.7,2.8c2,0.3-0.6,4.7,0.2,4.9c1.4,0.4,0,5,0.5,6.1c1.5-0.9-0.2,2,0.2,2.7
			c0.1-1.3,1.4-1.1,1.2,0.2c-0.2,1.4,0.1,2.3-1.3,3.1c0.3,0.2,0.5,0.4,0.8,0.6c-1.6-0.4-0.2,0.2-0.7,0.8c-0.3,0.4-0.8,0.5-1,1
			c1.6-0.6,0.2,2,0,2.5c-0.8,1.7-2.5,2.6-3.3,4.3c-0.8,1.7-2.1,2.6-3,4.2c-0.7,1.2-5.4,2.8-5.2,4.2c0.1,0.6-3.5,1.2-4.2,1.7
			c-0.6,0.4-1.3,0.7-2,0.9c-1.1,0.3-0.9-0.1-1.8,0.7c-1.2,1.1-2.8,1.6-4.3,2.3c-1.4,0.7-3.6,4.1-5.2,2.8c2.9,3.2-4.2,4.5-3.5,7.7
			c-0.6,0.1-1-0.3-1.2-0.9c0.1,1.1-0.9,2.6-0.8,1c-1.4,1.2-3,2-4.1,3.5c-1,1.3-1.9,2.5-3.1,3.7c-0.5,0.5-2.4,2.5-3.1,1.6
			c-0.4-0.5-1-2.4-2-1.8c1.7-0.1,1.1,2.1,1.5,2.6c0.3,0.5,0.3,1.3,0.1,1.8c-0.1,0.3-0.3,0.4-0.6,0.5c0.2,0.4,0.3,0.9,0.2,1.3
			c-0.2,2.3,0.6,1.6,1.7,3.1c0.7,0.8,0.8,1.8,0.8,2.9c0,0.4-0.3,3.5,0.2,1.6c-0.4,1.7,0.7,3.5,0.9,5.2c0.1,1,0.5,2.1,0.3,3.2
			c-0.1,0.9-0.5,1.9,0.4,2.5c0.2-1.1,0.1-2.1,0.9-3c0,0.3,0,2.8,0.4,0.7c-0.2,1.2-0.5,2.3-0.6,3.5c-0.1,1.1,0.7,2,0.5,3
			c-0.4,2.8-2.4,5.6-1.9,8.6c-0.3-1.6,0.9,0,1-1.4c1.1,1.8-1,4.6-2.1,5.8c-1.9,2.1-4.7,3.1-7.3,4c-2.9,1-5.9,2.1-8.5,3.8
			c-1.2,0.8-2.4,1.4-3.1,2.8c-0.6,1.1-0.9,2.4-2.3,2.6c1,0,2.6,3.5,3.4,1.4c-0.2,1.8,0.8,6.4-1.1,6.3l-4.5-0.2
			c0.1-1.5-0.8-3.1-0.6-4.3c0.2-1-0.3-1.9-0.9-2.7c-0.5-0.6-0.4-2.2,0.1-3.4c0.3-0.7,0.2-3.1,0.3-3.8c0.1-1.7,0.1-3.4,0.2-5.2
			c0.1-1.6-0.2-2.6-0.5-4.1c-0.4-2.2-1.9-4-2.3-6.2c-0.2-1-0.1-2.1-0.2-3.2c-0.3-1.5-0.6-2.9-1-4.4c-0.3-0.9-0.7-0.7-0.2-1.4
			c0.5-0.4,2-2.4,2.6-3c0.9-1,5.3-7,6.4-6.2c-1.1-1.5,0-2.3,0.4-3.8c0.2-0.9-0.7-2.2,0.3-2.8c1.4-0.8,1.8-2,2.5-3.4
			c0.3-0.6,0.5-1.1,0.7-1.8c0.4-1,0.1-1.8,0.1-2.9c-0.2,0.1-0.5,0.2-0.7,0.3c-0.5-1-0.9-2-0.7-2.6c0.2-0.7,1.1-1.3,0.8-2.2
			c-0.3-0.8-1.5-0.5-1.1-1.8c0.2-1,1.9-1.1,1.8-2.3c-0.2-2,1-1.3,0.9-2.6c-0.1-1.1-0.7-2.2-0.5-3.3c0.1-0.8,0.7-1.6,0.5-2.4
			c-0.4-1.6-0.3-2.6-0.2-4.3c0-0.5-0.3-0.9-0.4-1.5c-0.2-0.8,0.5-2.1,0.7-2.8c-1.1,0.3-1.6,0.3-2.2-0.8c-0.5-1-3.6-1.1-4.3-1.5
			c-2.4-1.4-4.8-2.9-7.4-3.6c-0.8-0.2-3.5-0.2-4.4-0.4c-1.5-0.4-0.9-2.8-1-3.9C1529.7,830.4,1528.5,829,1528.6,827.3"/>
		<path id="path3466" class="st1" d="M1600.8,838.9c0.2-0.2,0.5-0.3,0.7-0.5c0,0.4-0.1,0.8-0.2,1.2
			C1601.1,839.3,1601,839.1,1600.8,838.9"/>
	</g>
	<g id="mr" transform="translate(-29.9017, -45.0745)">
		<path id="path3878" class="st1" d="M1178.3,635c0.5-0.6,0.6-1.4,0.7-2.2C1178.3,633.4,1177.9,634.2,1178.3,635"/>
		<path id="path3882" class="st0" d="M1174,625c-0.2-1.4-0.1-2.3,0.5-3.7c0.2-0.4,0.7-1.3,1.6-1.3l27.9,0c1.4-0.7,0.4-6.9,0.3-9.3
			c-0.2-2.4-0.4-3.9,1.5-5.7c1.6-1.5,1.5-1.1,6.6-3.2l1.1-21.8l24.9-0.3l0.3-11.1c9.5,6.4,18.8,12.9,27.9,19.8c-4.4,0-8.8,0-13.2,0
			l5.4,72.9c0.4,1.2,1.7,1.7,1.8,2c0.7,1.9-0.2,2.4-0.3,3.8c-0.1,1.7-0.2,3.2-0.7,3.4l-15.9,0c-9,0.3-12.9,1.5-13.7-1.1
			c-0.4,2.4-4,2.8-5.7,2.1c-2.8-1.1-4.6-0.6-5.7,2.5c-0.6-1.1-1.6-2-2.6-2.9c-1.1-1.1-2.3-1.7-2.9-1.4c-2.3,1.3,0.9,7.7-4.7,7.2
			c0,0.1-1.5-1.1-1.9-1.9c-0.5-1-1.1-0.7-2.1-1.5c-1.1-0.9-1-2.4-1.8-2.9c-2.3-1.5-1.4-1.6-1.6-2.6c-0.3-1.3-1.6-2.9-2.2-2.9
			c-3.4,0-3.6-2.8-5.8-3.9c-1.1-0.5-2.1-0.8-3.6-0.9c-2.3-0.1-3.1,2.2-8.5,1.8c-1.1-0.1-1-0.8-1.9-0.6c-0.9,0.3-2,3.3-2.4,4.1
			c0-5.2,3.4-9.4,3.9-14.5c0.3-3.1-0.1-5.7-0.5-8.7c-0.1-1.1-0.1-2.3-0.8-3.2c-0.6-0.8-1.6-1.4-1.8-2.5c0.8,0.2,1.7-0.3,1.6-1.2
			c-0.5,0.1-1,0.6-1.2,1.1c0.2-1,1-1.8,1.5-2.7c0.3-0.6-0.1-1.5,0.2-1.9c1.6-1.8-0.8-5-1.4-6.7c-0.2,0.4-0.4,0.9-0.5,1.4
			c-1.6-1.2-1.2-3.7-2.8-4.9C1174.6,622.9,1174.3,623.9,1174,625"/>
	</g>
	<g id="ao" transform="translate(-29.9017, -45.0745)">
		<path id="path3888" class="st0" d="M1390,953.9c-0.1-3.5,0.8-7,0.4-10.6c-0.1-0.5-0.5-1.1-0.2-1.6c0.3-0.8,1.2-1.3,1.6-2.1
			c0.3-0.7,0.3-1.4,0.4-2.1c0.1-0.6,0.9-1.4,0.7-1.9c-0.4-1.1,1.1-4.2,1.4-5.5c0.4-1.8,0-3.8,1-5.4c0.7-1.1,0.3-3.3,1-4
			c0.8-0.7,2.1-2.3,2.6-3.2c0.8-1.4,0.3-3.7,2.6-3.9c1.6-0.1,1.8-1.4,2.6-2.8c1.9-3.3,2.4-8.5,1.6-12.1c-0.4-1.7-1.1-2.9-2-4.3
			c-1-1.5-1-2.7-1.6-4.2c-0.2-0.7-0.9-1.2-1-2c-0.1-0.9,0-1.8-0.4-2.7c-0.6-1.3-1.8-3,0-3.9c-0.5,0.4-0.8,0.9-0.8,1.5
			c0.4-0.7,0.8-1.5,1.4-2.1c0.5-0.5,1.2-0.4,1.3-1.2c0.2-2-0.2-3.7-1.1-5.4c-1.1-1.9-1.6-3.9-2.4-6c-0.4-0.9-0.3-1.9-0.6-2.8
			c-0.4-1.4-1.7-2.3-2.4-3.5c-0.6-1-2.6-4.4-0.8-4.9c0.8-0.2,1.6-0.3,2.5-0.4c1.2-0.2,1.7-1.2,3-1.3c5.9-0.6,11.8,0.1,17.8,0
			c2.2-0.1,4.6-0.2,6.8-0.1c2.1,0.1,1.7,1.5,2.6,2.9c0.4,0.6,0,2.3,0.2,3c0.3,1.4,1,2.6,1.5,3.9c0.4,1-0.2,1.9,0.6,2.8
			c0.9,1,1.1,1.7,1.7,2.8c0.3,0.7,1.9,4.1,2.9,3.8c0.6-0.2,3.7,0.1,3.7,0.1c-0.2-0.4,3.3-1.4,4-1.3c1.8,0.4,3.4,0.6,5.6,0.6
			c-0.3-1.3,0.5-2.5,0.1-3.7c1.1,0.2,1.2-0.8,1-1.6c-0.2-1.1,0.6-2.4,0.3-3.3c1.9,0,3.7,0,5.6,0c0.6,0,0.2-0.6,0.7-0.8
			c0.6-0.2,1.4,0,2,0c-0.4,2.1-1.5,3.2,1.1,3.2c2.3,0,4.6-0.1,6.9-0.1c1.9,0,1.6,1.9,1.1,3.2c-0.2,0.7-0.6,1.5-0.6,2.2
			c-0.1,1.2,1,2.4,1.2,3.7c0.5,2.5-0.5,5.4-0.7,7.9c-0.2,2.7,0.7,3.7,2.3,5.7c1.1,1.4,1.6,5.1,1.3,6.8c-0.1,0.6-0.7,1-0.9,1.6
			c-0.4,1.1,0.7,2.1,0.4,3.2c0.9,0,1.8-1.3,2.5-1.7c0.7-0.3,2.6,0.2,3.3,0.4c1.3,0.4,2.8-1.1,4.2-1c1.3,0.1,2.8,0.9,3.3-0.9
			c0.6,0.9,0.7,3.7,0.5,4.7c-0.3,1.4-0.2,2.8-0.6,4.1c-0.4,1.6,0.6,3.1,0.2,4.7c-0.4,1.6-1.6,2.9-0.2,4.5c-2.8,1.2-6.8,0.6-9.8,0.6
			c-1.5,0-3.3-0.4-4.8-0.2c-1.3,0.2-0.7,5.1-0.7,6.7c-0.2,4.2,0.1,7.2-0.1,10.4c-0.2,3.2,0,6.5-0.1,9.7c-0.1,3.3,2.2,4.2,4.1,6.5
			c2,2.5,4,5,6.8,6.8c-4.5,0.9-8.9,1.6-13.3,2.8c-1.8,0.5-2.4,0-4.1-0.2c-0.7-0.1-1.4,0.3-2,0.5c-1.1,0.4-2.1-0.2-3.2-0.5
			c-3.7-1-7.7-0.6-11.5-1.2c-1.6-0.3-2.5-1.7-3.2-2.9c-0.7-1.1-2.9-0.7-4.1-0.6c-9.3,0.4-18.9,0-28.2,0c-1.9,0-2.1-0.1-3.8-1.4
			c-1.7-1.3-3-2.9-5.2-1.9c-1.7,0.7-3.4,2.7-5.3,1.8C1392.1,952.5,1391.8,953.6,1390,953.9"/>
		<path id="path3890" class="st0" d="M1392.3,848c1.3-1,2.7-3.6,4.4-4c0.8-0.2,0.7-1.4,1.5-1.4c0.9,0,1.5,1.5,2.2,2
			c-1.5,1-2.9,2-4.2,3.3c-0.6,0.6-0.5,0.6-0.2,1.4c0.4,1,0.2,2.3,0.1,3.3c-0.1,1.5-2.9,2.6-2.9,0.7c0-1.1,0.6-1.3,0.2-2.5
			c-0.2-0.9-1.5-2.3-0.5-3.1C1392.7,847.9,1392.5,848,1392.3,848"/>
	</g>
	<path id="sd" class="st0" d="M1533,665.9c0.9-1.1,1.9,1.3,1.8,2.5c0.6-0.7,2.5-3.2,2.2-4.3c-0.3-0.9-0.4-2-0.2-2.9
		c0.5-1.7,0-4.1,1.5-5c1.5-0.9,2.1-4.1,3-5.6c0.9-1.5,2.1-0.4,3.5-0.6c1-0.1,0.5-3.3,0.5-4c0-1.9,1.4-3.3,1.7-5.1
		c0.4-2.2,0.6-4.7,0.4-6.9c-0.2-1.8-1-4.2-0.3-5.9c0.9-2.2,1.2-4.5,2.1-6.7c0.4-0.9,0.8-1.9,1-2.8c0.2-1-0.5-1.7-0.4-2.7
		c0.2-1,0.7-2.8,1.7-3.3c0.7-0.4,2.6-0.1,2.9-1c0.5-1.8,0.3-1.9,2.3-2.7c1.1-0.4,3.2-1.4,3.9-2.3c0.5-0.7,1.7-2.4,1.5-3.2
		c-0.2-1.3-2.4-0.9-2.5-2.2c-0.9,0.8-3.5-3.5-4.9-3.8c-2.4-0.4-3.2-5.1-3.3-7.1c-0.1-2.9-1-5.5-0.6-8.4c0.2-1.3-0.2-2.6-0.7-3.8
		c-0.7-1.6,0.7-2.4,1-0.8c-0.1-2.1-2.4-3.3-3-5.2c-0.7-2.3,0.3-3.2-1.8-4.7c-1.6-1.1-2.6-3.2-4.3-4.1c-1.9-1-3.4-1.7-3.9-4
		c-0.7,0.7-2.5,3.4-3.5,2.8c-1.4-0.7-1.9,1.1-2.2,2c-0.6,1.7-1.1,2.6-2.9,2.9c-1.8,0.3-2.2,0.7-2.5,2.5c-0.8,3.9-4.7,0.9-6.5-0.1
		c-1.6-0.9-4.4-0.3-6.2-0.2c-2.3,0.1-4.2,0.2-6.5-0.2c0.2-0.6-0.3-3.4-1.2-1.7c-0.9,1.8-2.6,1.7-4.5,1.7h-14.2h-29
		c0.2,5.7,0.3,11.5,0.4,17.3h-7.8c0.6,12.4,0.5,24.7,0.5,37.1c-1.2-0.4-2-0.8-3.3-0.2c-1,0.5-2-0.1-3,0.5c-2.4,1.2,0.1,3-1.4,5
		c-1.2,1.5-1.4,3.2-3.2,4.1c-1.1,0.6,0,3.3,0.6,4c-2.5,2-4.1,2.6-2.3,6c0.7,1.3-0.2,1.9-1.3,2.6c-1.1,0.8-1.3,1.8-1.8,3.1
		c1,2.6,2.8,0.1,4.5,1.1c1,0.6-0.4,1.5,0,2.3c0.5,0.9,0.1,3.3-0.2,4.3c0.3-0.1,1.2-1.4,1.5-1.5c0.8,1.3-0.6,2.7,0,4
		c0.6,1.3,2.3,1.4,2.8,2.3c0.8,1.4-0.9,2.6-0.3,3.9c0.6,1.4,1.7,2.4,2.7,3.4c1.9,1.9,2.9,3.2,2.9,5.9l-0.6,3l6-2.5l5.7-9.8l5.7-0.8
		l3.4,6.9l1.8,1l3.4-1l6.2-0.3l2.1,1.5l4.1,0.5l1.8-3.1h2.8l0.5-2.8l3.4-1.8l6.2,4.3l2.8-0.3l5.9-7.4l3.1-3.3l-2.3-6.9l7.7-2v11.2
		l6.2,4.9v4.9l4.6,4C1532.7,671.9,1531.8,667.3,1533,665.9L1533,665.9z"/>
	<path id="ss" class="st0" d="M1531,674.3c-0.6,1.8-0.6,3.7-0.5,5.5c0.2,2.3,1.2,6.5-2.3,6.9c-1.1,0.1-2.3-0.3-3.4-0.3
		c-1.7,0.1-1,0.9-1.3,2.3c-0.2,1.2-2.4,2.2-0.5,3.3c1.2,0.7,2.9-0.1,4.1,0.6c1.3,0.7,2.2,1.8,2.8,3.2c0.6,1.3,1.5,2.4,2.7,3.3
		c1,0.8,1.5,1.9,2.6,2.5c1.3,0.8,0.9,2.6,1.6,3.8c0.7,1.4,0.8,3,1.6,4.5c0.3,0.5,0.6,1.3,1.2,1.6c0.7,0.4,0.4,1.2,0.9,1.7
		c0.9-1.1,1.6-0.8,2.6-0.7c1.1,0.1,0.8,1,1.1,1.7c0.3,0.9-0.3,1.9-0.3,2.8c0,1.1,0.6,1.7,1.3,2.5c-3.6,0-8-0.6-11.4,0.2
		c-2.2,0.5-4.1,4-5.5,5.7c-0.3,0.3-1.3,1.8-1.8,1.6c-0.7-0.2-1.7,0.2-2.4-0.3c-0.6-0.4-0.9-0.7-1.6-0.5c-1.2,0.2-6.4,1-5.9,2.9
		c-1.4-0.5-1.5-1-2.3-2c-0.6-0.8-1.7,0.2-2.3,0.5c-1,0.4-1.6-0.7-2.5-0.9c-1.4-0.3-2.8,1.5-3.3,2.6c-0.2-1.3-1.3-1.3-2.3-1.1
		c1.1-2.5-2.7-3.2-3.9-4.5c-0.6-0.6-1.1-1.2-1.6-1.9c-0.5-0.7-0.4-1.5-1.2-2.2c-2.3-2-2.1,2.2-4,2c-1.9-0.2-2.2-2.3-4-0.5
		c-1.2,1.2-2,1.7-3.6,0.7c-0.4-0.3-1.1-0.8-1.3-1.3c-0.4-0.8-1.5-0.5-1.9-1.6c-0.4-1.1-0.9-1.8-1.9-2.4c-0.7-0.4-1.1-1.6-1.6-2.3
		c-0.7-0.9-0.4-2-0.5-3.1c-0.1-1.6-1.9-1.9-3-2.7c-1.2-0.9-2.8-1.2-2.8-2.7c0-0.7-0.9-1-1.2-1.5c-0.6-0.9,0.5-1.5,0.2-2.4
		c-0.3-0.7-1.5-1-1.9-1.6c-0.6-0.9-0.3-1.4-1.4-2c-2-1.2-4-2.1-5.6-3.8c-0.6-0.6,0.5-1.3,0.5-2c0-1-0.7-1.2-1.5-1.5
		c-0.9-0.4-0.9-1.2-1.5-1.8c-0.6-0.6-1.4-0.7-2.2-0.8c-1.1-0.2-3.6-0.1-3.6-1.7c0-0.5,0.7-1.7,0.4-2.1c-1-1.1-4.1-0.7-5.4-0.9
		c0.3-0.7,0.8-1.5,0.5-2.3c-0.3,0.1-0.6,0.3-0.8,0.4c-0.2-1.2,0.4-1.4,1-2.3l-0.1-1.8l5.6-2.8l5.8-9.9l5.7-0.8l3.4,7l1.8,1l3.4-1
		l6.2-0.3l2.1,1.5l4.2,0.5l1.8-3.1h2.9l0.5-2.8l3.4-1.8l6.2,4.4l2.9-0.3l6-7.5l3.1-3.4l-2.3-7l7.8-2.1v11.4l6.2,4.9v4.9l1.8,1
		L1531,674.3z"/>
	<path id="ne" class="st0" d="M1272.9,634.7c-1.1-1.3,0.2-3.5,0.1-5c1.3,0.4,2.8,0.3,4.2,0.3c1.6,0,2-0.8,2.9-1.9
		c1.1-1.3,2.4-1,4-1.1c2-0.2,4.1-0.3,6.1-0.4c1,0,1.9,0,2.9,0.1c1.9,0.2,0.1-0.6,1-0.8c1.4-0.4,3.3,1.6,3.9-0.1
		c0.5-1.4,2.2-1.6,2.8-2.9c0.6-1.3,0.6-2.7,1.3-4c1.5-2.7,1.2-5.7,1.3-8.8c0.2-4.4,0.1-8.8,0.1-13.2c0-2.7,0.2-3.4,2.9-4.1
		c2.4-0.6,4.9-0.7,7.3-1.3c2.8-0.7,4.7-3.5,6.7-5.4c2.9-2.8,5.7-5.9,8.9-8.4c6.5-5.1,13.8-9.7,20.8-14.1c3.3-2.1,6.4-4.4,9.7-6.5
		c3.1-2,7.2,0.1,10.5,0.9c2.9,0.8,5.2,2.6,7.1,4.8c0.8,0.9,1.1,1,2.1,0.3c1.5-1,3-1.8,4.6-2.7c0.7,3.8,1.3,7.6,1.6,11.4
		c0.1,1.5,1,2.6,1.8,3.8c0.5,0.7,0.9,1.5,1.2,2.3c0.3,0.7-0.5,1.3,0.1,2.1c0.8,0.9,2.2,1.7,2.6,3c0.4,1.6-1.3,3.2-1.5,4.7
		c-0.4,4.7-1.2,9.3-1.2,14c0,2-0.2,4-0.3,6c0,1.6,0.2,3.6-0.4,5.2c-0.5,1.3-1.8,2.5-2.7,3.6c-1.4,1.8-2.9,3.4-4.4,5.2
		c-2.3,2.9-4.3,6.2-5.6,9.7c-0.3,0.8-0.7,1.7-1.3,2.4c-0.3,0.3-0.8,0.2-1.1,0.6c-0.6,1.3,0.9,4.9,1.1,6.3c-0.7,0-1.6-0.2-2.2,0.2
		c-0.7,0.4-0.5,0.9-1.3,1.2c-1.7,0.7-2.9,1.4-4.1,2.7c-1.9,2-3.1,1.2-5.5,0.2c-2.8-1.1-5.3-1.3-8.2-1.4c-2.5-0.1-4.7,0.4-6.6,2.1
		c-0.7,0.6-1.1,1.3-1.6,2c-0.9,1.2-1.4,0.5-2.6,0.6c-2.9,0.3-4.2-1.2-6.6-2.2c-1.8-0.7-3.8-3.2-6-2.1c-0.8,0.4-1.4,1.1-2.2,1.6
		c-0.6,0.4-1.6-0.2-1.8,0.4c-1.1,2.4-3.1-0.6-3.5-1.6c-1.1-2.4-2.7-3.3-5.1-3.7c-1.4-0.2-2.4-1.4-3.8-1.5c-1.2-0.1-1.7,1.2-3.1,1.1
		c-2.4,0-4.6-0.2-6.3,1.7c-0.6,0.7-1.2,1-1.3,1.9c-0.1,1.5-0.2,2.7-1.1,4c-1.2,1.7-2.7,2.8-2.6,5c0,0.5-0.2,5.3-0.5,5.1
		c-1.4-0.8-4.5-6.2-6-6c-0.5,0.1-0.7,0.6-1.1,0.8c-0.6,0.2-1.8,0.1-2.1,0.6c-0.2,0.3,0.6,2.7,0.1,2.7c-0.5,0-1.7-2.1-1.9-2.5
		c-0.8-1.3-0.2-1.5,0.9-2c-0.3-0.7-0.4-1.7-1.1-2.2c-1.2-0.9-2,1-3.2,0.8c-2.3-0.4-6.2-4.1-5.1-6.6c0.7,0.5,1.3,0.5,2,0.1
		c-0.3-0.3-4.9-3.5-5-3.2c0.3-0.7-1.3-1.9-1.6-2.7C1273.9,636.9,1274.2,635.7,1272.9,634.7"/>
	<path id="zm" class="st0" d="M1437.6,899.5c0-8.2,0-16.4,0.1-24.6c0-0.9-0.3-2.7,0.9-2.9c1.1-0.2,2.4,0.1,3.5,0.1
		c3.6,0.1,7.5,0.7,11-0.4c-1.1-1.3-0.6-2.4,0-3.8c0.7-1.7-0.2-3-0.1-4.6c0.2-3.1,1.5-6.6,0.2-9.6c1.1,0,1,1.3,2.2,1.5
		c1.3,0.3,0.7,2.2,0.2,3c1.6,0.3,1.4,0.3,3-0.4c1.5-0.7,3.2-1.1,4.9-1.2c-0.6,1.2-0.3,3.3,0.6,4.2c0.7,0.7,1.9,0.3,2.8,0.7
		c1.3,0.6,2.2,1.2,3.7,1.2c2.4,0,4.6,1.6,5.4-1.4c0.9-3.3,1.9,0.4,3,1.4c0.8,0.7,0.7,1.8,1.2,2.6c0.9,1.3,1.9,0.1,2.7,0.6
		c1.2,0.8,1.7,1.5,3,1.5c1.5,0,1.2,2.5,2.2,3.4c1.5,1.4,1.8,2.5,2.6,4.3c1.1,2.2,4.2-2.1,5.4-0.6c-0.5,0.4-0.5,1.1,0.1,1.4
		c1.2,0.5,0.8-1.9,0.8-2.4c0.1-2.9,0.2-5.8,0.2-8.7c-0.5,0.2-1.1,0.2-1.6,0.4c-0.9,0.3-0.6,1.1-1,1.7c-0.7,1.1-3.7-1.4-4.4-2.1
		c-2.1-2.2-4.5-4-3.3-7.6c0.7-2,1.2-3.6,1.8-5.3c0.4-1.2-0.4-3.1-0.3-4.4c0.2-2.1,1.2-6.6-1.6-7.5c0.9-2.4,6-3.8,4.1-7
		c4.2-0.9,7.9-1.2,12.7-2.2c0,0.8-1,1.8-1,2c0.1,0.4,1.4-0.2,0.7,1c0.1,0.3,0.7-1.2,2.4,0.6c1.8,1.8,2.5,0.6,2.3-0.3
		c2.1,0,2.6,0.7,3.4,2.3c0.4,0.7,0.8,0.4,1.4,0.2c0.7-0.3,1,1,1.6,1.2c1.2,0.5,3.4,0.3,3.8,1.8c0.1,0.4,0.9,0.3,1.4,0.4
		c0.8,0.3,1.6,0.5,1.9,0.9c0.3,0.4,0.3,0.8,0.1,1.3c-0.4,1.2,2.4,0.7,2.9,2.5c0.2,0.6-0.3,1-0.2,1.5c0.1,0.9,0.8,1.2,1.4,1.7
		c0.5,0.5,0.7,2,0.9,2.7c0.4,1.2-1,2.4-2.2,2.7c-1.3,0.4-0.5,1.4-0.2,2.3c0.5,1.5-0.4,2.3-0.5,3.8c-0.1,2.1-1,6.6,1.6,7.4
		c-1.1,1.1-4.3,1.7-4.3,3.6c0,1.3,0.3,1.7,0.1,3.2c-0.4,2.1-1.7,3.3-2.2,4.7c-0.3,0.8,0.7,1.5,1.3,2c0.9,0.7,1.4,0.2,1.7,0.8
		c-7.1,3.3-14.7,5.3-22,8.3c-0.9,0.7,1.6,4,1.1,5.6c-0.7,0.1-2.6,0.4-3.3,0.1c-1.3-0.5-2.9,0.3-4.1,0.7c-1.8,0.6-4.1,1.6-4.4,3.7
		c-0.2,0.9,0.1,1.8-0.3,2.7c-0.6,1.2-2.1,1.3-3.2,1.7c-1.9,0.7-4.4,2.3-5.4,4c-1.1,1.8-5.2,9.6-8.3,7.8c-0.7-0.4-1.4-0.8-2.2-1
		c-1.1-0.4-2.2,1.1-3.1,0.6c-0.7-0.4-0.9-1.6-1.8-1.4c-0.2,0-2.4,0.6-3.5-0.4c-1.2-1.2-1.8-2-2.8-2.2c-1.1-0.2-1.8,0.9-3.7-0.3
		c-1.5-0.2-2.6,0.6-4.1,0.7c-0.8,0.1-2.2,0.7-2.7,0.5c-2.6-1-4.3-4-6.2-6c-1-1.1-1.8-2-2.9-3.1
		C1438.2,901.9,1437.9,900.9,1437.6,899.5"/>
	<path id="et" class="st0" d="M1522.1,691.3c0.1-1.2,1.3-1.8,1.3-3c0-2,1.4-2.2,3.1-1.9c1.5,0.3,2.8,0.7,4-0.9
		c0.8-1.2,0.3-3.2,0.1-4.4c-0.3-2.1-0.6-4.4,0.2-6.5c0.3-0.8,0.7-1.6,1-2.4c0.4-1.2,0-2-0.1-3.2c0-1.2,0.6-2.4,1.4-3.2
		c0.9-1,2.2,0.2,2.2,1.3c0.5-0.6,2.5-3.6,1.5-4.6c-0.6-0.5,0.3-1.9,0.5-2.4c0.3-1.1-0.4-2.5,0.6-3.4c1.6-1.4,2.2-3.3,3.1-5.2
		c0.4-0.8,0.7-1.7,1.6-1.7c0.4,0,2.4,0.2,2.5-0.3c0.5-1.5,0.4-3.4,0.6-4.9c0.1-0.9,0.5-1.6,0.9-2.4c0.7-1.5,0.5-2.8,0.8-4.4
		c0.6-2.9,1.8-1.8,4-1.9c0.8,0,1-1.7,2.2-1c0.9,0.5,1.4,1.8,2,2.6c0.9-2.2,1.8-4.5,2.4-6.8c0.3,0.5,0.7,1.2,1.3,1.5
		c0.6,0.3,1.3,0.1,1.7,0.8c0.7,1.5,1.7,1.7,3.2,1.4c0.6-0.1,1.2-0.3,1.6-0.6c0.3-0.2,0.5-1.1,0.8-1.2c0.5-0.1,1.4,1.6,1.5,2
		c1.5-1.9,4,0.3,5.5-0.1c2.1-0.6,4.2,1.7,6,2.4c2.4,1,3.1,4.1,5,5.6c1.2,0.9,2.7,1.7,3.4,3c0.7,1.2,1,2.3,2.1,3.2
		c2,1.5,2.8,2.7,1.5,4.9c-1.5,2.7-3.6,4.2-3.1,7.5c0.2,1.6-0.4,3.6,1.9,3.5c1.4-0.1,2.7-0.8,4.1-1.1c1.1-0.3,1.5,0.7,2.5,0.3
		c-0.1,1.7-2.1,3.2-1.1,5.1c1.1,2.4,2.2,3,3.7,5.1c0.5,0.7,1.4,3.1,1.9,3.7c0.6,0.6,1,0.4,1.7,1c1,0.8,2.5,2.6,3.8,3
		c5.1,1.8,9.7,3.8,14.8,5.6c2.4,0.9,4.4,1.9,6.9,2.5c2.3,0.5,5.3,0.2,7.6,0.2l-21.4,25.4c-1.3,1.5-2.3,1.7-4.2,1.4
		c-3-0.4-7.3-0.6-11.3,3.1c-1.1,1-1.4,2.2-2.9,2.5c-1.4,0.3-2.9,0.2-4.2,0.9c-1.4,0.8-1.3,2.1-3.2,1.7c-1.6-0.4-3.7,0.9-5.1-0.6
		c-0.6-0.6-1.1-1.6-2-1.8c-0.9-0.1-2.2,0.6-3,0.9c-1.3,0.6-3.4,1.7-4.2,2.9c-0.9,1.3-1.5,2.3-2.1,3.3c-1-0.9-3.1-1.1-4.4-1
		c-1,0.1-1.7-0.7-2.5-0.9c-0.9-0.2-1.9,0.2-2.8,0.1c-3.7-0.3-0.6-0.8-10.3-6.6c-1.7-1-4.1,0.1-6.1-0.6c-0.9-0.3-2.4-2.2-2.8-3
		c-0.6-1.2,0.4-2.8,0-4.1c-0.3-1.2-2.8-1.9-3.6-0.9c-0.5-0.5-1.2-1.9-1.6-2.5c-0.9-1.4-1.3-3.4-1.9-5c-0.5-1.2-0.7-2.6-1.4-3.7
		c-0.3-0.5-0.7-0.7-1.2-1c-0.6-0.3-0.6-0.8-1-1.2c-0.3-0.2-0.4-0.3-0.7-0.3c-0.8-0.2-0.9-1.1-1.3-1.6c-0.9-1.3-1.6-2.8-2.8-3.9
		c-0.9-0.8-2-1.3-3.2-1.4C1524.2,692.5,1522.7,692.5,1522.1,691.3"/>
	<path id="eh" class="st0" d="M1144.1,579.9c-1.2-2.1,0.6-5.6,0.9-7.8c0.2-1.5,0.6-2.9,1.4-4.2c1-1.6,2.7-1.6,3.3-3.5
		c0.3-1,0.3-2.5,1.3-3.1c0.6-0.3,0.2-1.5,0.7-2.1c0.7-1,3.5-4.6,2.8-5.9c-0.5,0.3-1,0.8-1.3,1.4c1.2-2.7,4.4-4.7,6.4-6.8
		c2.7-2.8,2.2-5.7,3.6-9.2c1.1-2.8,1.9-5.9,4.7-7.5c3-1.7,4.7-3.1,5.9-6.4c0.8-2.1,2.3-5.1,1.8-4.5l33.5-0.3l-0.5,14.6l-24.9,0.3
		l-1.1,21.8c-1.5,1.1-3.6,1.2-5.1,2.1c-2.3,1.4-3.3,3-3.1,5.7c0.1,1.6,1.3,9.9-0.4,10.4h-27.6
		C1144.3,574.9,1143.9,578.4,1144.1,579.9"/>
	<path id="td" class="st0" d="M1373.2,634.8c0.3-0.7,0.9-0.5,1.3-1.1c0.3-0.5,0.4-1.2,0.9-1.5c0.6-0.5,0.7-2.2,1-2.9
		c1.4-3.7,4.6-7.1,7.1-10.1c2.3-2.7,4.9-5,5.1-8.7c0.2-4.6,0.3-9.2,0.6-13.9c0.3-3.6,0.1-8.2,1.8-11.4c1-1.8,0.3-2.7-0.9-4.1
		c-0.3-0.4-0.8-0.7-1.1-1.1c-0.6-0.7,0.2-1.3-0.1-2c-0.6-1.6-2-2.9-2.7-4.5c-0.6-1.3-0.2-2.9-0.4-4.3c-0.2-2.3-0.9-4.6-1.3-6.9
		c0-0.3-0.5-1.2-0.1-1.4l8.2-3.9l59.6,33.7l0.6,33c-2-0.6-2.1-0.4-4.2,0c-1.4,0.2-3.1,0-3.6,1.3c-0.3,0.9,0.6,2.7-0.1,3.6
		c-0.6,0.8-1.6,3.8-3,4.2c-1.5,0.5-0.9,3.2,0.2,4.3c-2.5,2-4.1,3.2-2.2,6c1.3,1.9-1.7,2.7-2.6,4.3c-0.6,1.1-0.8,1.5,0.1,2.3
		c0.7,0.7,2-0.1,2.8,0c1,0,1.9,0.5,1.2,1.3c-0.9,1.1,1,2.5,0.2,4.5c0.3-0.1,0.5-0.3,0.8-0.4c0.6,0.9-0.1,2-0.1,3
		c0,1.1,0.1,1.1,0.8,1.9c0.6,0.7,2.2,0.3,2.3,2.2c0,0.8-0.8,2.4-0.5,3.3c-0.4-0.7-2.5-1.4-3.4-1c-0.5,0.3-1.3,0.5-1.7,1
		c-0.4,0.7-0.5,0.2-1,0.8c-0.8,0.9-2.7,0.7-3,2c-0.1,0.6,0.3,1,0.2,1.6c-0.6,2-2.4,2.8-3.8,4c-1.1,1-1.7,2.5-2.7,3.6
		c-1.8,2-3,2.4-5.6,3.4c-1.4,0.5-5,0.8-6.6,0.6c-0.5,0-3.7,0.7-2.6,1.6c0.5,0.4,1.8,0.6,1.5,1.5c-0.3,1-1.5,2.5-2.3,3.2
		c-0.6,0.6-1.2,2-1.9,2.2c-1.5,0.4-3.3,0.1-4.8,0.2c-2,0.2-3.5,0.7-5.2,1.7c-0.9,0.6-2.7,1.1-3.2,2.2c-0.7-1-1.6-1.7-1.9-2.9
		c-0.6,0.2-0.9,1.1-1.2,1.6c-0.2,0.4-1.4,0.5-1.9,0.7c-2.1,0.9-2.8,0.7-5,0.8c1.2-1.5-0.1-2-0.6-3.4c-0.6-1.9-1.1-3.9-2.3-5.5
		c-1-1.3-2.5-2.2-3.8-3.3c-1.3-1-2-2.3-3-3.6c-0.7-0.8-2.5-2.4-1.7-3.7c0.9-1.2,1.3-2.1,2.9-2c1.8,0.1,3.6,0.8,5.4,0.2
		c0.8-0.3,1.5,0.1,2.2,0.4c0.7,0.3,1.6-0.3,2.2-0.5c-3.6-2-5.2-6.8-5.1-10.7c0-0.9,0.5-1.6,0.6-2.5c0.1-0.9-0.1-1.8-0.2-2.6
		c0-0.7,0.1-1.8-0.3-2.3c-0.3-0.5-1.2-0.1-1.1-0.9c0.1-1-0.3-2.4-0.6-3.4c-0.2-0.7-1.2-0.8-1.7-1.2c-1.7-1,0.5-2.6-2.8-3.1
		c-0.8-0.1-0.6,0.5-1.4-0.2c-1.2-1.4-2.7-4.1-3.1-4.8C1373.4,639.5,1373.6,637,1373.2,634.8"/>
	<g id="gn" transform="translate(-29.9017, -45.0745)">
		<path id="path5380" class="st1" d="M1186.6,709.8c-0.4,0.5-0.4,1.4,0.4,1.6c-0.2-0.6-0.1-1.1,0.4-1.5
			C1187.2,709.9,1186.9,709.9,1186.6,709.8"/>
		<path id="path5400" class="st0" d="M1186.8,709.7c1-1.2,0.9-3.3,2.2-4.3c0.9-0.7,2.5-0.9,3.5-1.4c1-0.5,2.1,0.1,3.1-0.4
			c0.7-0.4,1.3-1,1.2-1.8c-0.1-1.2-2.3-1.7-2-2.6c0.3-0.8,2-0.6,2.3-1.4c0.3-1-0.5-2.3-0.2-2.6l3.6,0c0.5,0.1,1.1,0.5,1.5,0.6
			c0.3,0.1-0.4,1.7,0.8,1c0.8-0.5,2.3,0.6,2.7,0.9c0.1,0,1.7,0.5,1.6,0.5c1.1-0.1,1.8-0.9,2.9-0.8c1.7,0.2,3.3-0.5,4.5,0
			c-0.6,1.2-1.4,2,0.1,3.3c0.9,0.7,2.2-2.1,3.3-1.7c2.5,0.9,0.9,3.9,3.1,1.4c2.8-3.2,4.5,0.5,5.6,0.2c0.6-0.2,1.1-0.8,1.6-1.2
			c0.5-0.4,1.6-0.5,1.8-0.9c0.4-0.7-1.3-2.4,1.1-1.8c0.5,0.1,1.8,0.7,1.7,1.7c0,0.3,0.4,2,0.6,2.2c1.2,1.1-0.2,4,1.2,3.2
			c0.2,1.4,2.9,1.5,2.6,3.2c-0.6,0-0.9,0-1.3,0.5c-0.6,0.7-0.9,1.6-1.1,2.4c0.7-0.1,1.2-0.7,2-0.8c1.4-0.1,1,1.6,0.9,2.6
			c0,0.7-0.3,1.9,1,2.7c0.3,0.1,1.4,0.9,1.5,1.5c0.2,0.9-0.6,1.3-1.3,1.8c-0.4,0.3-0.4,1.8-0.4,2.5c0,1.3,0.5,4.1,2.2,2.9
			c-0.4,2-0.2,1.7,0.9,3c-1.4,0.2-1.4,1.3-1.7,2.4c2,0.3,1.9,2.1,2.4,3.7c-1.1-0.4-4.1-1.6-4.5-0.5c-0.5,1.3,1.5,2.7,2.2,3.6
			c-0.8-0.4-1.3,1.1-1.3,1.1c0.2,0.8,0.4,0.5,0.3,1c-0.2,0.5-1,1.8-1,1.9c-0.2-0.2-1.3-0.7-1.9-0.2c-0.3,0.3,0.1-0.6-0.9-1
			c-0.9-0.3-1.2,1.7-1.5,2.1c-0.7,1.3-1.2,1.6-2.6,2.2c-0.1-1.7-1.5-1.9-2.8-1.4c0.4-1.1,0.6-2.2,0.6-3.4c0-0.4-0.1-2.9-0.3-2.7
			c-0.1,0.2-0.3,0.6-0.3-0.8c0-0.2-0.5-1,0-1.7c-2.3-2.7-2.5-1.2-2.8-1.4c-0.8,0.6-1,0.2-2.1,0.1c-0.7-0.1-1.5,0.1-2.2,0.5
			c-0.4,0.2-2,1.1-2.2,1.4c-0.2-1.5,1.8-3.3,1.5-3.8c-1.3-1.7,0.7-2.2-1.3-3.5c-0.6-0.4,0.2-1-0.1-1.6c-2.1-3.9-2.9-6.9-7.6-6.2
			c-1.3,0.2-1.6,0.6-2.7,0.8c-2,0.5-2.6-0.6-3.4,1.4c-0.7,1.5-1.2,3.3-2.2,3.8c-0.9,0.4-0.9,0.7-1.3,1.6c-0.5,1-1.7,0.2-2.4,0.9
			c-0.1-0.7,0.3-1.2,1-1.2c-0.1-0.3-0.3-0.5-0.6-0.7c-0.2,0.2-0.3,0.5-0.5,0.7c-0.1-0.5-0.1-1-0.1-1.4c-0.3,0-0.5,0-0.8,0.1
			c0.2-0.9-1.1-1.1-0.5-1.9c-1.3,1.3-0.7-2.1-1.1-2.4c0.1,0.6-0.3,0.8-0.8,0.6c0.2-0.5,0.4-1,0.5-1.6c-0.3,1.1-1,0.7-1.7,0.2
			c-0.9-0.7-0.4-1.2-0.8-2.1c-0.5,0.2-0.8,0.5-1,1c-0.1-1.8-3.9-1.7-2.9-4c-0.3,0.1-0.7,0.2-1,0.2c0.6-1.1,1-2.2,1.3-3.4
			c-0.4,0.4-0.8,0.9-1,1.5c-0.1-1.2-0.6-0.6-0.9,0c-0.2-0.8-0.3-2.5,0.7-2.8C1188.5,709.7,1187.7,709.7,1186.8,709.7"/>
	</g>
	<g id="ng" transform="translate(-29.9017, -45.0745)">
		<path id="path5382" class="st1" d="M1355.3,766.7c0.9-0.1,1.2-0.6,0.5-1.2C1355.4,765.9,1355.3,766.3,1355.3,766.7"/>
		<path id="path5386" class="st1" d="M1357.2,766.3c0.2-0.1,0.5-0.3,0.7-0.4c-0.5,0-1,0.1-1.4,0.4
			C1356.7,766.2,1357,766.3,1357.2,766.3"/>
		<path id="path5406" class="st0" d="M1321.1,736.3c0.9-3.1-0.4-6.8,1-9.8c0.3-0.7,1.6-0.1,2.2-0.8c1-1.2,0.1-2.6,1.1-3.8
			c0.7-0.8,0.7-2,1.5-2.5c0.9-0.5,2.2-1.6,1.8-2.9c-0.3-1-0.8-1.8,0.5-2c1.8-0.4,0.4-3,0.2-3.8c-0.2-0.8,0.1-1.5-0.3-2.3
			c-0.4-0.7-0.9-1.2-1.3-1.9c-0.7-1.4,0.3-2.5,0.7-3.8c0.5-1.5,0.1-3.2,0.3-4.8c0.1-1.9,0.7-2.3,2-3.7c1.2-1.1,1.7-2.9,1.6-4.5
			c0-1.3,0.9-2.1,1.9-2.9c1.1-0.9,2.5-1.2,4-1.3c1.9-0.1,2.9-0.8,4.6-1.2c1-0.3,2.3,0.9,3.2,1.3c1.4,0.7,2.9,0.3,4.2,1.5
			c1.1,1.1,1.6,2.3,2.4,3.6c0.3,0.5,0.7,1,1.2,1.2c1.2,0.4,1.4-0.9,2.3-1c3.2-0.3,4.2-3.2,7.5-0.8c0.5,0.3,1,0.7,1.3,1.2
			c0.1,0.2,1,0.1,1.3,0.3c1.4,0.7,1.9,1.8,3.7,1.8c1,0,3.2,0.6,4.1,0.2c1.3-0.6,1.7-2.2,2.8-3.1c2.6-2,6.6-2.2,9.8-1.9
			c1.7,0.2,3.1,0.6,4.6,1.4c1.2,0.6,2.8,1.6,4.2,1.1c1.4-0.5,2.1-2.1,3.2-3c0.6-0.5,1.2-0.9,2-1c1.2-0.1,0.4-0.3,1.1-0.8
			c2.6-1.7,3.5,0.7,4.4,2.5c0.8,1.5,2.4,1.6,2.1,5.8c0,0.5,0.7,2.3,1.1,2.6c0.5,0.4,0.9,0,1.5,0.3c3.2,1.2,0.3,4.4,1.3,5.9
			c1.3,1.9-2.8,3.4-4.2,3.3c-2.2-0.2-3,4.6-3.6,6.3c-0.3,1-0.5,2-0.8,3c-0.3,1.1-1.6,0.9-1.6,2.2c0,1.1,0.2,2.5-0.6,3.5
			c-0.7,0.8-1.8,1.2-2.7,1.7c1.1,0.2,0,3-0.1,3.6c-0.2,1.8-1.4,2.8-3.2,2.9c0.2,0.9-0.6,1.1-1.1,1.7c-0.6,0.7-0.1,1.8-0.3,2.7
			c-0.4,2.1-1.4,4.2-2.7,5.9c-1.1,1.5,0.9,2.3-1.6,4c-1.1,0.7-0.4,1.5-0.8,2.5c-0.2,0.7-1.1,1.3-1.5,1.9c-0.3,0.6-1.4,0.2-1.9,0.1
			c-0.6-0.2-0.4-1.9-0.5-2.4c0-0.6-2-1.1-2.3-1.8c-0.4-1.1-1-0.7-1.2-1.9c-0.2,0.8-0.3,2.1-1.2,2.3c-1.2,0.3-1.7-1-2.7-0.7
			c-1.8,0.6-2.1,3.3-3.3,4.1c-1.5,1-6.3,5.9-5.6,6.5c1,1-0.8,3.7-0.8,4.4c0,1.3-0.5,2.3-2,4.8c-0.6-0.2-1.2-1-0.9-1.6
			c-0.7,0.4-1.2-0.2-1.4-0.7c0.6,2.4,1.2,2.9-1.5,3.3c-1.1,0.2-4.7,0.9-3.7-1.4c-0.5,0.9-0.5,1.1-1.6,1.1c-1.2-0.1-1-0.4-2.2-1.2
			c0.5,0.4,1.2,2.5-0.1,1.9c-0.9-0.3,0.4-2.4-1.1-1.7c0.4,0.9,0.8,1.7,0.4,2.7c-0.7-0.3-1.5-2.9-1.3-3.7c-0.8,0.7,0.5,2.8,0.1,3.8
			c-0.6,1.4-0.6-1.8-0.6-2.1c-0.1,0.4-0.4,2.6-0.4,0.6c0,0.6-0.1,1.2-0.5,1.7c0-0.5-0.2-1-0.4-1.4c0.3,0.6,0.3,1.6-0.7,1.5
			c-1.7-0.2-1.2,0.2-1.7-1.4c0,1.5-1.2,2.9-1.4,0.6c0,1.4-0.4,0.5-1.4,0c-1-0.5-1.7-1.5-2.3-2.5c-0.5-0.9-1.1-1.9-0.9-3
			c0.2-0.7,0.3-1.4-0.7-1.1c-0.2-0.8-0.1-1.2,0.7-1.4c1.6-0.3,0.1-0.9,1.3-1.6c-0.8,0.1-1.5,1.2-2.4,1c-2.6-0.6,0.9-1.5,1.6-1.6
			c-0.4-0.5-0.9-0.6-1.4-0.2c0-0.3,0-0.6,0.1-0.9c-0.2,0.9-1.3,1.5-1.7,0.4c-0.4-1,0.8-1.5,1.4-2c-0.7,0.3-1.2,0.7-1.7,1.2
			c-1-2.2-3.2-4.7-5.6-5.4c-1.2-0.3-2.6-0.5-3.9-0.4c-1,0.1-2.4,0.5-3.2-0.2c1,0.2,2.6-0.5,3.2-1.4c-1.1,0-1.8,1.2-2.9,0.4
			c-0.4,0.5-0.5,1-0.3,1.5c-1.7,0.2-3.5-0.1-5.2,0.3c-0.1-1.1,0.6-2,0.6-3.1c0-1.1-0.5-1.9-0.2-3.1
			C1322.1,741.6,1322.1,738,1321.1,736.3"/>
	</g>
	<g id="tn">
		<path id="path5410" class="st0" d="M1329,464.9c0.2-0.8,1-1.2,1.6-1.6c1-0.7,1-1.4,2.1-2.2c0.8-0.6,1.5-1.8,1.8-2.9
			c0.7-2.1,0.5-3.8,0.6-5.9c0.1-1.3-0.7-2.4-0.6-3.7c0.2-1.5,1.8-4.3-0.5-4.8c0.8-1,2.2-1.5,2.9-2.6c0.2-0.4,0.1-1.2,0.7-1.3
			c0.6-0.2,1.1,0,1.6-0.5c1.1-1.2,2.3-1.7,3.9-2.2c0.7-0.2,1.7-0.8,2.5-0.4c0.9,0.4,0,0.8,0.1,1.5c0.8,0,0.9-0.4,0.5-1
			c1.4,0.3,1.8,0.1,2.4,1.4c0.3,0.6-0.5,0.6,0.2,1.1c0.6,0.4,0.7,1.1,0.1,1.6c0,0,0.6,0.7,1.3,0.4c0.8-0.3,1.5-1,2.2-1.6
			c0.3-0.2,1.2-1.2,1.6-1c1,0.5,0.9,1.5,0.4,2.3c-0.9,1.6-4,3.2-4.1,5c-0.1,1.4,0.7,3.1,2,3.7c1.9,1,1.8,1.1,2.3,3.2
			c0.6,2.7-1.3,5.6-3.4,7.2c-2.1,1.7-5.3,2.6-3.2,5.8c0.5,0.7,1.1,1.4,1.8,1.7c0.9,0.4,1.2-0.1,2,0c0.3,0,0.4,1.3,0.6,1.6
			c0.4,0.7,1.5-1.3,2.1-1.1c0.8,0.3,0.3,1,0.5,1.5c0.3,0.8,1.5,1.5,0.3,1.6c0.6,0.7,2.1-0.1,2.7,0.7c0.5,0.7-0.3,3.2-0.1,4.2
			c0.3,1.5,1.3,2.1-0.3,3c-1.6,0.9-4.8,2-5.7,3.3c-0.5,0.4-0.3,1.7-1.1,2c-1.6,0.6-3.1,1.2-2.5,3.6c0.5,1.9,1.2,3.5,0.1,5.4
			c-1.3,2.2-2.5,3.1-4.8,4.1c-0.5-3.6-1.6-7.1-2.3-10.7c-0.7-3.7-1.1-5.8-4.2-7.6c-1.5-0.8-2.1-1.8-2.5-3.4c-0.3-1.4-1-2.4-2.3-3.2
			c-0.6-0.4-1.3-0.7-1.7-1.4c-0.4-0.7-0.3-1.6-0.7-2.3C1328.9,467.9,1328.4,466.4,1329,464.9"/>
		<path id="path5412" class="st1" d="M1353.2,468.5c-0.1-1-0.8-0.2-1-0.6c-0.5-1.1,0-1.5,1-1.5
			C1355.3,466.4,1354,467.6,1353.2,468.5"/>
	</g>
	<path id="na" class="st0" d="M1360.1,908.8c1.1-0.2,1.9-1.1,3-0.9c1,0.2,1.8,0.9,2.9,0.7c2.1-0.4,3.6-2.9,6-2.2
		c1.9,0.5,3,2.7,4.9,3.3c1.1,0.4,4.5,0.2,6.3,0.2c8.2,0.1,16.4,0.2,24.6-0.1c2.2-0.1,2.9-0.2,3.9,1.7c1.3,2.4,3.3,1.9,5.6,2.2
		c3.1,0.3,6.3,0.2,9.2,1.2c1.1,0.4,2.1,0.5,3.1-0.1c0.9-0.5,1.7-0.3,2.9,0c1.3,0.3,2,0.1,2.9-0.1c5.1-1.2,10.9-2.4,16.4-3.4
		c1.1-0.2,2.1-0.7,3.2-0.5c0.6,0.1,1.6,0.7,2.3,0.4c2-1,3,1.1,4.3,2.1c-1-0.3-2.1,0.3-3.1,0.7c-1.2,0.5-1.5,2.2-2.6,1.2
		c-1.8-1.6-5.3,3.7-6.6,4.4c-0.6-1.2-1.3-4-3.2-4.2c-2.4-0.2-5.3,1-7.6,1.5c-2.7,0.6-5.9,0.7-8.6,1.2l-1,31.9l-6.8-0.1l-1.5,54.4
		c0.2,2.5-2,1.4-3.1,2.6c-0.6,0.6-0.5,1.1-1.7,1.5c-0.8,0.3-1.2,0.6-0.5,1.3c-1.8,0.5-1.7-0.1-3.4-0.4c-1.8-0.3-3.3,0.7-5.3,0.2
		c-3.3-0.7-5.2-1.9-5.4-2.5c-0.4-1.7,0-1,0-2.3c-0.1-0.5-0.6-0.4-1-0.8c-0.6-0.6-1.1-1.9-1.7-1.5c-1.9,1.2-1.4,3-2,3.5
		c-0.9,0.7-2.1,1.7-3.1,0.5c-1.3-1.6-3-2.9-4.2-4.7c-1-1.6-1.9-3.2-2.7-4.9c-0.4-0.9-0.5-1.8-0.6-2.8c-0.2-1-0.8-1.5-1-2.4
		c-0.4-1.6,0.4-2.3-0.8-3.8c-0.5-0.6-0.3-1-0.3-1.8c0-1.3-0.4-2.3-0.5-3.6c-0.1-0.9,0-1.7-0.3-2.6c-0.4-1.2,0.2-2.4,0-3.6
		c-0.4-2.1-1.4-4-2.1-5.9c-0.8-2.2-0.2-4.1-0.4-6.3c-0.2-1.5-0.4-3.4-0.2-4.2c0.1-0.4,1-4,0.6-4c-0.1-2-1.1-3.9-2.2-5.5
		c-0.6-0.9-1.4-1.7-1.9-2.7c-0.5-0.9-0.6-2-1.2-2.8c-2.9-3.7-3.6-8.2-5.8-12.3c-2-3.7-2.7-8.8-5.9-11.7
		C1360.2,917.8,1359.8,913.3,1360.1,908.8"/>
	<path id="za" class="st0" d="M1394.8,1006.8c0.8-0.7,1.9-0.6,2-1.7c0.1-0.9,0.8-2.6,1.8-2.9c1.3-0.4,1.2,1.4,2.1,1.7
		c1.6,0.4,0,2,0.7,2.9c1.3,1.7,3.4,1.8,5.3,2.4c1.8,0.6,3.2-0.2,4.9-0.2c1.6,0,2.2,0.9,3.8,0.4c-1-1.1,0.2-1.3,0.9-1.5
		c0.9-0.3,1-1.5,2.1-1.8c0.7-0.2,2.2-0.3,2.3-1.3l0.7-31.1c0.9,1.2,2.3,1.8,3.1,3c0.9,1.4,1.5,3.3,2,4.9c0.6,1.6,1.1,3.3,0.3,5
		c-1,2.1-1.7,3.3-0.7,5.6c1.7-2,6,1,7.8-0.8c0.3-0.3,0.1-1.1,0.5-1.2c0.5-0.1,1,0,1.4-0.3c1.3-0.7,1.6-2.4,2.9-3.2
		c1.5-0.9,2.4-1.8,2.8-3.6c0.3-1.5,0.2-2.8,1.5-4c1.1-1,2.5-1.2,3.9-0.6c1.1,0.5,2.7,2.9,3.8,2.8c2.4-0.1,5.1,2.8,7.4,1
		c1-0.8,2.5,0.3,3.8-0.6c1.3-1,1.8-2.7,2.4-4.2c0.3-0.8,0.6-1.6,0.7-2.5c0.2-1.4-0.4-1.3,0.9-1.7c0.8-0.2,3.2-0.6,3.6-1.4
		c0.8-1.4,2.4-2,3-3.4c0.7-1.6,0.4-3.2,1.5-4.6c0.9-1.3,1.9-1.4,3.1-2.2c1.2-0.8,2.8-2.1,3.7-3.3c0.8-1,1.3-2.5,2.5-3.1
		c1.2-0.6,2.6-0.7,3.8-1.1c1.2-0.4,1.2-1,1.7-1.9c0.5-0.8,1.8-1,2.7-1.2c3.3-0.7,5.4,1.5,8.6,1.5c2.9,0,5.5-1.1,6.5,2.5
		c0.5,2,1,4,1,6.1c0,1.9,1.2,3.5,1.9,5.2c1.5,3.6,1.1,7,0.9,10.8c-0.1,1.5,0,3.3-0.5,4.8c-0.3,0.8-0.4,0.7-0.1,2.9
		c0.1,0.1-0.9-1.1-1.9-1.4c-0.9-0.3-1.8-0.2-2.6-0.2c-0.6,1.2-1.6,1-2.3,2.6c-0.9,1.9-1.7,4.8-1.9,4.6c1.4,1.3,1.9,2.3,2.8,3.3
		c1.4,1.6,3.5,2.5,5,1c0.4-0.4-0.2-0.6,1.3-2.8l1.3,0l4.5,0.2c-0.9,3.8-1.9,7.1-3,10.9c-0.5,1.9-1.5,5.9-4.2,5.7
		c0.4,1-0.8,0.9-1.4,1c-0.7,0.1-1.3,1-1.8,1.6c-1.6,1.8-3.3,3.9-4,6.2c-0.4,1.3-1.5,2.1-2.2,3.2c-1,1.8-2,3.5-3.2,5.2
		c-2.1,3-4.3,5-7.1,7.3c-2.3,1.9-3.7,4.7-6,6.6c-3,2.4-5.8,4.9-8.9,7.3c-2.4,1.8-5.1,4-8.2,4.4c-1.5,0.2-3-0.6-4.4-0.2
		c-1.1,0.3-2.5,1.6-1.1,2.5c-1.7,0.8-3.7-1.4-5.3-0.3c-1.9,1.3-2.3,2.1-4.9,1.1c-2-0.7-4.5-1.5-6.5-0.8c-0.9,0.4-0.5,0.9-1.9,0.4
		c-0.8-0.3-2.3,0.2-2.7-0.7c0,0.1,0,0.2,0,0.4c-2.1-0.3-5.5,0.6-6.6,2.6c-0.9,1.7-5.7-0.1-7.2,0.6c-0.9,0.4-1.9,0.1-2.7,0.5
		c-1,0.5-2.2,1.5-3.1,2.2c-1.1,0.9-0.7,0.7-2,0.4c-0.6-0.1-1.2,0.2-1.7-0.2c-0.6-0.5-1.1-1-1.9-1.3c1.3-1.8-2.7-1.9-3.6-2
		c0.5-1.4,0-2.6-1.7-2.3c-1.1,0.2-0.7,1.5-0.7,2.3c-2.1-0.8-0.4-3.2-0.2-4.5c0.2-1.1-0.4-2.2-1-3.1c-0.3-0.5-2.9-4.1-1.2-2.4
		c-0.7-0.7-0.4-1.5-1.5-1.5c-0.9,0,0.1-2.3,0.2-2.6c2.3,1.4,2.9-1.3,3-3.1c0.1-3.1-0.8-5.7-2.4-8.3c-2.4-3.9-4.5-7.8-5.8-12.2
		c-0.6-2.1-1-4.2-1.8-6.2C1396.8,1010.8,1395,1009,1394.8,1006.8"/>
	<path id="eg" class="st0" d="M1455.4,500c-1.4-2.3,1.5-4.7,1.1-7c-0.4-2.5-2.7-4.3,0.9-7.2c0.1,1.8,2.2,1.2,3.3,0.8
		c2-0.6,3.7,0.1,5.7,0.3c2.2,0.2,4.3,0.7,6.4,1.3c0.9,0.2,1,1.2,2,1.5c0.8,0.2,1.4,0.1,2.2,0.1c0.5-0.1,0.8,0.8,1.4,0.9
		c0.7,0.1,1.3,0.1,2,0.2c2.2,0.2,3.6,1.6,5.6,1.9c2,0.3,3.8-1,5.2-2.2c0.7-0.6,1.4-1.3,2.1-2c0.6,0.4,1,0.9,1.7,0.8
		c-0.4-0.2-0.3-0.3-0.9-0.3c0.7-0.4,1.4-1.1,1.6-1.9c1.2,0.7,2.4-0.6,3.6-0.6c-0.8,0.4-1.6,0.8-2.2,1.5c0.2-0.1,5.2-1.6,2.8-1.8
		c1.8-0.6,2.9,1.4,4.6,1.2c0.8-0.1,1.6-0.9,2.4-0.6c0.8,0.3,1.2,1.4,1.9,1.9c-0.7-0.5-1.4-1.6-2.4-1.7c0.3,0.7-0.8,2.2,0.5,2.4
		c1.3,0.3,0.7,0.6,1.6,1.4c0-0.3,2.4-1.3,0.6-2.1c1.8,0.4,2.4,2.1,4.5,1.9c0.7-0.1,2.7-1.3,2.4,0.2c1.3-0.8,2.8-0.3,4.2-0.8
		c1.2-0.4,2.5-0.9,3.5-1.7l6.1,16c-1.5,2-1.2,5.6-2.2,7.9c-0.6,1.4-0.5,2.2-0.5,3.6c0,1.2-1.5,2.4-1.2,3.6c-0.7-0.7-1.7-1-2.6-1.6
		c-1-0.7-1.8-1.8-2.5-2.8c-0.9-1.3-3.5-2.2-3.2-4.1c0.4-2-1.5-3.3-2.5-4.7c-1.3-1.9-2.3-4.1-2.8-6.4c-0.9,1-1.9,3.1-0.9,4.2
		c1.6,1.9,1.4,4.2,2.8,6.2c1.2,1.7,2.4,3.8,3.8,5.2c0.6,0.6,1.4,1.2,2,1.9c0.3,0.4,1.6,2.5,0,1.3c1.2,1,0.2,2.2,1,3
		c1.1,1.1,1.6,2.2,2.2,3.5c0.3,0.7,0.7,1.2,1.1,1.8c0.3,0.5-0.3,1-0.3,1.5c0,0.6,0.9,1.5,1.2,2c0.6,1.2,1.3,2.3,1.9,3.5
		c2,3.9,4.1,7.6,6,11.5c0.7,1.5,1.8,2.6,2.8,4c0.9,1.3,2.4,1.7,3.2,3c-0.8,0-1.5-0.1-2.2-0.4c-0.5,2.1-0.3,5.3,0.8,6.5
		c1,1.2-1.3,3.5-2.8,3.6c-0.7,0-1-0.5-1.7,0.3c-0.6,0.6-0.9,1.7-1.1,2.5c-0.3,0.9-0.7,1.8-1.8,2c-0.8,0.2-2.3,0-2.8,1
		c-0.8,1.7-0.3,3.8-2.8,3.6c-2.9-0.2-4.3-2.5-5.8-2.5c-5,0.2-7.8,0.7-11.7,0c0.1-0.4,0.6-1.2,0.3-1.6c-0.7-1-1.2,0.8-1.5,1.2
		c-0.9,1.3-5.6,0.5-7.1,0.5l-40.1-0.1l-1.4-54.2c-0.2-2.5-0.1-5.2-0.4-7.7C1456.9,505.1,1456.4,501.9,1455.4,500"/>
	<g id="tz" transform="translate(-29.9017, -45.0745)">
		<path id="path4894" class="st1" d="M1599.6,856.7c0.3,1.8,0.5,2.4,2,3.7c1,0.9,1.3-3.5-0.3-2.2c0.3-1.1-0.1-2.9-0.6-3.9
			C1600.3,855.1,1599.3,855.8,1599.6,856.7"/>
		<path id="path4896" class="st1" d="M1602.8,873.8c0.8-0.7,2.1-1.2,1.6-2.5C1603.9,872.4,1602.6,872.4,1602.8,873.8"/>
		<path id="path4898" class="st1" d="M1603.3,847.9c0.1,0.9,0.9,1.7-0.1,1.8c0.3,0.2,0.5,0.3,0.7,0.5c-1.5,0.8-0.2,2.1,0.5,0.8
			c0.7-1.6,0.5-3.2-1-3.8C1603.3,847.4,1603.3,847.6,1603.3,847.9"/>
		<path id="path5432" class="st0" d="M1527.6,851.3c0.6-4.2,0.7-1.3-1.1-5.1c-0.3-0.7,0.4-2,0.1-3.2c1.8-0.2,2-0.3,3.2-1.6
			c0.9-1,2.4-2.5,3.3-3.6c0.7-0.8-0.7-1.6-0.5-2.2c0.3-0.7,1.8-0.1,1.5-1c-0.2-0.6,1.3-1.4,1.6-1.7c0.9-0.8-0.4-1.8,0.4-2.6
			c-2.3,0.6-3.7-0.7-2.4-2.8c-1.2,0.1-0.4-0.8,0.1-1.5c0.6-0.9,1.7-0.6,2.2-1.5c0.9-1.8-0.5-4.9-1.3-6.6c-0.6-1.2-2.5-3.9-0.6-4.5
			c2.3-0.7,7.3-0.2,9.7-0.1c1,3.8-0.7,3.9-0.6,4.3c0.5,1.5-0.9,3.3-0.8,3.7c0.8,1.1-0.1,2.1,0.1,2.6c0.5,1.8,1,0.4,1.2,4.9
			c0.1-0.9,0.8-1.5,1.4-0.4c-0.2-1.8,0-2,1.2-1.9c-0.9-0.5-0.3-1.5,1.1-2.3c0.3,0.3,1.6,3.1,3,1.3c-0.2,0.4,0.8,0.6,1,1.2
			c0.3,1.1,0.3,3.2-0.7,2.7l0.6,0.8c0.5-0.6-0.4-0.8,1.6-0.9c-1.2,0.2-2.9-6.4,3.1-2.6c0.3-1.6,4.4-3.5,3.1-3.6
			c-1.5-0.2-1.3,0.5-2.1,0.4c-2.5-0.3-2.4-0.8-2.5-0.7c0.6-0.7,0-0.7,2.7-0.9c-0.2-1-2.6-0.4-2-0.6c0.3-0.2-0.8-0.6,2.1-1
			c0.3,0,0.8-0.6,0.6-1.1c-0.1-0.4,0.3-0.1,0.5-0.2c-1.1-1.2-0.3-1.3-0.1-1.5c0.3-0.2,0.6,0.2,1.8,0.4c-0.3,0-1-1.1-0.4-1.7
			c0.4-0.5,0,0.5,0.3,0.1c-0.4-0.3-0.3-1,0-1.3c0.3-0.4,0.7-0.8,1-1.2l22.8,14.3c1.9,1.2,4.3,2.1,4.9,4.5c0.2,1-0.6,1-0.8,1.8
			c-0.2,0.6,0.9,1.4,1.3,1.9c1.2,1.8,3.7,3.1,5.4,4.5c1,0.9,5.6,3.8,5.4,5.1c-0.3,2.1-1,4.4-1.9,6.3c-0.4,1-0.9,1.9-1.2,2.9
			c-0.2,0.5-0.2,1-0.3,1.5c0,0.7,0.6,1.3,0.5,1.9c-0.5,2.6,3.7,2.8,3.2,5.6c2.3-0.7,2,2,1.1,3c-1.4,1.7-0.6,3.7-1.5,5.4
			c1.6-1.4,1.5,1.5,1.1,2.3c-0.5,1.1-1,2.5-0.8,3.7c0.2,1.2,1.8,3.1,0.6,3.4c1,0.2,0.4,2,1.1,1.9c1.2-0.1,0.6,1.2,0.3,1.8
			c-0.5,1.1,0.8,1.5,1,2.5c0.1,0.6-0.3,0.9,0,1.4c0.4,0.7,0.6,1.2-0.2,1.8c1.3-0.2,1.8,0.8,2,1.9c-0.1-1.8,4.3,0.8,2.9,2.8
			c-3,2.3-5.7,3.7-8.5,5.4c-1,0.4-1.2-0.3-2.2,0.1c-1.1,0.4-2.7,1.7-3.8,2c-1.1,0.4-2.4-1.8-3.6-1.1c-1.4,0.7-2,2.9-3.5,3.5
			c-2.5,1.1-3,0.3-3.8-0.4c-1.6-1.3-2.1,1.1-3.8,0.9c-2-0.2-2.6,0-3.7-1.3c-0.8-1.1-1.8-1.6-3-0.4c-0.9,0.8-3.9,0.7-5.4,0.3
			c-0.1-0.1-0.2-0.9-0.4-1.2c-0.5-0.8-1.1-1.6-1.6-2.5c-0.6-1.3-0.2-2.6-0.5-3.9c-0.4-1.8,0-3.4-0.5-5.2c-0.5-1.8-1.6-3.5-3-4.6
			c-1.4-1.1-1.7,1-1.6,1.4c-1.4-1.5-2.8-0.1-4.1-1.6c-0.4-0.5-2-0.6-2.6-0.9c-1-0.6-2-1.1-3.6-1.3c-0.2,0-0.5-0.4-0.6-0.6
			c-0.5-0.6-0.9-0.5-1.5-0.8c-0.6-0.3-1.4-0.2-2-0.5c-0.5-0.3-0.7-1-1.2-1.2c-0.4-0.2-0.9,0.3-1.3,0.2c-0.7-0.2-0.8-1-1.2-1.5
			c-0.7-1-1.7-1.2-2.7-1.1c-0.5-1.1-2.9-6.1-4.1-9.2c-1.1-2.8-0.3-8-4.2-9.5c-0.6-0.2-0.1,0.5-0.8,0.1c-1.4-0.7-2.9-2.3-0.3-4.8
			C1529.7,854.8,1528,853,1527.6,851.3"/>
	</g>
	<g id="gq" transform="translate(-29.9017, -45.0745)">
		<path id="path5778" class="st1" d="M1366.8,777c0.5-0.6,3-5.3,0.8-4.8c-0.8,0.2-1.2,0.7-1.5,1.4c-0.3,0.9-0.9,1-1.5,1.7
			C1364.1,776,1366.4,776.7,1366.8,777"/>
		<path id="path5784" class="st0" d="M1374,790.9c0.3,0.1,0.5,0,0.8-0.1c-1.6,0.8-0.1-1.6,0.1-2c0.8-1.3,0.2-3.1,0.7-4.7
			c1.1,2.1,1.7,1.6,3.1,1.9l8.2-0.1l0.1,10l-9.1-0.2c-0.6,0.1-3.4,0.9-2.3-0.4c-0.9-0.5-3.1,0.5-3.7-0.6
			C1371.4,793.6,1373.5,791.8,1374,790.9"/>
	</g>
	<path id="ls" class="st0" d="M1471.9,1016.1c1,0.9,0.9,2.3,1.6,3.3c0.7,0.8,0.4,2,1.1,2.7c0.9,0.9,3.2,3.8,4.7,2.6
		c0.7-0.5,1.2-2.3,1.7-3.1c0.7-1.2,2-1,3.2-1.3c0.9-0.2,2.7-1,3.1-1.9c0.5-1.2,0.5-1.9,1.4-2.9c0.3-0.4,1.3-1.5,1.2-2
		c-0.5-1.8-1.3-1.9-2.5-3.2c-0.9-1-1.9-1.9-2.9-2.9c-0.8-0.9-2.2,0.5-2.9,0.8c-0.8,0.3-1.2,0.7-2,1.2c-0.9,0.5-1.9,0.3-2.6,1.3
		c-0.8,1-1.2,2.3-1.9,3.4C1474.2,1015.1,1473,1015.2,1471.9,1016.1"/>
	<path id="bi" class="st0" d="M1492.2,783.3c0.9-3,2.6,0.3,2.8,0.3c3.4,0.4,4-0.7,4.3-4.1c1.8,1.6,1.3-0.7,5.4,0.7
		c-0.7,0.3-2.5,2.3-1.1,2.2c-1.2,3.1,1.2,3.2,2.4,2.8c-0.8,1.2,1,1.7-0.7,2.9c-1,0.7-1,0.3-1.2,1.7c-0.1,0.3-1.3,0.2-1.5,0.6
		c-0.2,0.5,0.7,1.6,0.6,1.9c-0.1,0.2-0.6,1.2-1.5,1.9c-1.4,1-1.6,2.2-3,3.1c-0.7,0.5-1.5,0.6-2.1,0.6c-0.3-0.9-1.8-4.2-2.1-5.2
		c-0.4-1.6,0.2-3.2-0.9-4.5c0.1-0.8,0.5-1.7-0.1-2.5C1493.1,784.9,1492.5,784.2,1492.2,783.3"/>
	<path id="dj" class="st0" d="M1588.7,664.1c0-2.3-0.9-4.6,0.5-6.7c1.1-1.6,2-3,2.9-4.7c1.1-1.9,1.6-0.9,3.1-0.5
		c0.8,0.2,0.7-1,1-1.4c0.5-0.6,1.3-0.9,1.9-1.2c0.7,1.5,3.5,4.2,2.1,5.9c-0.7,0.9-2.9,1.9-3.9,2.3c-1.1,0.4-1.2,1.7-2.4,1.9
		c0.8,1,3.2-0.7,4.3-0.2c2.1,0.8,0,2.8-0.5,4c-0.8,1.7-2.2-0.1-3.5,0.3C1593,664.1,1589.5,665.8,1588.7,664.1"/>
	<path id="cg" class="st0" d="M1355.6,793.6c0.6-1.8,0.9-2.3,2.4-3.4c1.3-1,1.7,2.3,3.4,1.2c0.2-0.1-0.1-1.6,0.2-2.1
		c0.6-1.2-0.6-1.4-1.3-1.9c-0.6-0.4,1.1-4.2-1.6-3.5c0.9-1.3,0.7-2.8,0.3-4.2c1.1,0.3,1.5,0.1,2.6,0.2c0.5,0,0.7,0.7,1.1,0.6
		c1.3-0.3,3.6,0,3.3-1.9c-0.2-1.3-0.7-4.2,1.9-2.8c0.9,0.5,2.6,3.3,2,4.3c1.2-0.7,2.3,0.8,3.5,0.5c1-0.3,2-1.9,2.3-2.9
		c0.3,0.6,0.9,3.8,1.6,3.8c0.5,0,2-1.5,1.9-2.1c-0.1-0.6,0.1-2.8,0.7-3.1c0.8-0.5,1.6-2.1,0.6-2.8c1.5-0.5,0.7-3.3,0.4-4.3
		c-0.5-1.5,1.1-3.3,0.4-4.6c-0.4-0.8-1.6-1.1-2.4-1.1c-0.4-0.3,0-1.5-1-1.6c-2.5-0.2-0.6-1.6-0.9-3.1c-0.2-1.1,0.2-3.1,1.1-3.9
		c1-0.7,1.9-0.4,2.6-1.8c0.5-1.1-0.3-1.9-0.7-2.9c-0.7-1.7-1-3.3-3.2-3c-1.9,0.3-3.6,1.4-5.5,1.7c0.5-1.4-0.1-3-0.2-4.4
		c-0.1-1.6,0.9-3.1,0.9-3.9c0-0.6,7.7,0.2,8.4,0.1c1.3-0.1,1.7,0.2,3,0.3c1,0.1,1.2,1.5,2.6,1.1c2.7-0.7,5.6,1.2,7.4,3
		c0.9-1.3,0-2.2,0.1-3.5c0-1.1,1.1-1.7,1.5-2.7c0.6-1.3,1.2-2.6,1.6-4.1c0.3-1.1-0.2-2.2,0.1-3.3c0.2-0.8,0.4-2.1,1.3-2.5
		c1.1-0.6,2.4,0,3.6-0.5c1.2-0.5,2.2-1.4,3.6-0.7c1.4,0.6,2.3,1.2,3.8,1c1.9-0.3,4.4-1,4.1,1.6c-0.2,2.3-1.8,5.4-2.9,7.3
		c-1.3,2.3-1.3,3.8-1.3,6.4c0,1.5-0.3,2.9-0.7,4.4c-0.5,1.5-0.9,2.4-0.9,4.1c0,1.1-0.1,2.1-0.2,3.2c-0.1,1.1-0.4,2.5-0.7,3.5
		c-0.7,2.7,0.6,4.4-1.6,6.9c-2,2.2-4.1,2.8-5.5,5.3c-0.6,1.2-1.2,2.4-1.7,3.7c-1,2.4-3.3,2.8-3.1,4.2c0.2,2.4,0,4.7,0,7.4
		c0,2.6-1.1,6.6-3.6,7c-0.9,0.2-1.8,1.1-2.1,2.1c-0.2,0.5-1.8,1.2-2.3,1.8c-0.9,1-1.5,2.3-2.5,3.3c-1.3,1.3-2.5-0.2-3.3,0.7
		c0-0.9-0.8-2.6-0.2-3.4c0.5-0.6,0.8-1.2-0.3-1.5c-1.3-0.4-3.1,2.3-4.2,0.8c-0.6,0.6-0.5,1.3-0.8,2c-0.4,0.9-1.6,1.3-2.3,1.9
		c-0.1-1.2-1.7-1.4-2-2.5c-0.9,1.6-1.8-3.3-3.4-0.9c-0.5,0.8-1.4,0.8-2.1,1.3c-0.7,0.6-1.8,1.9-2.4,2.6c-1.6,1.8-2.1-1.5-2.3-2.5
		C1360.1,797.4,1357.4,795.3,1355.6,793.6"/>
	<path id="rw" class="st0" d="M1491.2,781.1c-0.5-1.1,2.2-3,2.2-4.4c-0.1-2.6,1.1-3.7,3.3-4.9c0.3-0.2,1.6-1,1.9-0.7
		c0.5,0.4,0.6,1.6,1.4,0.8c0.6-0.6,2.5-3.5,3.6-3.1c-0.5,1.5,0.8,3.3,1.4,4.4c0.8,1.4,1.7,3.7,1.5,5.2c-0.3,2-1.4,2.2-3.1,1.6
		c-1.9-0.7-2.3,1-3.9-0.4c-0.2,1.8-0.1,3.7-2.2,4.1c-1.1,0.2-2.1,0.4-2.6-0.7c-0.6-1.2-2.1-1.1-2.3,0.3
		C1491.6,782.7,1491.2,782.1,1491.2,781.1"/>
	<path id="sn" class="st0" d="M1140,632.1c-0.4,0-0.8,0.1-1.1,0.4c-0.1-1.2,2.2-1.6,2.9-2.3c1.5-1.5,2.8-3.6,3.7-5.6
		c0.4-0.9,2.5-9.9,4.7-7.9c1,0.9,6.2,0,7.1-1c1.3-1.5,6.4,0.2,7.5,1.5c1.5,1.7,1.6,2.4,4,2.7c1.3,0.1,2.7,2.7,2.5,3.9
		c-0.1,0.6,1.8,1.6,2.1,2.2c0.4,0.8,0.6,1.7,1.2,2.3c0.6,0.6,1.8,0.7,2.2,1.5c0.6,1.2,2.3,1.8,2.5,3.1c0.1,0.6-0.9,1.3-0.2,1.9
		c0.6,0.5,1,0.8,1.1,1.7c0.1,0.9,0.9,3.2,0.2,3.9c-0.8,0.2-0.9,0.6-0.2,1.2c0.2,0.4,0.4,0.8,0.8,1.1c0.7,0.4,0,1.1,1,1.4
		c0.5-2,2.2,1.5,2.4,2.1c0.4,0.8,0.7,1.5,0.4,2.4c-0.3,1.1,0.5,2.5,0.1,3.4c-1.2-0.5-2.6,0.3-3.9,0.1c-1.4-0.2-2.2,0.6-3.5,0.7
		c-1.3,0.2-3.5-2.2-4.6-1.4c-0.9,0.6-0.5-1-0.7-1.1c-1.2-0.3-0.8-0.6-1.8-0.6l-12.6,0c-1.7,0-2.3,0.1-3.6,1.1
		c-1.1,0.9-2.6,0.8-4.2,0.7c-1.4,0-2.4,0.8-3.7,1c-0.7,0.1-1.4-0.1-1.9,0.3c-0.1-0.3-0.8-1-0.5-1.4c0.9-1,1.4-1.5,2.6-0.7
		c0.9,0.6,2-0.3,3-0.3c0.7,0,1.1,0.5,1.8,0.3c0.6-0.2,0.8-0.1,1.3,0.1c0.9,0.3,0.9-2,1.9-2.4c-1.5,0.1-0.6,1.4-1.6,2.1
		c-0.8,0.6-3-0.2-3.2-1.2c-0.6,2.4-5.4,0.7-4.3-0.6c-0.5,0.6-0.4,1.7-1.4,1.9c-0.2-0.6,0-1.1,0.5-1.4c-1.3,0.3-0.6-1.6-0.3-2.5
		c0.4-1.3,1.9-1.4,3-1.4l4.1,0c0.8,0.4-0.9-0.3,0.5-1.2c1.2-0.8,2.4-0.2,3.5-0.6c1.3-0.4,0.6-2.2,2.3-1.1c2.4,1.5,4.7,3,7.5,2.1
		c1-0.3,2.2-1.4,0.9-2.1c-1.7-0.9-2,0.4-3.3,0.3c-1.3-0.1-1-2.1-2.5-1.4c-0.6,0.2-1.1-0.6-1.3-1c-0.4-0.8-1.6-0.5-2.4-0.1
		c-1.1,0.7-1.3-0.4-1.9,0.2c-0.4,0.4-0.3,1-0.8,1.3l-7.5,0c0.3-0.6-0.3-1-1-1.1c0.1-0.6,0.5-0.8,1.1-0.6c-0.1-0.6-0.1-1.2,0.1-1.8
		c-0.4,0.8-1,1.4-1.9,1.6c-0.3-0.8,2.1-2.9,2.9-3c-0.9-0.4-3.2,1.8-3.2,2.6C1144,637.3,1142.5,633,1140,632.1"/>
	<path id="tg" class="st0" d="M1269.8,663.2c1.5,0.4,3,0.5,4.4,1.2c1.1,0.5,2.9,0.2,3.8-0.2c-0.6,1.7-1.8,4.5-0.5,6.1
		c0.8,0.9,3.5,1.9,3.6,3.2c0.2,1.8-0.2,4,0.7,5.7c1.1,1.9,1.6,3.2,1.5,5.4c-0.1,3.9,0,7.8,0.1,11.7c0,0.6,0.2,2.9-0.9,2.9
		c0.4,1.1,0.2,2.4,0.7,3.5c0.4,0.9,1.1,1.7,1.2,2.7c-1.6,0.1-3.2,0.9-4.6,1.5c0-0.7-1.9-1.7-2.3-2.1c-1.1-0.9-1.9-1.6-2.5-2.8
		c-0.9-1.7,0.9-3.3,0.8-5c0-1.1-1.3-1.2-1.1-2.3c0.3-1.3,1-2,0.8-3.5c-0.1-0.8-0.2-1.6,0-2.3c0.1-0.5,0.8-0.9,0.7-1.4
		c-0.4-1.5-1.9-2.1-2.5-3.5c1.7-0.2,0.6-2.5,1.1-3.6c0.3-0.6,0.3-1.6,0-2.2c-0.6-1.1-1.4,0.1-2.3,0c0.5-0.6,0-1.4,1.1-1.2
		c-0.2-1.2,0.6-3.2,0.2-4.2c-0.7-1.7,0.5-1.9-1.2-2.9c-0.9-0.5-2.2-2.3-2.1-3.4c0.1-0.9,0.9-1.4,0.6-2.3
		C1270.9,663.5,1270.1,663.5,1269.8,663.2"/>
	<g id="ga" transform="translate(-29.9017, -45.0745)">
		<path id="path5980" class="st1" d="M1368.9,810.7c0.1,0.2,0.2,0.4,0.3,0.6c0.3-0.5,0.2-0.9-0.2-1.3
			C1369,810.2,1369,810.5,1368.9,810.7"/>
		<path id="path6014" class="st0" d="M1367.9,812.3c-0.5-0.6-0.8-1.5-0.4-2.2c0,0.6,0.2,1.1,0.6,1.5c0.2-1.6,1.1-0.3,1.1,0.7
			c0.2-2,2.2-3.1,2.4-5.1c0.2-1.3-0.7-4,0.5-5c0.1,0.7,0.5,1.1,0.9,1.7c0.2-1.1,1.8-0.5,2.3,0.4c-0.1-0.9,0.9-1.3,1.6-1.2
			c-1.8,0-3.2-0.4-4.3-2c-0.4-0.6-1.8-1.5-0.3-1.8c0.6-0.1,1.5,0.2,1.5,0.9c0.5-1.2-0.4-2.8,0-4.1c0.2-0.7,1-0.6,1.6-0.3
			c0.9,0.5,1.6-0.1,2.6-0.1l9,0.1l0-9.9c0.4-2.3,1.3-1.4,3.1-1.3c1.5,0.1,3.3,0.3,4.8,0.2c1.5-0.1,3,0.4,4,0.4
			c2.3-0.1,4.2-1.3,2.6,2.4c-1,2.3,0.6,4.5-0.2,6.6c1.7-0.3,3.3-1.2,5-1.6c3.2-0.7,2.8,1.2,3.8,2.8c0.9,1.5,1.7,3.7-1.4,4.4
			c-1.7,0.4-1.8,3.2-1.6,4.6c0.1,0.6-1.3,2.4,0.2,2.4c0.7,0,1.4,0.6,1.4,1.1c-0.1,0.8,1.6,0.6,2.2,1.3c1.4,1.4-0.3,3.2-0.1,4.7
			c0.2,1,1.3,3.8-0.4,4.7c1.1,0.7,0.3,2.6-0.7,3c-0.3,0.1-0.7,2.5-0.6,2.6c0.6,0.7-1.1,2.5-1.9,2.4c-0.9-0.1-1.2-3.1-1.6-3.8
			c-0.3,0.9-1.4,2.8-2.4,3c-1.1,0.1-2.3-1.2-3.4-0.6c0.7-2.8-4.7-7.3-3.9-2.6c0.4,2.8-0.6,2.8-3.2,3c-0.8,0.1-0.6-0.6-1.4-0.6
			c-1.1,0.1-1.3,0-2.4-0.3c0.4,1.4,0.7,3-0.3,4.2c1-0.4,1.8,0.2,1.7,1.3c0,0.9-0.2,1.7-0.1,2.1c0.4,0.4,1,0.4,1.3,0.9
			c0.6,0.9-0.1,1.1,0,1.9c0.1,0.7,0.5,1.6-0.7,1.6c-1.2,0.1-1.3-1-2.2-1.5c-0.9-0.5-2.9,2.8-3.1,3.4c-1.7-1.3-3.1-4-4.2-5.8
			c-1.7-2.6-4.2-4.6-6.4-6.8c1.2-0.8,1.6,2,2.7,0.6c-0.8,0.1-2-0.9-2.8-1.1c-1.4-0.3-2.4-3.6-3.3-4.8c0.9,0.1,1.2,1.1,2.1,1.3
			c-0.8-1.2-0.9-1-2-1.6c-0.5-0.3-0.3-1.2-0.5-1.6c-0.3-1.1-1.1-1.9-1.6-2.9c0.7,0.6,2.1,1.8,1.9,2.9c0.7-0.2,1.5-0.4,2.2-0.4
			c-0.4-0.3-0.8-0.7-1-1.2c-0.2,0.6-0.6,0.9-1.2,0.6c0.1-0.8,0.7-1.4,0.4-2.2C1370.5,819.1,1368.5,812.7,1367.9,812.3"/>
	</g>
	<path id="mw" class="st0" d="M1518.9,878.1c0.2-0.5,1.6-2.7,2.1-4.1c0.5-1.4,0.4-1.8,0.1-3.7c-0.3-1.7,3.6-2.8,4.4-3.7
		c-2.8-0.9-1.6-5.5-1.6-7.5c0-1.7,1.1-2.4,0.2-4.1c-1.1-2,0.5-1.6,1.6-2.3c1.3-0.9,1.6-2.9-0.5-5.3c-1.7-2,0.4-2.6-1.2-3.6
		c-1.3-0.9-1.8-0.8-2.2-1.2c-0.2-0.2,0.3-1.3-0.2-1.8c0.2,0.2,1.9,0.8,2.7,0.9c1,0.1,0.7,0.9,1.6,1c0.8,0.1,2.6,0,3.1,0.9
		c0,1.3,0.1,2.9,1.7,4.8c1.4,1.7,0.1,2.1,0.3,3.5c0.2,1.2,0.6,6.7,0.6,7.4c0.1,2.6-3.2,5.1-2.4,6.6c3.4,5.8,2.3,5.8,2.1,6.9
		c-0.8,4.9,2.5,3.8,2,6c-1.2,5.5,2,4.6,1.9,2l2.7,3.5c0.6,0.3,0.3-4.5-1.6-5.9c-1.7,0.3-0.9-1.3-1.1-1.7c1.3,0.6,1.4,0.7,3,3
		c1,1.5,1.9,3.2,3.3,4.7c1.5,1.8,1.6,3.5,1,5.7c-0.5,2,0.2,3.9-0.1,6c-0.1,0.9-0.4,1.9-1.2,2.5c-0.8,0.6-2.1,0.4-2.9,1.1
		c-0.8,0.7-0.5,2.1-1.7,3.1c0.3,0.3,1.1,2,1.2,3c0,0.4,0,1.6-0.4,2c-0.4,0.4-1.8,0.3-1.6-0.4c0.4-1.6,1.2-1.1-0.5-2.7
		c-1.1-1.1-4.2-4.1-4.3-5.3c-0.3-2.1-0.8-1.6-0.4-3.3c0.2-0.7,0.6-2.3,1.2-3.1c0.9-1.1,0.7-1.4,0.8-2.9c0.2-1.7,0.2-3.9-1-5.5
		c-0.4-0.7-1.8,0.2-3,0.4c-1,0.1-2.5-0.2-2.5,0.8c-0.6-0.6-4.4-5.1-4.6-5C1520.7,881.1,1518.7,878.9,1518.9,878.1z"/>
	<path id="ma" class="st0" d="M1175.7,520.2c0.3-0.4,1.5-2.2,1.9-2.3c1.4-0.5,3-0.6,4.4-0.9c2.7-0.6,5.5-1.5,7.5-3.4
		c2-1.9,4.1-3.4,6.2-5.2c2-1.7,3.6-4,5.2-6.1c1.1-1.4,3.6-5.5,1.5-7c-0.8-0.6-1.4-0.6-0.9-1.7c0.5-1.1,0.5-2.2,0.5-3.4
		c0.2-3.3,1.4-4.8,3.4-7.3c1.2-1.4,0.8-2.9,1.3-4.5c0.4-1.2,1.3-2.1,2.2-2.9c1.9-1.7,3.4-3.8,5.7-4.9c2.6-1.2,5.3-2.1,7.8-3.5
		c4.9-2.8,7.2-9.5,9-14.5c0.2-0.5,0.8-2.9,1.6-2.8c0.9,0.1,1.8-0.3,2.6-0.7c1-0.5,1.2,0.8,1.4,1.5c0.5,1.3,1.3,2.3,2.5,3.1
		c2.5,1.8,4.5,1.3,7.4,0.9c2.4-0.3,5.3,1.1,6.8-1.6c0,0.9,0.2,1.1,0.3,1.8c0.1,0.7,1.5,1.1,0.3-0.1c0.6,0.9,1.8,1.3,2.8,0.8
		c1-0.5,1.6,0.5,2.3,1.1c0.7,0.6,1.9,1,2.3,1.9c0.5,1-0.5,1.9,0.9,2.5c-0.8,0.6-0.5,1.7-0.4,2.5c0.2,1.3-0.2,2.4-0.1,3.6
		c0.1,1,0.8,1.6,0.5,2.7c-0.4,1.6-0.2,2.2,0.6,3.6c0.4,0.7,0,1.4,0.4,2c0.6,1,1.5,1.4,2.3,2c1.6,1.2-3.1,3.3-0.6,4.2
		c-2.6,0.7-11.6-2.4-13,1.1c-0.7,1.8-2.5,2.5-4.5,2.4c-1.5-0.1-3.3,2-1.3,2.5c-1.7,1.6,1.4,2.7,0.7,3.5c-0.9,0.8-2.4,0.5-3.3,1.2
		c-1,0.7-2,1.8-3.2,2.2c-0.9,0.3-1.8,0.3-2.7,0.7c-1.6,0.9-2.2,2.7-3.4,4c-1.3,1.5-3.8,2.1-5.7,2.1c-1.4,0.1-3-0.5-3.6,1.2
		c-0.6,1.8-2.4,0.5-3.9,0.6c-1,0.1-1.6,0.6-2.3,1.3c-0.7,0.7-1.5,0.6-2.3,0.9c-1,0.4-1.5,1.3-2.3,2c-0.8,0.7-1.8,1.1-2.7,1.8
		c-1.6,1.3-3,1.5-2.9,3.8c0.2,2.3-0.1,4.8-0.3,7C1208.9,520.9,1178.8,520.2,1175.7,520.2"/>
	<path id="lr" class="st0" d="M1183.1,699.6c1-0.4,1.1-2,1.8-2.8c1.4-1.4,3-2.6,4.3-4c0.8-0.9,0.3-2.2,0.9-3.1
		c1-1.2,1.6-0.5,2.3-2.4c0.3-0.7,0-0.9,0.2-1c-1.4-0.5,1.4-0.4,2.1-0.2c0.7,0.2,1.1-0.5,1.7-0.5c0.9,0.1,1.6,1.1,2.2,1.6
		c-0.4,0.5-0.2,1.1,0,1.6c0.2,0.4-0.1,1.4,0.4,0.9c0.5,2.1,0.3,4-0.4,6c1.4-0.5,2.7-0.2,2.8,1.4c1.6-0.7,2.3-1.1,2.8-2.8
		c0.2-0.5,0.3-1.5,1-1.6c0.7-0.1,1.4,1.5,1.7,2c0.9,2,0.9,3.1,0.6,5.3c-0.1,1-0.8,1.8-1.2,1.9c-0.6,0.2-0.9,0.8-1,0.9
		c0.1,0.2,0.5,0.6,1.6,0.7c-0.6,2.1,3.7,0.4,4.1,2c0.2,0.6-0.1,1.3,1,2.1c0.9,0.6,1.8,1.4,2.2,2.3c0.8,2.2,0,3.5-0.3,4.6
		c-0.7,2.6-1.7,4.4-0.5,6.8c-1.2,0.2-2.1-0.3-3.1-0.8c-1.3-0.7-2.8-0.8-4-1.8c-2.1-1.7-4.8-2.5-6.8-4.4c-2.2-2.2-3.9-4.7-6.1-6.8
		c-0.7-0.7-5.8-2.4-4.6-3.6c-0.9,0.1-2.1-1.3-2.9-1.7C1184.2,701.7,1184.3,700.8,1183.1,699.6"/>
	<path id="cf" class="st0" d="M1380.6,707.3c0.5-0.8,1.2-1.3,1.9-1.9c1.1-0.9,1.2-1.9,1.9-3.1c1.2-1.9,2-4.8,3.4-6.7
		c1.7-2.3,1.9-0.7,4.1-1.3c1.1-0.3,2-0.6,3.1-0.9c1.1-0.3,0.8-1.5,1.9-1.9c0.3,1.2,1.3,1.9,1.9,2.9c0.6-1.2,2.5-1.8,3-2.2
		c1.8-1.4,4.6-1.9,6.7-1.9c1.9,0,3.7,0.5,4.6-1.2c0.6-1.2,3.3-3.4,3.1-4.5c-0.1-0.7-1.7-0.5-1.8-1.5c-0.1-1.4,4.2-1.5,5.4-1.4
		c3.6,0.1,7.5-1.3,9.8-4.2c1.2-1.5,2-3.1,3.6-4.3c0.8-0.6,3-2.6,2.6-3.5c-0.6-1.2,0.4-2.3,1.8-2.7c1.6-0.4,2.8-2.4,4.7-2.4
		c2.2-0.1,2.8,1.4,3.8,2.6c1.6,1.9,3.3,3.3,4.2,5.3c0.9,2,1,3.7,0.8,5.8c-0.1,2.1-1.9,2.3-1.6,3.8c0.3-0.1,0.5-0.2,0.8-0.3
		c0.2,0.8-0.2,1.5-0.5,2.2c1.6,0.3,3.5-0.1,5,0.7c1.6,0.9-1,3.2,2,3.7c1,0.2,2.4,0.1,3.2,0.7c1,0.8,1.5,1.6,2.6,2.4
		c1.7,1.3,0.4,2.2,0.4,2.9c0,1.1,1.5,1.8,2.3,2.3c0.9,0.5,1.8,1.1,2.8,1.6c1.8,0.9,1.2,1.4,1.9,2.4c0.5,0.7,2.4,1.1,1.9,2.2
		c-0.7,1.4-0.1,1.7,0.8,2.5c0.8,0.8-0.1,1.4,1.3,2.3c0.9,0.6,1.8,0.9,2.8,1.4c1.6,0.8,2.2,1.8,2.1,3.5c-0.1,1.6,1,2.5,1.5,3.8
		c-1.3-1.4-2.9-1.9-4.1-0.8c-0.5,0.5-1.5,0.4-2,0.3c-0.3-0.1-0.6-0.1-0.8,0.1c-0.7,0.3-0.9-0.3-1.4-0.5c-1-0.4-1.8-1.2-2.9-0.9
		c-2.1,0.6-2.2-0.8-3.5-1c-0.9-0.1-1.5,0.4-1.3,1.3c0.3,1.4-1.4,1.6-2.4,1.9c-1,0.3-2.3,0.8-3.2,0.1c-0.5-0.4-1.5-1.9-1.8-0.9
		c-0.4,1.3-3.1,2.2-4.2,2.4c-2.1,0.4-3.4,2.3-4.3,1.4c-1-1.1-2.1-2.6-3.7-0.7c-0.5,0.6-0.4,1.5-0.8,2.1c-0.5,0.9-0.6,2.1-1.6,2.7
		c-1.3,0.9-4.4-1.1-6-1c-0.9,0-1.1,0.3-2.2-0.1c-1.1-0.4-1.5,0.2-2.3-0.8c-0.8-1-2.5-0.1-3.6-0.3c-1.4-0.3-1.4-2.2-2.2-2.9
		c-1.4-1.3-3.4-2.2-4.7-3c-1.8-1.1-4.4,1.2-5.4,2.8c-0.5,0.9-1.3,1.8-1.6,2.8c-0.3,0.8-1.4,0.6-1.7,1.1c-0.5,0.7,0.7,2.1,0.6,3
		c-0.1,1.2-0.2,1.7-0.2,4.4c-1-1.7-3.5-0.2-5.2-0.5c-0.8-0.1-2.1-0.7-2.8-1.1c-1.4-0.6-2.5,0.7-3.9,0.9c-2,0.4-3.7-0.3-4.1,2.2
		c-0.2,1.4-0.1,2.8-0.4,4.2c-0.3,1.8-1.5,3.5-2.1,5.2c-0.5-2-0.8-3.7-1-5.8c-0.1-2-2.3-1.9-3.3-3.1c-0.5-0.6-6-6.9-3.5-7
		c-1.3-0.9-1-2.9-2.3-3.9c-1.7-1.3-1.5-3.3-1.5-5.3c0-0.8-1-1.3-1-1.8c0-0.7,0.5-1.5,0.5-2.3c0.1-0.9,0.1-1.8-0.2-2.6
		C1381.8,707.9,1380.9,708.3,1380.6,707.3"/>
	<path id="zw" class="st0" d="M1461.9,913.7c1,0.2,1.9,0.4,2.9,0.1c0.9-0.3,1.4,1.1,2,1.5c0.7,0.4,1.8-0.6,2.5-0.7
		c0.8-0.1,2.1,0.8,2.8,1.1c2.1,0.9,3.4-1,4.5-2.5c1.5-2,3-3.9,4.1-5.8c0.5-0.9,1.2-1.2,2-1.8c1.1-0.8,2.2-1.3,3.5-1.9
		c2.5-1,2.9-1.3,3.1-4.1c0.1-1.4,2.4-3.1,3.6-3.6c1.2-0.5,2.6-1.1,3.8-1.1c1.5-0.1,3.1,0.4,4.6,0c0,2.9-0.2,3.1,2.9,3.1
		c2,0,3.1,0.5,5,1.3c1.1,0.4,3.6,1.9,4.6,2.4c1.5,0.8,3.9,0.5,4.5,1.7c0.4,0.9,1.2,1,2.1,0.7c-0.2,1.3-1,2.1-0.4,3.5
		c0.7,1.6-0.2,2.8,0.3,4.3c0.5,1.5-0.6,3.1-0.3,4.7c0.2,1.1,0.9,2-0.1,2.9c-0.7,0.6-0.1,2.1-0.5,2.4c-1,0.6-1.3,0.5-1.7,1.8
		c-0.2,0.6,0.8,0.8,1.1,1c0.2,0.2,0,1.1,0,1.3c-0.1,0.6-0.6,0.9-0.7,1.4c-0.1,0.4,0.5,2,0.7,2.5c0.2-0.1,0.5-0.2,0.7-0.3
		c-0.1,1.6,0.5,2.2-0.4,3.8c-0.8,1.3-1.3,3.4-2.7,4.1c-1.6,0.7-0.4,1.7-0.7,2.9c-0.4,1.5-1.5,2.3-0.4,3.8c-1.2-0.9-6.6,7.1-7.6,7.8
		c-0.9,0.6-1.4,1.9-1.8,1.9c-0.8-1.8-4.2-1-5.9-1c-1.5,0-2.8-0.6-4.2-1c-3.1-1.1-4.1-0.3-4.3-0.5c-0.8-1-0.9-0.5-1.9-1
		c-1.1-0.6,0-1.5-0.3-1.9c-1.5-2-7.1-0.7-7.9-2.8c-0.8-2-2.4-3.9-1.7-5.9c0.9-2.8-0.4-3.4-3.2-2.8c0.5-2.6-0.2-3.7-2.6-4.4
		c-1.9-0.6-4.5-2.7-5.5-4.4c-1.6-2.5-1.7-5.7-3.6-8.2C1464,918.9,1461.2,915.1,1461.9,913.7"/>
	<path id="bj" class="st0" d="M1277,666.9c0.3-0.8,0.4-2,1-2.6c0.5-0.6,0.7-0.5,1.2-1c1-1,2.6-3.9,3.9-2.5c0.4,0.4,4.5-0.6,5.3-2
		c0.5-0.9,1.2-2.1,1.2-3.1c0-0.6-0.8-2.1,0.2-2.3c0.7-0.1,1.6,0,1.9-0.4c1-1.5,2.4,0.2,3.1,1c0.6,0.6,0.9,1.1,1.4,1.8
		c0.6,0.7,1.5,1.5,2.1,2.4c0.4,0.5-0.4,1.7-0.5,2.2c-0.3,1.1,0.8,2.1,1.4,2.9c0.6,1,0.1,2,0.5,2.9c0.5,1.1,1.1,1.9,0.4,3.1
		c-0.4,0.6-1.2,0-1.4,0.8c-0.4,1.1,1.1,1.9-0.2,3.3c-0.6,0.7-1.4,0.9-1.9,1.6c-0.4,0.7-0.5,1.5-1.1,2.2c-1.1,1.4,0.6,3.4-1.8,4
		c-0.8,0.2-1.3-0.2-1.5,0.8c-0.1,0.9-0.6,1.7-0.6,2.6c0.1,2.2,0.1,4.4-0.1,6.5c-0.1,1,0.9,2.9,0.7,4.2c-0.1,1.2-0.2,2.2-0.3,3.3
		c-0.3,1.5,0.3,2.2,0.2,3c-0.1,0.9-0.7,2.3-0.6,2.9c-1,0-2.7,0.2-3.7,0.4c-1.5,0.3-3.1,0.6-4.6,0.8c0.4-0.3,0.8-0.5,1.3-0.5
		c-0.1-0.8-0.6-1.6-1-2.3c-0.6-1-0.7-2.7-0.9-3.9c0.2,0,1-0.3,0.9-2.3c-0.2-3.8,0-7.7,0-11.5c0-2.2-0.1-3.8-1.3-5.7
		c-1.1-1.8-0.8-3.8-0.8-5.7c-0.1-1.5-2.3-2.3-3.5-3.3C1276.6,669.5,1276.9,668.1,1277,666.9"/>
	<g id="er" transform="translate(-29.9017, -45.0745)">
		<path id="path6816" class="st1" d="M1603.5,667.4c0.1,0.6,0.6,2.3-0.4,1.4c0.4,1.3,2.6,1.2,3.7,1.1c-0.5-1.1-2,0-2.3-1.2
			C1604.4,668.3,1604.3,666.9,1603.5,667.4"/>
		<path id="path6830" class="st0" d="M1576.9,673.6c1.2-1.1,1.1-2.8,1.6-4.2c0.5-1.6,1.1-3.1,1.7-4.6c0.5-1.4-0.9-7.2,1.3-7.5
			c0.4-0.1,2.1,0.3,2.4-0.2c0.7-1.2,0.2-2.1,1.6-2.6c1.2-0.4,2.5-1.3,3.7-1.8c1.8-0.7,1.8-2.5,3.1-3.7c2.2,4.5,3.9,8.8,5,13.6
			c0.3,1.2,0.2,2.3,0.8,3.4c0.6,1.2,1.1,2.1,1.4,3.4c0.2,0.9,1.3,1,1.5,1.9c0.2,0.9,0.4,2.4,1.2,3c1-0.7-0.6-3.3,0.4-3.4
			c1-0.2,1.6,1.1,1.6,1.8c0.1,0.9,0.7,2.3,1.5,2.7c1.2,0.5,1.9-1,3.1,0.3c1,1.1,1.1,1.9,2.7,2.1c1.8,0.3,2.5,1.7,3.5,3.1
			c0.9,1.4,1.8,2.8,3.2,3.7c0.7,0.4,1.3,1,1.9,1.5c0.3,0.3,1.7,2.2,1,0.5c1,0.6,1,2,1.3,2.9c0.3,0.8,1.2,0.6,1.7,1.2
			c0.5,0.6,2.6,4.4,3.4,2.5c0.8,0.7,1.2,1.1,0.7,1.6c-1.2,0.5-2.1,1.3-2.1,1.9c-0.1,2.2-1.8-1-3.8,0.6c0.2-0.6-0.3-2.3-2.5-3.8
			c-1.9-2.9-3.1-4.8-4.3-5.1c-2.1-0.6-2.7-3.1-4-4.8c-1.3-1.8-3.3-1.9-5-3.2c-1.6-1.2-2.5-0.2-4-0.6c-1.2-0.3-3.2-1.4-4.3,0
			c0-0.9-1.8-2.7-1.4-2.1c0.2,0.3-1.3,1.9-2.4,2c-0.7,0-2.2,0.3-2.9-0.9c-1.3-2-1.8-0.4-3.4-2.9c-0.6,2.3-1.5,4.6-2.4,6.8
			c-0.5-0.7-1.7-3.2-2.9-2.6c-0.7,0.4-0.6,1.1-1.7,1.1c-2.9-0.2-2.8-0.3-3.5,1.5c-0.5-2.5-0.7-6.4-0.7-8.8"/>
	</g>
	<path id="sz" class="st0" d="M1501,990.7l0.2,0c1,0.9,0.8,0.8,1.6,1.7c0.7,0.8,0.7,1.2,1.5,1.9c0.9,0.9,2.8,2.1,4.3,0.9
		c0.7-0.5,0.4-0.6,0.8-1.4l0.9-1.8l1.3,0l0-0.5c-1.5-6.2,0.4-2-1.1-6c-0.8-0.9-1.8-1.8-2.6-2.1l-2.4-0.1c-0.8,1-1.4,1.1-2.1,2.2
		c-0.4,0.6-0.6,1.1-0.8,1.5C1502.3,987.5,1501.5,990.3,1501,990.7z"/>
	<path id="gm" class="st0" d="M1143.6,643.9c1.4-1.1,1.2-1,1.9,0.5c0.5,1.2,2.2-0.4,3,0.2c-1.8-0.9,3.7-1.5,4-1.7
		c-1.4-0.1-3.1,0-4.4,0.5c-1.1,0.5-1.8,0.8-2.5-0.5c-0.6-1.2,0.6-1.2,1.5-1.1c2.1,0.2,4.3,0.1,6.4,0.1c0.6,0,0.3-1.7,1.6-1.4
		c1,0.3,2-1,3.1-0.4c0.5,0.3,0.7,1,1.2,1.3c0.5,0.3,1-0.2,1.5,0c0.6,0.3,0.4,1.1,1,1.4c0.7,0.3,1.5-0.2,2.1-0.4
		c0.7-0.2,2.5-0.1,2.4,1c-0.1,1-1.8,1.4-2.6,1.5c-3.4,0.5-7-3.4-7.5-2.5c-0.6,1.1-0.7,1.5-2.8,1.4c-0.7,0-2.8,0.4-2.4,1.6
		c0.1,0.2-6.7-0.5-7,1.1C1143.8,645.7,1143.5,644.8,1143.6,643.9"/>
	<g id="cv">
		<g id="cv-" transform="translate(-29.9017, -45.0745)">
			<path id="path5762" class="st4" d="M1110.6,658.3c0.7,0.1,2.4-1,2.1-1.9C1112.1,654.9,1109.4,656.8,1110.6,658.3"/>
			<path id="path5764" class="st4" d="M1112.7,659.4C1114.8,659.3,1111.9,657.5,1112.7,659.4"/>
			<path id="path5766" class="st4" d="M1116.5,676.5c0.6-0.2,1.1-1.4,0.5-1.8C1115.8,674,1115.4,675.9,1116.5,676.5"/>
			<path id="path5768" class="st4" d="M1117.7,662c0.2-1.6,1.7,0,2.2-0.9c-0.9-0.4-2-0.9-2.9-0.6
				C1117.2,661,1117.5,661.5,1117.7,662"/>
			<path id="path5770" class="st4" d="M1123.1,675.7c1.2-1.2-0.8-2.6-1.3-3.6C1121.3,673.6,1121,675.7,1123.1,675.7"/>
			<path id="path5772" class="st4" d="M1125.9,673.8C1127.9,671.7,1123.8,672.5,1125.9,673.8"/>
			<path id="path5774" class="st4" d="M1129,666.4c2-0.8,0.3-1.9-0.7-2.2C1128.3,665,1127.4,666.4,1129,666.4"/>
			<path id="path5776" class="st4" d="M1128.2,661.1c0.5-0.7,0.3-1.5,0.1-2.2C1127.6,659.5,1128.2,660.3,1128.2,661.1"/>
		</g>
		<path id="cv." class="st5" d="M1088.6,625.4c6.1,0,6.1-9.1,0-9.1C1082.5,616.3,1082.5,625.4,1088.6,625.4"/>
	</g>
	<g id="km">
		<g id="km-" transform="translate(-29.9017, -45.0745)">
			<path id="path5750" class="st1" d="M1630.9,907.9c0.4-0.4,0.2-1.2,0-1.6c-0.5-1.1-0.2-2.2-0.5-3.3c-1.4,0-0.8,1.8-1.1,2.6
				C1628.8,906.8,1630.3,907.2,1630.9,907.9"/>
			<path id="path5752" class="st1" d="M1633.8,911.8c-0.2-0.7-0.9-1.2-1.7-1.1C1632.1,911.7,1633,911.7,1633.8,911.8"/>
			<path id="path5754" class="st1" d="M1638.8,911.7c0.8-2.2-0.8-1.4-2.2-1.7C1637.4,910.5,1638.2,911,1638.8,911.7"/>
		</g>
		<path id="km." class="st6" d="M1603.7,867.7c6.1,0,6.1-9.1,0-9.1C1597.6,858.5,1597.6,867.7,1603.7,867.7"/>
	</g>
	<g id="mu">
		<path id="mu-" class="st1" d="M1704.1,932.6c-0.5,0.6-3,4.3-1.3,4.5C1705.6,937.4,1706,932.2,1704.1,932.6"/>
		<path id="mu." class="st6" d="M1700.7,938.2c6.1,0,6.1-9.1,0-9.1C1694.6,929.1,1694.6,938.2,1700.7,938.2"/>
	</g>
	<g id="st">
		<g id="st-" transform="translate(-29.9017, -45.0745)">
			<path id="path2898" class="st1" d="M1350.2,804.5c0.7-0.4,1.4-1,1.6-1.7c0.1-0.4,0.1-1.7-0.7-1.5
				C1349.4,801.7,1350,803.2,1350.2,804.5"/>
			<path id="path5384" class="st1" d="M1356.9,791.4c0.3-0.5,0.3-1,0.1-1.5C1356.4,790.3,1356.4,790.9,1356.9,791.4"/>
		</g>
		<path id="st." class="st6" d="M1322.9,756.5c6.2,0,6.2-9.3,0-9.3C1316.7,747.2,1316.7,756.5,1322.9,756.5"/>
	</g>
	<g id="sc">
		<path id="sc-" class="st1" d="M1694.5,801c0.1-0.7-0.2-1.6-1.1-1.4C1694,799.9,1694.4,800.4,1694.5,801"/>
		<path id="sc." class="st6" d="M1695.2,799.9c6.1,0,6.1-9.1,0-9.1C1689.1,790.8,1689.1,799.9,1695.2,799.9"/>
	</g>
	<g id="pt-30">
		<path id="pt-30-" class="st1" d="M1151,477.1c-0.7-0.1-1.3-0.5-1.8-1c-0.4-0.4,0.4-1,0.8-0.6c0.6,0.6,1.4-0.4,2,0.4
			C1152.6,476.7,1151.8,477.3,1151,477.1"/>
		<path id="pt-30_" class="st6" d="M1150.6,480.8c6.1,0,6.1-9.1,0-9.1C1144.5,471.7,1144.5,480.8,1150.6,480.8"/>
	</g>
	<g id="es-cn">
		<g id="es-cn-" transform="translate(-29.9017, -45.0745)">
			<path id="path5984" class="st1" d="M1170.1,565.5c-1.1-0.7-0.2-1.8,0.9-1.5C1170.7,564.5,1170.4,565,1170.1,565.5"/>
			<path id="path5986" class="st1" d="M1172.1,557.8c-0.2,0.1-0.4,0.3-0.7,0.4c-0.1-0.7-1.4-2.7-0.1-3
				C1172.9,554.9,1172.6,557,1172.1,557.8"/>
			<path id="path5988" class="st1" d="M1175.8,562.3c-0.7-0.5-0.8-1.8,0.4-1.6C1177.4,561,1176.6,562.2,1175.8,562.3"/>
			<path id="path5990" class="st1" d="M1179.9,562.5c-0.6-1-0.9-2.2-1.5-3.2c2.2-0.5,3.8-1.2,5.9-2
				C1183.6,559,1181.7,561.9,1179.9,562.5"/>
			<path id="path5992" class="st1" d="M1187.9,564.7c-1.8-0.3-2.1-3.1-0.3-3.6C1190.4,560.5,1189.6,563.9,1187.9,564.7"/>
			<path id="path5994" class="st1" d="M1197.3,562c-0.2-0.1-0.4-0.3-0.7-0.4c2.1-0.7,2.4-4,3.9-5.4c1-0.9,0.5,2.7,0.3,3.1
				C1200.2,560.8,1198.4,560.8,1197.3,562"/>
			<path id="path5996" class="st1" d="M1201.8,555.1c-0.2-0.1-0.5-0.2-0.7-0.3c0.3-0.7,2.6-3.7,3.2-2.2
				C1204.7,553.9,1202.4,554.5,1201.8,555.1"/>
		</g>
		<path id="es-cn_" class="st6" d="M1157,510c6.1,0,6.1-9.1,0-9.1C1150.9,500.8,1150.9,510,1157,510"/>
	</g>
	<g id="yt">
		<path id="yt-" class="st1" d="M1613.4,872c0.5-0.6,1.1-2,0-2.4C1613.2,870.1,1613,871.5,1613.4,872"/>
		<path id="yt." class="st6" d="M1614.5,877.1c6.1,0,6.1-9.1,0-9.1C1608.4,867.9,1608.4,877.1,1614.5,877.1"/>
	</g>
	<g id="re">
		<path id="re-" class="st1" d="M1689.5,941.3c-0.1-2-4-0.8-3.5,1.1C1686.6,945.2,1691.9,945.4,1689.5,941.3"/>
		<path id="re_" class="st6" d="M1688.2,946c5.4,0,5.4-8.5,0-8.5C1682.8,937.5,1682.8,946,1688.2,946"/>
	</g>
	<g id="sh">
		<path id="sh-" class="st4" d="M1220.3,908.4c0.3-0.5,0.3-1,0.1-1.5C1219.8,907.3,1219.8,907.9,1220.3,908.4"/>
		<path id="sh." class="st5" d="M1220.3,912.3c6.2,0,6.2-9.4,0-9.4C1214,902.9,1214,912.3,1220.3,912.3"/>
	</g>
</g>
</svg>
