<svg xmlns="http://www.w3.org/2000/svg" width="477" height="133.274" viewBox="0 0 477 133.274">
  <g transform="translate(-4985.003 0)">
    <g transform="translate(4985.003 0)" style="isolation: isolate">
      <g transform="translate(0 15.265)" style="isolation: isolate">
        <path d="M4.55,73.681h28.9V-23.287H4.55Zm54.69,0h28.9V-44.038H59.24Zm54.69,0h28.9V25l59.15,48.678h39.175l-61.09-48.872,61.09-48.1H202.17l-59.344,47.9V-44.038h-28.9Z" transform="translate(235.849 44.038)"/>
        <path d="M33.834,109.675H84.584l27.941-98.46,28.131,98.46h50.561L224.481,0H195.019L165.938,99.981,138.376,0H86.485L59.3,99.981,29.842,0H0Z" transform="translate(224.481 118.008) rotate(180)"/>
      </g>
      <ellipse cx="15.93" cy="15.238" rx="15.93" ry="15.238" transform="translate(239.014)"/>
    </g>
  </g>
</svg>