<svg id="Layer_1" data-name="Layer 1" xmlns="http://www.w3.org/2000/svg" width="200" height="70" viewBox="0 0 200 70">
    <path d="M21.22,4.93h6.09V6.08H26.16q-.3,0-1.05.69c-.51.46-.76.82-.76,1.05V25.31c0,.24.25.59.76,1.06s.85.69,1.05.69h1.15V28.2h-9V27.05h1.15c.2,0,.54-.23,1-.69s.72-.82.72-1.06V8.37L12.78,28.62,4.34,8V25.31q0,.36.72,1.05c.48.46.83.69,1,.69H7.23V28.2H0V27.05H1.15q.36,0,1.08-.69c.49-.47.72-.82.72-1.06V7.82c0-.23-.24-.59-.72-1.05s-.84-.69-1.08-.69H0V4.93H6.75l7,17.42h.18ZM35.69,25.85a5.52,5.52,0,0,0,3-.66,5.81,5.81,0,0,0,1.8-2h1A8.71,8.71,0,0,1,39,27.11a6.31,6.31,0,0,1-4.43,1.45,6.12,6.12,0,0,1-5-2.29,8.35,8.35,0,0,1-1.87-5.49,8,8,0,0,1,2.1-5.84,6.77,6.77,0,0,1,5.06-2.17,7.59,7.59,0,0,1,3,.54,8,8,0,0,1,2.35,1.54l-2.2,3.46-.9.05A6.19,6.19,0,0,0,37,15.28a2.23,2.23,0,0,0-2.41-1.36,3.71,3.71,0,0,0-3.32,1.62,7.6,7.6,0,0,0-1.09,4.29,6.42,6.42,0,0,0,1.48,4.28A5.07,5.07,0,0,0,35.69,25.85ZM50.63,28.2h-9.1V27.05h1.16c.24,0,.6-.23,1.09-.69s.72-.82.72-1.06V7.82c0-.23-.24-.59-.72-1.05s-.86-.69-1.09-.69H41.53V4.93h9.1V6.08H49.49c-.24,0-.6.23-1.09.69s-.72.82-.72,1.05v9.53L56,8.06c.16-.2,0-.58-.42-1.14s-.77-.84-1-.84H53.49V4.93h8.44V6.08H60.78A4.35,4.35,0,0,0,59.25,7c-.8.62-1.28,1-1.45,1.18l-5.65,6.08,8.13,10.8a6.82,6.82,0,0,0,1.36,1.21,3.36,3.36,0,0,0,1.42.78h1.68a1.84,1.84,0,0,0,1-.6c.44-.4.67-.74.67-1V15.9c0-.24-.23-.56-.67-1a1.92,1.92,0,0,0-1-.61h-.91V13.19H69.2V25.42c0,.29.23.63.69,1a2.08,2.08,0,0,0,1,.6h1.88c.2,0,.51-.2,1-.6a1.56,1.56,0,0,0,.66-1V15.9q0-.36-.66-1c-.44-.4-.76-.61-1-.61h-1V13.19h4.76l.6,3.06a25,25,0,0,1,2.63-2.41,5.09,5.09,0,0,1,3.28-1,4.09,4.09,0,0,1,3,1.21,4.16,4.16,0,0,1,1.23,3.13v8.27c0,.29.22.63.67,1s.76.6,1,.6h1V28.2H82V27.05h.83a1.9,1.9,0,0,0,1-.6c.44-.41.66-.75.66-1V17.35a2.8,2.8,0,0,0-.6-1.87,2.22,2.22,0,0,0-1.81-.72,5.65,5.65,0,0,0-3.28,1.17c-1.11.79-1.66,1.44-1.66,2v7.53c0,.29.23.63.67,1a1.84,1.84,0,0,0,1,.6h.84V28.2H58.12L50,16.57,47.68,19.1v6.21q0,.36.72,1.05c.49.46.85.69,1.09.69h1.14Zm8.08,26.23-.07-.07L61,56.29c.78.64,1.62,1.26,2.5,1.87h1.39v1.2H62.32a7.77,7.77,0,0,1-3-.54A9.8,9.8,0,0,1,56.53,57,8.84,8.84,0,0,1,53.3,59a12.44,12.44,0,0,1-4.36.69,7.79,7.79,0,0,1-5.15-1.9,6.16,6.16,0,0,1-2.29-5h0a8.07,8.07,0,0,1,1-4,8.76,8.76,0,0,1,2.73-3,11,11,0,0,1-1.35-2.23A6.36,6.36,0,0,1,43.39,41a4.86,4.86,0,0,1,1.5-3.83A6,6,0,0,1,49,35.79a7.55,7.55,0,0,1,2.54.36,4.93,4.93,0,0,0,1.69.37,3.68,3.68,0,0,0,.66-.06.74.74,0,0,0,.42-.36h1v5.48h-1a5,5,0,0,0-1.54-2.95,4.91,4.91,0,0,0-3.83-1.75,4.61,4.61,0,0,0-3,.87,3,3,0,0,0-1.08,2.44,3.75,3.75,0,0,0,.9,2.48,6,6,0,0,0,2.42,1.68Q50.44,46.77,53,49.2c1.72,1.63,3.37,3.14,4.94,4.56a7.83,7.83,0,0,0,.94-2.23A11.75,11.75,0,0,0,59.19,49a3.28,3.28,0,0,0-1-2.51,3.76,3.76,0,0,0-2.68-.93V44.35h8.27v1.09h-.9c-.2,0-.6.34-1.18,1a3,3,0,0,0-.87,1.5V48a12.33,12.33,0,0,1-.6,3.4,10.76,10.76,0,0,1-1.52,3Zm-7.9,3.5a8.91,8.91,0,0,0,2.81-.42,9.23,9.23,0,0,0,2.26-1.14l-.18-.12q-2.58-2.3-5.07-4.7c-1.66-1.61-3.26-3.29-4.82-5.07a6.46,6.46,0,0,0-1.87,5,6,6,0,0,0,2.2,4.49,6.85,6.85,0,0,0,4.67,2ZM67.51,9.52h-.06A1.93,1.93,0,0,1,66.1,9a1.73,1.73,0,0,1-.58-1.33v0a1.77,1.77,0,0,1,.58-1.42,2.2,2.2,0,0,1,2.82,0,1.77,1.77,0,0,1,.58,1.42h-.06s.06,0,.06,0A1.73,1.73,0,0,1,68.92,9a1.83,1.83,0,0,1-1.29.55Zm15.3,48.27a7.93,7.93,0,0,0,4.7-1.2,9.26,9.26,0,0,0,2.83-3.5h1.22A10.31,10.31,0,0,1,88,58a9.5,9.5,0,0,1-5.85,1.78,9.93,9.93,0,0,1-8-3.6,12.88,12.88,0,0,1-3-8.59,13.2,13.2,0,0,1,2.77-8.44,9.27,9.27,0,0,1,7.66-3.49,9.17,9.17,0,0,1,3.2.51,7.18,7.18,0,0,0,2.71.52,1.85,1.85,0,0,0,.84-.16,2.16,2.16,0,0,0,.6-.44h.85v8.2h-1a8.68,8.68,0,0,0-1.87-4.52,5.93,5.93,0,0,0-5.18-2.71,6.39,6.39,0,0,0-4.77,1.78,8.89,8.89,0,0,0-2.05,5.69v-.12c0,.45-.08.89-.1,1.33s0,.9,0,1.39a16.48,16.48,0,0,0,.06,1.71c.07.58.09,1.12.12,1.6a8.5,8.5,0,0,0,2.35,5.21A7.32,7.32,0,0,0,82.81,57.79Zm19-33.81a4.23,4.23,0,0,1-1.35,3.37A5,5,0,0,1,97,28.56a5.68,5.68,0,0,1-2.41-.45,4.44,4.44,0,0,0-1.93-.45,1,1,0,0,0-.66.15l-.48.39h-.7V22.89h.9a4.9,4.9,0,0,0,1.42,2.72A4.84,4.84,0,0,0,97,27.3a4.14,4.14,0,0,0,2.18-.49,1.69,1.69,0,0,0,.78-1.54,2,2,0,0,0-.93-1.84,17.13,17.13,0,0,0-1.9-1l-1.54-.66L94,21.11a7.62,7.62,0,0,1-2.29-1.6,3.42,3.42,0,0,1-.91-2.5A3.93,3.93,0,0,1,92,13.93a5.74,5.74,0,0,1,5.39-.67,3.72,3.72,0,0,0,1.66.4,1.17,1.17,0,0,0,.52-.09.68.68,0,0,0,.33-.34h.78v4.63h-.9a4.38,4.38,0,0,0-1.24-2.41,4.1,4.1,0,0,0-3.34-1.51,3,3,0,0,0-2,.55,1.72,1.72,0,0,0-.63,1.38,1.66,1.66,0,0,0,.66,1.45,11.92,11.92,0,0,0,1.81,1l1.6.66,1.65.66a7.88,7.88,0,0,1,2.35,1.51A3.6,3.6,0,0,1,101.87,24Zm4,22.06a7.54,7.54,0,0,1,2.26,5.79,7.6,7.6,0,0,1-2.26,5.81,7.34,7.34,0,0,1-5.21,2.14,7.42,7.42,0,0,1-5.28-2.14A7.6,7.6,0,0,1,93,51.83a7.49,7.49,0,0,1,7-7.89h.5A7.4,7.4,0,0,1,105.81,46Zm-.73,8.27v.12c0-.44.07-.89.09-1.33s0-.88,0-1.32,0-.87,0-1.3,0-.81-.09-1.17a5,5,0,0,0-1.29-3,4.23,4.23,0,0,0-3.17-1.08,4.11,4.11,0,0,0-3.08,1.08,4.92,4.92,0,0,0-1.3,2.89v-.07a9,9,0,0,0-.15,1.26c0,.45,0,.89,0,1.32s0,.88,0,1.3a7.77,7.77,0,0,0,.15,1.18,5.14,5.14,0,0,0,1.3,2.89,4,4,0,0,0,3.08,1.15,4.15,4.15,0,0,0,3.2-1.12A5.08,5.08,0,0,0,105.06,54.31Zm5-25.72a6.24,6.24,0,0,1-5-2.32,8.3,8.3,0,0,1-2-5.52,8.34,8.34,0,0,1,2-5.65,6.1,6.1,0,0,1,5-2.24A5.08,5.08,0,0,1,114,14.41a5.75,5.75,0,0,1,1.55,3.71l.06,1.08-10,.8A6.41,6.41,0,0,0,107,24a4.73,4.73,0,0,0,4,1.9,5.66,5.66,0,0,0,3-.66,5.41,5.41,0,0,0,1.78-1.93h.9a8.18,8.18,0,0,1-2.29,3.89,6.2,6.2,0,0,1-4.33,1.4ZM110,14a3.76,3.76,0,0,0-3.41,1.59A6.39,6.39,0,0,0,105.42,19l7.54-.64a6.46,6.46,0,0,0-.33-3C112.3,14.43,111.4,14,110,14Zm18.2,44.23q.36,0,1-.63t.63-1V48.39a2.64,2.64,0,0,0-.57-1.78,2.22,2.22,0,0,0-1.83-.7A5,5,0,0,0,124.44,47c-1,.72-1.48,1.33-1.48,1.81v7.83c0,.24.21.57.64,1s.73.64.93.64h.91v1.14h-7.72V58.27h.85c.24,0,.57-.21,1-.64s.63-.75.63-1V48.41a2.72,2.72,0,0,0-.6-1.84,2.23,2.23,0,0,0-1.81-.69,4.83,4.83,0,0,0-3,1.14c-1,.76-1.48,1.41-1.48,1.93v7.72q0,.36.63,1a1.75,1.75,0,0,0,1,.63h.84v1.15h-7.71V58.29h.9c.2,0,.52-.21.93-.63s.64-.75.64-1V47.06c0-.23-.21-.56-.64-1s-.73-.6-.93-.6h-.9V44.35h4.63l.6,2.9c.88-.93,1.69-1.7,2.41-2.33a4.62,4.62,0,0,1,3.09-.93,4.44,4.44,0,0,1,2.65.82,3.39,3.39,0,0,1,1.39,2.38c.92-.89,1.76-1.63,2.53-2.24a4.76,4.76,0,0,1,3-.9,4.14,4.14,0,0,1,3,1.12,4.1,4.1,0,0,1,1.21,3.16v8.23c0,.25.21.57.63,1s.73.63.94.63h.9v1.15H127.3V58.19ZM118.08,16.06a4.35,4.35,0,0,0-.93-1c-.52-.44-.86-.66-1-.66h-.67V13.19h8.14v1.14h-1c-.2,0-.46.21-.78.61a1.81,1.81,0,0,0-.49,1l3.6,7.41L128.28,16a1.46,1.46,0,0,0-.45-1.08c-.34-.4-.62-.61-.82-.61h-1V13.19h6.09v1.14h-.66c-.2,0-.52.22-.94.64a3.74,3.74,0,0,0-.81,1l-5.15,10.91-4.42,8.5-1.31-.66,4.58-8.27ZM145.39,44a5.11,5.11,0,0,1,4.34,2.11,9.1,9.1,0,0,1,1.54,5.55,9.27,9.27,0,0,1-1.75,5.78,5.4,5.4,0,0,1-4.46,2.3A5.83,5.83,0,0,1,141.9,59a6.1,6.1,0,0,1-2-2.26v7.23c0,.29.22.63.66,1s.77.61,1,.61h1v1.1h-7.94V65.51h1a1.82,1.82,0,0,0,1-.6,1.65,1.65,0,0,0,.63-1V47.06c0-.23-.21-.56-.63-1a1.77,1.77,0,0,0-1-.6h-1V44.29h4.88l.48,3.14a7.52,7.52,0,0,1,2.32-2.66,5.78,5.78,0,0,1,3.17-.84Zm3,10.13v.06l.12-1.21q.06-.6.06-1.2a9.24,9.24,0,0,0-.06-1c0-.35-.08-.68-.12-1a5.09,5.09,0,0,0-1.2-2.86,3.34,3.34,0,0,0-2.58-1,4,4,0,0,0-3,1.17,7.28,7.28,0,0,0-1.69,2.92v3.92a4.32,4.32,0,0,0,4.35,4.28h.07A3.64,3.64,0,0,0,147.23,57a5.43,5.43,0,0,0,1.17-2.93Zm34.06,2.53q0,.36.66,1c.45.43.76.64,1,.64h.9V59.4H177.1V58.26H178c.21,0,.51-.21,1-.64s.66-.75.66-1V48.45a2.93,2.93,0,0,0-.57-1.83,2.11,2.11,0,0,0-1.78-.76,5.61,5.61,0,0,0-3.29,1.2c-1.1.81-1.66,1.46-1.65,1.93v7.6c0,.28.22.62.66,1a1.84,1.84,0,0,0,1,.6h.88v1.15H162.09l-.43-3.14a17.81,17.81,0,0,1-2.1,2.32,4.13,4.13,0,0,1-2.9,1.12A3.71,3.71,0,0,1,154,58.52a4,4,0,0,1-1.15-3,3.38,3.38,0,0,1,1.66-3.22,12.16,12.16,0,0,1,3.22-1.3l3.92-.79.06-1.8a3.55,3.55,0,0,0-.84-2.5,3.74,3.74,0,0,0-2.89-.94,2.76,2.76,0,0,0-2.63,1.21,3.4,3.4,0,0,0,.16,3.13h-1.09l-2.06-3a8.43,8.43,0,0,1,6.27-2.41,7.12,7.12,0,0,1,4.16,1.17,3.9,3.9,0,0,1,1.69,3.41v8.07c0,.25.22.57.67,1s.76.6,1,.6h1.81a1.84,1.84,0,0,0,1-.6c.44-.4.66-.72.66-1V47.06c0-.23-.22-.56-.66-1a1.84,1.84,0,0,0-1-.6H167V44.29h4.77l.6,3.14A26.64,26.64,0,0,1,174.9,45a5.06,5.06,0,0,1,3.31-1,4.1,4.1,0,0,1,3,1.2,4.17,4.17,0,0,1,1.24,3.14Zm-20.8-5.34-3.6.9a3.4,3.4,0,0,0-2,1.11,3.1,3.1,0,0,0-.54,1.84v.06a2.33,2.33,0,0,0,.66,1.66,2.19,2.19,0,0,0,1.63.69h.09a3.36,3.36,0,0,0,2.17-.9,6.78,6.78,0,0,0,1.54-1.75ZM200,44.35V45.5h-.73c-.15,0-.45.21-.87.63a7.51,7.51,0,0,0-.87,1l-5.07,11-4.52,8.44-1.26-.67,4.52-8.26-5.3-10.42a4.2,4.2,0,0,0-.94-1c-.51-.44-.83-.67-1-.67h-.73V44.35h8.14V45.5h-.91q-.3,0-.81.6a1.78,1.78,0,0,0-.51,1l3.6,7.42,3.33-7.44a1.4,1.4,0,0,0-.45-1q-.51-.6-.81-.6h-1V44.35Z"/>
</svg>
