<svg version="1.1" id="Layer_1" xmlns="http://www.w3.org/2000/svg"
	 viewBox="0 0 811.2 272.5" style="enable-background:new 0 0 811.2 272.5;" xml:space="preserve">
<style type="text/css">
	.st0{display:none;}
	.st1{display:inline;}
	.st2{fill:#375BD2;}
</style>
<g id="Logo_2" class="st0">
	<g class="st1">
		<path class="st2" d="M467,299.5c-1.2,0.5-2.3,1.6-3.7,2.5c8.5,4.2,16.5,7.7,24.2,12c17.1,9.5,31.8,21.9,41.8,39.1
			c7.3,12.5,11.2,26.2,14,40.4c3.8,19.4,5,39.1,4.9,58.9c-0.1,29-0.1,58,0.1,87.1c0,3.5-1.1,4.5-4.5,4.5
			c-57.9-0.1-115.8-0.1-173.7,0c-3.4,0-4.1-1.3-4.1-4.4c0.1-35.7,0.4-71.3-0.1-106.9c-0.3-25.1-12.5-41.1-39.5-48.7
			c-16.7-4.7-33.9-4.5-50.9-4.9c-21.1-0.4-42.3-0.4-63.4,0c-4.6,0.1-7-0.1-8.2,0.5c-1.2,0.6-1.3,2.1-1.3,5.5
			c0,51.3-0.1,102.6,0.1,153.8c0,3.9-0.9,5.1-5,5.1c-56.7-0.2-113.3-0.1-170-0.1c-6.6,0-6.6,0-6.6-6.5V282.8
			c0-49.3,40-89.3,89.3-89.3l0,0c13.4,0,26.9,0.2,40.3,0h11.1c7.8,0.7,15.1,3.5,23.1,5.4c-1,1.7-1.6,3-2.4,4.2
			c-8.7,13.2-17.5,26.5-26.1,39.7c-0.8,1.2-0.9,2.7-1.4,4c1.4,0.3,2.9,0.9,4.2,0.8c14.9-0.8,29.8-1.8,44.7-2.7c2-0.1,4-0.2,6-0.4
			c8.5-0.5,17.1-0.9,25.6-1.6c1.6-0.1,3.3-1.2,4.5-2.4c6-6.3,11.7-12.9,17.7-19.2c1.2-1.2,3.4-2.2,5.2-2.2c9,0,17.9,0.6,26.9,0.7
			c34.2,0.1,67.6-4.8,99.9-16.1c23.1-8.1,44.3-19.8,62.8-35.9c1.9-1.6,3.6-3.4,5.3-5.3c5.6-6.2,6.5-4.7-0.2-11.5
			c-22.3-22.6-49.8-36.5-79.9-45.8c-18.4-5.7-37.2-9.2-56.2-11.1c-19.3-1.9-38.8-2.9-58.2-0.8c-1.4,0.2-3.4-0.9-4.5-2.1
			c-6.1-6.4-11.9-13.1-18-19.4c-1.6-1.6-4.2-2.8-6.4-2.9c-17.1-1.1-34.1-1.9-51.1-2.8c-4.3-0.2-8.6-0.5-12.9-0.7
			c-5-0.3-10-0.8-15-1.2c-0.3,0.5-0.6,1-0.9,1.5c9.4,14.4,18.9,28.8,28.8,44v4.3c-7.2,1.8-13.9,4.2-20.6,4.5
			c-8.2,0.2-16.4,0.4-24.6,0.5h-28c-49.3,0-89.3-40-89.3-89.3v-61.6h162.5v0c55.4,0,110.8-0.1,166.2,0.2c19.3,0.1,38.5,1.5,57.7,4.4
			c19,2.9,37.6,7,55.2,14.7c22.4,9.7,41.6,23.7,57.9,41.8c14.9,16.5,26.8,35,35.2,55.7c6.7,16.3,10.2,33.3,11.3,50.9
			c1.3,19.6,0.1,38.9-5.1,57.8c-12.4,44.9-35.5,81.1-80.1,100.3C476.7,295.7,471.8,297.4,467,299.5z"/>
		<path class="st2" d="M808.1,42v502H702.4c-41.8,0-75.8-33.9-75.8-75.8v-502h105.6C774.2-33.8,808.1,0.2,808.1,42z"/>
		<path class="st2" d="M1370.6-33.8l-93.4,181.4l-110.7,215l-86.3,167.7c-4.3,8.4-13,13.7-22.4,13.7H874.5c-1.8,0-3.4-1-4.1-2.5
			l92.1-178.9l110.7-215H882.7c-7.1,0-12.9-5.8-12.9-12.9V-29.1c0-2.6,2.1-4.7,4.7-4.7H1370.6z"/>
	</g>
</g>
<g id="Layer_2_00000139253640392099544160000005010012380319717004_">
	<g>
		<path d="M336.4,159.2c-0.5,0.2-1,0.6-1.5,1c3.5,1.7,6.8,3.2,9.9,4.9c7,3.9,13.1,9,17.2,16.1c3,5.1,4.6,10.8,5.8,16.6
			c1.6,8,2,16.1,2,24.2c0,11.9,0,23.9,0,35.8c0,1.4-0.5,1.9-1.8,1.9c-23.8,0-47.6,0-71.4,0c-1.4,0-1.7-0.5-1.7-1.8
			c0-14.7,0.1-29.3-0.1-44c-0.1-10.3-5.1-16.9-16.2-20c-6.9-1.9-13.9-1.9-20.9-2c-8.7-0.2-17.4-0.1-26.1,0c-1.9,0-2.9-0.1-3.4,0.2
			c-0.5,0.3-0.5,0.9-0.5,2.3c0,21.1,0,42.1,0,63.2c0,1.6-0.4,2.1-2.1,2.1c-23.3-0.1-46.6,0-69.9,0c-2.7,0-2.7,0-2.7-2.7V152.3
			c0-20.3,16.4-36.7,36.7-36.7l0,0c5.5,0,11,0.1,16.6,0h4.5c3.2,0.3,6.2,1.4,9.5,2.2c-0.4,0.7-0.7,1.2-1,1.7
			c-3.6,5.4-7.2,10.9-10.7,16.3c-0.3,0.5-0.4,1.1-0.6,1.7c0.6,0.1,1.2,0.4,1.7,0.3c6.1-0.3,12.3-0.7,18.4-1.1c0.8,0,1.6-0.1,2.5-0.1
			c3.5-0.2,7-0.4,10.5-0.7c0.6-0.1,1.4-0.5,1.8-1c2.5-2.6,4.8-5.3,7.3-7.9c0.5-0.5,1.4-0.9,2.1-0.9c3.7,0,7.4,0.3,11.1,0.3
			c14,0,27.8-2,41.1-6.6c9.5-3.3,18.2-8.1,25.8-14.8c0.8-0.7,1.5-1.4,2.2-2.2c2.3-2.6,2.7-1.9-0.1-4.7c-9.2-9.3-20.5-15-32.8-18.8
			c-7.5-2.3-15.3-3.8-23.1-4.6c-7.9-0.8-15.9-1.2-23.9-0.3c-0.6,0.1-1.4-0.4-1.8-0.9c-2.5-2.6-4.9-5.4-7.4-8
			c-0.6-0.6-1.7-1.2-2.6-1.2c-7-0.4-14-0.8-21-1.2c-1.8-0.1-3.5-0.2-5.3-0.3c-2.1-0.1-4.1-0.3-6.2-0.5c-0.1,0.2-0.3,0.4-0.4,0.6
			c3.9,5.9,7.8,11.8,11.9,18.1v1.8c-3,0.8-5.7,1.7-8.4,1.8c-3.4,0.1-6.7,0.2-10.1,0.2h-11.5c-20.3,0-36.7-16.4-36.7-36.7V22.9h66.8
			v0c22.8,0,45.5,0,68.3,0.1c7.9,0,15.8,0.6,23.7,1.8c7.8,1.2,15.4,2.9,22.7,6c9.2,4,17.1,9.8,23.8,17.2c6.1,6.8,11,14.4,14.5,22.9
			c2.7,6.7,4.2,13.7,4.7,20.9c0.5,8.1,0,16-2.1,23.7c-5.1,18.4-14.6,33.3-32.9,41.2C340.4,157.6,338.4,158.3,336.4,159.2z"/>
		<path d="M476.6,53.4v206.3h-43.4c-17.2,0-31.1-13.9-31.1-31.1V22.2h43.4C462.6,22.2,476.6,36.2,476.6,53.4z"/>
		<path d="M707.7,22.2l-38.4,74.5l-45.5,88.4L588.4,254c-1.8,3.5-5.3,5.6-9.2,5.6h-75.3c-0.7,0-1.4-0.4-1.7-1l37.9-73.5l45.5-88.4
			h-78.3c-2.9,0-5.3-2.4-5.3-5.3V24.1c0-1.1,0.9-1.9,1.9-1.9H707.7z"/>
	</g>
</g>
<g id="Layer_3" class="st0">
	<g class="st1">
		<path d="M467,299.5c-1.2,0.5-2.3,1.6-3.7,2.5c8.5,4.2,16.5,7.7,24.2,12c17.1,9.5,31.8,21.9,41.8,39.1c7.3,12.5,11.2,26.2,14,40.4
			c3.8,19.4,5,39.1,4.9,58.9c-0.1,29-0.1,58,0.1,87.1c0,3.5-1.1,4.5-4.5,4.5c-57.9-0.1-115.8-0.1-173.7,0c-3.4,0-4.1-1.3-4.1-4.4
			c0.1-35.7,0.4-71.3-0.1-106.9c-0.3-25.1-12.5-41.1-39.5-48.7c-16.7-4.7-33.9-4.5-50.9-4.9c-21.1-0.4-42.3-0.4-63.4,0
			c-4.6,0.1-7-0.1-8.2,0.5c-1.2,0.6-1.3,2.1-1.3,5.5c0,51.3-0.1,102.6,0.1,153.8c0,3.9-0.9,5.1-5,5.1c-56.7-0.2-113.3-0.1-170-0.1
			c-6.6,0-6.6,0-6.6-6.5V282.8c0-49.3,40-89.3,89.3-89.3l0,0c13.4,0,26.9,0.2,40.3,0h11.1c7.8,0.7,15.1,3.5,23.1,5.4
			c-1,1.7-1.6,3-2.4,4.2c-8.7,13.2-17.5,26.5-26.1,39.7c-0.8,1.2-0.9,2.7-1.4,4c1.4,0.3,2.9,0.9,4.2,0.8c14.9-0.8,29.8-1.8,44.7-2.7
			c2-0.1,4-0.2,6-0.4c8.5-0.5,17.1-0.9,25.6-1.6c1.6-0.1,3.3-1.2,4.5-2.4c6-6.3,11.7-12.9,17.7-19.2c1.2-1.2,3.4-2.2,5.2-2.2
			c9,0,17.9,0.6,26.9,0.7c34.2,0.1,67.6-4.8,99.9-16.1c23.1-8.1,44.3-19.8,62.8-35.9c1.9-1.6,3.6-3.4,5.3-5.3
			c5.6-6.2,6.5-4.7-0.2-11.5c-22.3-22.6-49.8-36.5-79.9-45.8c-18.4-5.7-37.2-9.2-56.2-11.1c-19.3-1.9-38.8-2.9-58.2-0.8
			c-1.4,0.2-3.4-0.9-4.5-2.1c-6.1-6.4-11.9-13.1-18-19.4c-1.6-1.6-4.2-2.8-6.4-2.9c-17.1-1.1-34.1-1.9-51.1-2.8
			c-4.3-0.2-8.6-0.5-12.9-0.7c-5-0.3-10-0.8-15-1.2c-0.3,0.5-0.6,1-0.9,1.5c9.4,14.4,18.9,28.8,28.8,44v4.3
			c-7.2,1.8-13.9,4.2-20.6,4.5c-8.2,0.2-16.4,0.4-24.6,0.5h-28c-49.3,0-89.3-40-89.3-89.3v-61.6h162.5v0c55.4,0,110.8-0.1,166.2,0.2
			c19.3,0.1,38.5,1.5,57.7,4.4c19,2.9,37.6,7,55.2,14.7c22.4,9.7,41.6,23.7,57.9,41.8c14.9,16.5,26.8,35,35.2,55.7
			c6.7,16.3,10.2,33.3,11.3,50.9c1.3,19.6,0.1,38.9-5.1,57.8c-12.4,44.9-35.5,81.1-80.1,100.3C476.7,295.7,471.8,297.4,467,299.5z"
			/>
		<path d="M808.1,42v502H702.4c-41.8,0-75.8-33.9-75.8-75.8v-502h105.6C774.2-33.8,808.1,0.2,808.1,42z"/>
		<path d="M1370.6-33.8l-93.4,181.4l-110.7,215l-86.3,167.7c-4.3,8.4-13,13.7-22.4,13.7H874.5c-1.8,0-3.4-1-4.1-2.5l92.1-178.9
			l110.7-215H882.7c-7.1,0-12.9-5.8-12.9-12.9V-29.1c0-2.6,2.1-4.7,4.7-4.7H1370.6z"/>
	</g>
</g>
</svg>
