<?xml version="1.0" encoding="UTF-8"?>
<svg id="Layer_1" data-name="Layer 1" xmlns="http://www.w3.org/2000/svg" width="1363" height="161" viewBox="0 0 1363 161">
  <path d="M.25,104H32.93c0,18.23,11.52,29.96,29.75,29.96,15.5,0,25.56-7.33,25.56-18.64,0-10.26-6.49-15.08-26.19-20.95l-24.93-7.33C15.33,80.54,2.97,65.04,2.97,45.34,2.97,18.53,26.64,.3,60.58,.3s55.31,19.48,56.14,50.7h-32.26c0-14.66-9.85-26.19-25.98-26.19-13.2,0-23.04,7.33-23.04,17.39,0,9.22,5.24,13.2,24.51,18.85l21.58,6.28c26.61,7.75,39.59,20.95,39.59,42.53,0,29.12-23.46,48.81-58.66,48.81C24.55,158.68,.25,137.73,.25,104Z" style="fill: #fac800;"/>
  <path d="M135.76,101.87c0-34.65,21.42-57.12,55.02-57.12s55.23,22.68,55.23,57.12-21.42,57.12-55.23,57.12-55.02-22.47-55.02-57.12Zm79.38,0c0-21.84-8.4-34.65-24.36-34.65s-24.15,13.02-24.15,34.65,8.4,34.65,24.15,34.65,24.36-13.23,24.36-34.65Z" style="fill: #fac800;"/>
  <path d="M259.82,102.11c0-35.11,20.85-58.09,53.19-58.09s49.58,17.66,49.79,42.98h-31.06c-1.06-12.77-8.09-20.21-18.94-20.21-13.62,0-22.13,13.83-22.13,34.68s8.72,35.75,22.13,35.75c11.28,0,18.3-8.09,18.94-20.21h31.28c0,25.53-20.21,43.19-50,43.19-32.13,0-53.19-23.4-53.19-58.09Z" style="fill: #fac800;"/>
  <path d="M382,3h30v29h-30V3Zm0,45h30v108h-30V48Z" style="fill: #fac800;"/>
  <path d="M431.61,126.25c0-32.05,38.95-35.2,72.39-38.55v-4.86c0-9.51-7.57-17.44-17.08-17.56-12.8-.16-19.74,5.95-20.39,15.71h-30.91c1.48-23.25,20.96-36.03,51.01-36.03,16.09,0,27.52,3.35,35.99,11.31,8.68,8.17,10.37,17.39,10.37,37.5v24.93c0,15.08,.85,28.28,2.96,37.29h-26.88c-.85-5.03-1.27-9.43-1.48-13.62-9.1,10.06-18.2,15.71-36.2,15.71-24.13,0-39.8-10.68-39.8-31.84Zm72.39-16.19v-3.57c-20.79,2.73-40.95,2.94-40.95,18.9,0,8.19,6.93,12.6,16.59,12.6,15.54,0,24.36-8.4,24.36-27.93Z" style="fill: #fac800;"/>
  <path d="M558,4h30V156h-30V4Z" style="fill: #fac800;"/>
  <path d="M652,4h31V156h-31V4Z" style="fill: #fac800;"/>
  <path d="M711,48h28v14.23c7.82-10.26,20.71-16.12,34.44-16.12,31.27,0,36.56,21.98,36.56,49.81v60.07h-30v-60.06c0-15.96-2.74-27.93-17.5-27.93-13.91,0-21.5,9.24-21.5,34.44v53.55h-30V48Z" style="fill: #fac800;"/>
  <path d="M828.27,102.11c0-35.11,20.85-58.09,53.19-58.09s49.58,17.66,49.79,42.98h-31.06c-1.06-12.77-8.08-20.21-18.94-20.21-13.62,0-22.13,13.83-22.13,34.68s8.72,35.75,22.13,35.75c11.28,0,18.3-8.09,18.94-20.21h31.28c0,25.53-20.21,43.19-50,43.19-32.13,0-53.19-23.4-53.19-58.09Z" style="fill: #fac800;"/>
  <path d="M944.23,101.87c0-34.65,21.42-57.12,55.02-57.12s55.23,22.68,55.23,57.12-21.42,57.12-55.23,57.12-55.02-22.47-55.02-57.12Zm79.38,0c0-21.84-8.4-34.65-24.36-34.65s-24.15,13.02-24.15,34.65,8.4,34.65,24.15,34.65,24.36-13.23,24.36-34.65Z" style="fill: #fac800;"/>
  <path d="M1075,48h26l-.21,15.07c6.5-10.46,19.7-16.95,33.95-16.95,15.3,0,24.73,4.6,31.22,16.95,7.13-12.14,20.33-16.95,35.83-16.95,27.66,0,35.21,17.37,35.21,44.16v65.72h-29V89.85c0-13.86-4.86-21.84-16.07-21.84-14.17,0-20.93,10.92-20.93,34.65v53.34h-29V89.85c0-13.86-5.29-21.84-16.28-21.84-14.38,0-20.72,10.92-20.72,34.65v53.34h-30V48Z" style="fill: #fac800;"/>
  <path d="M1255.79,100.74c0-33.39,21.32-57.72,55.14-57.72s52.12,23.26,52.12,60.52c0,1.08,0,3.23-.22,6.46h-76.03c0,16.37,6.46,28.65,24.34,28.65,10.34,0,16.37-5.82,19.6-14.65h31.88c-6.68,24.12-23.05,36.18-51.26,36.18-37.05,0-55.57-23.26-55.57-59.45Zm76.52-10.74c-.63-15.54-10.71-24.36-22.68-24.36s-22.68,8.82-23.31,24.36h45.99Z" style="fill: #fac800;"/>
</svg>