<svg id="Layer_1" data-name="Layer 1" xmlns="http://www.w3.org/2000/svg" width="200" height="70" viewBox="0 0 200 70">
  <g>
    <path d="M83.18,23V48.59H78.73V28.51h-.06L70.73,48.59h-3L59.66,28.51H59.6V48.59H55.51V23h6.4l7.34,19h.12l7.76-19ZM86.85,25a2.24,2.24,0,0,1,.77-1.77,2.61,2.61,0,0,1,1.83-.72,2.56,2.56,0,0,1,1.9.72A2.46,2.46,0,0,1,92.12,25a2.26,2.26,0,0,1-.77,1.78,2.7,2.7,0,0,1-1.9.71,2.45,2.45,0,0,1-1.83-.71A2.66,2.66,0,0,1,86.85,25Zm4.8,5.28V48.59H87.32V30.23Zm13.09,15.22a5.06,5.06,0,0,0,2.13-.47A9.24,9.24,0,0,0,109,43.79v4a7.75,7.75,0,0,1-2.36.89,14.49,14.49,0,0,1-2.91.29,8.69,8.69,0,0,1-6.57-2.54,8.84,8.84,0,0,1-2.55-6.52,10.47,10.47,0,0,1,2.61-7.29c1.71-1.89,4.14-2.84,7.34-2.84a10.78,10.78,0,0,1,2.43.3,7.77,7.77,0,0,1,2,.71V35a9.08,9.08,0,0,0-2-1.12,6.71,6.71,0,0,0-2.13-.42,5.43,5.43,0,0,0-4.15,1.66,6.26,6.26,0,0,0-1.54,4.51,5.92,5.92,0,0,0,1.54,4.32A5.54,5.54,0,0,0,104.74,45.45Zm16.53-15.52a4.8,4.8,0,0,1,1,.06,6.54,6.54,0,0,1,.71.18v4.38a2.57,2.57,0,0,0-1-.47,6,6,0,0,0-1.6-.24,3.31,3.31,0,0,0-2.67,1.36,6.55,6.55,0,0,0-1.12,4.15v9.24H112.2V30.23h4.33v2.9h.06a5.5,5.5,0,0,1,1.77-2.37A5.26,5.26,0,0,1,121.27,29.93Zm1.89,9.77a10.2,10.2,0,0,1,2.55-7.22,9.42,9.42,0,0,1,7.11-2.67,8.7,8.7,0,0,1,6.69,2.55,9.78,9.78,0,0,1,2.43,6.93,10.08,10.08,0,0,1-2.54,7.11,10.48,10.48,0,0,1-13.75.18A9.52,9.52,0,0,1,123.16,39.7Zm4.51-.17a6.46,6.46,0,0,0,1.3,4.38,4.72,4.72,0,0,0,3.73,1.54,4.32,4.32,0,0,0,3.62-1.54,7,7,0,0,0,1.24-4.5,7.17,7.17,0,0,0-1.24-4.5,5,5,0,0,0-7.23.05A6.5,6.5,0,0,0,127.67,39.53Zm20.73-4.45a1.87,1.87,0,0,0,.59,1.48,10.35,10.35,0,0,0,2.61,1.31,9,9,0,0,1,3.61,2.31,4.8,4.8,0,0,1,1.07,3.14,5,5,0,0,1-2,4.14,8.34,8.34,0,0,1-5.4,1.54,13.64,13.64,0,0,1-2.54-.29A10.63,10.63,0,0,1,144,48V43.73A10.37,10.37,0,0,0,146.5,45a8.18,8.18,0,0,0,2.49.47,4,4,0,0,0,2.14-.42,1.45,1.45,0,0,0,.71-1.36,2.11,2.11,0,0,0-.71-1.54,11.24,11.24,0,0,0-2.73-1.42A8.19,8.19,0,0,1,145,38.52a5.41,5.41,0,0,1,.95-7.29,7.86,7.86,0,0,1,5.1-1.6,9.27,9.27,0,0,1,2.13.24c.77.18,1.48.36,2,.53v4.21a12.55,12.55,0,0,0-2-1,6.39,6.39,0,0,0-2.25-.41,3.38,3.38,0,0,0-1.9.47A1.92,1.92,0,0,0,148.4,35.08Zm9.72,4.62a10.19,10.19,0,0,1,2.54-7.22,9.42,9.42,0,0,1,7.11-2.67,8.71,8.71,0,0,1,6.7,2.55,9.78,9.78,0,0,1,2.43,6.93,10,10,0,0,1-2.55,7.11,10.48,10.48,0,0,1-13.75.18A9.77,9.77,0,0,1,158.12,39.7Zm4.5-.17a6.46,6.46,0,0,0,1.3,4.38,4.72,4.72,0,0,0,3.73,1.54,4.32,4.32,0,0,0,3.62-1.54,6.92,6.92,0,0,0,1.24-4.5,7.11,7.11,0,0,0-1.24-4.5A5,5,0,0,0,164,35,6.79,6.79,0,0,0,162.62,39.53Zm28.67-5.75h-6.46V48.59h-4.38V33.78h-3.08V30.23h3.08V27.68a6.4,6.4,0,0,1,6.69-6.58c.54,0,1,.06,1.43.06a2.76,2.76,0,0,1,1.06.24v3.73a6.94,6.94,0,0,0-.77-.3,4.18,4.18,0,0,0-1.24-.17,2.64,2.64,0,0,0-2.07.83,3.73,3.73,0,0,0-.72,2.48v2.2h6.46V26l4.33-1.3v5.45H200v3.55h-4.38v8.59a3.9,3.9,0,0,0,.59,2.37,2.46,2.46,0,0,0,1.95.71,2.85,2.85,0,0,0,.89-.18,3.06,3.06,0,0,0,.89-.41v3.55a4.12,4.12,0,0,1-1.36.42,10.19,10.19,0,0,1-1.9.18,5.36,5.36,0,0,1-4.09-1.43,6.29,6.29,0,0,1-1.36-4.38l.06-9.36Z" style="fill: #747474"/>
    <g>
      <rect y="14.47" width="20.26" height="20.26" style="fill: #f05225"/>
      <rect x="22.39" y="14.47" width="20.26" height="20.26" style="fill: #7fbb42"/>
      <rect y="36.86" width="20.26" height="20.26" style="fill: #33a0da"/>
      <rect x="22.39" y="36.86" width="20.26" height="20.26" style="fill: #fdb813"/>
    </g>
  </g>
</svg>
