<svg id="Layer_1" xmlns="http://www.w3.org/2000/svg" viewBox="0 0 100 100"><defs><clipPath id="clippath"><path class="cls-1" d="M61.16 81.46a59.38 59.38 0 0 0 18.13-2.87c1.37-.46 2.69-.98 3.93-1.53a22.05 22.05 0 0 1-6.66 9.1 44.68 44.68 0 0 1-19.86 8.23c1.84-3.18 3.32-7.67 4.46-12.94m-30.59 9.02a2.35 2.35 0 0 0-.45-.3c-2.56-1.25-3.59-6.95-2.26-15.67a81.35 81.35 0 0 0 28.55 6.85c-2.04 8.85-4.64 13.5-6.37 13.5-.11 0-.22.02-.32.04a44.73 44.73 0 0 1-19.15-4.42M6.83 62.28c-.39-1.5-.64-3.03-.74-4.57a40.65 40.65 0 0 0 5.64 6.39 57.43 57.43 0 0 0 11.83 8.29c-.91 5.09-1.17 9.71-.59 13.42A44.96 44.96 0 0 1 6.84 62.28m57.22-12.36c0-1.8-.03-3.6-.08-5.4 5.73-.38 11.03-1.87 15.37-4.37 4.02 7.95 6.18 16.35 6.16 24.27 0 2.29-.2 4.48-.57 6.54a35.33 35.33 0 0 1-7.13 3.27 54.2 54.2 0 0 1-15.79 2.62 168.27 168.27 0 0 0 2.03-26.92M44.72 75.17a73.8 73.8 0 0 1-15.97-5.33c1.6-7.21 4.59-15.95 9.31-25.64.69-1.4 1.39-2.79 2.1-4.14a54.07 54.07 0 0 0 10.68 3.47c2.87.62 5.73.95 8.54 1.05.05 1.73.07 3.51.07 5.34 0 10.84-.87 19.84-2.12 26.88a77.75 77.75 0 0 1-12.62-1.62M14.86 60.72c-3.91-3.61-6.6-7.44-7.97-11.24a35.9 35.9 0 0 1 6.28-12.63 50.18 50.18 0 0 1 10.76-10.39 26.3 26.3 0 0 0 5.05 6.33 37.96 37.96 0 0 0 7.08 5.17c-.73 1.39-1.45 2.8-2.13 4.21a128.86 128.86 0 0 0-9.38 25.5 51.04 51.04 0 0 1-9.69-6.96m46.07-42.78a62.39 62.39 0 0 1 16.21 18.2c-3.68 2.13-8.33 3.4-13.35 3.75-.42-7.95-1.37-15.59-2.86-21.95m-9.12 21.1a48.93 48.93 0 0 1-9.42-3.01c4.3-7.52 8.99-14.05 13.63-18.91 1.45 5.7 2.66 13.36 3.17 22.86-2.44-.1-4.92-.41-7.39-.94m-19.67-9.6a20.64 20.64 0 0 1-4.32-5.51 62.2 62.2 0 0 1 14.17-6.24 67.51 67.51 0 0 1 9.14-2.05 107.76 107.76 0 0 0-12.84 18.3 33.09 33.09 0 0 1-6.14-4.5m-9.91-14.67c-.06.23-.13.47-.18.71-.47 2.17-.41 4.4.14 6.6a55.06 55.06 0 0 0-12.69 12 45.58 45.58 0 0 0-2.83 4.21 44.99 44.99 0 0 1 15.57-23.53m4.31 1.68c.51-2.39 1.95-4.52 4.17-6.29 5.38-1.61 11.63-1.22 18.2 1.19a70.61 70.61 0 0 0-8.26 1.94 67.14 67.14 0 0 0-14.26 6.14 9.9 9.9 0 0 1 .15-2.98m37.35-6.06a14.62 14.62 0 0 1 4.25-2.01c2.31.92 4.6 2.11 6.77 3.6a57.27 57.27 0 0 0-11.02-1.59m-7.75-4.93c1.87.21 3.86.53 5.91 1.01a30.94 30.94 0 0 0-3.97 2.58 23.5 23.5 0 0 0-1.94-3.59m-4.99 1.81a43.22 43.22 0 0 0-6.17-1.86c1.63-.18 3.27-.29 4.95-.29.78 0 1.75.95 2.75 2.77l-1.53-.63M.5 50c0 4.71.68 9.25 1.91 13.57l.23.87.06.16A49.59 49.59 0 0 0 50 99.5a49.22 49.22 0 0 0 27.75-8.53l.23-.14c.47-.32.92-.66 1.37-1.01a49.66 49.66 0 0 0 18.67-27.81c.16-.52.3-1.05.41-1.58.03-.13.04-.25.04-.38a49.12 49.12 0 0 0 1.03-10.06c0-6.68-1.31-13.16-3.89-19.27a2.3 2.3 0 0 0-4.24 1.79 44.6 44.6 0 0 1 2.21 28.25 16.23 16.23 0 0 1-3.53 6.03c.04-.78.07-1.57.07-2.38.02-8.83-2.42-18.16-6.95-26.93a17.83 17.83 0 0 0 6.17-10.32 2.3 2.3 0 0 0-4.53-.83c-.48 2.61-1.83 5-3.95 7.03a67.05 67.05 0 0 0-16.17-18.37c6.94.46 13.35 2.14 18.51 5.02.81.46 1.88.45 2.64-.18a2.3 2.3 0 0 0 .29-3.25C78.71 6.22 65.88.5 50 .5A49.56 49.56 0 0 0 .5 50Z"/></clipPath><style>.cls-1{fill:#00599d}</style></defs><path class="cls-1" d="M61.16 81.46a59.38 59.38 0 0 0 18.13-2.87c1.37-.46 2.69-.98 3.93-1.53a22.05 22.05 0 0 1-6.66 9.1 44.68 44.68 0 0 1-19.86 8.23c1.84-3.18 3.32-7.67 4.46-12.94m-30.59 9.02a2.35 2.35 0 0 0-.45-.3c-2.56-1.25-3.59-6.95-2.26-15.67a81.35 81.35 0 0 0 28.55 6.85c-2.04 8.85-4.64 13.5-6.37 13.5-.11 0-.22.02-.32.04a44.73 44.73 0 0 1-19.15-4.42M6.83 62.28c-.39-1.5-.64-3.03-.74-4.57a40.65 40.65 0 0 0 5.64 6.39 57.43 57.43 0 0 0 11.83 8.29c-.91 5.09-1.17 9.71-.59 13.42A44.96 44.96 0 0 1 6.84 62.28m57.22-12.36c0-1.8-.03-3.6-.08-5.4 5.73-.38 11.03-1.87 15.37-4.37 4.02 7.95 6.18 16.35 6.16 24.27 0 2.29-.2 4.48-.57 6.54a35.33 35.33 0 0 1-7.13 3.27 54.2 54.2 0 0 1-15.79 2.62 168.27 168.27 0 0 0 2.03-26.92M44.72 75.17a73.8 73.8 0 0 1-15.97-5.33c1.6-7.21 4.59-15.95 9.31-25.64.69-1.4 1.39-2.79 2.1-4.14a54.07 54.07 0 0 0 10.68 3.47c2.87.62 5.73.95 8.54 1.05.05 1.73.07 3.51.07 5.34 0 10.84-.87 19.84-2.12 26.88a77.75 77.75 0 0 1-12.62-1.62M14.86 60.72c-3.91-3.61-6.6-7.44-7.97-11.24a35.9 35.9 0 0 1 6.28-12.63 50.18 50.18 0 0 1 10.76-10.39 26.3 26.3 0 0 0 5.05 6.33 37.96 37.96 0 0 0 7.08 5.17c-.73 1.39-1.45 2.8-2.13 4.21a128.86 128.86 0 0 0-9.38 25.5 51.04 51.04 0 0 1-9.69-6.96m46.07-42.78a62.39 62.39 0 0 1 16.21 18.2c-3.68 2.13-8.33 3.4-13.35 3.75-.42-7.95-1.37-15.59-2.86-21.95m-9.12 21.1a48.93 48.93 0 0 1-9.42-3.01c4.3-7.52 8.99-14.05 13.63-18.91 1.45 5.7 2.66 13.36 3.17 22.86-2.44-.1-4.92-.41-7.39-.94m-19.67-9.6a20.64 20.64 0 0 1-4.32-5.51 62.2 62.2 0 0 1 14.17-6.24 67.51 67.51 0 0 1 9.14-2.05 107.76 107.76 0 0 0-12.84 18.3 33.09 33.09 0 0 1-6.14-4.5m-9.91-14.67c-.06.23-.13.47-.18.71-.47 2.17-.41 4.4.14 6.6a55.06 55.06 0 0 0-12.69 12 45.58 45.58 0 0 0-2.83 4.21 44.99 44.99 0 0 1 15.57-23.53m4.31 1.68c.51-2.39 1.95-4.52 4.17-6.29 5.38-1.61 11.63-1.22 18.2 1.19a70.61 70.61 0 0 0-8.26 1.94 67.14 67.14 0 0 0-14.26 6.14 9.9 9.9 0 0 1 .15-2.98m37.35-6.06a14.62 14.62 0 0 1 4.25-2.01c2.31.92 4.6 2.11 6.77 3.6a57.27 57.27 0 0 0-11.02-1.59m-7.75-4.93c1.87.21 3.86.53 5.91 1.01a30.94 30.94 0 0 0-3.97 2.58 23.5 23.5 0 0 0-1.94-3.59m-4.99 1.81a43.22 43.22 0 0 0-6.17-1.86c1.63-.18 3.27-.29 4.95-.29.78 0 1.75.95 2.75 2.77l-1.53-.63M.5 50c0 4.71.68 9.25 1.91 13.57l.23.87.06.16A49.59 49.59 0 0 0 50 99.5a49.22 49.22 0 0 0 27.75-8.53l.23-.14c.47-.32.92-.66 1.37-1.01a49.66 49.66 0 0 0 18.67-27.81c.16-.52.3-1.05.41-1.58.03-.13.04-.25.04-.38a49.12 49.12 0 0 0 1.03-10.06c0-6.68-1.31-13.16-3.89-19.27a2.3 2.3 0 0 0-4.24 1.79 44.6 44.6 0 0 1 2.21 28.25 16.23 16.23 0 0 1-3.53 6.03c.04-.78.07-1.57.07-2.38.02-8.83-2.42-18.16-6.95-26.93a17.83 17.83 0 0 0 6.17-10.32 2.3 2.3 0 0 0-4.53-.83c-.48 2.61-1.83 5-3.95 7.03a67.05 67.05 0 0 0-16.17-18.37c6.94.46 13.35 2.14 18.51 5.02.81.46 1.88.45 2.64-.18a2.3 2.3 0 0 0 .29-3.25C78.71 6.22 65.88.5 50 .5A49.56 49.56 0 0 0 .5 50Z"/><path class="cls-1" d="M.5.5h99v99H.5V.5Z" style="clip-path:url(#clippath)"/></svg>