<svg id="Layer_1" viewBox="0 0 100 100" width="48" height="48" version="1.1" xmlns="http://www.w3.org/2000/svg"><defs id="defs1"><style id="style1">.cls-1{fill:none;stroke:#00599d;stroke-width:.85px}.cls-2{fill:#00599d}</style></defs><path id="branch" class="cls-2" d="M25.78 79.57c-4.04-3.4-4.67-8.29-6.37-12.53-1.06-2.76-2.97-5.1-4.89-7.44 2.55 7.22 1.06 12.32 7.22 17.42-1.06-.42-2.12-1.27-2.97-1.91-4.89-4.04-12.11-4.67-15.08-11.26.85 4.89 4.67 9.14 8.71 11.9 4.04 2.55 9.14 2.34 13.38 3.82m10.62 2.55c.64-.21 1.49-.21 2.34-.42a14.65 14.65 0 0 1-7.86-3.4c-3.19-2.97-5.95-5.95-9.35-8.29 3.61 7.22 4.89 10.2 10.83 11.47 0 0-1.7-.21-2.55-.42-6.37-1.27-14.02.42-18.7-4.89 1.91 3.4 5.52 6.16 8.92 7.44 5.52 1.7 11.26-.21 16.36-1.49m8.51-.43c-10.2 0-15.51 8.92-25.49 2.97 4.89 5.95 12.75 6.37 19.12 2.34 2.55-1.7 4.89-4.04 8.07-4.04 4.89 0 10.2 5.1 14.66 9.77.85-.64 1.49-1.27 2.12-1.91-4.67-4.46-11.47-9.14-18.48-9.14m-28.68-9.97s-1.27-2.34-1.7-3.82c-1.49-5.74-.64-12.75-3.19-18.27.42 3.19-.85 5.95-1.06 8.92-.42 4.04 1.06 6.8 2.12 8.71 0 0-1.49-1.91-2.12-2.97-2.97-4.67-9.14-7.86-9.56-13.6-.85 12.53 7.86 15.93 15.51 21.03m-2.97-37.18c.85-1.7 1.27-3.82 1.7-5.74-.42.85-.85 1.7-1.49 2.34-4.04 3.4-6.37 5.31-7.44 10.62l.42-4.67c.42-4.67-2.12-9.77.64-13.81a15.69 15.69 0 0 0-4.25 10.62c0 5.1 2.97 8.71 3.19 13.6.85-5.1 5.1-8.71 7.22-12.96m-1.48-9.35c1.91-1.7 4.25-3.19 5.95-5.31 1.91-2.55 3.61-5.52 6.16-7.86-3.4 1.49-7.22 2.76-9.56 6.37-1.27 2.12-1.49 4.67-2.55 6.8m-4.25 10.2a16.1 16.1 0 0 1 3.82-4.67c3.82-2.76 7.65-6.37 7.86-11.05-2.12 5.1-8.71 5.95-10.2 11.26 0 0 .85-3.19 1.06-3.82 1.06-3.61.85-7.86 4.46-10.2-7.01 1.49-7.44 9.14-7.01 14.87 0 1.27.21 2.34 0 3.61m1.07 24.64s-.42-4.04.21-5.74c1.7-5.1 3.4-10.62 3.19-15.93-1.7 6.37-7.01 8.5-4.67 17.21-.85-1.7-1.06-3.61-1.7-5.31-1.27-4.67-4.89-8.71-3.82-14.23-1.7 4.89-1.7 8.71 0 13.81 1.06 3.82 4.89 6.59 6.8 10.2"/><path id="branch-2" class="cls-2" d="M74.22 79.57c4.04-3.4 4.67-8.29 6.37-12.53 1.06-2.76 2.97-5.1 4.89-7.44-2.55 7.22-1.06 12.32-7.22 17.42 1.06-.42 2.12-1.27 2.97-1.91 4.89-4.04 12.11-4.67 15.08-11.26-.85 4.89-4.67 9.14-8.71 11.9-4.04 2.55-9.14 2.34-13.38 3.82M63.6 82.12c-.64-.21-1.49-.21-2.34-.42a14.65 14.65 0 0 0 7.86-3.4c3.19-2.97 5.95-5.95 9.35-8.29-3.61 7.22-4.89 10.2-10.83 11.47 0 0 1.7-.21 2.55-.42 6.37-1.27 14.02.42 18.7-4.89-1.91 3.4-5.52 6.16-8.92 7.44-5.52 1.7-11.26-.21-16.36-1.49m-8.51-.43c10.2 0 15.51 8.92 25.49 2.97-4.89 5.95-12.75 6.37-19.12 2.34-2.55-1.7-4.89-4.04-8.07-4.04-4.89 0-10.2 5.1-14.66 9.77a18.43 18.43 0 0 1-2.12-1.91c4.67-4.46 11.47-9.14 18.48-9.14m28.68-9.97s1.27-2.34 1.7-3.82c1.49-5.74.64-12.75 3.19-18.27-.42 3.19.85 5.95 1.06 8.92.42 4.04-1.06 6.8-2.12 8.71 0 0 1.49-1.91 2.12-2.97 2.97-4.67 9.14-7.86 9.56-13.6.85 12.53-7.86 15.93-15.51 21.03m2.97-37.18c-.85-1.7-1.27-3.82-1.7-5.74.42.85.85 1.7 1.49 2.34 4.04 3.4 6.37 5.31 7.44 10.62l-.42-4.67c-.42-4.67 2.12-9.77-.64-13.81a15.69 15.69 0 0 1 4.25 10.62c0 5.1-2.97 8.71-3.19 13.6-.85-5.1-5.1-8.71-7.22-12.96m1.48-9.35c-1.91-1.7-4.25-3.19-5.95-5.31-1.91-2.55-3.61-5.52-6.16-7.86 3.4 1.49 7.22 2.76 9.56 6.37 1.27 2.12 1.49 4.67 2.55 6.8m4.25 10.2a16.1 16.1 0 0 0-3.82-4.67c-3.82-2.76-7.65-6.37-7.86-11.05 2.12 5.1 8.71 5.95 10.2 11.26 0 0-.85-3.19-1.06-3.82-1.06-3.61-.85-7.86-4.46-10.2 7.01 1.49 7.44 9.14 7.01 14.87 0 1.27-.21 2.34 0 3.61m-1.07 24.64s.42-4.04-.21-5.74c-1.7-5.1-3.4-10.62-3.19-15.93 1.7 6.37 7.01 8.5 4.67 17.21.85-1.7 1.06-3.61 1.7-5.31 1.27-4.67 4.89-8.71 3.82-14.23 1.7 4.89 1.7 8.71 0 13.81-1.06 3.82-4.89 6.59-6.8 10.2"/><g id="grid"><path id="circle1" class="cls-1" style="fill:none;stroke:#00599d;stroke-width:.85px" d="M84.63 43.66A34.63 34.63 0 0 1 50 78.29a34.63 34.63 0 0 1-34.63-34.63A34.63 34.63 0 0 1 50 9.03a34.63 34.63 0 0 1 34.63 34.63Z"/><path id="circle2" class="cls-1" style="fill:none;stroke:#00599d;stroke-width:.85px" d="M77.41 43.66A27.41 27.41 0 0 1 50 71.07a27.41 27.41 0 0 1-27.41-27.41A27.41 27.41 0 0 1 50 16.25a27.41 27.41 0 0 1 27.41 27.41Z"/><path id="circle3" class="cls-1" style="fill:none;stroke:#00599d;stroke-width:.85px" d="M70.82 43.66A20.82 20.82 0 0 1 50 64.48a20.82 20.82 0 0 1-20.82-20.82A20.82 20.82 0 0 1 50 22.84a20.82 20.82 0 0 1 20.82 20.82Z"/><path id="circle4" class="cls-1" style="fill:none;stroke:#00599d;stroke-width:.85px" d="M63.6 43.66A13.6 13.6 0 0 1 50 57.26a13.6 13.6 0 0 1-13.6-13.6A13.6 13.6 0 0 1 50 30.06a13.6 13.6 0 0 1 13.6 13.6Z"/><path id="circle5" class="cls-1" style="fill:none;stroke:#00599d;stroke-width:.85px" d="M57.01 43.66A7.01 7.01 0 0 1 50 50.67a7.01 7.01 0 0 1-7.01-7.01A7.01 7.01 0 0 1 50 36.65a7.01 7.01 0 0 1 7.01 7.01z"/><path class="cls-1" d="M50 9.03v27.62m0 14.02v27.62M25.57 19.23l19.55 19.55m9.77 9.77L74.44 68.1M15.37 43.66h27.62m14.02 0h27.62M25.57 68.09l19.55-19.55m9.77-9.76 19.55-19.55" id="path5"/></g><g id="map"><path class="cls-2" d="M48.32 52.2c.08-.17.25-.85.47-.64s.34 0 .34 0 .11.11.04.32c-.04.21-.11.42-.23.47-.13.02-.23.11-.4.13-.13.02-.21-.28-.21-.28Zm1.74-.27s.11.17.21.13c.11-.02.15.19.04.19s-.11.13-.11.19 0 .19-.08.28-.15.02-.25-.02c-.11-.06-.15-.06-.3-.06-.13 0-.02.21-.02.21s-.55-.02-.45-.11.21-.11.13-.17 0-.11 0-.21.25-.06.19-.13c-.08-.08 0-.38.13-.21l.08-.19c-.08-.08-.02-.11-.19-.17-.15-.06-.02-.38-.02-.38l.02-.21c.04-.28.57-.3.62-.06.02.23 0 .4 0 .4l.15.06s-.02.17-.15.17 0 .08-.08.17l.08.13Zm19.57-12.92c-.15.15-.47.21-.47.21l-.11.4-.17.15s.04.11 0 .36-.36.4-.36.4l-.15.17s-.85.04-.96 0c-.32-.15-.11-.57.11-.53s-.04-.62-.04-.62l.28-.04s.04-.64.15-.64-.04-.21-.17-.32c-.15-.11-.32-.47-.47-.42s-.7 0-.7 0l-.11.21-.38.06s.04.28-.04.36c-.21.25-1.02.79-.68-.11l.11-.21v-.32l-.64-.04s-.32-.11-.32-.25-.04-.32-.04-.32l-.74-.83-.89-.11-.06-.17-.53-.06c-.64-.32-1.21-.04-1.1.51.11.53.28.74-.06.74-.36 0-.42-.28-.42-.28s-.28-.11-.28.04-.11.42 0 .57-.15.36-.25.25-.38-.42-.32-.53-.49-.79.06-.89c.57-.11-.04-.42.17-.51l.28-.15h.28l.17-.15-.47-.06-.28-.04-.53-.04c-.53.36-.64.79-.64.79-.28.53-.96-.21-.7-.51s-.79-.04-.96.11-.7.06-.7.06c-.11.32-.59-.04-.47-.25.15-.21.15-.36.15-.36l-.17-.04-.21.4c-.49 0-.64.28-.53.47.11.17-.15-.04-.21.21s.04.25.25.36-.11.11.04.28.57 0 .32.25-.74.15-.74.15c-.04.32-.7.25-.79.15-.06-.11-.59-.74-.59-.74l-.68-.04c-.06-.51.32-.25.47-.64.15-.4.21-1.04.21-1.04s-.57-.04-.59.15c-.04.17-.38.3-.38.3s-.28.11-.17.25-.21.21-.21.21.06.23-.04.32c-.28.3-1 .04-1.1-.06l-.42-.17-.42-.28-.49.21-.15.15h-.53l-.04.42.96.11.06.89-.38-.13h-.25l-.11-.21-.21-.04v.79l.21.17.17.17.36.04.06.42.89.04.11.17.53.04 1.02 1.04-.06.32-.17.11c.06.25-.47.11-.47.11v.21l.25.04.25.15.36-.62c.38-.25.57.11.59.32.04.21-.17.17-.17.17v.51l.21.06c.36.42-.15.68-.15.68l-.11.36c-.11.32-.49.25-.49.25l-.15.21-.42.11.83.11c.08-.3.3-.36.4-.21s.11.4.11.4l.21.04-.04.4.21.06v1.15l.25.28c.42-.17.42.11.21.25s-.06.79-.06.79l-.17.17v.3l-.21.15v.4c-.36-.17-.79-.11-.89 0-.32-.21-1-.15-1 .04.21.28-.25.36-.25.36l-.25.28c.17.36-.17.4-.17.4v.68l-.42.4.04.93c0 .25.53.28.64.15.11-.15.53.3.53.3h.32l.06-.64-.21-.11v-1.04l.36-.4c.42-.15.28.93.28 1.04.04.4.21.36.38.28.36-.15.06.4-.21.36s-.11.36-.11.36l.17.06-.32.25-.28.32-.36-.11-.42-.04-.15-.25-.25-.04-.04.51-.17.21-.42.42c.57 0-.06.4-.21.4.32.11-.04.42-.85.17v.25l-.28.04.25.28.28.04-.11.62c0 .47-1.17.15-1.27.04l-.04.64-.21.04.04.42-.04.62.38-.06v.25l.96.04 1.38-1.47.81-.17c.06-.36.42.06.42.06.36-.04.42.21.42.21l.47.06c.38.11.15.15.17.3.04.21.21.15.21.15l.06-.47.21.04-.21-.25-.38-.17-.42-.17c-.28-.4.06-.32.36-.28h.47s.53.72.53.89.25.21.25.21l.32-.04.11.25h.32l.11.21h.64l.04-.32-.59-.11-.04-.36-.42-.11c-.15-.62.11-.79.28-.51l.21.04-.06-.53.25-.06-.06-.74-.21-.06v-.25l.89.04c-.06-.47.04-.68.04-.68h.25l.04.17 1.08.11.76-.87c-.04-.06.08-.11 0-.19-.11-.11-.25 0-.42-.11s0-.72-.04-.85c-.04-.15.59-.36.49-.04s0 .47 0 .47c.47-.42.85.04.81.15s.25.21.42.11.38.32.32.53-.7.17-.74-.04-.15-.15-.21-.04-.38.17-.57.06c-.04-.02-.04-.04-.06-.06l-.76.87h.04c.42.25.21.57.06.64s-.38.06-.38.06l-.06.15-.91.06-.06.36c-.47-.06-.64.42-.53.68s0 .47 0 .47l.38.17.49-.15c.06-.36.38-.42.68-.64.28-.21.74.4.59.68s-.15.4-.15.4l.04.32-.36.15-.28.15-.04.17h-.96l-.17.17-.47.04-.15.21-.32.04s-.53.25-.32.53c.21.3-.89.25-1.13-.15-.06.36-.47.04-.47.04l-.38-.11-.04-.53c-.06-.36-.74-.36-.7-.11s-1.27.11-1.27.11l-.42.21-.38.23-.04.17-.64.06-.28.15-.11-.21h-.28l-.28.4c-.74.04-1.44.47-1.38.64s-.28.36-.28.36l-.32.11-.21.32-.42.15-.06.74-.21.15v.32l-.25.06v.17l-.36.04.21.53.28.15c.49.06.28.68.28.68l.28.04.15.4.28.57c.11.42.42.32.57.3.15-.04.28.42.28.42l1.4.04s-.06.15.17.21c.25.06 1.87.15 1.93.04-.06-.32.89-.4 1.27-.11.38.28.91.11.91.11l.53.64.36.79.59.17.42.11.15.62.32.04.11.4c.38.28-.11.89-.11.89v.79l.28.15-.04.3.47.47.53.04 1.34 1.42 1.06.32.17.57.28-.04.21-.17.85-.04.42-.4.47-.06 3.93-3.34-.36-.21v-.79c.64-.47.68-1.3.06-1.36-.45-.06-.25-.53.17-.62l.25-.11v-.32l.81-.74v-.57l-1.76-1.47c-.79-.28 0-2 .53-1.98.53.04-.04-2.66-.04-2.66l-.28-.15.06-.87h-.38l-.64.83-.17.57c-.06.74-2.25.62-2.36.51s-.85-.42-.85-.42-.57-.47-.68-.32-.59-.17-.59-.06-.47-.25-.47-.25l-.7-.25.53-.11-.11-.42.91.47c.11.15.57.11.57.11l.15.17s.28-.04.47.17c.17.21 1.1.04 1.1.04l.25.21.38.15 1.1.04.04-.68.21-.21-.04-.42.25-.21v-.36l.21-.06.04-.79.17-.04v-1.72l-.53-.51c-.04.17-.59.17-.59.17s-.15.25-.25.25.15.32.06.53c-.06.21-.36.21-.36.21l-.53.15-.15.17h-.57l-.06-.47.64-.17.36-.17.17-.36c.04-.36.47-.32.47-.32s.81-.68.85-1 .32-1.21.81-1.21h.91c.36-.15.25-.62.25-.62l.47-.06.06.25s.64.06.7-.04.21-.36.38-.25.74-.25.74-.25c.04-.25.91-.15.91-.15l.11-.32s-.59-.83-.7-.83-.68-.51-.74-.32c-.57-.15-.53-.93-.53-.93l-.21-.51c0-.3-.53-.89-.64-.83-.53-.4-.15-.85 0-.89s.49-.53.49-.53l.17-.51.59-.17.06-.47-.32-.04s.36-.64.53-.64 1.34 0 1.44-.06.32-.64.32-.74.28-.15.38-.17c.11-.04.36-.32.42-.47.19-.36-.04-1.25-.19-1.1Zm9.79 11.45c-.02-.06-.04-.13-.11-.15-.15-.06-.42.04-.55.13l.13.17c.13-.08.32-.13.34-.11v-.02l.19-.02Zm.92 4.27-.21-.02c-.02.17.02.38.19.4l.04-.21s-.02-.08-.02-.17Zm.78-.85.13.45.19-.08s-.08-.21-.13-.42l-.19.06Zm.47-.17v-.04a.56.56 0 0 0-.06-.23l-.19.11.04.15c0 .06.02.13.06.17.04.02.08.04.15.02l-.04-.21.04.04Zm-1.8 1.53c.15-.08.34-.28.32.13s-.19.28-.32.4-.21-.4 0-.53ZM71.27 58l.02-.32.34.04-.02.3-.34-.02Zm.02.7c-.04-.19-.25-.25-.28-.25l-.06.21.06.04.04.19s-.04.04-.04.06l.15.15c.11-.17.15-.28.13-.4Zm-26.41 6.63-.21.19-.11.08.11.08.25.17.13-.17-.15-.11.11-.08-.13-.17Zm2.51 2.57-.08.19.21.11-.06.08.15.15.28-.28-.13-.08-.36-.17Zm-9.75-46.1.21.21-.15.15-.21-.21.15-.15Zm6.41 6.69.21.17-.13.17-.21-.17.13-.17Zm-.81.15.04.4h.53c.21 0-.17-.25-.17-.25s-.42.04-.4-.15Zm11.65-9.98-.36-.04-.02.21.3.02.23.36.17-.13-.23-.38-.04-.04h-.04Zm.95-7.52-.11.19.28.17.06.04.04-.04.4-.25-.13-.17-.32.21-.23-.15Zm1.89 1.02-.17-.19-.15.17.32.32.06-.06.36-.3-.15-.17-.28.23Zm-11.72 7.45c-.02-.13.7-.15.81-.04s.04.3.36.3.17.21.15.32c-.04.11-.38.06-.42-.04s-.57-.15-.57-.15-.28-.21-.32-.38Zm4.05-.4c.55.17.74.04.79-.11s.06-.17.28-.21-.04-.47-.25-.42-.42-.06-.47-.25c-.04-.17-.38-.64-.42-.28s-.25.36-.21.62c.06.23.17.62.3.66Zm3.51-6.05c-.08-.32-.53.4-.06.53.47.15.91 0 .91 0l.11-.21 1.76.04c.15-.15.21-.36.21-.36s.42-.15.59-.06c.17.06.04-.51-.15-.42-.17.06-.53.04-.53.04h-.64c-.04-.25-.59-.15-.64 0-.02.13-.23.17-.23.17l-.81.06c-.08.21-.49.36-.53.21Zm.06 1.76-.47-.47v-.4l-.15-.15-.15-.51-.47-.15-.47.17-.49.32-.53.06-.28.32 1.13.11.21.36.81.06.53.53c.49.21.59 0 .32-.25Zm1.64 3.44.15-.34.19.11-.15.32-.19-.08ZM65.83 18c-.06-.28.7-.53.89-.32.17.21.68.25.74 1.32.02.38-.64-.4-.64-.4l-.53-.17c-.3-.06-.45-.23-.47-.42Zm-3.72.93c-.11.32-.15.74-.32.74s-.11.47-.11.47.47 0 .59.04c.15.04.15.4.15.4.53-.04.74.68.68.87-.06.17.21.17.21.17s0 .57-.06.72.47.25.59.47c.15.21-.06.93-.17.98s.28.15.25.32c-.04.17.11 0 .15.3l.11.89.49.04c.06-.47.98-.49 1.13-.42.59.21 1.06 1.15 1.06 1.36s-.38.25-.38.25l.06 1.04c.59.17 1.1 1.04 1.02 1.19-.06.15.42.11.42.11.06-.64.68-.42.7-.21l.15.68.17.32.25.25.38-.04.11.21.47.06s.38.42.42.53.57.06.7.11c.15.04.36.15.38.32.04.17.25.47.25.47s.42.11.47.25.21.47.21.47l.36.3.04.32.38.04.11.42.64-.04.36-.25c.47-.25.79-.57.81-.72.04-.15.11-.68.47-.57s.11-.79.11-.79-.49-.36-.47-.53c.04-.17-.49-.53-.47-.68.04-.15-.47-.42-.42-.57s-.25-.53-.25-.53l-.53-.51-.06-.32-.42-.04-.85-1.04.04-.3-.25-.04v-.4l-.25-.15-.38-.04-.79-.85-.06-.4h-.38l.06-.74c.25-.32.11-.93.11-.93s-.49.25-.74.15.11-.36.11-.36v-.28l-.21-.21s-.59.06-.64-.04-.15-.57-.15-.57l-.04-.62-.25-.11-.04-.21-.38.04v-.42l-.21-.06-.21-.11-.04-.42-.79-.04-.25-.36-.28-.42-.89-.06-.21-.21-.36-.06-.25-.11-.11.17-.68.04-.04.21c-.3.15-1.7 0-1.74.11Zm-6.5-.21c.06.11.49.21.49.21.28 0 .47.21.47.32s.38.06.38.06l.04-.25-.28-.36-.25-.17s-.38-.04-.38-.15c0-.08-.4.23-.47.34Zm0 1.21-.28-.06v.32l.38.04-.11-.3Zm3.93 3.95v-.28s-.04-.28-.21-.28-.49-.21-.42-.36-.59-.3-.59-.3-.59-.57-.38-.51.11-.25.11-.25-.42.06-.53.04c-.11-.04-.06-.36-.06-.36s-.42-.11-.42 0 .15.11.21.32.04.57.36.64.38.15.42.3.42.17.42.17l.28.15.83.72Zm.28.96c-.04-.15-.11-.64.11-.62.21.04.06 0 .32.11s.28-.17.28-.17h.38l.49.4-.06.32-.36.04c-.17-.28-.53-.17-.47.06.06.25-.17.72-.32.74-.15.04-.59.04-.57-.17l.21-.72Zm5.82 4.89.25-.79c-.36-.06-.28-.47-.28-.47-.04-.32-.53-.68-.7-.57s-.11-.74-.11-.74.32-.21.47-.11-1.21-1.78-1.49-1.61-.91-.17-.89-.51c.04-.32-1.27-1.4-1.27-1.4s-.42-.28-.49-.06-.21.36 0 .47.17-.17.42.06c.25.25.7.57.53.79s-.38.3-.38.3l.25.3h.38l.06.62s.42.21.53.47.11.4 0 .53c-.11.15-.32.4-.28.64.04.25.32.36.32.36l.28.04.21.11v.47c.28-.06.74.32.7.57s.06.11.42.36.25.3.49.47c.23.15.45.04.55-.28Zm-8.12 4.59c0 .11-.06.25.15.3s.59-.15.64.06.04.36.32.47.47.15.68.15.68-.06.68-.06.51.08.59.17c.38.4.64.51.74.32.11-.17-.04-.57-.06-.72-.04-.15-.53-.83-.7-.68s-.21 0-.53.11-1 .04-1.02-.11c-.04-.15-.53-.21-.53-.36s-.36-.32-.32-.11-.25.32-.32.25c-.11-.08-.32.21-.32.21Zm-1.76.38-.04.25.38.04s.17.15.17.25.25.21.38.21c.15 0 .53-.3.53-.3s.17-.51.04-.47c-.15.04-.42.25-.47.04s-.47-.11-.47-.11l-.53.06Zm-1.83.4.11-.02.06.19-.11.04-.06-.21Zm.13-.34.21-.04.06.32-.19.04-.08-.32Zm.59.04.02.21.76-.02v-.21l-.79.02Zm6.89-.17.36-.04.02.21-.36.04-.02-.21Zm.93.79.11-.25.19.08-.11.25-.19-.08Zm3.08-3.59.36-.02.02.21-.36.02-.02-.21Zm.6.21h.21v.17h-.21v-.17Zm.63-3.01-.21.02-.04-.32.21-.02.04.32Zm-.21 4.46h.21v.25h-.21v-.25Zm.47.12.19.08-.11.23-.19-.11.11-.21ZM66 30.79c.21 0-.06.83.49.74.57-.06.04.25.47.28.42.04.32-.32.47-.57s.06-.4-.17-.47q-.25-.06-.32-.36c-.06-.28-.36-.36-.36-.36l-.11-.42-.47.28-.47.62c0 .51.25.28.47.28Zm1.38 1.95c.28-.15.89-.15.85-.36s.36-.28.36-.28l.11.42.32.21.04.4s.11-.06-.28.04-.15.28-.15.28l-.85.04-.11-.36-.3-.4Zm-4.57 3c.17-.04.59-.06.68.04.06.11-.25.25-.25.25l-.42.06c-.13-.17-.17-.32 0-.36Zm2.27-.32c.19.19-1.06.15-1.06 0s.11-.64.42-.53.36-.64.36-.64-.28.04-.04-.11c.25-.15 0-.36-.11-.47s-.21-.3-.21-.3h.49c.21-.15.28-.83.28-.83.42.15.64-.15.64-.15s.06.21.21.4c.15.17-.36.25-.17.36.17.11.25.42.17.53-.06.11-.47.04-.47-.11s-.15.17 0 .36c.15.17-.17.42-.25.42-.06 0-.53.06-.15.3.38.21.81.11.81.11s.32-.04.42.15c.11.17-.04.21-.21.21l-1.02-.06s-.21.23-.11.34Zm4.13-4.06c-.11-.15-.21-.25-.36-.32s-.25-.15-.38-.15c-.15 0-.28-.15-.21-.32s-.11-.25-.11-.4.11-.15.28-.04.15.15.28.32c.15.17.21.36.36.32s.25.32.38.21c.15-.11.11.25.11.25l-.34.13Zm-.34.34c.11.15.32.25.32.4s-.06.25.15.28c.21.04.36-.04.42.15.06.17.06.47.04.62-.04.15.04.36.21.36s.21.04.21.15.21-.4.21-.4c-.17-.15-.32-.47-.32-.47s-.17-.51-.17-.57-.25-.15-.36-.17c-.11-.04-.28-.36-.28-.36l-.45.02Zm2.29 5.8-.15-.32s0-.28.06-.42-.15-.28-.25-.32-.06-.32-.11-.47-.28-.25-.28-.25-.06-.53-.06-.64-.32-.25-.21-.36.17-.25.28-.32-.11-.57.06-.47.17.3.25.42c.06.15-.04.64.15.74.17.11-.04.47.25.47.28 0 .11.68.11.68s-.06.51.11.53c.17.04.06.89.06.89l-.28-.17Zm.11 2.74.11-.21.19.11-.11.21-.19-.11Zm.23-1.17.21.02-.02.3-.21-.04.02-.28Zm-.45-1.18-.28-.04-.64.11-.36.68s.17.11.32.36.21 1.72-.21 1.98.04.11.04.11l-.06.79c.11.36.28.17.38 0s.21-.21.36-.4c.15-.17.36-.51.38-.74.04-.25.21-.64.11-.74s.11-.62.11-.62.15-.3 0-.57c-.15-.3.04-.62.15-.74l-.3-.15Zm-1.55-3.66h-.53s.17.06-.32-.4-.81.11-.81.11l-.57.06v.57l-.28.11.04.36.38-.04s0 .42.11.25 1 .04.91.47c-.02.17.89.64.79 1.21.47.06.36.53.36.53l.59.06.17-.36.17.04v-.21l-.38-.11-.06-1.15-.25-.17.06-.3-.28-.11.15-.47-.25-.47Zm-1.31 8.8.21-.08-.08-.17-.04-.13-.11.06-.25.15-.23-.15-.11.19.28.17.06.04.04-.04.21-.11.02.06Zm.93-.47.38.06.04-.21-.38-.06-.04.21Zm-.72 4.59c-.15-.21.7-.57.85-.15s0 .36-.15.32c-.13-.04-.49.11-.7-.17Zm-3.66 6.9h.25v.68h-.25v-.68Zm1.64 6.57c-.06.28-.32.42-.47.32s.17.17.25.32c.06.15.28.15.36 0 .06-.15.04-.47.11-.62.06-.13-.21-.17-.25-.02Zm.79 1.44.32.15.04.62c.42.42 1.81.06 1.81-.04l-.06-1.32-.17-.17-.04-.89c.15-.47-.68-1.15-.74-1s-.53.04-.53.17c0 .15-.28.85-.15 1.1.15.25-.11.25-.15.51-.04.21-.4.64-.32.87Zm-9.95-7.67-.11-.17-.3.17.13.19.28-.19Zm-5.39.7c-.17.17-.13.32 0 .45m1.1.42.23-.4-.19-.06-.25.17.11.11.11.19Zm-.21-11.19c.15.32.11.79.64 1.15.17.13-.11.36-.28.25s-.68-.89-.68-.89v-.47c.11-.28.25-.17.32-.04Zm-1.87 1.87c.08.32.06-.51.21-.47s.04-.51.04-.51l-.64.47c.3.04.34.36.38.51Zm-1.91 2.29c-.04.42-.57.57-.57.57l-.38-.11-.21-.17-.04-.51.32-.04.06.21.83.04Zm-.58-4.33v-.51l-.06-.47-.53-.25-.38.36-.06.51v.32l-.36.06-.06.98-.28.11.04.36-.76.21-.06.47-.28.17-.15.42-.17 1.04s.32.62.49.32c.17-.28.47-.32.47-.32l.11-.25.96.04c.06-.4.53-.25.53-.06 0 .17.36.04.36.04l.25-.4h.38l.04-.42.17-.11v-.64c.57-.17.49-.72.49-.72l.15-.17-.06-.25c-.28-.11-.15-.36.04-.3.17.06-.25-.32-.25-.32-.21.17-.38-.21-.38-.21h-.62Zm-1.61-1.47-.28.06-.64.62-.04.28-.17.25-.21.53-.74.04-.15.64.11.55.64.25.06-.36.21-.11.04-.36.15-.25.21-.25.06-.28.36-.21.42-.08.17-.21.06-.42.04-.32.15-.23.42-.17v-.68h-.21l-.04-.25-.38-.04-.08.19h-.17l-.04.28h.21l.04.23-.15.13-.06.19Zm-11.22 4.32c0 .08-.06.15-.15.15s-.15-.06-.15-.15.06-.15.15-.15.15.06.15.15Zm-.02 4.1c0 .08-.06.15-.15.15s-.15-.06-.15-.15.06-.15.15-.15.15.06.15.15Zm-.38-.6c.08 0 .15-.06.15-.15s-.06-.15-.15-.15-.15.06-.15.15.06.15.15.15Zm-.43.85-.3.04v.25l.3-.04v-.25Zm.32-1.83-.25.04-.02.28.28.04v-.36Zm-.06-1.93.02-.25-.53.36-.34-.21v.85l.55.76.21-.51.08-.32-.25-.11.04-.53.21-.04Zm-.21-3.02-.64-.06.04.25h.17c.28.51.04 1.72.04 1.72s-.42.04-.49-.17-.25.47-.11.57.64 0 .68.4.32-.25.32-.25l-.02-2.46Zm14.23-7.09h-.38l-.06-.79.21-.15v-.4h-1.23l-.04-.4.17-.11-.28-.11-.21.28-.06.32-.36.06v.17h-.25v.47l-1 .83-1.98-.06c-.15.32-.49-.04-.49-.04-.06-.21-.57 0-.57 0 0 .4-.68-.17-.68-.17l-1.23-.89c-.7-.64-1.76.17-1.81.36.04.51-.81.11-.81.11s-.7-.21-.81.06-.57.21-.57.21l-.06.15-.36.06-.06.21-.42.06 1.06-.04c.28-.04-.11.62-.28.57l-.49.04-.17.17h-.47l-.21.3-.68-.04s-.38.32-.36.42c.04.11-.06.42-.17.42s-.32.32-.25.42-.21.47-.21.47l-.06.36-.21.06v.98l-.42.3v.42l-.64.68.06.57-.53.57.06.57-.32.11-.06.25-.15.74.36.04c.17-.06.15.47 0 .53s-.53.21-.32.36-.57.11-.57-.11-.42-.4-.53-.32c-.11.06-.28-.32-.28-.32-.38-.4-1.59.04-1.59.04l-.17.57c-.38.06-.64.72-.64.72-.32.11-.57.51-.47.62s-.17.15-.17.15v.79l-.17.25.04.85c.21 0 .17.4.17.4-.36.04-.28.51-.28.51l-.74.25-.15.21-.91-.04-.25.25-.25-.25h-1.76l-.06-.17-.36-.06-.04-.4-.53.04-.11.21-.57.04c.04.36-.57.89-.64.74s-.47-.53-.28-.62c.17-.06.64-.15.64-.15v-.25l-1.32-.04-.15.21-.53.04v.57l-.25.06c-.17.11.04.51.04.51.25.25-.04.64-.04.64-.21.21.17.62.17.62.28.06-.17.28-.17.28.06.36.28.47.28.47-.21.36.15.53.15.53l.04.62.25.15v.4l.15.25h.57l-.04-.89c-.49-.57.42-.72.47-.51s.42.32.42.32c.06.53.68.85.85.32s.32-.21.42.04.79.87.79.87h.53l.06.51c.59-.04.79.04 1.02.85.25.83.91 1.04.91 1.04l.49-.04c0-.42.49.06.49.3 0 .21.96 1.04.96 1.04l.96.21.89.72.68-.06h.28c.17-.62 1.02.04 1.1.25.06.21.64.57.7.4s.47-.06.53.47.32.42.32.42l2.02-.04.7-.62 1.81-.04c.91-.04.36-1.3.17-1.3-.32-.25.11-1.3.11-1.3l-2.57-2.4c-.59 0-.06-.87-.06-.87.47-.3-.11-.74-.11-.74.06-.42-.25-.93-.25-.93-.64-.42-.47-1.25-.47-1.25v-.57c-.53-.51.21-.57.21-.57.25-.42-.17-.74-.17-.74l-.04-.47-.57-.06-.06-1.68-1.27-1.83c-.25-.06-.06-.51-.06-.51.32-.17-.06-.62-.06-.62l-.04-.79.74-.06.17-.28h.36l-.04-.93c.17-.47.59-.21.59-.21l.49.04.28-.53.06-.42-.38-.04c-.42-.25-.21-1.19-.21-1.19.68-1 1.44-.42 1.44-.42l.49-.04c.74.51.06 1.42.06 1.42-.15.21-.06.89-.06.89l.17 1.15-.47.4c-.38.21-.38.72.04.83.28.04.17.72-.25.25-.64 0 .36.57.06.42.64.32.49-.28.49-.28l.85-.68c.32-.25.89.53.89.64s1.4.04 1.4.04c.38.25.53.89.53.89.38-.51 1.21-.04.59.25.57.36.57.68.57.68.47-.15.47.21.47.32s.15-.53.15-.53c-.53-.4.7-.53.36.17l-.21.32.36.28.04.83c.79-.06.57-1.04.57-1.04l.36-.06c0-.32.25-.15.25-.15-.25-1.21.57-1.42.57-1.42.47-.11.49-1.08.49-1.08-.32-.15-.15-.64.21-.21s-.21-.87-.21-.87l-.28-.25-.38-.04-.04-.4h-.64l-.11.51-.23.11-.06-.15-.11.4h-.64l-.04-.42.38-.11.15-.21.11-.57h.47l.59-.17c.04-.62.36-.47.36-.47l.53.42.04.21-.21.11-.04.3.11.4h.28c.11-.57.85-.57 1.06-.21l.21-.51c-.49-.25 0-.64.13-.47.15.17.47-.47.47-.47s.25.32 0-.11.17-.64.17-.64c-.06-.42.47-.36.47-.36l.04-.57-.49-.04c-.11.51-.53.06-.32-.04s.42-.32.42-.32v-.36l.21-.06.04-.36h.53l.47-.21.11-.17.49-.04.7-.64-.06-.28c-.42 0 0-.32 0-.32l.04-.59ZM29.8 70.16l-.28-.42.42.06.45.38.19.47-.25.15-.15-.21-.34-.11-.04-.32ZM22 59.41l.17.49.25.19.23.53-.13.25-.4-.36-.28-.4-.15-.32-.23-.64.53.25Zm-2.12-1.92h-.17v.36h.28v.47h.21l-.04-.53-.28-.11v-.19Zm27.78-21.84.21-.04.04.21-.21.04-.04-.21Zm.26-.12.06-.21.28.08-.04.21-.3-.08Zm.51-.22.02-.21-.23-.04-.04.21.25.04Zm.36-.46h.28v.21h-.28v-.21Zm1.8.25.02-.21.25.02-.04.21-.23-.02Zm.71.15.02-.21-.25-.04-.02.21.25.04Zm.25.02h.28v.21h-.28v-.21Zm.32.36v.25l.21-.02v-.25l-.21.02Z" id="path6"/></g></svg>