<svg id="Layer_1" xmlns="http://www.w3.org/2000/svg" viewBox="0 0 100 100"><defs><style>.cls-1{fill:#00599d}.cls-2{fill:none;stroke:#00599d;stroke-miterlimit:23.48;stroke-width:1.14px}</style></defs><path class="cls-2" d="M50 1c26.99 0 49 22.02 49 49S76.99 98.99 50 98.99 1 76.99 1 50 23.01 1 50 1Z"/><path class="cls-1" d="m83.15 64.77-3.31 5.98 1.33.74 2.46-4.45 7.62 4.25.84-1.53-8.95-4.99Zm2.78-9.86-.26 1.8 2.34 1.52-1.14 3.83-2.77.17-.63 1.75 10.99-.75.51-1.79-9.05-6.53Zm7.15 6.91v.04l-4.78.12.87-2.93 3.92 2.77Zm-7.03-15.76.09 1.67 7.41-.4v.04l-7.4 4.89-.09 1.85 10.08.84.17-1.89-7.57-.5v-.11l7.65-4.94-.13-1.98-10.21.52Zm7.51-7.86c.57 2.02-1.07 3.55-2.93 4.03-1.86.48-3.86.17-4.41-1.86-.56-2.07 1.06-3.53 2.89-4.09 1.83-.55 3.86-.14 4.45 1.92Zm1.37-.44c-.81-2.87-3.61-4.06-6.34-3.14-2.71.91-4.53 3.29-3.75 6.17.77 2.81 3.5 3.79 6.25 3.05 2.79-.76 4.64-3.24 3.83-6.09Zm-12.6-4.13.74 1.59 9.23-4.36-.74-1.59-9.23 4.36Zm2.7-11.65 1.65 2.4-7.11 4.76.95 1.47 7.11-4.75 1.8 2.63 1.3-.75-4.51-6.68-1.2.93Zm-12.61-.46 1.41 1.18 2.53-1.33 2.81 2.85-1.22 2.77 1.16 1.45L83.63 18l-1.36-1.3-9.85 4.81Zm9.33-2.95.02.02-2.04 4.35-2.13-2.22 4.14-2.14Zm-16.74-1.59 1.54.72 3.44-6.47.04.02.54 8.88 1.45 1.07 5.46-8.56-1.39-1.09-4.06 6.34-.52-9.06-1.7-.84-4.79 9Zm-8.72-2.72 1.6.36 1.14-4 2.58.71c1.55.43 1.58 1.33 1.08 3.09a2.86 2.86 0 0 0-.15 1.53l1.77.72c-.26-.49-.08-1.81.24-2.93.44-1.52-.19-2.19-.75-2.44v-.03c.35-.01 1.67-.12 2.19-1.97.47-1.63-.23-3.07-2.33-3.65l-4.62-1.28-2.74 9.88Zm4.03-8.02 2.77.75c.88.24 1.5.86 1.15 2.08-.29 1.01-.92 1.35-1.98 1.06l-2.86-.79.93-3.11Zm-12.3 7.58 7.3.27.03-1.51-5.54-.24.09-3.06 5.04.12.02-1.43-5.03-.13.04-2.72 5.4.27.03-1.51-7.14-.3-.22 10.24Zm-9.47-7.18 2.98-.5 1.31 8.26 1.73-.27-1.31-8.29 3.11-.54-.16-1.59-8.08 1.37.42 1.56Zm-5.51 11.31 1.46-.71-2.96-6.77h.04l6.76 5.18 1.76-.52L37 5.45l-1.66.48 2.24 7.22h-.09l-6.86-5.36-1.69.86 4.1 9.31Zm-2.86 1.72 1.48-.92-5.36-8.66-1.48.93 5.36 8.65Zm-10.09 9.79 4.64-5.48-1.05-1.08-3.54 4.25-2.3-2.02 3.15-3.85-.99-.99-3.28 3.86-2-1.82 3.53-4.03-1.08-1.14-4.68 5.55 7.6 6.76ZM8.71 32.35l1.49-2.82 7.28 4.53.82-1.54-7.25-4.53 1.56-2.84-1.27-.78-4.05 7.36 1.41.63Zm6.96 6.21.6-1.65-9.57-3.56L6.1 35l9.57 3.56Zm-1.95 11.27.07-1.59-7.58-.68 7.84-1.97.14-1.43-7.25-4.32 7.83 1.51.4-1.55L5.1 37.81l-.48 2.34 7.34 4.35v.03L3.7 46.36l-.12 2.68 10.13.8Zm-8.43 6.04c-.24-2.15 1.46-3.12 3.36-3.32 1.93-.21 3.93.47 4.21 2.59.27 2.15-1.56 3.15-3.45 3.44-1.89.3-3.87-.58-4.11-2.71Zm-1.44.22c.35 2.97 3.08 4.66 5.9 4.22 2.82-.44 4.92-2.4 4.51-5.39-.4-2.97-2.84-4.2-5.67-4.03-2.85.17-5.1 2.22-4.75 5.2Zm4.81 6.28a4.1 4.1 0 0 0-1.72 5.36c1.3 2.87 4.28 3.62 6.89 2.46 2.61-1.16 4.13-3.72 2.87-6.44-.96-2.06-3.02-2.99-5.33-2.27l.56 1.56c1.39-.46 2.86 0 3.49 1.41.87 1.96-.67 3.43-2.42 4.2-1.75.78-3.79.52-4.66-1.43-.59-1.33-.05-2.41.87-3.15M72.77 90.6l5.93-4.06-.85-1.27-4.48 3.11-1.68-2.49 4.06-2.88-.8-1.2-4.06 2.88-1.51-2.34 4.44-3.06-.85-1.26-5.88 4.01m-1.94 11.99 1.81-.66-.6-10.99-1.6.72.58 8.62h-.03L60 84.84l-1.7.5m-6.11 11.09 7.14-.86-.31-1.46-5.34.6-.37-3.06 4.68-.56-.28-1.4-4.63.55-.31-2.77 5.17-.52-.28-1.5-6.62.79m-20.81 5.79 6.76 2.52.39-1.45-5.01-1.88 1.02-2.88 4.5 1.73.36-1.37-4.4-1.7.92-2.65 4.82 1.94.39-1.42-6.27-2.48m-3.35 3.72-3.56-2.25-.74 1.08 2.31 1.48c-.97 1.37-2.52 1.7-3.99.65-1.77-1.25-1.43-3.37-.36-4.93 1.07-1.57 2.83-2.52 4.61-1.29 1.05.73 1.63 1.94 1.03 3.11l1.49.85c1.04-2 .1-3.87-1.72-5.13-2.48-1.73-5.26-.89-6.86 1.45s-1.47 5.38 1.01 7.11c1.02.7 1.96.84 3.33.51l-.24 1.43.93.55m12.21 4.58 1.67.36 1.33-7.44h.04l4.02 8.11 1.88.09.48-10.2-1.57-.04-.32 7.48h-.03l-4-8.05-1.78-.37"/><path class="cls-2" d="M50 16.37c18.52 0 33.63 15.12 33.63 33.63S68.52 83.63 50 83.63 16.37 68.52 16.37 50 31.47 16.37 50 16.37Z"/><path class="cls-1" d="M42.87 42.87V25.74h14.26v17.13h17.13v14.27H57.13v17.13H42.87V57.14H25.73V42.87"/></svg>