<svg width="38" height="37" viewBox="0 0 38 37" fill="none" xmlns="http://www.w3.org/2000/svg">
<path d="M22.0251 24.9213C21.814 24.8514 21.6029 24.7816 21.3918 24.7816C20.7584 24.7816 20.1955 25.2005 19.914 25.759C19.7732 25.9684 19.7732 26.2477 19.7732 26.5269C19.7732 27.0854 20.1251 27.6439 20.6177 27.9231C20.8288 27.993 21.0399 28.0628 21.251 28.0628C21.8844 28.0628 22.4473 27.6439 22.7288 27.0854C22.8695 26.876 22.8695 26.5967 22.8695 26.3175C22.8695 25.6892 22.5177 25.1307 22.0251 24.9213ZM31.1732 3.97786C30.1177 3.48918 28.9918 3.14012 27.8658 3.07031V3.14012C27.9362 3.41937 28.0066 3.69861 28.0066 3.97786C28.0066 4.60616 27.7955 5.23446 27.4436 5.79295C27.0918 6.7005 26.3881 7.39861 25.4732 7.74767C25.1918 7.81748 24.9103 7.88729 24.6288 7.88729C24.4881 7.88729 24.2769 7.88729 24.1362 7.81748C21.6029 11.7967 19.351 15.9156 17.3103 20.1043C16.7473 21.2911 16.2547 22.4779 15.7621 23.5948C15.6214 23.2458 15.1992 22.4779 15.1288 22.3382C13.8621 19.5458 14.214 20.1043 13.0881 17.3118C12.9473 17.0326 10.6251 15.9156 9.92139 16.5439C9.71028 16.7533 9.71028 17.1024 9.85102 17.3816C12.0325 21.1514 13.1584 23.7345 15.551 27.4345C15.9732 27.9231 16.7473 27.993 17.2399 27.5741L17.451 27.3646L18.1547 26.0382C22.3066 18.9175 26.2473 12.4948 30.9621 5.37409C31.0325 5.23446 31.6658 4.39673 31.1732 3.97786Z" fill="#083344"/>
<path d="M5.13704 7.53906L5.41852 7.7485L5.84074 10.1919L6.82593 9.07491L7.03704 9.28435L5.77037 10.6806L5.55926 10.4711L5.13704 8.02774L4.08148 9.14472L3.87037 8.93529L5.13704 7.53906ZM3.23704 9.70321L5.41852 11.1693L4.43333 12.6353L4.22222 12.4259L4.9963 11.2391L4.29259 10.8202L3.58889 11.8674L3.30741 11.7277L4.01111 10.6806L3.23704 10.1919L2.46296 11.3787L2.32222 11.1693L3.23704 9.70321ZM1.1963 13.473H2.39259L2.67407 12.8447L1.68889 12.4259L1.82963 12.1466L4.22222 13.124L3.8 14.0315C3.72963 14.2409 3.51852 14.4504 3.30741 14.5202C3.0963 14.59 2.88519 14.59 2.74444 14.5202C2.53333 14.4504 2.39259 14.3108 2.32222 14.1013C2.25185 13.9617 2.25185 13.8919 2.25185 13.7523H1.05556L1.1963 13.473ZM3.51852 13.8919L3.8 13.2636L2.95556 12.9145L2.67407 13.5428C2.53333 13.8221 2.6037 14.1013 2.88519 14.2409C3.16667 14.3806 3.37778 14.1711 3.51852 13.8919ZM2.74444 16.1259L0.492593 15.4976L0.562963 15.1485L2.81481 15.7768L3.02593 15.0089L3.30741 15.0787L2.81481 16.9636L2.53333 16.8938L2.74444 16.1259ZM0.211111 17.173L2.81481 17.5221L2.74444 17.8711L0.140741 17.5221L0.211111 17.173ZM2.32222 19.0579H1.47778L1.40741 20.2447H1.12593V19.0579H0V18.7089L2.6037 18.7787L2.53333 20.4542H2.32222V19.0579ZM0.0703704 21.2221L2.67407 20.9428V21.2919L0.0703704 21.5711V21.2221ZM0.211111 22.5485L0.562963 22.4787L2.81481 23.5259L2.46296 22.0598L2.74444 21.99L3.16667 23.8051L2.81481 23.8749L0.562963 22.8277L0.914815 24.2938L0.633333 24.4334L0.211111 22.5485ZM0.914815 25.341L3.37778 24.4334L3.51852 24.7825L1.05556 25.6202L0.914815 25.341ZM1.40741 26.7372L3.8 25.5504L4.57407 27.0862L4.29259 27.2259L3.65926 25.9693L2.95556 26.3183L3.51852 27.4353L3.23704 27.5749L2.67407 26.4579L1.82963 26.8768L2.46296 28.1334L2.18148 28.273L1.40741 26.7372ZM3.65926 30.3674L4.22222 29.3202L3.8 28.7617L2.88519 29.39L2.67407 29.1108L4.78519 27.5749L5.41852 28.4126C5.62963 28.6221 5.7 28.8315 5.62963 29.1108C5.62963 29.3202 5.48889 29.4598 5.27778 29.5994C5.13704 29.7391 4.92593 29.7391 4.71481 29.7391C4.57407 29.7391 4.5037 29.6693 4.36296 29.5994L3.72963 30.7164L3.65926 30.3674ZM5.20741 28.5523L4.78519 27.9938L4.01111 28.5523L4.43333 29.1108C4.64444 29.39 4.85556 29.4598 5.13704 29.2504C5.41852 29.041 5.41852 28.8315 5.20741 28.5523ZM6.75556 30.3674L5.13704 31.973L4.92593 31.7636L6.54444 30.1579L5.98148 29.5994L6.19259 29.39L7.52963 30.7164L7.31852 30.9259L6.75556 30.3674ZM9.64074 34.9749C9.35926 35.0447 9.14815 34.9749 8.86667 34.9051C8.65556 34.7655 8.44444 34.556 8.37407 34.3466C8.3037 33.5787 8.72593 32.8108 9.42963 32.4617C9.99259 32.3221 10.4852 32.6711 10.6963 33.1598C10.7667 33.3693 10.7667 33.5787 10.6259 33.7881L10.3444 33.6485C10.4148 33.5089 10.4148 33.3693 10.4148 33.2994C10.3444 33.1598 10.2741 32.9504 10.063 32.8806C9.92222 32.8108 9.71111 32.8108 9.57037 32.8108C9.28889 32.9504 9.07778 33.1598 8.93704 33.4391C8.7963 33.7183 8.65556 33.9976 8.72593 34.2768C8.7963 34.4164 8.86667 34.6259 9.07778 34.6957C9.21852 34.7655 9.42963 34.8353 9.57037 34.7655C9.71111 34.6957 9.78148 34.6259 9.85185 34.4862L10.1333 34.6259C10.063 34.7655 9.85185 34.9051 9.64074 34.9749ZM10.6259 35.673L11.5407 33.2296L13.2296 33.7881L13.1593 34.0674L11.8222 33.5787L11.5407 34.3466L12.737 34.7655L12.6667 35.0447L11.4704 34.6259L11.1889 35.4636L12.5259 35.9523L12.4556 36.2315L10.6259 35.673ZM14.7778 36.79L14.4963 35.6032L13.7926 35.4636L13.5815 36.5108L13.2296 36.441L13.7222 33.8579L14.7074 34.0674C14.9185 34.0674 15.2 34.207 15.3407 34.4164C15.4815 34.556 15.4815 34.7655 15.4111 34.9749C15.4111 35.1843 15.2704 35.324 15.1296 35.4636C15.0593 35.6032 14.9185 35.6032 14.8481 35.6032L15.1296 36.8598L14.7778 36.79ZM14.7074 34.4164L14.0037 34.2768L13.863 35.1843L14.5667 35.324C14.8481 35.3938 15.1296 35.324 15.2 34.9749C15.2704 34.6259 14.9889 34.4862 14.7074 34.4164ZM17.0296 34.6259L16.9593 36.9296H16.6074L16.6778 34.6259H15.9037V34.3466L17.8037 34.4164V34.6957L17.0296 34.6259ZM18.6481 36.8598L18.437 34.2768H18.7889L19 36.8598H18.6481ZM19.9852 34.4164L20.1259 35.2542L21.3222 34.9749L21.3926 35.2542L20.1963 35.5334L20.4074 36.6504L20.0556 36.7202L19.6333 34.207L21.3222 33.8579L21.3926 34.1372L19.9852 34.4164ZM22.7296 36.0919L21.8852 33.6485L22.237 33.5089L23.0815 35.9523L22.7296 36.0919ZM24.137 35.6032L23.0111 33.2296L24.5593 32.4617L24.7 32.741L23.4333 33.3693L23.7852 34.0674L24.9111 33.5089L25.0519 33.7881L23.9259 34.3466L24.3481 35.1843L25.6148 34.556L25.7556 34.8353L24.137 35.6032ZM23.4333 32.8108L23.2222 32.6711L23.5741 31.973L23.8556 32.1126L23.4333 32.8108ZM29.3444 31.7636C29.2741 32.3221 28.8519 32.741 28.2889 32.741C27.5148 32.5315 26.9519 31.9032 26.8111 31.1353C26.8111 30.856 26.9519 30.6466 27.163 30.4372C27.3741 30.2277 27.5852 30.1579 27.8667 30.1579C28.0778 30.1579 28.2889 30.2976 28.5 30.4372L28.2185 30.6466C28.1481 30.5768 28.0074 30.507 27.8667 30.507C27.6556 30.507 27.5148 30.5768 27.3741 30.6466C27.2333 30.7862 27.163 30.9259 27.163 31.1353C27.163 31.4145 27.3741 31.6938 27.5852 31.9032C27.7259 32.1126 28.0074 32.3221 28.2889 32.3919C28.5 32.3919 28.6407 32.3221 28.7815 32.2523C28.9222 32.1126 28.9926 31.973 28.9926 31.7636C28.9926 31.624 28.9222 31.4843 28.8519 31.4145L29.1333 31.2051C29.2741 31.3447 29.3444 31.5542 29.3444 31.7636ZM30.3296 31.0655L28.2889 29.4598L29.3444 28.0636L29.5556 28.273L28.7111 29.3202L29.3444 29.8089L30.1185 28.8315L30.4 29.0409L29.6259 30.0183L30.3296 30.5768L31.2444 29.4598L31.4556 29.6693L30.3296 31.0655ZM32.7222 27.5051L31.5259 27.4353L31.1741 28.0636L32.1593 28.6221L32.0185 28.9013L29.6963 27.6447L30.1889 26.7372C30.2593 26.5277 30.4704 26.3183 30.7519 26.2485C30.963 26.1787 31.1741 26.2485 31.3148 26.3183C31.5963 26.4579 31.737 26.807 31.6667 27.0862L32.9333 27.156L32.7222 27.5051ZM30.4704 26.8768L30.1185 27.5051L30.963 27.924L31.3148 27.2957C31.4556 27.0164 31.4556 26.7372 31.1741 26.5976C30.8926 26.4579 30.6111 26.5976 30.4704 26.8768ZM31.3852 24.7126L33.5667 25.4806L33.4963 25.8296L31.3148 25.0617L31.0333 25.7598L30.7519 25.69L31.3852 23.9447L31.6667 24.0145L31.3852 24.7126ZM34.0593 23.8749L31.5259 23.2466L31.5963 22.8976L34.1296 23.5259L34.0593 23.8749ZM32.0889 21.8504L32.9333 21.9202L33.0741 20.7334H33.3556L33.2148 21.9202L34.3407 22.0598V22.4089L31.737 22.1296L31.9481 20.4542H32.2296L32.0889 21.8504ZM34.5518 19.8259H31.9481V19.5466H34.5518V19.8259ZM34.1296 16.824C34.5519 17.173 34.6222 17.8013 34.3407 18.2202C34.0593 18.4994 33.7074 18.7089 33.2852 18.7089C32.9333 18.7787 32.5111 18.7089 32.1593 18.4994C31.737 18.1504 31.6667 17.5221 31.9481 17.1032C32.0889 16.8938 32.3 16.824 32.5111 16.7542L32.5815 17.1032C32.4407 17.1032 32.3 17.173 32.2296 17.3126C32.0889 17.4523 32.0889 17.6617 32.0889 17.8013C32.0889 18.0108 32.2296 18.1504 32.3704 18.2202C32.6519 18.3598 32.9333 18.4296 33.2148 18.3598C33.4963 18.3598 33.7778 18.2202 34.0593 18.0108C34.2 17.8711 34.2 17.6617 34.2 17.5221C34.2 17.3126 34.0593 17.173 33.9185 17.1032C33.7778 17.0334 33.637 16.9636 33.4963 17.0334L33.4259 16.6843C33.7074 16.6145 33.9185 16.6843 34.1296 16.824ZM33.637 14.0315L33.0741 14.4504L33.4259 15.4976H34.0593L34.1296 15.8466L31.3148 15.707L31.2444 15.3579L33.4963 13.6825L33.637 14.0315ZM31.6667 15.4277L33.0741 15.4976L32.7926 14.6598L31.6667 15.4277ZM30.8222 13.3334L32.9333 12.356L33.0741 12.6353L30.963 13.6126L31.3148 14.3108L30.963 14.5202L30.1889 12.8447L30.4704 12.7051L30.8222 13.3334ZM31.0333 9.77302C31.3148 9.84284 31.5259 9.98246 31.6667 10.1919C31.8074 10.4013 31.8778 10.6806 31.8074 10.9598C31.737 11.3089 31.4556 11.6579 31.1037 11.8674C30.8222 12.1466 30.4 12.2164 30.0481 12.2164C29.7667 12.1466 29.5556 12.007 29.4148 11.7976C29.2741 11.5881 29.2037 11.3089 29.2741 11.0296C29.5556 10.2617 30.2593 9.77302 31.0333 9.77302ZM29.5556 11.0296C29.5556 11.2391 29.5556 11.3787 29.6259 11.5183C29.6963 11.6579 29.9074 11.7976 30.0481 11.7976C30.6815 11.7277 31.1741 11.3787 31.4556 10.8202C31.5259 10.6806 31.4556 10.4711 31.3852 10.3315C31.3148 10.1919 31.1037 10.0523 30.963 10.0523C30.4 10.1221 29.837 10.4711 29.5556 11.0296Z" fill="#083344"/>
<path d="M26.9514 13.1258C30.7514 18.5013 29.4143 25.8315 23.9958 29.6013C18.5773 33.3711 11.1884 32.0447 7.38842 26.6692C3.65879 21.2938 4.99583 13.9636 10.4143 10.1938C13.9329 7.75037 18.5069 7.40132 22.3773 9.21641C22.6588 8.72773 22.9403 8.23905 23.2921 7.75037C16.5366 4.46924 8.44398 7.19188 5.0662 13.824C1.75879 20.456 4.50324 28.5541 11.1884 31.9051C17.8736 35.1862 26.0366 32.4636 29.4144 25.8315C31.7366 21.224 31.1736 15.6391 28.0069 11.59L26.9514 13.1258Z" fill="#083344"/>
<path d="M8.58503 8.0283L8.16281 7.19057L9.00726 2.79245L6.54429 4.18868L6.12207 3.42075L9.64059 1.53585L10.0628 2.37358L9.148 6.70189L11.6813 5.30566L12.1036 6.07358L8.58503 8.0283ZM12.6665 5.93396L11.6813 0.837736L15.3406 0.139623L15.4813 0.977358L12.7369 1.53585L12.948 2.72264L15.3406 2.23396L15.4813 3.0717L13.0887 3.56038L13.3702 4.9566L16.1147 4.39811L16.2554 5.23585L12.6665 5.93396ZM21.2517 5.65472L20.2665 5.58491L19.6332 1.88491L18.085 5.30566L17.0998 5.16604L16.748 0H17.6628L17.9443 3.7L19.4221 0.349057L20.1961 0.418868L20.8295 4.04906L22.0258 0.558491L22.8702 0.767924L21.2517 5.65472ZM25.3332 7.05094C24.7702 7.19057 24.2073 7.19057 23.7147 6.91132C23.2221 6.70189 22.7998 6.21321 22.6591 5.72453C22.448 4.18868 23.2221 2.72264 24.5591 1.95472C25.1221 1.81509 25.685 1.81509 26.1776 2.09434C26.6702 2.30377 27.0924 2.79245 27.2332 3.28113C27.4443 4.81698 26.7406 6.35283 25.3332 7.05094ZM26.3887 3.56038C26.1776 2.93208 25.5443 2.65283 24.911 2.86226C24.0665 3.49057 23.5036 4.46792 23.5739 5.51509C23.785 6.1434 24.4184 6.42264 25.0517 6.28302C25.5443 6.00377 25.8961 5.58491 26.0369 5.09623C26.3184 4.67736 26.4591 4.11887 26.3887 3.56038Z" fill="#083344"/>
</svg>
