<svg width="67" height="67" viewBox="0 0 67 67" fill="none" xmlns="http://www.w3.org/2000/svg">
<g clip-path="url(#clip0_2637_567)">
<path d="M66.9643 32.0634C66.2067 14.252 51.4846 0 33.5036 0C15.0294 0 0 15.0239 0 33.5C0 33.9431 0.0142933 34.3863 0.0357333 34.8223C0.0357333 34.8294 0.0357333 34.8366 0.0357333 34.8437C0.0357333 34.858 0.0357333 34.8723 0.0357333 34.8795C0.4288 44.5857 4.97408 53.234 11.9421 59.1092C11.9492 59.1164 11.9564 59.1235 11.9707 59.1307C17.8023 64.0338 25.3135 67 33.5036 67C51.9777 67 67.0071 51.969 67.0071 33.4929C67.0071 33.0068 66.9929 32.5351 66.9714 32.0562L66.9643 32.0634ZM64.6487 30.9126C64.3772 30.8769 64.0913 30.8269 63.7983 30.7482C62.3261 30.3408 62.3046 29.6833 62.2975 29.4331C62.1903 26.0452 59.5317 22.2857 56.1371 22.2857H56.0799C54.0359 22.3 52.8925 23.8724 51.9777 25.1375C51.3417 26.0166 50.7413 26.8386 50.0267 27.0101C49.3334 27.1745 49.1476 27.1173 48.1185 24.5943C47.7755 23.7581 47.3538 22.7217 46.7821 21.5852C43.3159 14.6951 33.2106 13.3014 29.0583 15.1597C25.8709 16.5892 24.0057 15.5742 23.9699 15.56C22.9622 14.9024 22.3619 13.7016 22.3619 12.3436C22.3619 11.2501 22.7693 10.278 23.4053 9.8706C24.363 9.24163 25.385 9.01291 26.8071 8.69842C28.0078 8.42682 29.5014 8.09089 31.2953 7.39759C33.961 6.36836 35.376 4.04544 36.0907 2.3515C51.263 3.60945 63.3909 15.7386 64.6416 30.9126H64.6487ZM8.38304 14.8952C9.34069 15.4527 10.2555 15.9602 11.0202 16.3605C12.4138 17.0824 13.5072 18.6119 13.5572 19.9199C13.593 20.7919 13.1856 21.4852 12.2923 22.0498C10.2769 23.3292 9.20491 24.9445 8.26155 26.3669C7.46827 27.5605 6.71787 28.6898 5.4672 29.5832C5.0384 29.8905 4.15221 30.2336 2.39413 30.3051C2.98016 24.5729 5.11701 19.2909 8.38304 14.8952ZM2.35125 36.1017C3.44469 36.2589 3.71627 36.5305 3.752 36.5734C3.86635 36.7092 4.00928 36.9522 4.18795 37.2453C5.10987 38.7534 6.82507 41.548 9.77664 42.2342C12.6139 42.8917 13.9074 45.0288 13.9074 46.7299C13.9074 47.4732 13.643 48.1022 13.3071 48.8884C12.7497 50.2035 12.0493 51.8332 12.3709 54.5849C12.4352 55.1567 12.3852 55.7571 12.2422 56.3932C6.68928 51.2328 3.02304 44.0925 2.3584 36.1017H2.35125ZM33.4964 64.77C26.1639 64.77 19.4246 62.2255 14.0861 57.9871C14.5292 56.722 14.7078 55.4926 14.5721 54.3348C14.3219 52.1691 14.8436 50.9469 15.3439 49.7675C15.7298 48.867 16.1229 47.9307 16.1229 46.7299C16.1229 43.5993 13.7145 40.8619 10.2626 40.0613C8.22581 39.5896 6.88224 37.3953 6.07467 36.0802C5.83168 35.6871 5.63872 35.3726 5.46005 35.1511C4.86688 34.4292 3.82347 34.0075 2.22976 33.8431C2.22976 33.7287 2.22261 33.6144 2.22261 33.5C2.22261 33.1784 2.23691 32.8567 2.2512 32.5351C4.27371 32.4779 5.77451 32.1134 6.76789 31.3987C8.34731 30.2694 9.24779 28.9114 10.1197 27.6034C11.0273 26.2454 11.8778 24.9588 13.4858 23.9367C15.0437 22.9504 15.8585 21.4923 15.787 19.827C15.6941 17.7113 14.1575 15.4742 12.0493 14.3806C11.3918 14.0376 10.6199 13.6087 9.79808 13.137C15.544 6.47557 24.0342 2.23715 33.5036 2.23715C33.5679 2.23715 33.6251 2.23715 33.6822 2.23715C33.0676 3.40932 32.0671 4.71016 30.4948 5.31054C28.8582 5.93951 27.5075 6.24685 26.3212 6.51131C24.7989 6.85438 23.4768 7.14743 22.1833 7.99083C20.9183 8.81278 20.125 10.4781 20.125 12.3365C20.125 14.445 21.1041 16.3462 22.7764 17.4397C22.8908 17.5112 25.6494 19.1265 29.966 17.1824C33.2534 15.71 41.9724 17.0037 44.781 22.5716C45.317 23.6294 45.7029 24.58 46.046 25.4234C46.9679 27.6677 47.8326 29.7905 50.5341 29.1615C52.0563 28.797 52.9782 27.539 53.7858 26.4312C54.6577 25.2304 55.2509 24.5014 56.1085 24.5014H56.1371C58.1739 24.5014 59.9963 27.2317 60.0677 29.4831C60.0963 30.3837 60.4608 31.1842 61.1111 31.7918C62.1403 32.7495 63.6982 33.064 64.7559 33.1569C64.7559 33.2641 64.7631 33.3713 64.7631 33.4857C64.7631 50.7253 50.7413 64.7557 33.4964 64.7557V64.77Z" fill="#FAC800"/>
<path d="M46.4107 33.3785C45.3101 32.7924 45.16 31.3128 45.0671 29.1186C44.9885 27.3174 44.9099 25.4591 43.6306 24.437C42.4157 23.4721 40.772 22.5144 37.6489 22.7073C35.3048 22.8503 34.2256 22.6716 32.732 22.4143C31.953 22.2785 31.0596 22.1284 29.859 21.9926C26.0284 21.5709 24.2417 22.1212 21.1972 26.1667C20.7541 26.7671 20.3253 27.296 19.9466 27.7749C17.2666 31.1485 16.1588 32.9568 20.1753 37.1094C23.5199 40.5616 25.3352 40.5759 27.3577 40.24C27.7436 40.1757 28.1152 40.1113 28.494 40.1113C29.6303 40.1113 30.345 41.455 31.0525 44.8858C31.224 45.7292 31.3812 47.0443 31.5385 48.4452C32.1102 53.3484 32.6748 57.2223 34.2685 58.6803C35.0689 59.4165 35.9051 59.7811 36.7484 59.7811C36.9128 59.7811 37.07 59.7668 37.2344 59.7453C38.678 59.5023 39.9501 58.2372 41.3723 55.6427C42.3728 53.8058 43.6592 52.4549 44.6883 51.3614C45.4316 50.5752 46.0176 49.9533 46.3607 49.3172C46.7609 48.5596 46.6537 47.6733 46.5322 46.6369C46.3464 45.1002 46.1391 43.3634 47.5256 41.8624C49.1479 40.1113 49.8125 38.5175 49.5552 37.0022C49.3194 35.587 48.2617 34.3648 46.4107 33.3785ZM45.8747 40.3472C43.7807 42.6058 44.0952 45.2003 44.3024 46.9085C44.3667 47.4088 44.4453 48.0879 44.381 48.2737C44.1809 48.6454 43.6592 49.1957 43.0589 49.8318C42.0012 50.954 40.5433 52.4835 39.4069 54.5777C38.142 56.8935 37.3273 57.4724 36.8627 57.5511C36.7484 57.5725 36.4125 57.6225 35.7693 57.0436C34.6616 56.0358 34.097 51.1327 33.7539 48.2022C33.5753 46.6941 33.4252 45.3933 33.2322 44.457C32.7248 42.0054 31.8815 37.8956 28.4868 37.8956C27.9223 37.8956 27.4291 37.9814 26.986 38.0529C25.6353 38.2816 24.5705 38.4531 21.7761 35.5727C18.946 32.6494 19.3105 32.192 21.6904 29.1901C22.0834 28.6897 22.5194 28.1465 22.9839 27.5319C25.521 24.1583 26.5001 23.8938 29.616 24.2369C30.7523 24.3655 31.6099 24.5085 32.3603 24.6371C33.9397 24.9087 35.1833 25.1232 37.7918 24.9588C40.0144 24.8158 41.1793 25.3519 42.2442 26.2024C42.7301 26.5884 42.7873 27.9893 42.8445 29.2258C42.9374 31.4058 43.0517 34.1289 45.3601 35.3583C46.5679 36.0016 47.2325 36.6877 47.354 37.3882C47.5184 38.3602 46.6465 39.5395 45.8818 40.3615L45.8747 40.3472Z" fill="#FAC800"/>
</g>
<defs>
<clipPath id="clip0_2637_567">
<rect width="67" height="67" fill="white"/>
</clipPath>
</defs>
</svg>
