<svg width="70" height="56" viewBox="0 0 70 56" fill="none" xmlns="http://www.w3.org/2000/svg">
<g clip-path="url(#clip0_2637_590)">
<path d="M68.8291 42.3903L53.7076 27.3653C61.2684 15.755 52.4751 -0.141342 38.4912 -4.11095e-05C31.1201 -4.11095e-05 24.7918 4.42739 22.0187 10.7388C9.81242 11.1627 0 21.1716 0 33.4177C1.16137 63.0438 43.4685 63.7268 45.6728 34.2419C46.5023 33.8887 47.3082 33.4648 48.0666 32.9938L63.1882 48.0188C63.9466 48.7724 64.9421 49.1728 66.0087 49.1728C69.5402 49.1963 71.3415 44.8631 68.8291 42.3903ZM38.4912 2.82598C54.3238 3.01438 59.3248 23.7857 45.578 31.1569C44.5114 20.4415 35.9078 11.9164 25.1236 10.833C27.6596 6.07591 32.7081 2.82598 38.4912 2.82598ZM23.6778 20.9125L29.8165 14.813C31.0016 15.2605 32.1629 15.8021 33.2295 16.4615L24.9814 24.6335C24.3888 23.456 23.9385 22.2078 23.6778 20.9125ZM23.3697 17.1916C23.4171 15.9434 23.6304 14.7424 23.9859 13.5884C24.9103 13.6355 25.7872 13.7533 26.6642 13.9181L23.3697 17.1916ZM35.5759 18.1101C36.5003 18.8637 37.3536 19.7115 38.112 20.6064L29.058 29.6026C28.1337 28.8489 27.2804 28.0011 26.5457 27.0591L35.5759 18.1101ZM39.8185 22.9143C40.4822 23.9741 41.051 25.0809 41.5013 26.2584L35.1967 32.5228C33.8931 32.2402 32.637 31.7692 31.4993 31.1804L39.8185 22.9143ZM42.4257 29.3671C42.6153 30.3091 42.7575 31.2982 42.8049 32.2873C41.5487 32.6641 40.2214 32.876 38.8468 32.8996L42.4257 29.3671ZM22.8482 53.294C-2.60716 52.3991 -4.10036 16.7441 21.0469 13.6355C17.7761 26.4704 29.8639 38.481 42.7812 35.231C41.8331 45.3341 33.2532 53.294 22.8482 53.294ZM66.8382 46.017C66.4116 46.4645 65.6294 46.4645 65.2028 46.017L50.3657 31.2746C50.9582 30.7565 51.5033 30.2149 52.0011 29.6497L66.8382 44.3921C67.2886 44.8395 67.2886 45.5696 66.8382 46.017Z" fill="#3f6ea0"/>
</g>
<defs>
<clipPath id="clip0_2637_590">
<rect width="70" height="56" fill="white"/>
</clipPath>
</defs>
</svg>
