<?xml version="1.0" encoding="UTF-8"?>
<svg id="Layer_1" xmlns="http://www.w3.org/2000/svg" viewBox="0 0 100 100">
  <defs>
    <style>
      .cls-1 {
        fill: #00599d;
      }

      .cls-2 {
        clip-path: url(#clippath);
      }
    </style>
    <clipPath id="clippath">
      <path class="cls-1" d="M61.16,81.46c6.5-.08,12.67-1.03,18.13-2.87,1.37-.46,2.69-.98,3.93-1.53-1.52,3.71-3.75,6.8-6.66,9.1-5.74,4.23-12.51,7.12-19.86,8.23,1.84-3.18,3.32-7.67,4.46-12.94M30.57,90.47c-.14-.11-.28-.22-.45-.3-2.56-1.25-3.59-6.95-2.26-15.67,4.91,2.21,10.27,3.96,15.89,5.16,4.26.91,8.51,1.47,12.66,1.69-2.04,8.85-4.64,13.5-6.37,13.5-.11,0-.22.02-.32.04-6.85-.05-13.34-1.62-19.15-4.42M6.83,62.28c-.39-1.5-.64-3.03-.74-4.57,1.54,2.19,3.41,4.32,5.64,6.39,3.37,3.11,7.37,5.9,11.83,8.29-.91,5.09-1.17,9.71-.59,13.42-7.68-5.81-13.43-14.03-16.13-23.53M64.06,49.92c0-1.8-.03-3.6-.08-5.4,5.73-.38,11.03-1.87,15.37-4.37,4.02,7.95,6.18,16.35,6.16,24.27,0,2.29-.2,4.48-.57,6.54-2.07,1.27-4.45,2.36-7.13,3.27-4.75,1.6-10.11,2.47-15.79,2.62,1.37-8.18,2.03-17.69,2.03-26.92M44.72,75.17c-5.7-1.22-11.09-3.03-15.97-5.33,1.6-7.21,4.59-15.95,9.31-25.64.69-1.4,1.39-2.79,2.1-4.14,3.31,1.48,6.91,2.66,10.68,3.47,2.87.62,5.73.95,8.54,1.05.05,1.73.07,3.51.07,5.34,0,10.84-.87,19.84-2.12,26.88-4.12-.18-8.35-.72-12.62-1.62M14.86,60.72c-3.91-3.61-6.6-7.44-7.97-11.24,1.09-4.26,3.19-8.53,6.28-12.63,2.93-3.88,6.58-7.38,10.76-10.39,1.21,2.18,2.9,4.31,5.05,6.33,2.05,1.92,4.43,3.65,7.08,5.17-.73,1.39-1.45,2.8-2.13,4.21-4.08,8.37-7.42,17.35-9.38,25.5-3.64-2.05-6.91-4.38-9.69-6.96M60.93,17.93c5.23,3.9,10.03,8.93,14.05,14.81.76,1.11,1.48,2.25,2.16,3.39-3.68,2.13-8.33,3.4-13.35,3.75-.42-7.95-1.37-15.59-2.86-21.95M51.81,39.03c-3.33-.71-6.5-1.73-9.42-3.01,4.3-7.52,8.99-14.05,13.63-18.91,1.45,5.7,2.66,13.36,3.17,22.86-2.44-.1-4.92-.41-7.39-.94M32.13,29.43c-1.91-1.78-3.35-3.64-4.32-5.51,4.31-2.6,9.09-4.71,14.17-6.24,3.03-.91,6.09-1.58,9.14-2.05-4.41,4.94-8.81,11.21-12.84,18.3-2.31-1.33-4.37-2.84-6.14-4.5M22.23,14.76c-.06.23-.13.47-.18.71-.47,2.17-.41,4.4.14,6.6-4.95,3.42-9.26,7.46-12.69,12-1.05,1.38-1.98,2.79-2.83,4.21,2.55-9.43,8.1-17.63,15.57-23.53M26.55,16.43c.51-2.39,1.95-4.52,4.17-6.29,5.38-1.61,11.63-1.22,18.2,1.19-2.77.48-5.53,1.12-8.26,1.94-5.08,1.52-9.87,3.61-14.26,6.14-.1-1.01-.05-2.01.15-2.98M63.9,10.37c1.58-1.02,3.04-1.72,4.25-2.01,2.31.92,4.6,2.11,6.77,3.6-3.48-.87-7.19-1.4-11.02-1.59M56.15,5.44c1.87.21,3.86.53,5.91,1.01-1.28.69-2.61,1.55-3.97,2.58-.6-1.36-1.25-2.56-1.94-3.59M51.16,7.25c-2.08-.8-4.14-1.41-6.17-1.86,1.63-.18,3.27-.29,4.95-.29.78,0,1.75.95,2.75,2.77-.51-.22-1.02-.43-1.53-.63M.5,50c0,4.71.68,9.25,1.91,13.57.07.29.15.58.23.87.02.05.04.1.06.16,6.24,20.19,25.09,34.9,47.3,34.9,10.28,0,19.83-3.15,27.75-8.53.08-.05.16-.09.23-.14.47-.32.92-.66,1.37-1.01,9.11-6.73,15.83-16.5,18.67-27.81.16-.52.3-1.05.41-1.58.03-.13.04-.25.04-.38.68-3.25,1.03-6.62,1.03-10.06,0-6.68-1.31-13.16-3.89-19.27-.5-1.17-1.85-1.72-3.02-1.22-1.17.49-1.72,1.85-1.22,3.01,2.34,5.53,3.53,11.41,3.53,17.47,0,3.72-.46,7.32-1.32,10.78-.68,2.18-1.88,4.2-3.53,6.03.04-.78.07-1.57.07-2.38.02-8.83-2.42-18.16-6.95-26.93,3.32-2.85,5.44-6.38,6.17-10.32.23-1.25-.6-2.45-1.85-2.68-1.25-.23-2.45.59-2.68,1.85-.48,2.61-1.83,5-3.95,7.03-.66-1.09-1.34-2.17-2.07-3.23-4.04-5.92-8.84-11.05-14.1-15.14,6.94.46,13.35,2.14,18.51,5.02.81.46,1.88.45,2.64-.18.98-.81,1.11-2.27.29-3.25C78.71,6.22,65.88.5,50,.5,22.71.5.5,22.7.5,50h0Z"/>
    </clipPath>
  </defs>
  <path class="cls-1" d="M61.16,81.46c6.5-.08,12.67-1.03,18.13-2.87,1.37-.46,2.69-.98,3.93-1.53-1.52,3.71-3.75,6.8-6.66,9.1-5.74,4.23-12.51,7.12-19.86,8.23,1.84-3.18,3.32-7.67,4.46-12.94M30.57,90.47c-.14-.11-.28-.22-.45-.3-2.56-1.25-3.59-6.95-2.26-15.67,4.91,2.21,10.27,3.96,15.89,5.16,4.26.91,8.51,1.47,12.66,1.69-2.04,8.85-4.64,13.5-6.37,13.5-.11,0-.22.02-.32.04-6.85-.05-13.34-1.62-19.15-4.42M6.83,62.28c-.39-1.5-.64-3.03-.74-4.57,1.54,2.19,3.41,4.32,5.64,6.39,3.37,3.11,7.37,5.9,11.83,8.29-.91,5.09-1.17,9.71-.59,13.42-7.68-5.81-13.43-14.03-16.13-23.53M64.06,49.92c0-1.8-.03-3.6-.08-5.4,5.73-.38,11.03-1.87,15.37-4.37,4.02,7.95,6.18,16.35,6.16,24.27,0,2.29-.2,4.48-.57,6.54-2.07,1.27-4.45,2.36-7.13,3.27-4.75,1.6-10.11,2.47-15.79,2.62,1.37-8.18,2.03-17.69,2.03-26.92M44.72,75.17c-5.7-1.22-11.09-3.03-15.97-5.33,1.6-7.21,4.59-15.95,9.31-25.64.69-1.4,1.39-2.79,2.1-4.14,3.31,1.48,6.91,2.66,10.68,3.47,2.87.62,5.73.95,8.54,1.05.05,1.73.07,3.51.07,5.34,0,10.84-.87,19.84-2.12,26.88-4.12-.18-8.35-.72-12.62-1.62M14.86,60.72c-3.91-3.61-6.6-7.44-7.97-11.24,1.09-4.26,3.19-8.53,6.28-12.63,2.93-3.88,6.58-7.38,10.76-10.39,1.21,2.18,2.9,4.31,5.05,6.33,2.05,1.92,4.43,3.65,7.08,5.17-.73,1.39-1.45,2.8-2.13,4.21-4.08,8.37-7.42,17.35-9.38,25.5-3.64-2.05-6.91-4.38-9.69-6.96M60.93,17.93c5.23,3.9,10.03,8.93,14.05,14.81.76,1.11,1.48,2.25,2.16,3.39-3.68,2.13-8.33,3.4-13.35,3.75-.42-7.95-1.37-15.59-2.86-21.95M51.81,39.03c-3.33-.71-6.5-1.73-9.42-3.01,4.3-7.52,8.99-14.05,13.63-18.91,1.45,5.7,2.66,13.36,3.17,22.86-2.44-.1-4.92-.41-7.39-.94M32.13,29.43c-1.91-1.78-3.35-3.64-4.32-5.51,4.31-2.6,9.09-4.71,14.17-6.24,3.03-.91,6.09-1.58,9.14-2.05-4.41,4.94-8.81,11.21-12.84,18.3-2.31-1.33-4.37-2.84-6.14-4.5M22.23,14.76c-.06.23-.13.47-.18.71-.47,2.17-.41,4.4.14,6.6-4.95,3.42-9.26,7.46-12.69,12-1.05,1.38-1.98,2.79-2.83,4.21,2.55-9.43,8.1-17.63,15.57-23.53M26.55,16.43c.51-2.39,1.95-4.52,4.17-6.29,5.38-1.61,11.63-1.22,18.2,1.19-2.77.48-5.53,1.12-8.26,1.94-5.08,1.52-9.87,3.61-14.26,6.14-.1-1.01-.05-2.01.15-2.98M63.9,10.37c1.58-1.02,3.04-1.72,4.25-2.01,2.31.92,4.6,2.11,6.77,3.6-3.48-.87-7.19-1.4-11.02-1.59M56.15,5.44c1.87.21,3.86.53,5.91,1.01-1.28.69-2.61,1.55-3.97,2.58-.6-1.36-1.25-2.56-1.94-3.59M51.16,7.25c-2.08-.8-4.14-1.41-6.17-1.86,1.63-.18,3.27-.29,4.95-.29.78,0,1.75.95,2.75,2.77-.51-.22-1.02-.43-1.53-.63M.5,50c0,4.71.68,9.25,1.91,13.57.07.29.15.58.23.87.02.05.04.1.06.16,6.24,20.19,25.09,34.9,47.3,34.9,10.28,0,19.83-3.15,27.75-8.53.08-.05.16-.09.23-.14.47-.32.92-.66,1.37-1.01,9.11-6.73,15.83-16.5,18.67-27.81.16-.52.3-1.05.41-1.58.03-.13.04-.25.04-.38.68-3.25,1.03-6.62,1.03-10.06,0-6.68-1.31-13.16-3.89-19.27-.5-1.17-1.85-1.72-3.02-1.22-1.17.49-1.72,1.85-1.22,3.01,2.34,5.53,3.53,11.41,3.53,17.47,0,3.72-.46,7.32-1.32,10.78-.68,2.18-1.88,4.2-3.53,6.03.04-.78.07-1.57.07-2.38.02-8.83-2.42-18.16-6.95-26.93,3.32-2.85,5.44-6.38,6.17-10.32.23-1.25-.6-2.45-1.85-2.68-1.25-.23-2.45.59-2.68,1.85-.48,2.61-1.83,5-3.95,7.03-.66-1.09-1.34-2.17-2.07-3.23-4.04-5.92-8.84-11.05-14.1-15.14,6.94.46,13.35,2.14,18.51,5.02.81.46,1.88.45,2.64-.18.98-.81,1.11-2.27.29-3.25C78.71,6.22,65.88.5,50,.5,22.71.5.5,22.7.5,50h0Z"/>
  <g class="cls-2">
    <path class="cls-1" d="M.5.5h99v99H.5V.5Z"/>
  </g>
</svg>