<?xml version="1.0" encoding="UTF-8"?>
<svg id="Layer_1" xmlns="http://www.w3.org/2000/svg" version="1.1" viewBox="0 0 558.48 193.35">
  <!-- Generator: Adobe Illustrator 29.4.0, SVG Export Plug-In . SVG Version: 2.1.0 Build 152)  -->
  <g>
    <path d="M294.68,107.81v84.33h-7.43l-2.4-8.14c-7.65,11.81-26.85,12.14-35.97,1.92-8.03-8.99-8.65-27.93-4.77-38.8,6.51-18.25,29.3-21.02,41.46-6.73l-.47-32.58h9.59-.01ZM266.28,139.58c-19.21,2.01-19.42,43.5-.61,45.38,17,1.7,20.24-10.94,19.42-25.15-.69-11.92-5.01-21.68-18.81-20.23h0Z"/>
    <path d="M347.44,183.52c-4.09,3.77-6.89,7.25-12.57,8.76-11.62,3.09-25.55-.6-26.75-14.28-1.91-21.86,23.5-21.68,38.84-21.79-.03-7.99-.49-15.35-9.96-16.65-7.19-.99-13.17,2.16-19.78,4.19l-2.33-6.57c-.12-.43.14-.59.39-.85,1.38-1.46,11.48-4.18,13.82-4.43,16.61-1.76,26.35,2.05,27.44,19.76.79,12.82-.58,26.39,0,39.29l-.45.99h-6.77l-1.9-8.42h.02ZM346.48,162.92c-9.33.86-28.34-1.18-28.34,12.7s20.91,11.6,26.43,1.93c.54-.95,1.91-4.39,1.91-5.28v-9.34h0Z"/>
    <path d="M465.33,131.44c23.55-1.78,33.1,19.17,29.22,39.74-5.67,30.09-49.05,29.66-53.94-1.92-2.84-18.36,4.26-36.27,24.71-37.82h.01ZM463.4,140.04c-17.14,2.48-17.3,38.42-2.42,43.85,13.85,5.06,22.92-4.12,24.05-17.44,1.31-15.38-3.64-29.01-21.64-26.41h.01Z"/>
    <path d="M66.28,131.44c22.77-1.38,31.36,17.25,29.22,37.34-3.42,32.15-49.92,33.5-54.49-.4-2.47-18.31,4.96-35.7,25.26-36.93h.01ZM63.87,140.04c-16.99,2.45-17.26,38.43-2.42,43.85,13.51,4.93,22.84-3.77,24.05-16.96,1.43-15.6-3.25-29.54-21.64-26.89h0Z"/>
    <path d="M118.18,132.73v40.49c0,2.87,2.41,7.83,4.83,9.55,5.37,3.83,16.76,2.86,21.32-2.11,1.78-1.94,4.55-8.79,4.55-11.27v-36.66h10.07v59.42h-8.15l-1.44-8.15c-6.22,9.05-19.18,11.12-29.15,7.8-10.11-3.37-11.59-11.97-12.09-21.46-.65-12.34.47-25.22,0-37.61h10.07-.01Z"/>
    <path d="M228.02,192.15h-9.59v-39.05c0-1.21-.87-5.03-1.35-6.32-3.36-8.99-18.92-8.95-24.74-2.97-1.8,1.85-4.61,8.28-4.61,10.73v36.9l-.72.72h-9.35v-59.42h8.15l1.2,7.67c1.33-.03,2.21-2.34,3.09-3.14,12.5-11.22,37.91-6.68,37.91,12.96v41.93h.01Z"/>
    <path d="M558.48,192.15h-9.59v-42.41c0-.19-1-3.15-1.2-3.6-4.04-9-20.91-8.24-25.86-.44-1.76,2.77-3.64,8.98-3.64,12.18v34.26h-9.59v-59.42h7.43l1.92,7.67c.66,0,3.17-3.34,4.07-4.08,8.52-7.09,26.63-6.82,33.31,2.67.96,1.37,3.15,6.86,3.15,8.35v44.82Z"/>
    <path d="M.19,139.92l.47-4.56,10.01-3.17c.04-6.41-.06-13.42,3.99-18.78,5.9-7.81,18.42-7.01,26.78-4.39l-2.41,7.9c-8.05-2.77-16.07-3.47-18.1,6.59-.5,2.47-1.21,7.12.12,9.22h14.63v7.19h-14.63l-.72.72v51.51h-9.59v-52.23H.19Z"/>
    <path d="M386.29,118.84v13.18l.72.72h16.55v7.19h-16.55l-.72.72v35.46c0,.94,1.49,5.11,2.18,5.97,3.4,4.28,10.93,3.09,15.57,1.94v7.67c-9.58,2.71-22.02,2.66-26.13-8.15-.27-.71-1.21-3.59-1.21-4.07v-38.81l-.72-.72h-7.91c-1.53-6.39,4.81-5.72,8.67-8.47l3.87-12.55,5.69-.06v-.02Z"/>
    <rect x="416.03" y="132.73" width="9.59" height="59.42"/>
    <path d="M416.67,111.81c5.8-5.91,13.82,3.8,8.5,9.21-5.97,6.07-13.94-3.67-8.5-9.21Z"/>
  </g>
  <g>
    <path d="M209.31,84.33h-13.91v-38.09c0-1.33-.94-5.25-1.57-6.58-3.28-7-14.72-6.82-18.78-1.3-1.56,2.12-3.63,8.21-3.63,10.75v35.22h-13.91v-39.53c0-.23-.66-3.02-.81-3.51-1.76-5.74-6.24-7.36-11.9-6.79-9.37.94-10.8,11.26-11.27,18.93-.62,10.09.45,20.76,0,30.9h-13.91V23.96h11.03l1.93,8.14c1.1.27.79-.21,1.09-.6,7.8-10.03,19.36-10.68,30.41-5.24l5.66,5.87c2.85-2.44,4.4-5.12,8.07-6.83,12.84-6,31.51-.83,31.51,15.67v43.37h0Z"/>
    <path d="M300.92,0l-.48,32.1,5.78-5.48c9.93-6.3,27.65-4.77,32.67,7.07.45,1.07,1.83,4.96,1.83,5.84v44.8h-13.91v-40.01c0-.32-.85-3.17-1.07-3.73-2.28-5.91-8.16-6.87-13.93-5.98-9.56,1.48-10.54,12.98-10.93,20.71-.48,9.52.4,19.45.02,29.01h-13.91V0h13.93Z"/>
    <path d="M77.32,23.14c23.84-2.21,34.42,15.49,32.1,37.34-3.61,33.95-54.03,33.59-56.94-1.79-1.44-17.56,5.55-33.76,24.84-35.55ZM77.78,34.63c-7.41,1.08-10.35,8.33-10.91,14.98-.72,8.54.19,21.82,10.43,24.07s16.8-4.1,17.81-14.07c1.28-12.79-.97-27.35-17.32-24.97h0Z"/>
    <path d="M404.04,84.33h-10.07l-2.4-8.15c-.67-.6-4.48,3.93-5.27,4.56-10.77,8.66-32.31,5.88-34-10.13-2.47-23.45,20.44-23.04,37.38-23.39,3.22-18.66-16.53-14.17-27.35-9.38l-4.29-9.35c11.25-6.88,37.01-9.37,43.82,4.57.7,1.42,2.17,6.03,2.17,7.42v43.84h0ZM390.13,56.06h-9.83c-1.47,0-5.55.99-7.09,1.55-5.16,1.87-7.27,5.7-6.59,11.16,1.08,8.73,15.68,6.86,20.37,1.64.96-1.07,3.15-5.67,3.15-6.92v-7.43h-.01Z"/>
    <path d="M271.66,84.33h-10.07l-2.4-8.14c-.81-.58-2.62,2.47-3.34,3.12-11.57,10.53-34.52,8.19-35.98-10.08-1.73-21.83,22.17-22.06,37.89-21.79.02-4.07.57-9.24-3.2-11.9-6.96-4.91-17.52.07-24.62,2.32l-3.83-10.04c12.59-5.69,37.47-9.27,44.04,6.52.39.94,1.51,3.94,1.51,4.72v45.28h0ZM257.75,56.06h-9.83c-1.55,0-6.53,1.26-8.1,1.97-7.5,3.41-8.05,15.64,1.38,16.71,4.82.55,11.1-1.06,14.15-5.03.66-.86,2.4-4.39,2.4-5.27v-8.39h0Z"/>
    <path d="M.19,69.96c6.68,3.02,22.38,7.73,28.53,2.87,2.76-2.17,2.96-6.13.49-8.62-7.04-7.11-26.94-7.8-28.9-20.48-3.81-24.57,28.47-23.28,43.53-16.41l-4.32,10.54c-5.16-2.7-22.04-7.61-25.3-1.09-3.52,7.04,12.41,11.04,16.85,13.14,7.55,3.56,13.46,7.13,13.76,16.44.71,22.25-30.2,21.52-44.63,15.59v-11.98h-.01Z"/>
  </g>
</svg>