<svg id="Layer_1" data-name="Layer 1" xmlns="http://www.w3.org/2000/svg" xmlns:xlink="http://www.w3.org/1999/xlink" width="203.99" height="70" viewBox="0 0 203.99 70">
  <defs>
    <linearGradient id="linear-gradient" x1="-2608.68" y1="-37461.72" x2="-2608.68" y2="-37601.7" gradientTransform="matrix(0.01, 0, 0, -0.01, -5026.97, -4083.29)" gradientUnits="userSpaceOnUse">
      <stop offset="0" stop-color="#6ebf61"/>
      <stop offset="0.23" stop-color="#50a557"/>
      <stop offset="0.52" stop-color="#2a904f"/>
      <stop offset="0.81" stop-color="#50a557"/>
      <stop offset="1" stop-color="#6ebf63"/>
    </linearGradient>
  </defs>
  <g>
    <path d="M16.71,27.86a9.68,9.68,0,0,1-1.66,1,8.11,8.11,0,0,1-1.93.65,11.18,11.18,0,0,1-2.33.22A9.17,9.17,0,0,1,7.1,29a9,9,0,0,1-2.93-2,9.12,9.12,0,0,1-1.93-3,10,10,0,0,1,0-7.36,9.28,9.28,0,0,1,1.94-3,9,9,0,0,1,3-2,9.57,9.57,0,0,1,3.8-.74,11.49,11.49,0,0,1,2.28.21,9.4,9.4,0,0,1,1.88.58,8.82,8.82,0,0,1,1.59.9A13.57,13.57,0,0,1,18,13.75l-2,2.37a10.4,10.4,0,0,0-2.31-1.64,6,6,0,0,0-2.79-.62,5.83,5.83,0,0,0-2.4.5,6,6,0,0,0-1.91,1.38,6.23,6.23,0,0,0-1.25,2,7.18,7.18,0,0,0-.44,2.52,7.29,7.29,0,0,0,.44,2.54,6.37,6.37,0,0,0,1.25,2.07A5.88,5.88,0,0,0,8.49,26.3a5.67,5.67,0,0,0,2.4.5,6,6,0,0,0,2.86-.63,11.32,11.32,0,0,0,2.37-1.73l2.05,2.08A11.42,11.42,0,0,1,16.71,27.86Z"/>
    <path d="M24.34,29.43H21.16v-19h3.18v7.41a6.81,6.81,0,0,1,.73-.93,4.65,4.65,0,0,1,3.54-1.51,4.56,4.56,0,0,1,3.61,1.43,5.59,5.59,0,0,1,1.27,3.84v8.74H30.32V21.65a3.69,3.69,0,0,0-.76-2.48,2.72,2.72,0,0,0-2.16-.87,2.89,2.89,0,0,0-2.21.9,3.46,3.46,0,0,0-.85,2.5Z"/>
    <path d="M45.68,29.43V27.74a5.75,5.75,0,0,1-1.79,1.4,5.55,5.55,0,0,1-2.65.58,6.11,6.11,0,0,1-1.88-.28,4.6,4.6,0,0,1-1.54-.8,4.11,4.11,0,0,1-1.07-1.33,4,4,0,0,1-.4-1.83v-.05a4.38,4.38,0,0,1,.41-1.95,3.8,3.8,0,0,1,1.16-1.38,5.07,5.07,0,0,1,1.77-.82A8.66,8.66,0,0,1,41.91,21a12.75,12.75,0,0,1,2.12.15,14.73,14.73,0,0,1,1.68.42v-.34a2.73,2.73,0,0,0-.87-2.18,3.69,3.69,0,0,0-2.51-.76,8.14,8.14,0,0,0-2.08.24,13,13,0,0,0-1.85.62l-.86-2.52a13.91,13.91,0,0,1,2.34-.83,11.48,11.48,0,0,1,2.89-.32A6.09,6.09,0,0,1,47.32,17a5.85,5.85,0,0,1,1.48,4.27v8.14Zm.08-5.82a7.39,7.39,0,0,0-1.42-.39,8.69,8.69,0,0,0-1.73-.16,4,4,0,0,0-2.31.57,1.88,1.88,0,0,0-.83,1.64v.05a1.71,1.71,0,0,0,.76,1.51,3.28,3.28,0,0,0,1.89.52,4.73,4.73,0,0,0,1.44-.21,3.71,3.71,0,0,0,1.16-.58,2.68,2.68,0,0,0,.77-.91,2.6,2.6,0,0,0,.27-1.19Z"/>
    <path d="M56.24,25.14a1.72,1.72,0,0,0,.44,1.31,1.78,1.78,0,0,0,1.25.41,4.37,4.37,0,0,0,2-.47V29a5.29,5.29,0,0,1-1.28.52,6.08,6.08,0,0,1-1.56.18,5.77,5.77,0,0,1-1.59-.2,3.31,3.31,0,0,1-1.27-.68,3.08,3.08,0,0,1-.83-1.24,5.54,5.54,0,0,1-.28-1.91V18.38H51.32V15.7h1.75V11.93h3.17V15.7h3.69v2.68H56.24Z"/>
    <path d="M78.34,15.81v2.6H74.75v11H71.58v-11H69.84V15.78h1.74v-1a4.61,4.61,0,0,1,1.1-3.39,4.22,4.22,0,0,1,3.14-1.11,8.4,8.4,0,0,1,1.43.11,8.61,8.61,0,0,1,1.11.26v2.65c-.31-.1-.61-.19-.89-.25a4.72,4.72,0,0,0-1-.09c-1.22,0-1.82.7-1.82,2.08v.76Z"/>
    <path d="M93.72,25.35a7.29,7.29,0,0,1-1.54,2.27,7.21,7.21,0,0,1-2.32,1.55,7.55,7.55,0,0,1-2.94.57,7.31,7.31,0,0,1-2.9-.56,7,7,0,0,1-4.38-6.56,7,7,0,0,1,.56-2.8,7.14,7.14,0,0,1,1.53-2.28A7.27,7.27,0,0,1,84,16,7.43,7.43,0,0,1,87,15.42a7.34,7.34,0,0,1,2.92.56,7,7,0,0,1,3.84,3.8,7.23,7.23,0,0,1,.55,2.79A7,7,0,0,1,93.72,25.35ZM90.79,20.9a4.31,4.31,0,0,0-.86-1.41,4.11,4.11,0,0,0-1.32-1,4.08,4.08,0,0,0-4.69.95,4.15,4.15,0,0,0-.83,1.39,5,5,0,0,0-.28,1.71,4.82,4.82,0,0,0,.31,1.73A4.38,4.38,0,0,0,84,25.71a4.05,4.05,0,0,0,1.32.95A3.88,3.88,0,0,0,87,27a4,4,0,0,0,1.72-.35,3.87,3.87,0,0,0,1.3-.95,4.15,4.15,0,0,0,.83-1.39,5,5,0,0,0,.28-1.7A4.69,4.69,0,0,0,90.79,20.9Z"/>
    <path d="M100.65,29.43H97.47V15.7h3.18v3.1a6,6,0,0,1,1.84-2.5,4.46,4.46,0,0,1,3-.86v3.33h-.18a5,5,0,0,0-1.9.34,3.87,3.87,0,0,0-1.48,1,4.59,4.59,0,0,0-1,1.71,7.71,7.71,0,0,0-.33,2.37Z"/>
    <path d="M119.73,11.23v18.2h-3.17V11.23Z"/>
    <path d="M137.65,16.09a5.16,5.16,0,0,1,2.69-.67,4.6,4.6,0,0,1,3.54,1.36,5.49,5.49,0,0,1,1.28,3.89v8.76H142V21.65a3.77,3.77,0,0,0-.72-2.49,2.52,2.52,0,0,0-2-.86,2.75,2.75,0,0,0-2.11.87,3.53,3.53,0,0,0-.82,2.53v7.73h-3.17V21.62a3.67,3.67,0,0,0-.73-2.46,2.52,2.52,0,0,0-2-.86,2.7,2.7,0,0,0-2.12.91,3.65,3.65,0,0,0-.8,2.52v7.7h-3.18V15.7h3.18v2.1a8.75,8.75,0,0,1,.72-.89,5.16,5.16,0,0,1,.9-.76,4.61,4.61,0,0,1,1.14-.54,4.88,4.88,0,0,1,1.42-.19,4.48,4.48,0,0,1,2.51.67,4.41,4.41,0,0,1,1.57,1.77A6.58,6.58,0,0,1,137.65,16.09Z"/>
    <path d="M162.61,25.61a7,7,0,0,1-1.42,2.25,6.05,6.05,0,0,1-2.06,1.39,6.31,6.31,0,0,1-2.38.47,5.13,5.13,0,0,1-2.81-.73,7.31,7.31,0,0,1-1.84-1.69l0,6.29H149V15.7h3.17V18A6.93,6.93,0,0,1,154,16.16a4.86,4.86,0,0,1,2.78-.74,6.2,6.2,0,0,1,2.36.46,6,6,0,0,1,2,1.4,6.85,6.85,0,0,1,1.44,2.24,7.86,7.86,0,0,1,.55,3.05A8,8,0,0,1,162.61,25.61Zm-3-4.88a4.2,4.2,0,0,0-.84-1.39,3.78,3.78,0,0,0-1.25-.88,3.72,3.72,0,0,0-1.52-.31,3.77,3.77,0,0,0-1.53.31,3.81,3.81,0,0,0-1.28.9,4.56,4.56,0,0,0-.87,1.39,4.73,4.73,0,0,0-.32,1.82,4.8,4.8,0,0,0,.32,1.82,4.68,4.68,0,0,0,.87,1.39,3.65,3.65,0,0,0,1.28.89,3.78,3.78,0,0,0,1.53.32,3.73,3.73,0,0,0,1.52-.32,3.64,3.64,0,0,0,1.25-.88,4.1,4.1,0,0,0,.84-1.39,5.42,5.42,0,0,0,0-3.67Z"/>
    <path d="M174.77,29.43V27.74a5.87,5.87,0,0,1-1.79,1.4,5.59,5.59,0,0,1-2.66.58,6.09,6.09,0,0,1-1.87-.28,4.75,4.75,0,0,1-1.55-.8,4.08,4.08,0,0,1-1.06-1.33,4,4,0,0,1-.4-1.83v-.05a4.25,4.25,0,0,1,.41-1.95A3.8,3.8,0,0,1,167,22.1a5,5,0,0,1,1.77-.82A8.66,8.66,0,0,1,171,21a12.75,12.75,0,0,1,2.12.15,14.73,14.73,0,0,1,1.68.42v-.34a2.73,2.73,0,0,0-.87-2.18,3.71,3.71,0,0,0-2.51-.76,8.14,8.14,0,0,0-2.08.24,12.56,12.56,0,0,0-1.85.62l-.86-2.52a13.31,13.31,0,0,1,2.34-.83,11.48,11.48,0,0,1,2.89-.32A6.09,6.09,0,0,1,176.41,17a5.85,5.85,0,0,1,1.48,4.27v8.14Zm.08-5.82a7.39,7.39,0,0,0-1.42-.39,8.69,8.69,0,0,0-1.73-.16,4,4,0,0,0-2.31.57,1.86,1.86,0,0,0-.83,1.64v.05a1.71,1.71,0,0,0,.76,1.51,3.26,3.26,0,0,0,1.89.52,4.73,4.73,0,0,0,1.44-.21,3.82,3.82,0,0,0,1.16-.58,2.65,2.65,0,0,0,.76-.91,2.49,2.49,0,0,0,.28-1.19Z"/>
    <path d="M191.31,29a7.33,7.33,0,0,1-8.4-1.38,7.13,7.13,0,0,1-2-5,7.36,7.36,0,0,1,10.39-6.55,7.54,7.54,0,0,1,2.25,1.71l-2,2.11A7.41,7.41,0,0,0,190,18.65a4,4,0,0,0-2-.48,3.62,3.62,0,0,0-1.58.35,3.91,3.91,0,0,0-1.25.95,4.48,4.48,0,0,0-.82,1.39,4.8,4.8,0,0,0-.3,1.71,5,5,0,0,0,.3,1.74,4.14,4.14,0,0,0,.85,1.4,3.87,3.87,0,0,0,1.3.95,3.77,3.77,0,0,0,1.66.35,3.87,3.87,0,0,0,2-.48,7.36,7.36,0,0,0,1.6-1.23l1.9,1.87A8.92,8.92,0,0,1,191.31,29Z"/>
    <path d="M200.3,25.14a1.72,1.72,0,0,0,.44,1.31,1.79,1.79,0,0,0,1.25.41,4.31,4.31,0,0,0,1.95-.47V29a5.22,5.22,0,0,1-1.27.52,6.08,6.08,0,0,1-1.56.18,5.77,5.77,0,0,1-1.59-.2,3.36,3.36,0,0,1-1.28-.68,3.06,3.06,0,0,1-.82-1.24,5.52,5.52,0,0,1-.29-1.91V18.38h-1.74V15.7h1.74V11.93h3.17V15.7H204v2.68H200.3Z"/>
  </g>
  <g>
    <path d="M173.33,54.13a2,2,0,0,1-.3.77,1.64,1.64,0,0,1-.55.53,1.72,1.72,0,0,1-.85.21,1.62,1.62,0,0,1-.85-.21,1.67,1.67,0,0,1-.56-.53,2.44,2.44,0,0,1-.31-.77,4.31,4.31,0,0,1-.09-.88,4.36,4.36,0,0,1,.09-.9,2,2,0,0,1,.3-.77,1.53,1.53,0,0,1,.55-.55,1.73,1.73,0,0,1,1.69,0,1.84,1.84,0,0,1,.56.55,2.46,2.46,0,0,1,.32.78,4.41,4.41,0,0,1,.09.89A4.31,4.31,0,0,1,173.33,54.13Zm1.95-2.36a3.86,3.86,0,0,0-.62-1.29,3.25,3.25,0,0,0-1.06-.89,3.32,3.32,0,0,0-1.53-.34,3,3,0,0,0-1.29.28,2.4,2.4,0,0,0-1,.89h0v-1h-2V59.62h2.07V56.05h0a2.43,2.43,0,0,0,1,.84,2.93,2.93,0,0,0,1.29.28,3.16,3.16,0,0,0,1.45-.32,3,3,0,0,0,1-.86,3.38,3.38,0,0,0,.61-1.23,5.1,5.1,0,0,0,.21-1.46,5.56,5.56,0,0,0-.21-1.54Zm-10.19,2.36a2.21,2.21,0,0,1-.3.77,1.59,1.59,0,0,1-.56.53,1.67,1.67,0,0,1-.85.21,1.61,1.61,0,0,1-.84-.21,1.67,1.67,0,0,1-.56-.53,2.44,2.44,0,0,1-.31-.77,3.71,3.71,0,0,1-.1-.88,4.36,4.36,0,0,1,.09-.9,2.21,2.21,0,0,1,.3-.77,1.55,1.55,0,0,1,.56-.55,1.6,1.6,0,0,1,.85-.22,1.53,1.53,0,0,1,.83.22,1.87,1.87,0,0,1,.57.55,2.45,2.45,0,0,1,.31.78,3.8,3.8,0,0,1,.1.89A4.31,4.31,0,0,1,165.09,54.13Zm1.33-3.65a3.1,3.1,0,0,0-1.07-.89,3.26,3.26,0,0,0-1.53-.34,3,3,0,0,0-1.28.28,2.34,2.34,0,0,0-1,.89h0v-1h-2V59.62h2.06V56.05h0a2.53,2.53,0,0,0,1,.84,2.93,2.93,0,0,0,1.29.28,3.16,3.16,0,0,0,1.45-.32,3,3,0,0,0,1-.86,3.58,3.58,0,0,0,.63-1.23,5.72,5.72,0,0,0,0-3,3.88,3.88,0,0,0-.63-1.29ZM152.82,53l1.35-3.82h0L155.51,53Zm.22-6.38L149.1,57h2.3l.82-2.31h3.89l.78,2.31h2.38l-3.9-10.39H153Zm-4.11,7.1a1.83,1.83,0,0,0-.54-.6,2.6,2.6,0,0,0-.76-.39,8.84,8.84,0,0,0-.88-.25l-.86-.19a7,7,0,0,1-.74-.2,1.41,1.41,0,0,1-.53-.29.54.54,0,0,1-.21-.45.55.55,0,0,1,.12-.37.89.89,0,0,1,.29-.22,1.06,1.06,0,0,1,.37-.09,2.42,2.42,0,0,1,.38,0,2.06,2.06,0,0,1,1,.21.89.89,0,0,1,.45.81h2a2.48,2.48,0,0,0-.36-1.16,2.38,2.38,0,0,0-.74-.74,3.44,3.44,0,0,0-1-.39,5.79,5.79,0,0,0-1.19-.12,6.67,6.67,0,0,0-1.19.11,3.2,3.2,0,0,0-1.05.38,2.06,2.06,0,0,0-1,1.93,1.53,1.53,0,0,0,.2.83,1.86,1.86,0,0,0,.54.58,3.15,3.15,0,0,0,.76.36,6.74,6.74,0,0,0,.88.24,12.57,12.57,0,0,1,1.73.47c.41.15.61.38.61.69a.74.74,0,0,1-.13.46.86.86,0,0,1-.33.3,1.91,1.91,0,0,1-.44.16,2.34,2.34,0,0,1-1,0,1.91,1.91,0,0,1-.5-.23,1.16,1.16,0,0,1-.36-.4,1,1,0,0,1-.14-.57h-2a2.53,2.53,0,0,0,.34,1.26,2.58,2.58,0,0,0,.8.81,3.53,3.53,0,0,0,1.11.44,6.14,6.14,0,0,0,1.29.13A5.92,5.92,0,0,0,147,57a3.12,3.12,0,0,0,1.1-.43,2.36,2.36,0,0,0,.77-.8,2.41,2.41,0,0,0,.3-1.25,1.71,1.71,0,0,0-.2-.88v0Zm-8.55-6.49h-2.06v2.26h-1.26v1.38h1.26v4.44a1.85,1.85,0,0,0,.19.92,1.35,1.35,0,0,0,.52.54,2.22,2.22,0,0,0,.75.26,5.57,5.57,0,0,0,.91.06h.63a5.42,5.42,0,0,0,.58-.06v-1.6l-.31,0-.33,0a1,1,0,0,1-.7-.18,1,1,0,0,1-.18-.7V50.84h1.52V49.46h-1.52V47.2Zm-5.92,6.88c0,.11,0,.27,0,.46a1.49,1.49,0,0,1-.2.58,1.38,1.38,0,0,1-.5.49,1.78,1.78,0,0,1-.94.2,2.7,2.7,0,0,1-.49,0,1.13,1.13,0,0,1-.41-.16.72.72,0,0,1-.27-.3.91.91,0,0,1-.11-.47,1,1,0,0,1,.11-.48.89.89,0,0,1,.27-.31,1.43,1.43,0,0,1,.39-.2,3.9,3.9,0,0,1,.46-.12l.5-.07.48-.08a1.85,1.85,0,0,0,.42-.11.88.88,0,0,0,.33-.18v.79Zm2.06,1.23V51.39a1.79,1.79,0,0,0-.31-1.1,2.12,2.12,0,0,0-.78-.64,3.86,3.86,0,0,0-1.06-.32,11.11,11.11,0,0,0-1.15-.08,6.55,6.55,0,0,0-1.25.13,3.37,3.37,0,0,0-1.11.42,2.51,2.51,0,0,0-.82.77,2.43,2.43,0,0,0-.36,1.2h2.06a1.18,1.18,0,0,1,.41-.87,1.61,1.61,0,0,1,1-.26,2.82,2.82,0,0,1,.52,0,1.28,1.28,0,0,1,.43.14.86.86,0,0,1,.29.31,1,1,0,0,1,.11.53.57.57,0,0,1-.19.5,1.48,1.48,0,0,1-.55.25,5.57,5.57,0,0,1-.8.13l-.92.12c-.31.05-.61.12-.92.2a2.45,2.45,0,0,0-.82.37,2,2,0,0,0-.58.66,2.11,2.11,0,0,0-.23,1.06,2.35,2.35,0,0,0,.2,1,1.94,1.94,0,0,0,.54.7,2.3,2.3,0,0,0,.81.41,3.63,3.63,0,0,0,1,.13,4.55,4.55,0,0,0,1.37-.21,2.6,2.6,0,0,0,1.16-.71c0,.13,0,.25.05.38s.06.24.1.36h2.1a1.76,1.76,0,0,1-.21-.7,7.89,7.89,0,0,1-.06-1v0ZM128,50.11a2.05,2.05,0,0,0-.84-.62,3.29,3.29,0,0,0-1.36-.23,2.69,2.69,0,0,0-1.19.3,2.36,2.36,0,0,0-1,.95h0V46.59H121.5V57h2.07V53a2.71,2.71,0,0,1,.38-1.65,1.41,1.41,0,0,1,1.22-.5,1.14,1.14,0,0,1,1,.46,2.69,2.69,0,0,1,.29,1.39V57h2.06V52.36a6.16,6.16,0,0,0-.12-1.27,2.38,2.38,0,0,0-.43-1Zm-10.93,3.65h0l-1.77-7.17h-2.14l-1.8,7.08h0l-1.65-7.08h-2.29L110.13,57h2.31l1.73-7.08h0L116,57h2.27l1.25-4.61L121,46.59h-2.24l-1.71,7.17Z" style="fill: #272525"/>
    <path d="M88,63.25a12.41,12.41,0,0,1-6.85-2.06l-4.8,1.53,1.56-4.63a12.33,12.33,0,0,1-2.38-7.3A12.47,12.47,0,1,1,88,63.25ZM88,36A14.82,14.82,0,0,0,75.3,58.44l-2.68,8,8.21-2.63A14.82,14.82,0,1,0,88,36Z" style="fill: #fefefe"/>
    <path d="M88,38.32A12.46,12.46,0,0,0,77.9,58.09l-1.55,4.63,4.79-1.53A12.46,12.46,0,1,0,88,38.32Z" style="fill: url(#linear-gradient)"/>
    <path d="M84.51,44.65c-.24-.58-.42-.6-.79-.61l-.42,0a1.8,1.8,0,0,0-1.27.45,3.94,3.94,0,0,0-1.28,3,7.16,7.16,0,0,0,1.48,3.76c.19.24,2.55,4,6.21,5.48,2.87,1.19,3.72,1.08,4.37.94a3.49,3.49,0,0,0,2.44-1.76,3,3,0,0,0,.22-1.73c-.09-.15-.33-.24-.7-.42s-2.15-1.07-2.48-1.18a.7.7,0,0,0-.9.27,14.8,14.8,0,0,1-1,1.29.81.81,0,0,1-.88.14,9.37,9.37,0,0,1-2.92-1.8,11.31,11.31,0,0,1-2-2.52.58.58,0,0,1,.15-.77c.18-.23.36-.39.54-.61a2.06,2.06,0,0,0,.41-.57.74.74,0,0,0-.06-.67c-.08-.18-.82-2-1.12-2.7Z" style="fill: #fefefe"/>
  </g>
  <g>
    <path d="M7.63,55.19a3,3,0,0,1-.61.93,2.76,2.76,0,0,1-.87.58,2.58,2.58,0,0,1-1,.21,2.43,2.43,0,0,1-.73-.1,2.27,2.27,0,0,1-.59-.27,2,2,0,0,1-.48-.38A4,4,0,0,1,3,55.7v2.85H2.12V51.1H3v1.14a5.84,5.84,0,0,1,.39-.48,3,3,0,0,1,.48-.4,2.68,2.68,0,0,1,.59-.28,2.37,2.37,0,0,1,.72-.1,2.52,2.52,0,0,1,1,.2,2.73,2.73,0,0,1,.87.57,3,3,0,0,1,.62.93,3.33,3.33,0,0,1,.23,1.26A3.24,3.24,0,0,1,7.63,55.19ZM6.83,53a2,2,0,0,0-.44-.69,1.74,1.74,0,0,0-.63-.45A2,2,0,0,0,5,51.75a1.87,1.87,0,0,0-.77.16,2.18,2.18,0,0,0-.66.44A2.09,2.09,0,0,0,3.1,53a2.47,2.47,0,0,0,0,1.8,2.13,2.13,0,0,0,.46.7,2.38,2.38,0,0,0,.66.44,1.87,1.87,0,0,0,.77.16A2,2,0,0,0,5.76,56a1.76,1.76,0,0,0,.64-.43,2,2,0,0,0,.43-.69A2.43,2.43,0,0,0,7,54,2.38,2.38,0,0,0,6.83,53Z" style="fill: #6d6e71"/>
    <path d="M14.77,55.09a3.06,3.06,0,0,1-.62.95,3,3,0,0,1-2.13.88,2.86,2.86,0,0,1-1.18-.24A3.07,3.07,0,0,1,9.9,56a2.73,2.73,0,0,1-.61-.94A2.9,2.9,0,0,1,9.07,54a3,3,0,0,1,.22-1.15,2.87,2.87,0,0,1,.61-1,2.9,2.9,0,0,1,.94-.64A3,3,0,0,1,12,51a2.9,2.9,0,0,1,1.18.24,2.93,2.93,0,0,1,.94.63A2.93,2.93,0,0,1,15,53.94,3,3,0,0,1,14.77,55.09Zm-.8-2a2.26,2.26,0,0,0-.45-.71,2.16,2.16,0,0,0-.67-.48,2.09,2.09,0,0,0-.83-.17,2,2,0,0,0-.85.17,1.85,1.85,0,0,0-.66.47,2.14,2.14,0,0,0-.42.7,2.47,2.47,0,0,0-.15.86,2.28,2.28,0,0,0,.16.87,2,2,0,0,0,.44.7,1.85,1.85,0,0,0,.66.47,2,2,0,0,0,.84.18,2.07,2.07,0,0,0,.84-.17,1.85,1.85,0,0,0,.66-.47,2.06,2.06,0,0,0,.43-.69,2.28,2.28,0,0,0,.16-.87A2.48,2.48,0,0,0,14,53.09Z" style="fill: #6d6e71"/>
    <path d="M21.94,55.67l1.49-4.57h.88l-2,5.73h-.74l-1.52-4.49-1.54,4.49h-.75l-2-5.73h.9l1.49,4.57,1.53-4.59h.71Z" style="fill: #6d6e71"/>
    <path d="M26.18,55.08a2.1,2.1,0,0,0,.45.6,2,2,0,0,0,.62.38,2.18,2.18,0,0,0,.72.12A2.12,2.12,0,0,0,29,56a2.88,2.88,0,0,0,.78-.58l.53.47a3.83,3.83,0,0,1-1,.78,3,3,0,0,1-1.37.29,2.77,2.77,0,0,1-1.1-.22,2.73,2.73,0,0,1-.9-.6,3,3,0,0,1-.62-.94,3.3,3.3,0,0,1,0-2.37,2.91,2.91,0,0,1,.56-.95,2.74,2.74,0,0,1,.87-.63A2.63,2.63,0,0,1,27.82,51a2.52,2.52,0,0,1,1.12.24,2.41,2.41,0,0,1,.84.64,2.78,2.78,0,0,1,.52,1A4,4,0,0,1,30.47,54v.12a.76.76,0,0,1,0,.15H26A2.6,2.6,0,0,0,26.18,55.08Zm3.42-1.45a3,3,0,0,0-.15-.74,2,2,0,0,0-.35-.61,1.63,1.63,0,0,0-1.3-.59,1.58,1.58,0,0,0-.69.15,1.88,1.88,0,0,0-.56.41,2.12,2.12,0,0,0-.39.61,2.64,2.64,0,0,0-.2.77Z" style="fill: #6d6e71"/>
    <path d="M32.81,56.79H32V51.1h.85v1.48a2.92,2.92,0,0,1,.38-.64,2.61,2.61,0,0,1,.53-.52,2.19,2.19,0,0,1,.65-.32,2.29,2.29,0,0,1,.76-.1v.91h-.07a2.29,2.29,0,0,0-.87.17,1.89,1.89,0,0,0-.72.49,2.39,2.39,0,0,0-.49.82,3.31,3.31,0,0,0-.17,1.13Z" style="fill: #6d6e71"/>
    <path d="M36.91,55.08a1.93,1.93,0,0,0,.45.6,1.89,1.89,0,0,0,.62.38,2.08,2.08,0,0,0,.71.12,2.14,2.14,0,0,0,1-.22,2.84,2.84,0,0,0,.77-.58l.53.47a3.52,3.52,0,0,1-1,.78,2.91,2.91,0,0,1-1.36.29,2.7,2.7,0,0,1-1.1-.22,2.67,2.67,0,0,1-.91-.6,2.78,2.78,0,0,1-.61-.94A3,3,0,0,1,35.82,54a3.41,3.41,0,0,1,.2-1.16,3.12,3.12,0,0,1,.57-.95,2.59,2.59,0,0,1,2-.86,2.52,2.52,0,0,1,1.12.24,2.41,2.41,0,0,1,.84.64,2.94,2.94,0,0,1,.51,1A3.72,3.72,0,0,1,41.2,54v.12s0,.1,0,.15h-4.5A2.36,2.36,0,0,0,36.91,55.08Zm3.42-1.45a3.05,3.05,0,0,0-.16-.74,1.84,1.84,0,0,0-.35-.61,1.67,1.67,0,0,0-.55-.43,1.73,1.73,0,0,0-.75-.16,1.57,1.57,0,0,0-.68.15,1.76,1.76,0,0,0-.56.41,2.12,2.12,0,0,0-.39.61,2.36,2.36,0,0,0-.2.77Z" style="fill: #6d6e71"/>
    <path d="M47.25,56.79V55.64a6,6,0,0,1-.39.49,2.32,2.32,0,0,1-.48.4,2.29,2.29,0,0,1-.59.28,2.37,2.37,0,0,1-.72.1,2.66,2.66,0,0,1-1-.2,2.6,2.6,0,0,1-.87-.58,2.81,2.81,0,0,1-.62-.93,3.51,3.51,0,0,1,0-2.5,2.82,2.82,0,0,1,1.49-1.52,2.66,2.66,0,0,1,1-.2,2.43,2.43,0,0,1,.73.1,2.25,2.25,0,0,1,.59.26,2.28,2.28,0,0,1,.48.39,3.32,3.32,0,0,1,.38.46V48.76h.85v8ZM47.11,53a2.09,2.09,0,0,0-.46-.69,2.18,2.18,0,0,0-.66-.44,1.85,1.85,0,0,0-.76-.16,2.09,2.09,0,0,0-.79.15,1.93,1.93,0,0,0-.63.42,2.18,2.18,0,0,0-.43.69,2.75,2.75,0,0,0-.16.93,2.63,2.63,0,0,0,.16.91,2,2,0,0,0,.44.69,1.84,1.84,0,0,0,.63.44,1.88,1.88,0,0,0,.78.16A1.85,1.85,0,0,0,46,56a2.38,2.38,0,0,0,.66-.44,2.13,2.13,0,0,0,.46-.7,2.47,2.47,0,0,0,0-1.8Z" style="fill: #6d6e71"/>
    <path d="M58.8,55.19a3,3,0,0,1-.61.93,2.65,2.65,0,0,1-.87.58,2.54,2.54,0,0,1-1,.21,2.37,2.37,0,0,1-.72-.1,2.34,2.34,0,0,1-.6-.27,2.43,2.43,0,0,1-.48-.38,4,4,0,0,1-.38-.46v1.09h-.84v-8h.84v3.48a5.84,5.84,0,0,1,.39-.48,3,3,0,0,1,.48-.4,2.91,2.91,0,0,1,.59-.28,2.37,2.37,0,0,1,.72-.1,2.52,2.52,0,0,1,1,.2,2.63,2.63,0,0,1,.87.57,3,3,0,0,1,.62.93A3.33,3.33,0,0,1,59,53.94,3.24,3.24,0,0,1,58.8,55.19ZM58,53a2.18,2.18,0,0,0-.43-.69,1.87,1.87,0,0,0-.64-.45,2,2,0,0,0-.77-.15,1.87,1.87,0,0,0-.77.16,2.18,2.18,0,0,0-.66.44,2.25,2.25,0,0,0-.46.69,2.47,2.47,0,0,0,0,1.8,2.3,2.3,0,0,0,.46.7,2.38,2.38,0,0,0,.66.44,1.87,1.87,0,0,0,.77.16,2,2,0,0,0,.77-.15,1.76,1.76,0,0,0,.64-.43,2,2,0,0,0,.43-.69,2.43,2.43,0,0,0,.16-.92A2.38,2.38,0,0,0,58,53Z" style="fill: #6d6e71"/>
    <path d="M63.09,57a3.07,3.07,0,0,1-.81,1.25,1.68,1.68,0,0,1-1.08.36,2.51,2.51,0,0,1-.64-.07,2.68,2.68,0,0,1-.57-.22l.28-.67a1.51,1.51,0,0,0,.41.16,1.77,1.77,0,0,0,.48,0,1,1,0,0,0,.65-.23,2.24,2.24,0,0,0,.52-.83L59.74,51.1h.94l2.07,4.74,1.82-4.74h.91Z" style="fill: #6d6e71"/>
  </g>
</svg>
