<?xml version="1.0" encoding="UTF-8"?>
<svg id="a" data-name="Layer 1" xmlns="http://www.w3.org/2000/svg" viewBox="0 0 622.6 69.05">
  <defs>
    <style>
      .b {
        fill: #fefdfd;
      }

      .c {
        fill: #5384ef;
      }

      .d {
        fill: #606368;
      }

      .e {
        fill: #b0b2b4;
      }

      .f {
        fill: #616469;
      }

      .g {
        fill: #f1be33;
      }

      .h {
        fill: #d7533c;
      }

      .i {
        fill: #5383ef;
      }

      .j {
        fill: #fefefe;
      }

      .k {
        fill: #58a459;
      }
    </style>
  </defs>
  <path class="c" d="M52.16,24.56c4.63,28.3-29.83,39.92-46.71,18.46C-8.97,24.7,7.31-2.04,29.85.12c6.17.59,10.95,3.43,15.81,6.95.56.8-4.04,4.65-4.81,5.46-2.56-1.85-4.78-3.66-7.96-4.43C16.52,4.12,3.4,19.19,9.56,34.91c6.46,16.49,33.33,15.88,35.6-2.85h-17.5v-7.5h24.5Z"/>
  <path class="i" d="M167.66,53.81c-2.06,18.26-24.38,20.35-31.99,4.99,1.01-.3,6.5-3.09,6.97-2.74.56.42.9,3.28,3.88,4.89,8.5,4.6,15.22-2.82,14.15-11.4-1.93.68-3.05,2.39-5.14,3.11-8.41,2.9-17.89-3.28-20.13-11.59-3.33-12.31,7.4-26.22,20.42-21.42,1.88.7,3.01,2.38,4.85,2.89.11-.43-.15-3,0-3h7v34.25Z"/>
  <path class="d" d="M342.66,23.06c-.05,10.33.04,20.68,0,31h-6V9.06h7.25c7.61,11.53,14.27,23.76,22.25,35l-.5-35h6v45l-6.42-.08c-7.42-11.72-14.24-24.53-22.08-35.92-1.37.66-.81,3.54-.5,5Z"/>
  <path class="h" d="M73.57,18.68c24.05-1.16,24.17,34.74,1.33,34.88-22.65.14-23.38-33.81-1.33-34.88Z"/>
  <path class="g" d="M112.57,18.68c24.05-1.16,24.17,34.74,1.33,34.88-22.65.14-23.38-33.81-1.33-34.88Z"/>
  <path class="h" d="M219.16,32.06l-23,9.01c2.35,7.52,12.84,7.07,16.78,1,.32-.08,5.31,3.21,5.49,3.48.6.93-2.28,3.39-3.03,4-13.11,10.66-32.05-1.76-27.51-18.51s27.54-15.81,31.27,1.02Z"/>
  <path class="d" d="M448.16,23.06c.9.15,5.3-.2,5.5,0,.25.25-.38,4.02.25,4.01,2.42-1.57,3.78-3.43,6.72-4.28,13.33-3.82,21.94,11.06,17.26,22.76-3.95,9.88-16.49,13.23-23.5,4.51-1.53-.13-.24.54-.24.75v16.75h-6V23.06Z"/>
  <path class="d" d="M543.16,28.56h-5.5s0-5.5,0-5.5h5.51c-.53-6.48,1.48-13.53,8.8-14.44,5.76-.72,7.94,0,5.69,5.95-7.04-2.29-9.24,2.18-8.5,8.5h19.5v31h-5.5v-25.5h-14v25.5h-6v-25.5Z"/>
  <path class="d" d="M277.57,22.19c23.01-1.35,22.02,36.46-1.93,32.64-18.09-2.88-17-31.53,1.93-32.64Z"/>
  <path class="d" d="M392.57,22.19c21.4-1.26,23,31.03,2.84,32.86-21.84,1.99-23.33-31.66-2.84-32.86Z"/>
  <path class="d" d="M518.07,22.19c21.4-1.26,23,31.03,2.84,32.86-21.84,1.99-23.33-31.66-2.84-32.86Z"/>
  <path class="d" d="M414.16,23.06c.9.15,5.3-.2,5.5,0,.25.25-.38,4.02.25,4.01,1.41-.36,2.13-1.92,3.28-2.72,5.2-3.62,14.12-2.7,17.07,3.37.25.51,1.4,3.84,1.4,4.1v22.25h-6v-21.75c0-.15-1.23-2.2-1.49-2.51-3.31-3.86-9.51-2.74-12.28,1.24-.39.57-1.73,3.38-1.73,3.77v19.25h-6v-31Z"/>
  <path class="d" d="M622.16,29.56c-1.01-.12-5.22,2.16-5.46,1.99-.36-.26-.9-2.16-2.69-3.08-5.99-3.08-13.8,1.86-8.71,5.21,5.09,3.36,16.29,1.86,17.25,10.78,1.43,13.24-22.82,14.22-25.38,1.62l5.02-1.79c1.88,4.93,7.8,7.13,12.44,4.5,2.13-1.21,2.52-2.71,1.39-4.81-2.35-4.38-19.08-2.45-18.24-13,.9-11.32,20.93-11.48,24.4-1.4Z"/>
  <rect class="k" x="173.66" y=".56" width="7.5" height="53"/>
  <path class="d" d="M247.16,15.81c.86-5.19,7.11-7.61,11.77-7.27,5.6.41,2.86,2,2.22,6.02-7.16-2.36-8.96,2.26-8.49,8.5h8v5.5h-8v25.5h-5.5v-25.5l-6.01-.29v-5.21s6.01,0,6.01,0c.25-2.24-.35-5.12,0-7.25Z"/>
  <path class="d" d="M585.16,13.56v9.5h7.5v5.5h-7.5v16.75c0,.13.89,2.2,1.06,2.44,1.67,2.41,5.03.73,5.47,1.02.27.18,1.33,3.27,1.56,3.97.15.45.76.56-.08,1.07-3.06,1.86-9.44.58-11.77-2.23-.47-.56-1.73-2.76-1.73-3.27v-19.75l-5.51-.29v-5.21s5.51,0,5.51,0v-9.5h5.5Z"/>
  <path class="d" d="M299.16,23.06c.9.15,5.3-.2,5.5,0s-.15,4.16,0,5c3.37-4.62,7.73-6.82,13.5-4.99-.25.86-1.21,5.2-1.55,5.45-.3.21-4.44-.89-7.14.61-1.3.72-4.32,4.27-4.32,5.68v19.25h-6v-31Z"/>
  <path class="d" d="M484.16,23.06c.9.15,5.3-.2,5.5,0s-.15,4.16,0,5c3.37-4.62,7.73-6.82,13.5-4.99-.25.86-1.21,5.2-1.55,5.45-.3.21-4.44-.89-7.14.61-1.3.72-4.32,4.27-4.32,5.68v19.25h-6v-31Z"/>
  <path class="f" d="M562.81,9.71c3.81-4.51,10.63,3.27,5.13,6.38-4.11,2.33-7.92-3.07-5.13-6.38Z"/>
  <path class="e" d="M343.16,18.06c-.91,1.15-.49,3.43-.5,5-1.1-1.52-.25-4.11-.5-6,.59,0,.74.63,1,1Z"/>
  <path class="j" d="M149.52,25.68c13.56-2.51,15.45,19.3,3.34,20.84-12.75,1.62-14.07-18.86-3.34-20.84Z"/>
  <path class="j" d="M72.53,25.68c14.18-2.45,15.94,18.74,4.26,20.76-14.18,2.45-15.94-18.74-4.26-20.76Z"/>
  <path class="j" d="M111.53,25.68c14.18-2.45,15.94,18.74,4.26,20.76-14.18,2.45-15.94-18.74-4.26-20.76Z"/>
  <path class="b" d="M209.49,27.24c.25.24,1.24,1.73,1.17,1.82l-15.99,6.51c-.77-7.68,8.79-14.05,14.82-8.33Z"/>
  <path class="j" d="M461.53,27.68c15.62-2.67,16.24,24.49-.09,21.85-10.21-1.65-9.81-20.16.09-21.85Z"/>
  <path class="j" d="M276.53,27.68c15.58-2.66,16.68,24.16-.07,21.83-10.28-1.43-10.82-19.98.07-21.83Z"/>
  <path class="j" d="M391.52,27.68c16.02-2.97,16.71,24.57-.08,21.85-10.25-1.66-10.23-19.94.08-21.85Z"/>
  <path class="j" d="M517.02,27.68c16.02-2.97,16.71,24.57-.08,21.85-10.25-1.66-10.23-19.94.08-21.85Z"/>
</svg>