<svg id="Layer_1" data-name="Layer 1" xmlns="http://www.w3.org/2000/svg" width="200" height="70" viewBox="0 0 200 70">
  <g>
    <path id="path3133" d="M30.25,22.47S24.6,20,15.15,20h0C5.7,20,.05,22.47.05,22.47s-.5,11,1.64,17.14A22.88,22.88,0,0,0,15.15,53.55h0A22.91,22.91,0,0,0,28.61,39.61c2.14-6.19,1.64-17.14,1.64-17.14" style="fill: #ed2224"/>
    <path id="path3135" d="M25.18,31.91v6h-7v7h-6v-7h-7v-6h7v-7h6v7h7" style="fill: #fff"/>
  </g>
  <g>
    <path d="M44.48,23.36h7v1.47H46.24v2.68h4.94V29H46.24v4.42H44.48Z" style="fill: #231f20"/>
    <path d="M52.45,29.62a3.56,3.56,0,0,1,3.61-3.84c2.33,0,3.67,1.86,3.53,4.36H54.13a2,2,0,0,0,2,2.06,1.73,1.73,0,0,0,1.78-1h1.62a3.27,3.27,0,0,1-3.33,2.4A3.65,3.65,0,0,1,52.45,29.62Zm1.68-.68h3.79a1.81,1.81,0,0,0-1.86-1.87A1.86,1.86,0,0,0,54.13,28.94Z" style="fill: #231f20"/>
    <path d="M66.47,23.36h1.65v10H66.47v-1a2.44,2.44,0,0,1-2.21,1.16c-1.81,0-3.2-1.5-3.2-3.9s1.39-3.89,3.2-3.89A2.44,2.44,0,0,1,66.47,27Zm-1.85,3.76c-1.15,0-1.84,1-1.84,2.55s.69,2.56,1.84,2.56,1.92-.84,1.92-2.56S65.7,27.12,64.62,27.12Z" style="fill: #231f20"/>
    <path d="M70,29.62a3.56,3.56,0,0,1,3.62-3.84c2.32,0,3.66,1.86,3.53,4.36H71.68a2,2,0,0,0,2,2.06,1.73,1.73,0,0,0,1.78-1h1.62a3.27,3.27,0,0,1-3.33,2.4A3.65,3.65,0,0,1,70,29.62Zm1.68-.68h3.79a1.81,1.81,0,0,0-1.85-1.87A1.86,1.86,0,0,0,71.68,28.94Z" style="fill: #231f20"/>
    <path d="M83.11,27.62c-.27,0-.54,0-.79,0-1,0-1.63.42-1.63,1.91v3.9H79V26h1.62v1.33a2.22,2.22,0,0,1,2-1.34l.43,0Z" style="fill: #231f20"/>
    <path d="M90.62,28.91c0,.37,0,1.26,0,1.94a12.89,12.89,0,0,0,.22,2.54H89.3a8.13,8.13,0,0,1-.14-1.06,2.62,2.62,0,0,1-2.45,1.24c-1.62,0-2.75-.87-2.75-2.22,0-1.86,2.28-2.33,5-2.61v-.18A1.41,1.41,0,0,0,87.36,27a1.36,1.36,0,0,0-1.52,1.34H84.22c.11-1.52,1.38-2.56,3.23-2.56S90.66,26.53,90.62,28.91Zm-1.61,1c-2.35.22-3.31.56-3.31,1.41,0,.66.54,1,1.37,1,1.22,0,1.94-.62,1.94-2.18Z" style="fill: #231f20"/>
    <path d="M94.45,33.39H92.8v-10h1.65Z" style="fill: #231f20"/>
    <path d="M103.36,23.36c3.19,0,5.61,1.09,5.61,5s-2.42,5-5.61,5h-2.74v-10Zm-.08,1.41h-.9V32h.9c1.92,0,3.86-.43,3.86-3.61S105.2,24.77,103.28,24.77Z" style="fill: #231f20"/>
    <path d="M110.3,29.62a3.56,3.56,0,0,1,3.61-3.84c2.33,0,3.67,1.86,3.53,4.36H112a2,2,0,0,0,2,2.06,1.74,1.74,0,0,0,1.79-1h1.62a3.28,3.28,0,0,1-3.34,2.4A3.64,3.64,0,0,1,110.3,29.62Zm1.67-.68h3.8a1.82,1.82,0,0,0-1.86-1.87A1.87,1.87,0,0,0,112,28.94Z" style="fill: #231f20"/>
    <path d="M121,26v1a2.44,2.44,0,0,1,2.21-1.17c1.81,0,3.2,1.51,3.2,3.89s-1.39,3.9-3.2,3.9A2.44,2.44,0,0,1,121,32.41v3.41h-1.65V26Zm1.85,6.28c1.15,0,1.84-1,1.84-2.56s-.69-2.55-1.84-2.55-1.92.84-1.92,2.55S121.76,32.23,122.84,32.23Z" style="fill: #231f20"/>
    <path d="M134.41,28.91c0,.37,0,1.26,0,1.94a12.81,12.81,0,0,0,.23,2.54H133.1a6.7,6.7,0,0,1-.14-1.06,2.64,2.64,0,0,1-2.45,1.24c-1.62,0-2.75-.87-2.75-2.22,0-1.86,2.28-2.33,5-2.61v-.18A1.42,1.42,0,0,0,131.16,27a1.36,1.36,0,0,0-1.52,1.34H128c.11-1.52,1.38-2.56,3.22-2.56S134.45,26.53,134.41,28.91Zm-1.6,1c-2.35.22-3.31.56-3.31,1.41,0,.66.54,1,1.37,1,1.22,0,1.94-.62,1.94-2.18Z" style="fill: #231f20"/>
    <path d="M140.67,27.62c-.28,0-.54,0-.79,0-1,0-1.63.42-1.63,1.91v3.9H136.6V26h1.62v1.33a2.22,2.22,0,0,1,2-1.34l.43,0Z" style="fill: #231f20"/>
    <path d="M142.47,24h1.65v2h1.49v1.19h-1.49v4.05c0,.77.18.95.88.95h.6v1.25h-1.22c-1.59,0-1.91-.42-1.91-1.95v-4.3h-1.11V26h1.11Z" style="fill: #231f20"/>
    <path d="M149.11,33.39h-1.64V26h1.64v1a2.32,2.32,0,0,1,2.16-1.21,2.13,2.13,0,0,1,2.18,1.32,2.81,2.81,0,0,1,2.42-1.32c1.76,0,2.43,1.17,2.43,2.94v4.67h-1.64V29.12c0-1-.1-2-1.32-2s-1.63,1-1.63,2.32v3.95h-1.65V29.12c0-1-.1-2-1.31-2s-1.64,1-1.64,2.32Z" style="fill: #231f20"/>
    <path d="M160.05,29.62a3.56,3.56,0,0,1,3.61-3.84c2.33,0,3.67,1.86,3.53,4.36h-5.47a2,2,0,0,0,2,2.06,1.74,1.74,0,0,0,1.79-1h1.62a3.28,3.28,0,0,1-3.34,2.4A3.64,3.64,0,0,1,160.05,29.62Zm1.67-.68h3.8a1.82,1.82,0,0,0-1.86-1.87A1.87,1.87,0,0,0,161.72,28.94Z" style="fill: #231f20"/>
    <path d="M170.74,27A2.41,2.41,0,0,1,173,25.78c1.8,0,2.53,1.17,2.53,2.94v4.67h-1.64V29.12c0-1-.15-2-1.41-2s-1.73,1-1.73,2.32v3.95h-1.65V26h1.65Z" style="fill: #231f20"/>
    <path d="M178,24h1.65v2h1.49v1.19h-1.49v4.05c0,.77.18.95.89.95h.59v1.25h-1.22c-1.59,0-1.91-.42-1.91-1.95v-4.3h-1.1V26H178Z" style="fill: #231f20"/>
    <path d="M193.46,29.69a3.63,3.63,0,1,1-7.25,0,3.64,3.64,0,1,1,7.25,0Zm-1.7,0c0-1.72-.83-2.57-1.92-2.57s-1.93.85-1.93,2.57.84,2.54,1.93,2.54S191.76,31.4,191.76,29.69Z" style="fill: #231f20"/>
    <path d="M195.57,25.49c0-1.74.66-2.13,2.46-2.13h.65v1.26h-.47c-.81,0-1,.15-1,.93V26h1.46v1.19h-1.46v6.25h-1.65V27.14h-1V26h1Z" style="fill: #231f20"/>
    <path d="M44.48,41.36h7v1.47H46.24v2.68h4.94V47H46.24v4.42H44.48Z" style="fill: #231f20"/>
    <path d="M59.7,47.69a3.63,3.63,0,1,1-7.25,0,3.64,3.64,0,1,1,7.25,0Zm-1.7,0c0-1.72-.83-2.57-1.92-2.57s-1.93.85-1.93,2.57.84,2.54,1.93,2.54S58,49.4,58,47.69Z" style="fill: #231f20"/>
    <path d="M65.66,45.62c-.28,0-.54,0-.79,0-1,0-1.63.42-1.63,1.91v3.9H61.59V44h1.62v1.33a2.22,2.22,0,0,1,2-1.34l.43,0Z" style="fill: #231f20"/>
    <path d="M66.56,47.62a3.56,3.56,0,0,1,3.61-3.84c2.33,0,3.67,1.86,3.53,4.36H68.23a2,2,0,0,0,2,2.06,1.74,1.74,0,0,0,1.79-1h1.62a3.28,3.28,0,0,1-3.34,2.4A3.64,3.64,0,0,1,66.56,47.62Zm1.67-.68H72a1.81,1.81,0,0,0-1.85-1.87A1.87,1.87,0,0,0,68.23,46.94Z" style="fill: #231f20"/>
    <path d="M77.24,41.36V43H75.6V41.36Zm0,2.59v7.44H75.6V44Z" style="fill: #231f20"/>
    <path d="M84.51,44h1.65v6.7c0,2.43-1.24,3.43-3.55,3.43-1.63,0-2.93-.65-3.18-2.28h1.63c.16.69.61,1,1.6,1,1.46,0,1.85-.83,1.85-1.8v-.87a2.47,2.47,0,0,1-2.21,1.16c-1.82,0-3.2-1.43-3.2-3.75s1.38-3.74,3.2-3.74A2.45,2.45,0,0,1,84.51,45ZM82.66,45.1c-1.15,0-1.85.92-1.85,2.42S81.51,50,82.66,50s1.92-.78,1.92-2.45S83.74,45.1,82.66,45.1Z" style="fill: #231f20"/>
    <path d="M90.17,45a2.42,2.42,0,0,1,2.26-1.21c1.8,0,2.53,1.17,2.53,2.94v4.67H93.31V47.12c0-1-.15-2-1.41-2s-1.73,1-1.73,2.32v4H88.53V44h1.64Z" style="fill: #231f20"/>
    <path d="M103.72,41.36h1.86l3.76,10h-1.92l-.79-2.22h-4.07l-.77,2.22H100Zm-.65,6.34h3l-1.52-4.3Z" style="fill: #231f20"/>
    <path d="M110.85,43.49c0-1.74.67-2.13,2.47-2.13H114v1.26h-.47c-.82,0-1,.15-1,.93V44H114v1.19H112.5v6.25h-1.65V45.14h-1V44h1Z" style="fill: #231f20"/>
    <path d="M115.85,43.49c0-1.74.67-2.13,2.46-2.13H119v1.26h-.47c-.81,0-1,.15-1,.93V44H119v1.19H117.5v6.25h-1.65V45.14h-1V44h1Z" style="fill: #231f20"/>
    <path d="M126.73,46.91c0,.37,0,1.26,0,1.94a13.71,13.71,0,0,0,.22,2.54h-1.5a5.69,5.69,0,0,1-.14-1.06,2.64,2.64,0,0,1-2.45,1.24c-1.62,0-2.76-.87-2.76-2.22,0-1.86,2.29-2.33,5-2.61v-.18a1.41,1.41,0,0,0-1.6-1.61A1.36,1.36,0,0,0,122,46.29h-1.62c.11-1.52,1.38-2.56,3.22-2.56S126.77,44.53,126.73,46.91Zm-1.61,1c-2.35.22-3.3.56-3.3,1.41,0,.66.54,1,1.37,1,1.22,0,1.93-.62,1.93-2.18Z" style="fill: #231f20"/>
    <path d="M130.57,41.36V43h-1.65V41.36Zm0,2.59v7.44h-1.65V44Z" style="fill: #231f20"/>
    <path d="M137,45.62c-.27,0-.54,0-.78,0-1,0-1.64.42-1.64,1.91v3.9H133V44h1.62v1.33a2.22,2.22,0,0,1,2-1.34l.42,0Z" style="fill: #231f20"/>
    <path d="M142.83,46c-.17-.71-.82-1-1.75-1-.74,0-1.38.31-1.38.8s.36.77,1.08.92l1,.21c1.5.33,2.67.77,2.67,2.21s-1.45,2.39-3.18,2.39c-1.93,0-3.16-1.07-3.31-2.5h1.61c.13.79.7,1.26,1.75,1.26s1.53-.36,1.53-1-.54-.87-1.33-1l-1.12-.24c-1.29-.26-2.26-.8-2.26-2.17s1.38-2.15,3-2.15A3,3,0,0,1,144.38,46Z" style="fill: #231f20"/>
    <path d="M150.1,41.36h7v1.47h-5.25v2.68h5V47h-5v4.42H150.1Z" style="fill: #231f20"/>
    <path d="M161.39,41.36c3.18,0,5.61,1.09,5.61,5s-2.43,5-5.61,5h-2.74v-10Zm-.08,1.41h-.9V50h.9c1.92,0,3.86-.43,3.86-3.61S163.23,42.77,161.31,42.77Z" style="fill: #231f20"/>
    <path d="M169.13,41.36h7v1.47h-5.24v2.68h4.94V47h-4.94v4.42h-1.76Z" style="fill: #231f20"/>
    <path d="M179.72,41.36h1.85l3.77,10h-1.93l-.79-2.22h-4.06l-.78,2.22H176Zm-.65,6.34h3l-1.52-4.3Z" style="fill: #231f20"/>
  </g>
</svg>
