<svg width="24" height="24" viewBox="0 0 24 24" fill="none" xmlns="http://www.w3.org/2000/svg">
<g clip-path="url(#clip0_43_762)">
<path d="M12 24C18.6274 24 24 18.6274 24 12C24 5.37258 18.6274 0 12 0C5.37258 0 0 5.37258 0 12C0 18.6274 5.37258 24 12 24Z" fill="#F0F0F0"/>
<path d="M20.3971 3.42862C18.2327 1.308 15.2694 0 12 0C10.9565 0 7.9034 1.308 5.73914 3.42862H20.3971Z" fill="#6DA544"/>
<path d="M12 10.2857H23.8776C23.7044 9.07518 23.3508 7.92299 22.8445 6.85715H11.4783L12 10.2857Z" fill="#6DA544"/>
<path d="M1.15551 17.1429H22.8445C23.3508 16.0771 23.7044 14.9248 23.8776 13.7143H0.122437C0.29564 14.9249 0.649124 16.0771 1.15551 17.1429Z" fill="#6DA544"/>
<path d="M3.60291 20.5714C5.76726 22.692 8.73061 24 12 24C15.2694 24 18.2327 22.692 20.3971 20.5714H3.60291Z" fill="#6DA544"/>
<path d="M12 0C5.95472 0 0.954374 4.47052 0.122437 10.2857H12V0Z" fill="#D80027"/>
<path d="M5.99999 9.20004L5.47827 8.15661V6.06964L6.78262 5.02615L8.08696 6.06964V7.63484L8.60868 7.11312V8.15661L7.56519 9.20004H5.99999Z" fill="#F0F0F0"/>
<path d="M3.19381 6L3.33195 6.42516H3.77895L3.41731 6.68798L3.5555 7.11309L3.19381 6.85031L2.83213 7.11309L2.97031 6.68798L2.60867 6.42516H3.05567L3.19381 6Z" fill="#F0F0F0"/>
<path d="M4.2373 4.95654L4.37544 5.3817H4.82249L4.4608 5.64453L4.59894 6.06964L4.2373 5.8069L3.87566 6.06964L4.01385 5.64453L3.65216 5.3817H4.09911L4.2373 4.95654Z" fill="#F0F0F0"/>
<path d="M5.28079 3.91306L5.41893 4.33821H5.86588L5.50429 4.60104L5.64238 5.02615L5.28079 4.76342L4.9191 5.02615L5.05724 4.60104L4.69565 4.33821H5.1426L5.28079 3.91306Z" fill="#F0F0F0"/>
<path d="M10.3713 6L10.2332 6.42516H9.78625L10.1478 6.68798L10.0097 7.11309L10.3713 6.85031L10.733 7.11309L10.5949 6.68798L10.9565 6.42516H10.5095L10.3713 6Z" fill="#F0F0F0"/>
<path d="M9.32786 4.95654L9.18972 5.3817H8.74277L9.10436 5.64453L8.96622 6.06964L9.32786 5.8069L9.68955 6.06964L9.55136 5.64453L9.913 5.3817H9.46605L9.32786 4.95654Z" fill="#F0F0F0"/>
<path d="M8.28445 3.91306L8.14626 4.33821H7.69931L8.0609 4.60104L7.92276 5.02615L8.28445 4.76342L8.64609 5.02615L8.50795 4.60104L8.86954 4.33821H8.42259L8.28445 3.91306Z" fill="#F0F0F0"/>
<path d="M6.78262 3.39133L6.64443 3.81648H6.19748L6.55907 4.07926L6.42093 4.50437L6.78262 4.24164L7.14426 4.50437L7.00612 4.07926L7.36771 3.81648H6.92076L6.78262 3.39133Z" fill="#F0F0F0"/>
</g>
<defs>
<clipPath id="clip0_43_762">
<rect width="24" height="24" fill="white"/>
</clipPath>
</defs>
</svg>
