<svg width="24" height="24" viewBox="0 0 24 24" fill="none" xmlns="http://www.w3.org/2000/svg">
<g clip-path="url(#clip0_43_779)">
<path d="M17.2174 1.19072C15.6397 0.427875 13.8698 0 12 0C10.1302 0 8.36025 0.427875 6.78262 1.19072L5.73914 12L6.78262 22.8093C8.36025 23.5721 10.1302 24 12 24C13.8698 24 15.6397 23.5721 17.2174 22.8093L18.2609 12L17.2174 1.19072Z" fill="#D80027"/>
<path d="M6.78263 1.19113C2.76872 3.13208 0 7.24251 0 12C0 16.7575 2.76872 20.8679 6.78263 22.8088V1.19113Z" fill="black"/>
<path d="M17.2173 1.19113V22.8088C21.2313 20.8679 24 16.7575 24 12C24 7.24251 21.2313 3.13208 17.2173 1.19113Z" fill="#496E2D"/>
<path d="M12 7.82611C9.69478 7.82611 7.82611 9.69483 7.82611 12C7.82611 14.3052 9.69483 16.1739 12 16.1739C14.3052 16.1739 16.1739 14.3052 16.1739 12C16.1739 9.69483 14.3052 7.82611 12 7.82611ZM12 14.6087C10.5593 14.6087 9.39131 13.4407 9.39131 12C9.39131 10.5593 10.5593 9.39131 12 9.39131C13.4407 9.39131 14.6087 10.5593 14.6087 12C14.6087 13.4407 13.4408 14.6087 12 14.6087Z" fill="#FFDA44"/>
<path d="M12 10.4348C11.4237 10.4348 10.9565 10.9019 10.9565 11.4783V13.0435H13.0435V11.4783C13.0435 10.9019 12.5764 10.4348 12 10.4348Z" fill="#FFDA44"/>
</g>
<defs>
<clipPath id="clip0_43_779">
<rect width="24" height="24" fill="white"/>
</clipPath>
</defs>
</svg>
