<svg width="24" height="24" viewBox="0 0 24 24" fill="none" xmlns="http://www.w3.org/2000/svg">
<g clip-path="url(#clip0_43_794)">
<path d="M12 24C18.6274 24 24 18.6274 24 12C24 5.37258 18.6274 0 12 0C5.37258 0 0 5.37258 0 12C0 18.6274 5.37258 24 12 24Z" fill="#D80027"/>
<path d="M18.7826 8.90666H14.4361C14.7044 8.62569 14.8695 8.2453 14.8695 7.8261C14.8695 6.96168 14.1688 6.26089 13.3043 6.26089C12.7597 6.26089 12.2803 6.53915 12 6.96107C11.7196 6.53915 11.2402 6.26089 10.6956 6.26089C9.83122 6.26089 9.13044 6.96168 9.13044 7.8261C9.13044 8.2453 9.29558 8.62574 9.56389 8.90666H5.21741C5.21741 10.0593 6.22133 10.9936 7.37385 10.9936H7.30428C7.30428 12.1462 8.23864 13.0806 9.3913 13.0806C9.3913 13.4539 9.48969 13.8039 9.66144 14.1069L7.93034 15.838L9.2585 17.1661L11.1425 15.2821C11.2163 15.3092 11.2926 15.3309 11.3715 15.3456L10.233 17.916L12 19.8261L13.7669 17.9159L12.6285 15.3456C12.7074 15.3308 12.7837 15.3091 12.8575 15.282L14.7415 17.166L16.0696 15.8379L14.3385 14.1067C14.5103 13.8038 14.6087 13.4538 14.6087 13.0805C15.7613 13.0805 16.6956 12.1461 16.6956 10.9934H16.6261C17.7786 10.9935 18.7826 10.0593 18.7826 8.90666Z" fill="black"/>
</g>
<defs>
<clipPath id="clip0_43_794">
<rect width="24" height="24" fill="white"/>
</clipPath>
</defs>
</svg>
