<svg width="24" height="24" viewBox="0 0 24 24" fill="none" xmlns="http://www.w3.org/2000/svg">
<g clip-path="url(#clip0_43_841)">
<path d="M0 12C0 12.8219 0.082875 13.6245 0.240328 14.4L12 15.1304L23.7597 14.4C23.9172 13.6245 24 12.8219 24 12C24 11.178 23.9171 10.3754 23.7597 9.59999L12 8.86954L0.240328 9.59999C0.082875 10.3754 0 11.178 0 12H0Z" fill="#0052B4"/>
<path d="M23.7597 14.4H0.240356C1.35218 19.8773 6.19461 24 12 24C17.8055 24 22.6479 19.8773 23.7597 14.4Z" fill="#F0F0F0"/>
<path d="M0.240356 9.6H23.7598C22.6479 4.12266 17.8055 0 12 0C6.19451 0 1.35218 4.12266 0.240356 9.6Z" fill="black"/>
<path d="M17.2174 9.60002H6.78265L8.91453 8.59717L7.77926 6.53256L10.0942 6.9753L10.3876 4.63675L12 6.35678L13.6125 4.63675L13.9058 6.9753L16.2208 6.53256L15.0856 8.59727L17.2174 9.60002Z" fill="#FFDA44"/>
<path d="M0 12C0 18.6274 5.37262 24 12 24L2.39981 4.79959C0.893062 6.80533 0 9.29828 0 12Z" fill="#A2001D"/>
<path d="M12 24C18.6274 24 24 18.6274 24 12C24 9.29828 23.1069 6.80533 21.6002 4.79959L12 24Z" fill="#A2001D"/>
</g>
<defs>
<clipPath id="clip0_43_841">
<rect width="24" height="24" fill="white"/>
</clipPath>
</defs>
</svg>
