<svg width="24" height="24" viewBox="0 0 24 24" fill="none" xmlns="http://www.w3.org/2000/svg">
<g clip-path="url(#clip0_43_1015)">
<path d="M0.566625 8.34778C0.199031 9.49946 -4.68667e-05 10.7263 8.276e-09 12C-4.68667e-05 13.2735 0.199031 14.5004 0.566672 15.6521L12 16.1739L23.4333 15.6521C23.8008 14.5004 24 13.2735 24 12C24 10.7264 23.8009 9.49946 23.4333 8.34778L12 7.82607L0.566625 8.34778Z" fill="#F0F0F0"/>
<path d="M24 12C24 11.2881 23.9377 10.5908 23.8187 9.91299H0.181313C0.0623437 10.5908 0 11.288 0 12C0 12.7119 0.0623906 13.4091 0.181313 14.0869H23.8187C23.9376 13.4091 24 12.7118 24 12Z" fill="black"/>
<path d="M12 24C17.3539 24 21.8881 20.4936 23.4333 15.6521H0.56665C2.11188 20.4935 6.64615 23.9999 12 24Z" fill="#338AF3"/>
<path d="M12 4.57782e-05C6.6462 4.57782e-05 2.11198 3.50644 0.56665 8.34778L23.4332 8.34783C21.8881 3.50644 17.3538 -4.79718e-05 12 4.57782e-05Z" fill="#338AF3"/>
</g>
<defs>
<clipPath id="clip0_43_1015">
<rect width="24" height="24" fill="white"/>
</clipPath>
</defs>
</svg>
