<svg width="24" height="24" viewBox="0 0 24 24" fill="none" xmlns="http://www.w3.org/2000/svg">
<g clip-path="url(#clip0_43_1360)">
<path d="M22.6675 6.49762C22.113 5.42329 21.3862 4.41492 20.4856 3.51436C19.585 2.61375 18.5766 1.88695 17.5023 1.33251L9.04847 9.04842L1.33252 17.5023C1.887 18.5766 2.6138 19.585 3.51436 20.4856C4.41493 21.3862 5.42335 22.1129 6.49763 22.6674L14.9515 14.9515L22.6675 6.49762Z" fill="#FFDA44"/>
<path d="M3.51443 20.4856C4.01782 20.989 4.55496 21.438 5.11835 21.8333L21.8332 5.11833C21.438 4.55494 20.9891 4.0178 20.4857 3.51441C19.9822 3.01102 19.4451 2.5621 18.8817 2.16685L2.16687 18.8817C2.56207 19.445 3.011 19.9823 3.51443 20.4856Z" fill="#D80027"/>
<path d="M3.51429 3.51439C-0.271664 7.30034 -0.99846 12.9862 1.33245 17.5024L17.5023 1.33259C12.986 -0.998271 7.3002 -0.27138 3.51429 3.51439Z" fill="#338AF3"/>
<path d="M20.4856 20.4856C24.2715 16.6997 24.9983 11.0139 22.6675 6.49772L6.49768 22.6675C11.0139 24.9983 16.6997 24.2716 20.4856 20.4856Z" fill="#338AF3"/>
<path d="M6.39498 3.65179L7.04251 5.64478H9.13801L7.44273 6.87647L8.09026 8.8694L6.39498 7.63767L4.69961 8.8694L5.34723 6.87647L3.65186 5.64478H5.74736L6.39498 3.65179Z" fill="#FFDA44"/>
</g>
<defs>
<clipPath id="clip0_43_1360">
<rect width="24" height="24" fill="white"/>
</clipPath>
</defs>
</svg>
