<svg width="24" height="24" viewBox="0 0 24 24" fill="none" xmlns="http://www.w3.org/2000/svg">
<g clip-path="url(#clip0_43_1148)">
<path d="M17.2174 1.19072C15.6397 0.427875 13.8698 0 12 0C10.1302 0 8.36025 0.427875 6.78262 1.19072L5.73914 12L6.78262 22.8093C8.36025 23.5721 10.1302 24 12 24C13.8698 24 15.6397 23.5721 17.2174 22.8093L18.2609 12L17.2174 1.19072Z" fill="#D80027"/>
<path d="M11.9999 7.82611L13.0358 11.0145H16.3887L13.6763 12.9853L14.7123 16.1739L11.9999 14.2032L9.28747 16.1739L10.3236 12.9853L7.61127 11.0145H10.9639L11.9999 7.82611Z" fill="#FFDA44"/>
<path d="M6.78263 1.19114C2.76872 3.13205 0 7.24247 0 12C0 16.7575 2.76872 20.868 6.78263 22.8089V1.19114Z" fill="#496E2D"/>
<path d="M17.2173 1.19114V22.8089C21.2313 20.868 24 16.7575 24 12C24 7.24252 21.2313 3.13205 17.2173 1.19114Z" fill="#FFDA44"/>
</g>
<defs>
<clipPath id="clip0_43_1148">
<rect width="24" height="24" fill="white"/>
</clipPath>
</defs>
</svg>
