<svg width="24" height="24" viewBox="0 0 24 24" fill="none" xmlns="http://www.w3.org/2000/svg">
<g clip-path="url(#clip0_43_1246)">
<path d="M12 24C18.6274 24 24 18.6274 24 12C24 5.37258 18.6274 0 12 0C5.37258 0 0 5.37258 0 12C0 18.6274 5.37258 24 12 24Z" fill="#D80027"/>
<path d="M6.56719 7.30312L7.60312 10.4906H10.9547L8.24531 12.4641L9.28125 15.6516L6.56719 13.6828L3.85313 15.6516L4.89375 12.4641L2.17969 10.4906H5.53125L6.56719 7.30312Z" fill="#FFDA44"/>
<path d="M14.2266 18.5859L13.4344 17.6109L12.2625 18.0656L12.9422 17.0109L12.15 16.0312L13.3641 16.3547L14.0485 15.3L14.1141 16.5563L15.3328 16.8797L14.1563 17.3297L14.2266 18.5859Z" fill="#FFDA44"/>
<path d="M15.8016 15.7266L16.1766 14.5266L15.15 13.8L16.4063 13.7812L16.7766 12.5812L17.1844 13.7719L18.4406 13.7578L17.4328 14.5078L17.836 15.6984L16.8094 14.9719L15.8016 15.7266Z" fill="#FFDA44"/>
<path d="M17.925 8.80781L17.3719 9.9375L18.2719 10.8141L17.0297 10.6359L16.4765 11.7609L16.2609 10.5234L15.014 10.3453L16.1297 9.75937L15.914 8.51719L16.814 9.39375L17.925 8.80781Z" fill="#FFDA44"/>
<path d="M14.2594 5.38594L14.1656 6.6375L15.3328 7.11094L14.1094 7.41094L14.0203 8.66719L13.3594 7.59844L12.1359 7.89844L12.9469 6.9375L12.2812 5.87344L13.4484 6.34687L14.2594 5.38594Z" fill="#FFDA44"/>
</g>
<defs>
<clipPath id="clip0_43_1246">
<rect width="24" height="24" fill="white"/>
</clipPath>
</defs>
</svg>
