<svg width="24" height="24" viewBox="0 0 24 24" fill="none" xmlns="http://www.w3.org/2000/svg">
<g clip-path="url(#clip0_43_1335)">
<path d="M4.6875e-05 2.08697H0V21.913H4.6875e-05V12V2.08697Z" fill="#FF9811"/>
<path d="M12 24C18.6273 24 23.9999 18.6274 23.9999 12C23.9999 5.37261 18.6273 4.57764e-05 12 4.57764e-05C5.37256 4.57764e-05 0 5.37261 0 12C0 18.6274 5.37256 24 12 24Z" fill="#F0F0F0"/>
<path d="M12.0001 9.15527e-05C8.07418 9.15527e-05 4.58883 1.88554 2.39954 4.80009H21.6005C19.4113 1.8855 15.9259 9.15527e-05 12.0001 9.15527e-05Z" fill="#0052B4"/>
<path d="M12.0001 24C15.9259 24 19.4113 22.1145 21.6006 19.2H2.39954C4.58879 22.1145 8.07418 24 12.0001 24Z" fill="#0052B4"/>
<path d="M6.10352e-05 12C6.10352e-05 12.822 0.082936 13.6246 0.240389 14.4H23.7598C23.9172 13.6246 24.0001 12.822 24.0001 12C24.0001 11.1781 23.9172 10.3755 23.7598 9.60004H0.240389C0.082936 10.3755 6.10352e-05 11.1781 6.10352e-05 12Z" fill="#0052B4"/>
<path d="M3.51474 3.51478C-1.1715 8.20101 -1.1715 15.799 3.51474 20.4854C5.45128 18.5488 7.31372 16.6863 12 12.0001L3.51474 3.51478Z" fill="#D80027"/>
<path d="M4.85676 8.86964L5.63367 11.261H8.14832L6.11409 12.739L6.891 15.1304L4.85676 13.6524L2.82243 15.1304L3.59953 12.739L1.56525 11.261H4.07972L4.85676 8.86964Z" fill="#F0F0F0"/>
</g>
<defs>
<clipPath id="clip0_43_1335">
<rect width="24" height="24" fill="white"/>
</clipPath>
</defs>
</svg>
