<svg width="24" height="24" viewBox="0 0 24 24" fill="none" xmlns="http://www.w3.org/2000/svg">
<g clip-path="url(#clip0_43_1344)">
<path d="M12 24C18.6274 24 24 18.6274 24 12C24 5.37258 18.6274 0 12 0C5.37258 0 0 5.37258 0 12C0 18.6274 5.37258 24 12 24Z" fill="#FFDA44"/>
<path d="M12 24C15.9375 24 19.432 22.1035 21.6201 19.1743H2.37988C4.56801 22.1035 8.06249 24 12 24Z" fill="#0052B4"/>
<path d="M24 12C24 5.37262 18.6274 0 12 0C5.37262 0 0 5.37262 0 12C0 13.419 0.246984 14.7803 0.699188 16.0439H23.3008C23.753 14.7803 24 13.419 24 12Z" fill="#0052B4"/>
<path d="M8.21353 7.69603L8.86102 9.68878H10.9565L9.26128 10.9206L9.90877 12.9134L8.21353 11.6817L6.5183 12.9134L7.16588 10.9206L5.47064 9.68878H7.56605L8.21353 7.69603Z" fill="#F0F0F0"/>
<path d="M4.61505 5.60906L5.00355 6.80475H6.26088L5.24374 7.54378L5.63224 8.73951L4.61505 8.00048L3.59791 8.73951L3.98645 7.54378L2.96936 6.80475H4.22664L4.61505 5.60906Z" fill="#F0F0F0"/>
</g>
<defs>
<clipPath id="clip0_43_1344">
<rect width="24" height="24" fill="white"/>
</clipPath>
</defs>
</svg>
