<svg width="24" height="24" viewBox="0 0 24 24" fill="none" xmlns="http://www.w3.org/2000/svg">
<g clip-path="url(#clip0_43_1454)">
<path d="M10.9565 10.9565C10.9565 10.9565 3.52174 20.487 3.51471 20.4853C5.68624 22.6568 8.68629 24 12 24C18.6274 24 24 18.6274 24 12L10.9565 10.9565Z" fill="#338AF3"/>
<path d="M10.9565 12C10.9565 12 3.52174 3.51305 3.51471 3.51473C5.68624 1.34316 8.68629 0 12 0C18.6274 0 24 5.37262 24 12H10.9565Z" fill="#6DA544"/>
<path d="M3.51471 3.51469C-1.17157 8.20097 -1.17157 15.799 3.51471 20.4853C3.51438 20.4872 24 12 24 12L3.51471 3.51469Z" fill="#D80027"/>
<path d="M6.26087 7.04349C3.95935 7.04349 2.08698 8.91591 2.08698 11.2174V12.7826C2.08698 15.0841 3.9594 16.9565 6.26087 16.9565C8.56233 16.9565 10.4348 15.0841 10.4348 12.7826V11.2174C10.4348 8.91591 8.56238 7.04349 6.26087 7.04349ZM8.86955 12.7826C8.86955 13.9485 8.10071 14.938 7.04344 15.2712V13.5653L8.15082 12.4579L7.04405 11.3511L7.04344 10.9572V10.4348H5.47829V12L4.37166 13.1066L5.47829 14.2132V15.2713C4.42102 14.938 3.65218 13.9485 3.65218 12.7827V11.2175C3.65218 9.77902 4.82246 8.60878 6.26087 8.60878C7.69927 8.60878 8.86955 9.77907 8.86955 11.2175V12.7826Z" fill="#FFDA44"/>
</g>
<defs>
<clipPath id="clip0_43_1454">
<rect width="24" height="24" fill="white"/>
</clipPath>
</defs>
</svg>
