<svg width="24" height="24" viewBox="0 0 24 24" fill="none" xmlns="http://www.w3.org/2000/svg">
<g clip-path="url(#clip0_43_1545)">
<path d="M12 24C18.6274 24 24 18.6274 24 12C24 5.37258 18.6274 0 12 0C5.37258 0 0 5.37258 0 12C0 18.6274 5.37258 24 12 24Z" fill="#F0F0F0"/>
<path d="M23.8984 10.4348H13.5653H13.5653V0.101578C13.0529 0.034875 12.5305 0 12 0C11.4695 0 10.9471 0.034875 10.4348 0.101578V10.4347V10.4347H0.101578C0.034875 10.9471 0 11.4695 0 12C0 12.5306 0.034875 13.0529 0.101578 13.5652H10.4347H10.4347V23.8984C10.9471 23.9651 11.4695 24 12 24C12.5305 24 13.0529 23.9652 13.5652 23.8984V13.5653V13.5653H23.8984C23.9651 13.0529 24 12.5306 24 12C24 11.4695 23.9651 10.9471 23.8984 10.4348Z" fill="#D80027"/>
<path d="M7.30434 5.73914V4.17389H5.73914V5.73914H4.17389V7.30434H5.73914V8.86954H7.30434V7.30434H8.86954V5.73914H7.30434Z" fill="#D80027"/>
<path d="M18.2608 5.73914V4.17389H16.6956V5.73914H15.1304V7.30434H16.6956V8.86954H18.2608V7.30434H19.8261V5.73914H18.2608Z" fill="#D80027"/>
<path d="M7.30434 16.6957V15.1304H5.73914V16.6957H4.17389V18.2609H5.73914V19.8261H7.30434V18.2609H8.86954V16.6957H7.30434Z" fill="#D80027"/>
<path d="M18.2608 16.6957V15.1304H16.6956V16.6957H15.1304V18.2609H16.6956V19.8261H18.2608V18.2609H19.8261V16.6957H18.2608Z" fill="#D80027"/>
</g>
<defs>
<clipPath id="clip0_43_1545">
<rect width="24" height="24" fill="white"/>
</clipPath>
</defs>
</svg>
