<svg width="24" height="24" viewBox="0 0 24 24" fill="none" xmlns="http://www.w3.org/2000/svg">
<g clip-path="url(#clip0_43_1557)">
<path d="M0 12C0 13.4679 0.264047 14.8739 0.746391 16.1739L12 16.6957L23.2536 16.1739C23.736 14.8739 24 13.4679 24 12C24 10.5322 23.736 9.1261 23.2536 7.82612L12 7.30435L0.746391 7.82607C0.264047 9.1261 0 10.5322 0 12H0Z" fill="#FFDA44"/>
<path d="M12 0C6.84043 0 2.44191 3.2565 0.746399 7.82611H23.2537C21.5581 3.2565 17.1596 0 12 0Z" fill="#D80027"/>
<path d="M23.2536 16.1739H0.746399C2.44191 20.7435 6.84043 24 12 24C17.1596 24 21.5581 20.7435 23.2536 16.1739Z" fill="#496E2D"/>
<path d="M11.9999 7.82611L13.0358 11.0145H16.3887L13.6764 12.9853L14.7123 16.1739L11.9999 14.2033L9.28747 16.1739L10.3236 12.9853L7.61127 11.0145H10.964L11.9999 7.82611Z" fill="black"/>
</g>
<defs>
<clipPath id="clip0_43_1557">
<rect width="24" height="24" fill="white"/>
</clipPath>
</defs>
</svg>
