<svg width="24" height="24" viewBox="0 0 24 24" fill="none" xmlns="http://www.w3.org/2000/svg">
<g clip-path="url(#clip0_43_1576)">
<path d="M0 12C0 5.37262 5.37262 0 12 0C18.6274 0 24 5.37262 24 12C23.4783 12 12 13.5652 12 13.5652L0 12Z" fill="#F0F0F0"/>
<path d="M24 12C24 18.6274 18.6274 24 12 24C5.37262 24 0 18.6274 0 12" fill="#D80027"/>
<path d="M8.34784 17.7391C11.5175 17.7391 14.087 15.1696 14.087 12C14.087 8.83037 11.5175 6.26086 8.34784 6.26086C5.1782 6.26086 2.6087 8.83037 2.6087 12C2.6087 15.1696 5.1782 17.7391 8.34784 17.7391Z" fill="#F0F0F0"/>
<path d="M2.6087 12C2.6087 8.83046 5.1782 6.26086 8.34784 6.26086C11.5175 6.26086 14.087 8.83041 14.087 12" fill="#D80027"/>
</g>
<defs>
<clipPath id="clip0_43_1576">
<rect width="24" height="24" fill="white"/>
</clipPath>
</defs>
</svg>
