<svg width="24" height="24" viewBox="0 0 24 24" fill="none" xmlns="http://www.w3.org/2000/svg">
<g clip-path="url(#clip0_43_1626)">
<path d="M11.9999 0C10.9168 0 9.8676 0.144375 8.86949 0.413391L7.82605 12L8.86953 23.5866C9.8676 23.8556 10.9168 24 11.9999 24C18.6273 24 23.9999 18.6274 23.9999 12C23.9999 5.37262 18.6273 0 11.9999 0Z" fill="#FFDA44"/>
<path d="M7.82605 12L8.86953 23.5866C9.8676 23.8556 10.9168 24 11.9999 24C18.6273 24 23.9999 18.6274 23.9999 12H7.82605Z" fill="#6DA544"/>
<path d="M0 12C0 16.5485 2.53078 20.5057 6.26086 22.5409V1.45908C2.53078 3.49429 0 7.45148 0 12Z" fill="#D80027"/>
<path d="M0 12C0 17.5443 3.76036 22.2096 8.86955 23.5866V0.413391C3.76036 1.79039 0 6.45567 0 12Z" fill="#D80027"/>
<path d="M4.53456 8.86954L5.31151 11.2609H7.82617L5.79189 12.739L6.56879 15.1304L4.53456 13.6524L2.50023 15.1304L3.27732 12.739L1.24304 11.2609H3.75756L4.53456 8.86954Z" fill="black"/>
</g>
<defs>
<clipPath id="clip0_43_1626">
<rect width="24" height="24" fill="white"/>
</clipPath>
</defs>
</svg>
