<svg width="24" height="24" viewBox="0 0 24 24" fill="none" xmlns="http://www.w3.org/2000/svg">
<g clip-path="url(#clip0_43_1637)">
<path d="M12 24C18.6274 24 24 18.6274 24 12C24 5.37258 18.6274 0 12 0C5.37258 0 0 5.37258 0 12C0 18.6274 5.37258 24 12 24Z" fill="#F0F0F0"/>
<path d="M12 0C9.87837 0 7.88581 0.551344 6.15649 1.51744V22.4826C7.88585 23.4487 9.87837 24 12 24C18.6274 24 24 18.6274 24 12C24 5.37262 18.6274 0 12 0Z" fill="#6DA544"/>
<path d="M6.19184 1.49771C5.43692 1.91607 4.73201 2.41332 4.088 2.97863C4.15311 2.92154 4.21887 2.8651 4.28515 2.80941L13.4757 12L4.28511 21.1906C4.21878 21.1349 4.15306 21.0785 4.08795 21.0214C4.73197 21.5867 5.43692 22.0839 6.1918 22.5023L24 12L6.19184 1.49771Z" fill="#F0F0F0"/>
<path d="M5.17831 2.12729C4.81235 2.3807 4.46088 2.65337 4.12596 2.94479L12 12L4.12592 21.0552C4.46084 21.3466 4.81231 21.6194 5.17826 21.8727L21.9459 12L5.17831 2.12729Z" fill="#FFDA44"/>
<path d="M4.2851 2.80942C4.01833 3.03357 3.7609 3.26856 3.51471 3.5147L10.9565 12L3.51471 20.4853C3.7609 20.7315 4.01829 20.9665 4.2851 21.1906L13.4757 12L4.2851 2.80942Z" fill="black"/>
<path d="M3.51471 3.51468C-1.17157 8.20096 -1.17157 15.799 3.51471 20.4853C5.45126 18.5488 7.31374 16.6863 12 12L3.51471 3.51468Z" fill="#D80027"/>
</g>
<defs>
<clipPath id="clip0_43_1637">
<rect width="24" height="24" fill="white"/>
</clipPath>
</defs>
</svg>
