<svg width="24" height="24" viewBox="0 0 24 24" fill="none" xmlns="http://www.w3.org/2000/svg">
<g clip-path="url(#clip0_43_1701)">
<path d="M12 24C18.6274 24 24 18.6274 24 12C24 5.37258 18.6274 0 12 0C5.37258 0 0 5.37258 0 12C0 18.6274 5.37258 24 12 24Z" fill="#F0F0F0"/>
<path d="M15.8975 8.86955H14.3275C14.3404 9.0421 14.3478 9.21619 14.3478 9.39127C14.3478 10.5521 14.0576 11.6772 13.5518 12.4781C13.3958 12.7252 13.1336 13.074 12.7826 13.3093V8.86951H11.2174V13.3093C10.8664 13.074 10.6041 12.7252 10.4481 12.4781C9.94221 11.6772 9.6521 10.5521 9.6521 9.39127C9.6521 9.21619 9.65951 9.04205 9.67245 8.86955H8.10242C8.09234 9.04126 8.08685 9.21516 8.08685 9.39127C8.08685 12.6095 9.80567 15.1304 11.9999 15.1304C14.1941 15.1304 15.9129 12.6095 15.9129 9.39127C15.913 9.21516 15.9075 9.04126 15.8975 8.86955Z" fill="#D80027"/>
<path d="M4.95653 5.73914H6.52174V6.78263H8.08694V5.73914H9.65214V6.78263H11.2173V5.73914H12.7825V6.78263H14.3477V5.73914H15.913V6.78263H17.4782V5.73914H19.0434V6.78263H22.8092C20.8683 2.76867 16.7575 0 12 0C7.24253 0 3.13173 2.76867 1.19073 6.78263H4.95653V5.73914Z" fill="#6DA544"/>
<path d="M19.0435 17.2174V18.2609H17.4783V17.2174H15.9131V18.2609H14.3479V17.2174H12.7827V18.2609H11.2175V17.2174H9.65228V18.2609H8.08708V17.2174H6.52173V18.2609H4.95653V17.2174H1.19073C3.13173 21.2313 7.24248 24 12 24C16.7575 24 20.8683 21.2313 22.8093 17.2174H19.0435Z" fill="#D80027"/>
</g>
<defs>
<clipPath id="clip0_43_1701">
<rect width="24" height="24" fill="white"/>
</clipPath>
</defs>
</svg>
