<svg width="24" height="24" viewBox="0 0 24 24" fill="none" xmlns="http://www.w3.org/2000/svg">
<g clip-path="url(#clip0_43_1749)">
<path d="M12 24C18.6274 24 24 18.6274 24 12C24 5.37258 18.6274 0 12 0C5.37258 0 0 5.37258 0 12C0 18.6274 5.37258 24 12 24Z" fill="#F0F0F0"/>
<path d="M7.30437 7.82611H23.2536C21.5581 3.2565 17.1596 0 12 0C8.68625 0 5.68657 1.34339 3.51514 3.51511L7.30437 7.82611Z" fill="black"/>
<path d="M7.30437 16.1739H23.2536C21.5581 20.7435 17.1596 24 12 24C8.68625 24 5.68657 22.6566 3.51514 20.4849L7.30437 16.1739Z" fill="#6DA544"/>
<path d="M3.51471 3.51468C-1.17157 8.20096 -1.17157 15.799 3.51471 20.4853C5.45126 18.5488 7.31374 16.6863 12 12L3.51471 3.51468Z" fill="#D80027"/>
<path d="M4.76274 9.39133L5.42129 10.7685L6.90858 10.4247L6.24249 11.7982L7.43851 12.7467L5.94943 13.0823L5.95355 14.6087L4.76274 13.6537L3.57188 14.6087L3.57605 13.0823L2.08698 12.7467L3.28294 11.7982L2.61694 10.4247L4.10415 10.7685L4.76274 9.39133Z" fill="#F0F0F0"/>
</g>
<defs>
<clipPath id="clip0_43_1749">
<rect width="24" height="24" fill="white"/>
</clipPath>
</defs>
</svg>
