<svg width="24" height="24" viewBox="0 0 24 24" fill="none" xmlns="http://www.w3.org/2000/svg">
<g clip-path="url(#clip0_43_1854)">
<path d="M24 12C24 18.6274 18.6274 24 12 24C5.37262 24 0 18.6274 0 12C0.521719 12 12 10.4348 12 10.4348L24 12Z" fill="#D80027"/>
<path d="M0 12C0 5.37262 5.37262 0 12 0C18.6274 0 24 5.37262 24 12" fill="#0052B4"/>
<path d="M8.8695 8.34782C8.8695 7.4834 8.16872 6.78262 7.3043 6.78262C6.90328 6.78262 6.5378 6.93355 6.26081 7.18148V6.26085H6.78253V5.21737H6.26081V4.69565H5.21733V5.21737H4.69561V6.26085H5.21733V7.18148C4.94035 6.93355 4.57486 6.78262 4.17385 6.78262C3.30942 6.78262 2.60864 7.4834 2.60864 8.34782C2.60864 8.81127 2.81025 9.22752 3.13036 9.51416V10.4348H8.34774V9.51416C8.66794 9.22752 8.8695 8.81127 8.8695 8.34782Z" fill="#FFDA44"/>
</g>
<defs>
<clipPath id="clip0_43_1854">
<rect width="24" height="24" fill="white"/>
</clipPath>
</defs>
</svg>
