<svg width="24" height="24" viewBox="0 0 24 24" fill="none" xmlns="http://www.w3.org/2000/svg">
<g clip-path="url(#clip0_43_1847)">
<path d="M1.19072 6.78262C0.427875 8.36025 0 10.1301 0 12C0 13.8699 0.427875 15.6397 1.19072 17.2174L12 18.2609L22.8093 17.2174C23.5721 15.6397 24 13.8699 24 12C24 10.1301 23.5721 8.36025 22.8093 6.78262L12 5.73914L1.19072 6.78262Z" fill="black"/>
<path d="M1.19116 17.2174C3.13207 21.2313 7.24249 24 12 24C16.7575 24 20.868 21.2313 22.8089 17.2174H1.19116Z" fill="#496E2D"/>
<path d="M1.19116 6.78263H22.8089C20.868 2.76867 16.7575 0 12 0C7.24249 0 3.13207 2.76867 1.19116 6.78263Z" fill="#D80027"/>
<path d="M14.7932 9.80557L15.7777 11.1624L17.3723 10.6453L16.3861 12.001L17.3706 13.3577L15.7767 12.8387L14.7905 14.1943L14.7915 12.518L13.1975 11.999L14.7921 11.482L14.7932 9.80557Z" fill="#F0F0F0"/>
<path d="M12.106 15.3913C10.2331 15.3913 8.71473 13.8729 8.71473 12C8.71473 10.127 10.2331 8.60867 12.106 8.60867C12.69 8.60867 13.2395 8.75633 13.7192 9.0163C12.9666 8.28032 11.9374 7.82605 10.8017 7.82605C8.49648 7.82605 6.62781 9.69477 6.62781 11.9999C6.62781 14.3051 8.49653 16.1738 10.8017 16.1738C11.9375 16.1738 12.9667 15.7196 13.7192 14.9836C13.2395 15.2436 12.6901 15.3913 12.106 15.3913Z" fill="#F0F0F0"/>
</g>
<defs>
<clipPath id="clip0_43_1847">
<rect width="24" height="24" fill="white"/>
</clipPath>
</defs>
</svg>
