<svg width="24" height="24" viewBox="0 0 24 24" fill="none" xmlns="http://www.w3.org/2000/svg">
<g clip-path="url(#clip0_43_2020)">
<path d="M12 24C18.6274 24 24 18.6274 24 12C24 5.37258 18.6274 0 12 0C5.37258 0 0 5.37258 0 12C0 18.6274 5.37258 24 12 24Z" fill="#D80027"/>
<path d="M19.0916 9.84797H13.6741L12 4.69566L10.3259 9.84797H4.90839L9.29125 13.0323L7.61711 18.1847L12 15.0004L16.3829 18.1848L14.7088 13.0323L19.0916 9.84797ZM10.5179 12.6337L11.084 10.8914H12.9159L13.4821 12.6337V12.6337L12 13.7105L10.518 12.6337L10.5179 12.6337ZM12.5769 9.84797H11.4231L12 8.07234L12.5769 9.84797ZM14.3697 11.9888L14.0131 10.8915H15.8801L14.3697 11.9888ZM9.98687 10.8915L9.63029 11.9888L8.11984 10.8915H9.98687ZM9.60193 15.4529L10.1789 13.6773L11.1124 14.3555L9.60193 15.4529ZM12.8876 14.3555L13.8212 13.6773L14.3981 15.4529L12.8876 14.3555Z" fill="#FFDA44"/>
</g>
<defs>
<clipPath id="clip0_43_2020">
<rect width="24" height="24" fill="white"/>
</clipPath>
</defs>
</svg>
