<svg width="24" height="24" viewBox="0 0 24 24" fill="none" xmlns="http://www.w3.org/2000/svg">
<g clip-path="url(#clip0_43_1917)">
<path d="M12 24C18.6274 24 24 18.6274 24 12C24 9.98611 23.5031 8.08847 22.6265 6.42188L11.9859 12.0141L17.5781 1.37353C15.9115 0.496875 14.0139 0 12 0C5.37262 0 0 5.37262 0 12C0 15.3137 1.34316 18.3137 3.51469 20.4853C5.68627 22.6569 8.68627 24 12 24Z" fill="#0052B4"/>
<path d="M22.6138 6.43495C22.0645 5.38945 21.3504 4.40784 20.4713 3.52875C19.5922 2.64965 18.6107 1.93551 17.5651 1.38628L3.50067 20.4993L22.6138 6.43495Z" fill="#F0F0F0"/>
<path d="M3.50067 20.4993L22.6138 6.43495C22.0645 5.38945 21.3504 4.40784 20.4713 3.52875L3.50067 20.4993Z" fill="#FF9811"/>
<path d="M10.4207 7.03697L8.95522 7.72631L9.73564 9.14569L8.14423 8.84123L7.94258 10.4489L6.83408 9.26644L5.72558 10.4489L5.52401 8.84123L3.93261 9.14559L4.71294 7.72626L3.24744 7.03697L4.71298 6.34758L3.93261 4.9283L5.52392 5.23266L5.72562 3.62503L6.83408 4.80745L7.94258 3.62503L8.14423 5.23266L9.73569 4.9283L8.95526 6.34762L10.4207 7.03697Z" fill="#F0F0F0"/>
</g>
<defs>
<clipPath id="clip0_43_1917">
<rect width="24" height="24" fill="white"/>
</clipPath>
</defs>
</svg>
