<svg width="24" height="24" viewBox="0 0 24 24" fill="none" xmlns="http://www.w3.org/2000/svg">
<g clip-path="url(#clip0_43_2270)">
<path d="M12 24C18.6274 24 24 18.6274 24 12C24 5.37258 18.6274 0 12 0C5.37258 0 0 5.37258 0 12C0 18.6274 5.37258 24 12 24Z" fill="#FFDA44"/>
<path d="M13.8249 23.862C15.7766 23.5643 17.5732 22.7957 19.0963 21.6768L12 12L13.8249 23.862Z" fill="#D80027"/>
<path d="M10.175 0.137955C8.22335 0.435705 6.42681 1.20427 4.90356 2.32313L12 12L10.175 0.137955Z" fill="#D80027"/>
<path d="M4.90356 21.6768C6.42672 22.7957 8.22325 23.5643 10.1749 23.8621L12 12L4.90356 21.6768Z" fill="#D80027"/>
<path d="M2.32311 4.90359C1.20421 6.42684 0.435736 8.22333 0.137939 10.175L12 12L2.32311 4.90359Z" fill="#D80027"/>
<path d="M0.137939 13.8249C0.435689 15.7766 1.20425 17.5732 2.32316 19.0963L12 12L0.137939 13.8249Z" fill="#D80027"/>
<path d="M23.862 10.175C23.5642 8.22338 22.7957 6.42684 21.6768 4.90364L12 12L23.862 10.175Z" fill="#D80027"/>
<path d="M19.0963 2.32308C17.5731 1.20422 15.7766 0.435705 13.8249 0.137955L12 12L19.0963 2.32308Z" fill="#D80027"/>
<path d="M21.6769 19.0964C22.7958 17.5732 23.5643 15.7766 23.8621 13.825L12 12L21.6769 19.0964Z" fill="#D80027"/>
<path d="M12 16.1739C14.3052 16.1739 16.1739 14.3052 16.1739 12C16.1739 9.69483 14.3052 7.82611 12 7.82611C9.69483 7.82611 7.82611 9.69483 7.82611 12C7.82611 14.3052 9.69483 16.1739 12 16.1739Z" fill="#D80027"/>
<path d="M12 15.1305C13.7289 15.1305 15.1305 13.7289 15.1305 12C15.1305 10.2711 13.7289 8.86954 12 8.86954C10.2711 8.86954 8.86957 10.2711 8.86957 12C8.86957 13.7289 10.2711 15.1305 12 15.1305Z" fill="#FFDA44"/>
</g>
<defs>
<clipPath id="clip0_43_2270">
<rect width="24" height="24" fill="white"/>
</clipPath>
</defs>
</svg>
