<svg width="24" height="24" viewBox="0 0 24 24" fill="none" xmlns="http://www.w3.org/2000/svg">
<g clip-path="url(#clip0_43_2148)">
<path d="M12 24C18.6274 24 24 18.6274 24 12C24 5.37258 18.6274 0 12 0C5.37258 0 0 5.37258 0 12C0 18.6274 5.37258 24 12 24Z" fill="#338AF3"/>
<path d="M11.6217 19.5558C11.2982 19.5401 11.0305 19.3299 10.9257 19.0445C10.7405 19.286 10.4222 19.4076 10.1087 19.3268C9.79455 19.2459 9.57494 18.9861 9.52952 18.6845C9.29889 18.8837 8.96289 18.938 8.67231 18.7956C8.38117 18.6526 8.21842 18.3536 8.23511 18.0495C7.96956 18.1987 7.62939 18.1841 7.37322 17.9858C7.11756 17.7875 7.01791 17.4625 7.09511 17.1677C6.805 17.2605 6.47528 17.1781 6.26397 16.9324C6.05266 16.6872 6.02027 16.3485 6.15494 16.0757C5.85231 16.108 5.54556 15.9609 5.38797 15.6781C5.22986 15.3953 5.26642 15.0568 5.45369 14.8162C5.15055 14.787 4.87923 14.5808 4.7822 14.272C4.68466 13.9631 4.789 13.6386 5.02117 13.4408C4.73003 13.351 4.50672 13.0943 4.47386 12.7725C4.441 12.4506 4.60797 12.1548 4.87455 12.0076C4.60792 11.8615 4.43992 11.5658 4.47175 11.2443H4.47227C4.50409 10.9219 4.72741 10.6647 5.01798 10.5739C4.78581 10.3767 4.68044 10.0527 4.77695 9.74377C4.87347 9.43439 5.14422 9.22777 5.44741 9.19749C5.26009 8.95749 5.22255 8.61881 5.37958 8.3356C5.53661 8.0528 5.84341 7.90514 6.14655 7.93697C6.01089 7.66411 6.04272 7.32549 6.25352 7.07925C6.4638 6.83353 6.79352 6.75056 7.08414 6.84239C7.00586 6.54811 7.105 6.22256 7.36066 6.02381C7.6158 5.82497 7.95597 5.80983 8.22152 5.958C8.20431 5.65388 8.36655 5.35486 8.65717 5.21138C8.94728 5.06841 9.2838 5.12166 9.51489 5.32092C9.55923 5.01942 9.77889 4.75856 10.0924 4.67709C10.4055 4.59572 10.7238 4.71624 10.9095 4.95727C11.0143 4.67189 11.2815 4.46109 11.605 4.44492C11.9279 4.42828 12.2148 4.60978 12.3484 4.88274C12.5081 4.62394 12.8117 4.47056 13.1316 4.51908C13.4519 4.56708 13.6977 4.80286 13.7739 5.0977C13.9825 4.87538 14.3112 4.78725 14.6149 4.89886C14.9191 5.01103 15.1121 5.29172 15.1267 5.59641C15.3756 5.42114 15.7157 5.40075 15.9907 5.57189C16.2657 5.74252 16.3977 6.05606 16.3507 6.35709C16.6299 6.23555 16.9669 6.28406 17.2017 6.5063C17.4365 6.72909 17.5032 7.06247 17.3968 7.34784C17.6947 7.2847 18.0151 7.3995 18.2008 7.66505C18.3865 7.93008 18.385 8.27025 18.2238 8.52853C18.528 8.52642 18.8186 8.70385 18.9475 9.0007C19.0758 9.29808 19.0053 9.6315 18.7951 9.85219C19.0941 9.91167 19.3429 10.1438 19.4087 10.461C19.4739 10.7783 19.3377 11.0897 19.0878 11.2635C19.3675 11.382 19.5647 11.659 19.5652 11.9825V11.9929V11.9997C19.5652 12.3232 19.369 12.6008 19.0893 12.7202C19.3398 12.893 19.477 13.2044 19.4118 13.5216C19.3471 13.8388 19.0988 14.0715 18.7998 14.1321C19.0106 14.3522 19.0821 14.6851 18.9543 14.983C18.8264 15.2804 18.5358 15.4583 18.2311 15.4568C18.3928 15.715 18.3955 16.0552 18.2102 16.3208C18.025 16.5864 17.7052 16.7022 17.4073 16.6395C17.5142 16.9244 17.448 17.2583 17.2137 17.4817C16.9789 17.7045 16.6424 17.7535 16.3633 17.633C16.4108 17.9335 16.2793 18.2476 16.0048 18.4193C15.7304 18.5909 15.3902 18.571 15.1408 18.3963C15.1267 18.701 14.9347 18.9822 14.6311 19.0949C14.3275 19.2076 14.6311 19.0949 14.6306 19.0949C14.3269 19.2071 13.9983 19.1195 13.789 18.8978C13.7139 19.1931 13.4687 19.4294 13.1484 19.4784C12.8285 19.527 12.5244 19.3746 12.3642 19.1158C12.2369 19.3783 11.9677 19.5567 11.6609 19.5567C11.6478 19.5569 11.6348 19.5563 11.6217 19.5558Z" fill="#F3F3F3"/>
<path d="M12 17.2174C14.8814 17.2174 17.2173 14.8815 17.2173 12C17.2173 9.11852 14.8814 6.78263 12 6.78263C9.11849 6.78263 6.78259 9.11852 6.78259 12C6.78259 14.8815 9.11849 17.2174 12 17.2174Z" fill="#338AF3"/>
<path d="M13.142 10.229C13.3983 10.0389 13.5652 9.735 13.5652 9.39131V8.86959C13.5652 8.29327 13.0981 7.82611 12.5217 7.82611H11.4783C10.902 7.82611 10.4348 8.29327 10.4348 8.86959V9.39131C10.4348 9.735 10.6017 10.0389 10.858 10.229L9.91309 19.8261C9.91309 19.8261 10.4348 20.3479 12.0001 20.3479C13.5653 20.3479 14.087 19.8261 14.087 19.8261L13.142 10.229Z" fill="#BDBCC1"/>
<path d="M12 7.82611L12.9065 10.616H15.8401L13.4669 12.3405L14.3733 15.1305L12 13.4062L9.62663 15.1305L10.5332 12.3405L8.15991 10.616H11.0935L12 7.82611Z" fill="#F0F0F0"/>
</g>
<defs>
<clipPath id="clip0_43_2148">
<rect width="24" height="24" fill="white"/>
</clipPath>
</defs>
</svg>
