<svg width="24" height="24" viewBox="0 0 24 24" fill="none" xmlns="http://www.w3.org/2000/svg">
<g clip-path="url(#clip0_43_1963)">
<path d="M12 24C18.6274 24 24 18.6274 24 12C24 5.37258 18.6274 0 12 0C5.37258 0 0 5.37258 0 12C0 18.6274 5.37258 24 12 24Z" fill="#F0F0F0"/>
<path d="M24 12C24 7.24247 21.2313 3.13172 17.2173 1.19072V22.8092C21.2313 20.8683 24 16.7575 24 12Z" fill="#D80027"/>
<path d="M0 12C0 16.7575 2.76867 20.8683 6.78263 22.8093V1.19072C2.76867 3.13172 0 7.24247 0 12Z" fill="#6DA544"/>
<path d="M8.86957 12C8.86957 13.7289 10.2711 15.1304 12 15.1304C13.7289 15.1304 15.1305 13.7289 15.1305 12V10.9565H8.86957V12Z" fill="#6DA544"/>
<path d="M16.1739 9.91304H13.0434C13.0434 9.33676 12.5762 8.86955 11.9999 8.86955C11.4236 8.86955 10.9564 9.33676 10.9564 9.91304H7.82599C7.82599 10.4894 8.32797 10.9565 8.90421 10.9565H8.86947C8.86947 11.5328 9.33663 12 9.91296 12C9.91296 12.5763 10.3801 13.0435 10.9564 13.0435H13.0434C13.6197 13.0435 14.0869 12.5763 14.0869 12C14.6632 12 15.1304 11.5328 15.1304 10.9565H15.0956C15.6719 10.9565 16.1739 10.4894 16.1739 9.91304Z" fill="#FF9811"/>
</g>
<defs>
<clipPath id="clip0_43_1963">
<rect width="24" height="24" fill="white"/>
</clipPath>
</defs>
</svg>
