<svg width="24" height="24" viewBox="0 0 24 24" fill="none" xmlns="http://www.w3.org/2000/svg">
<g clip-path="url(#clip0_43_2037)">
<path d="M12 24C18.6274 24 24 18.6274 24 12C24 5.37258 18.6274 0 12 0C5.37258 0 0 5.37258 0 12C0 18.6274 5.37258 24 12 24Z" fill="#F0F0F0"/>
<path d="M3.51475 20.4853C4.01814 20.9887 4.55524 21.4376 5.11863 21.8329L21.8328 5.11866C21.4376 4.55527 20.9887 4.01817 20.4852 3.51478C19.9818 3.01139 19.4448 2.56252 18.8814 2.16727L2.16724 18.8815C2.56244 19.4448 3.01136 19.9819 3.51475 20.4853Z" fill="#A2001D"/>
<path d="M3.51471 3.51469C-0.271105 7.3005 -0.997855 12.9861 1.33291 17.5021L17.5021 1.33298C12.986 -0.997783 7.30043 -0.27094 3.51471 3.51469Z" fill="#0052B4"/>
<path d="M20.4853 20.4853C24.271 16.6996 24.9978 11.014 22.6671 6.49791L6.49792 22.6671C11.0139 24.9978 16.6995 24.2711 20.4853 20.4853Z" fill="#496E2D"/>
<path d="M9.91301 6.78263L8.56836 7.41511L9.28442 8.71739L7.82431 8.43811L7.63925 9.91304L6.62225 8.82821L5.6052 9.91304L5.42023 8.43811L3.96008 8.71735L4.67609 7.41507L3.33148 6.78263L4.67614 6.1501L3.96008 4.84791L5.42019 5.12719L5.60525 3.65218L6.62225 4.73705L7.63929 3.65218L7.82431 5.12719L9.28442 4.84791L8.56845 6.15014L9.91301 6.78263Z" fill="#FFDA44"/>
</g>
<defs>
<clipPath id="clip0_43_2037">
<rect width="24" height="24" fill="white"/>
</clipPath>
</defs>
</svg>
