<svg width="24" height="24" viewBox="0 0 24 24" fill="none" xmlns="http://www.w3.org/2000/svg">
<g clip-path="url(#clip0_43_2090)">
<path d="M12 24C18.6274 24 24 18.6274 24 12C24 5.37258 18.6274 0 12 0C5.37258 0 0 5.37258 0 12C0 18.6274 5.37258 24 12 24Z" fill="#F0F0F0"/>
<path d="M12 0C7.24248 0 3.13173 2.76867 1.19073 6.78263H22.8092C20.8683 2.76867 16.7575 0 12 0Z" fill="#338AF3"/>
<path d="M12 24C16.7575 24 20.8683 21.2313 22.8093 17.2174H1.19073C3.13173 21.2313 7.24248 24 12 24Z" fill="#338AF3"/>
<path d="M12 8.34782C9.98298 8.34782 8.34784 9.98296 8.34784 12C8.34784 14.017 9.98298 15.6522 12 15.6522C14.017 15.6522 15.6522 14.017 15.6522 12C15.6522 9.98296 14.017 8.34782 12 8.34782ZM12 14.087C10.8474 14.087 9.91304 13.1527 9.91304 12C9.91304 10.8473 10.8474 9.91303 12 9.91303C13.1526 9.91303 14.087 10.8473 14.087 12C14.087 13.1527 13.1526 14.087 12 14.087Z" fill="#FFDA44"/>
<path d="M13.8074 12.5217L12 12L10.1926 12.5217L9.59015 13.5652H14.4098L13.8074 12.5217Z" fill="#0052B4"/>
<path d="M12 9.39131L10.7951 11.4783L12 12L13.2049 11.4783L12 9.39131Z" fill="#338AF3"/>
<path d="M10.1926 12.5217H13.8074L13.2049 11.4783H10.7951L10.1926 12.5217Z" fill="#6DA544"/>
</g>
<defs>
<clipPath id="clip0_43_2090">
<rect width="24" height="24" fill="white"/>
</clipPath>
</defs>
</svg>
