<svg width="24" height="24" viewBox="0 0 24 24" fill="none" xmlns="http://www.w3.org/2000/svg">
<g clip-path="url(#clip0_43_2141)">
<path d="M12 24C18.6274 24 24 18.6274 24 12C24 5.37258 18.6274 0 12 0C5.37258 0 0 5.37258 0 12C0 18.6274 5.37258 24 12 24Z" fill="#F0F0F0"/>
<path d="M2.90339 4.17389C2.48231 4.66294 2.10004 5.1862 1.76123 5.73909H22.2387C21.8999 5.1862 21.5176 4.66289 21.0965 4.17389H2.90339Z" fill="#D80027"/>
<path d="M2.9034 19.8261H21.0966C21.5176 19.3371 21.8999 18.8138 22.2387 18.2609H1.76129C2.10006 18.8138 2.48232 19.3371 2.9034 19.8261Z" fill="#D80027"/>
<path d="M10.4644 9.8056L11.449 11.1624L13.0435 10.6454L12.0574 12.001L13.0419 13.3577L11.4479 12.8387L10.4618 14.1944L10.4628 12.5181L8.86877 11.9991L10.4634 11.482L10.4644 9.8056Z" fill="#D80027"/>
<path d="M7.77725 15.3913C5.90431 15.3913 4.38593 13.8729 4.38593 12C4.38593 10.1271 5.90431 8.60869 7.77725 8.60869C8.36121 8.60869 8.91073 8.75635 9.39045 9.01631C8.63787 8.28033 7.60864 7.82606 6.4729 7.82606C4.16768 7.82606 2.29901 9.69478 2.29901 12C2.29901 14.3051 4.16773 16.1738 6.4729 16.1738C7.60864 16.1738 8.63787 15.7196 9.39045 14.9836C8.91073 15.2437 8.36126 15.3913 7.77725 15.3913Z" fill="#D80027"/>
</g>
<defs>
<clipPath id="clip0_43_2141">
<rect width="24" height="24" fill="white"/>
</clipPath>
</defs>
</svg>
