<svg width="24" height="24" viewBox="0 0 24 24" fill="none" xmlns="http://www.w3.org/2000/svg">
<g clip-path="url(#clip0_43_2264)">
<path d="M12 24C18.6274 24 24 18.6274 24 12C24 5.37258 18.6274 0 12 0C5.37258 0 0 5.37258 0 12C0 18.6274 5.37258 24 12 24Z" fill="#F0F0F0"/>
<path d="M24 12C24 5.37262 18.6274 0 12 0C9.65252 0 7.4628 0.674766 5.61321 1.83989L8.24351 2.95744L4.69568 4.46484L8.24351 5.9722L4.69568 7.47952L8.24351 8.98678L4.69568 10.4939L8.24351 12.0008L4.69568 13.5082L8.24351 15.0154L4.69568 16.5225L8.24351 18.0297L4.69568 19.537L8.24351 21.0441L5.61438 22.161C7.46374 23.3256 9.65299 24 12 24C18.6274 24 24 18.6274 24 12Z" fill="#751A46"/>
</g>
<defs>
<clipPath id="clip0_43_2264">
<rect width="24" height="24" fill="white"/>
</clipPath>
</defs>
</svg>
