<svg width="24" height="24" viewBox="0 0 24 24" fill="none" xmlns="http://www.w3.org/2000/svg">
<g clip-path="url(#clip0_43_2300)">
<path d="M12 24C18.6274 24 24 18.6274 24 12C24 5.37258 18.6274 0 12 0C5.37258 0 0 5.37258 0 12C0 18.6274 5.37258 24 12 24Z" fill="#F0F0F0"/>
<path d="M12 -8.71073e-05C11.9888 -0.00852461 -0.00318686 11.9968 6.35322e-07 11.9999C6.35322e-07 5.37254 5.37262 -8.71073e-05 12 -8.71073e-05Z" fill="#D80027"/>
<path d="M12 -3.18396e-06C12.0112 -0.00844068 24.0032 11.9968 24 12C24 5.37262 18.6274 -3.18396e-06 12 -3.18396e-06Z" fill="#D80027"/>
<path d="M12 24C11.9888 24.0084 -0.00318686 12.0032 6.35322e-07 12C6.35322e-07 18.6274 5.37262 24 12 24Z" fill="#0052B4"/>
<path d="M12 24C12.0112 24.0084 24.0032 12.0032 24 12C24 18.6274 18.6274 24 12 24Z" fill="#0052B4"/>
<path d="M12 6.26086L13.295 10.2466H17.4859L14.0954 12.7099L15.3904 16.6957L12 14.2323L8.60951 16.6957L9.90457 12.7099L6.5141 10.2466H10.7049L12 6.26086Z" fill="#FFDA44"/>
</g>
<defs>
<clipPath id="clip0_43_2300">
<rect width="24" height="24" fill="white"/>
</clipPath>
</defs>
</svg>
