<svg width="24" height="24" viewBox="0 0 24 24" fill="none" xmlns="http://www.w3.org/2000/svg">
<g clip-path="url(#clip0_43_2379)">
<path d="M12 24C18.6274 24 24 18.6274 24 12C24 5.37258 18.6274 0 12 0C5.37258 0 0 5.37258 0 12C0 18.6274 5.37258 24 12 24Z" fill="#F0F0F0"/>
<path d="M12 0C5.37262 0 0 5.37262 0 12C0 13.4678 0.264047 14.874 0.746391 16.1739H23.2537C23.736 14.874 24 13.4678 24 12C24 5.37262 18.6274 0 12 0Z" fill="#0052B4"/>
<path d="M11.9999 0C6.84037 0 2.44185 3.2565 0.746338 7.82611H23.2536C21.558 3.2565 17.1595 0 11.9999 0Z" fill="#D80027"/>
<path d="M3.10303 6.78262V12.7688C3.10303 16.174 7.55151 17.2174 7.55151 17.2174C7.55151 17.2174 11.9999 16.174 11.9999 12.7688V6.78262H3.10303Z" fill="#D80027"/>
<path d="M4.94287 7.82612H10.1603V5.73915L9.11681 6.26087L7.55161 4.69566L5.98636 6.26087L4.94287 5.73915V7.82612Z" fill="#FFDA44"/>
<path d="M10.9566 13.6023L7.56526 10.211L4.17395 13.6023L5.28072 14.7091L7.56526 12.4246L9.84981 14.7091L10.9566 13.6023Z" fill="#FFDA44"/>
<path d="M10.9566 10.4348H9.37426C9.46323 10.2812 9.51498 10.1034 9.51498 9.91317C9.51498 9.3368 9.04778 8.86969 8.4715 8.86969C8.07329 8.86969 7.7275 9.09272 7.55158 9.42061C7.37565 9.09277 7.02986 8.86969 6.63165 8.86969C6.05537 8.86969 5.58817 9.3368 5.58817 9.91317C5.58817 10.1034 5.63992 10.2813 5.72889 10.4348H4.17395C4.17395 11.0111 4.67593 11.4783 5.25217 11.4783H5.21743C5.21743 12.0546 5.68459 12.5218 6.26092 12.5218C6.26092 13.032 6.62739 13.456 7.11137 13.5467L6.28918 15.4031C6.68322 15.5633 7.11381 15.6522 7.56531 15.6522C8.01681 15.6522 8.4474 15.5633 8.84143 15.4031L8.01925 13.5467C8.50323 13.4561 8.8697 13.0321 8.8697 12.5218C9.44603 12.5218 9.91318 12.0546 9.91318 11.4783H9.87845C10.4546 11.4783 10.9566 11.0111 10.9566 10.4348Z" fill="#F0F0F0"/>
</g>
<defs>
<clipPath id="clip0_43_2379">
<rect width="24" height="24" fill="white"/>
</clipPath>
</defs>
</svg>
