<svg width="24" height="24" viewBox="0 0 24 24" fill="none" xmlns="http://www.w3.org/2000/svg">
<g clip-path="url(#clip0_43_2399)">
<path d="M12 24C18.6274 24 24 18.6274 24 12C24 5.37258 18.6274 0 12 0C5.37258 0 0 5.37258 0 12C0 18.6274 5.37258 24 12 24Z" fill="#F0F0F0"/>
<path d="M0 12C0 5.37263 5.37262 0 12 0C18.6274 0 24 5.37263 24 12" fill="#D80027"/>
<path d="M7.30439 6.26081C7.30439 4.51247 8.53312 3.05194 10.1739 2.69358C9.92175 2.63855 9.66014 2.60869 9.39131 2.60869C7.37423 2.60869 5.73914 4.24378 5.73914 6.26086C5.73914 8.27794 7.37423 9.91303 9.39131 9.91303C9.66004 9.91303 9.9217 9.88317 10.1739 9.82809C8.53312 9.46974 7.30439 8.0092 7.30439 6.26081Z" fill="#F0F0F0"/>
<path d="M12 2.86955L12.259 3.66666H13.0972L12.4191 4.15937L12.6781 4.95647L12 4.46387L11.3219 4.95647L11.5809 4.15937L10.9028 3.66666H11.741L12 2.86955Z" fill="#F0F0F0"/>
<path d="M9.96688 4.43475L10.2259 5.23191H11.064L10.3859 5.72457L10.645 6.52168L9.96688 6.02907L9.28869 6.52168L9.54777 5.72457L8.86963 5.23191H9.7078L9.96688 4.43475Z" fill="#F0F0F0"/>
<path d="M14.0333 4.43475L14.2924 5.23191H15.1305L14.4524 5.72457L14.7115 6.52168L14.0333 6.02907L13.3552 6.52168L13.6143 5.72457L12.9362 5.23191H13.7743L14.0333 4.43475Z" fill="#F0F0F0"/>
<path d="M13.2507 6.78258L13.5098 7.57973H14.3479L13.6698 8.07239L13.9288 8.8695L13.2507 8.37689L12.5726 8.8695L12.8317 8.07239L12.1536 7.57973H12.9916L13.2507 6.78258Z" fill="#F0F0F0"/>
<path d="M10.7494 6.78258L11.0084 7.57973H11.8466L11.1685 8.07239L11.4276 8.8695L10.7494 8.37689L10.0713 8.8695L10.3303 8.07239L9.65222 7.57973H10.4904L10.7494 6.78258Z" fill="#F0F0F0"/>
</g>
<defs>
<clipPath id="clip0_43_2399">
<rect width="24" height="24" fill="white"/>
</clipPath>
</defs>
</svg>
