<svg width="24" height="24" viewBox="0 0 24 24" fill="none" xmlns="http://www.w3.org/2000/svg">
<g clip-path="url(#clip0_43_2460)">
<path d="M23.2536 16.1739C23.736 14.8739 24 13.4678 24 12C24 10.5322 23.736 9.12609 23.2536 7.82611L12 6.78262L0.746391 7.82611C0.264047 9.12609 0 10.5322 0 12C0 13.4678 0.264047 14.8739 0.746391 16.1739L12 17.2174L23.2536 16.1739Z" fill="#F0F0F0"/>
<path d="M12 24C17.1595 24 21.5581 20.7435 23.2536 16.1739H0.746338C2.4419 20.7435 6.84037 24 12 24Z" fill="#D80027"/>
<path d="M12 0C6.84037 0 2.4419 3.2565 0.746338 7.82611H23.2536C21.5581 3.2565 17.1595 0 12 0Z" fill="#496E2D"/>
<path d="M12 9.39131L12.6475 11.3841H14.743L13.0477 12.6158L13.6953 14.6087L12 13.3771L10.3047 14.6087L10.9523 12.6158L9.25708 11.3841H11.3525L12 9.39131Z" fill="black"/>
<path d="M15.5653 2.34782V4.78256C15.5653 5.16623 15.2532 5.47823 14.8696 5.47823V6.52171C15.8286 6.52171 16.6087 5.74157 16.6087 4.78256V2.34782H15.5653Z" fill="#F0F0F0"/>
<path d="M8.08703 4.78256C8.08703 5.16623 7.77498 5.47823 7.39136 5.47823V6.52171C8.35037 6.52171 9.13051 5.74157 9.13051 4.78256V2.34782H8.08703V4.78256Z" fill="#F0F0F0"/>
<path d="M13.9999 2.34782H15.0434V4.78256H13.9999V2.34782Z" fill="#F0F0F0"/>
<path d="M12.4349 3.73907C12.4349 3.83498 12.3568 3.91303 12.261 3.91303C12.165 3.91303 12.087 3.83498 12.087 3.73907V2.34782H11.0435V3.73907C11.0435 3.83498 10.9655 3.91303 10.8696 3.91303C10.7737 3.91303 10.6957 3.83498 10.6957 3.73907V2.34782H9.65222V3.73907C9.65222 4.41042 10.1983 4.95651 10.8696 4.95651C11.1281 4.95651 11.3679 4.87528 11.5652 4.73732C11.7626 4.87528 12.0024 4.95651 12.2609 4.95651C12.313 4.95651 12.3642 4.95286 12.4145 4.94643C12.3405 5.25107 12.0662 5.47823 11.7392 5.47823V6.52171C12.6982 6.52171 13.4783 5.74157 13.4783 4.78256V3.73907V2.34782H12.4348L12.4349 3.73907Z" fill="#F0F0F0"/>
<path d="M9.65222 5.47827H11.2174V6.52176H9.65222V5.47827Z" fill="#F0F0F0"/>
</g>
<defs>
<clipPath id="clip0_43_2460">
<rect width="24" height="24" fill="white"/>
</clipPath>
</defs>
</svg>
