<svg width="24" height="24" viewBox="0 0 24 24" fill="none" xmlns="http://www.w3.org/2000/svg">
<g clip-path="url(#clip0_43_2334)">
<path d="M12 24C18.6274 24 24 18.6274 24 12C24 5.37258 18.6274 0 12 0C5.37258 0 0 5.37258 0 12C0 18.6274 5.37258 24 12 24Z" fill="#FFDA44"/>
<path d="M7.30437 7.82611H23.2536C21.5581 3.2565 17.1596 0 12 0C8.68625 0 5.68657 1.34339 3.51514 3.51511L7.30437 7.82611Z" fill="#6DA544"/>
<path d="M7.30437 16.1739H23.2536C21.5581 20.7435 17.1596 24 12 24C8.68625 24 5.68657 22.6566 3.51514 20.4849L7.30437 16.1739Z" fill="#6DA544"/>
<path d="M3.51471 3.51469C-1.17157 8.20097 -1.17157 15.799 3.51471 20.4853C5.45126 18.5488 7.31374 16.6863 12 12L3.51471 3.51469Z" fill="#D80027"/>
<path d="M15.2378 9.91302L15.7558 11.5073H17.4322L16.076 12.4927L16.594 14.087L15.2378 13.1016L13.8816 14.087L14.3996 12.4927L13.0435 11.5073H14.7198L15.2378 9.91302Z" fill="black"/>
<path d="M20.4553 9.91302L20.9732 11.5073H22.6496L21.2934 12.4927L21.8114 14.087L20.4553 13.1016L19.099 14.087L19.6171 12.4927L18.2609 11.5073H19.9372L20.4553 9.91302Z" fill="black"/>
</g>
<defs>
<clipPath id="clip0_43_2334">
<rect width="24" height="24" fill="white"/>
</clipPath>
</defs>
</svg>
