<svg width="24" height="24" viewBox="0 0 24 24" fill="none" xmlns="http://www.w3.org/2000/svg">
<g clip-path="url(#clip0_43_2389)">
<path d="M12 24C18.6274 24 24 18.6274 24 12C24 5.37258 18.6274 0 12 0C5.37258 0 0 5.37258 0 12C0 18.6274 5.37258 24 12 24Z" fill="#F0F0F0"/>
<path d="M20.1004 3.14705C17.9658 1.19273 15.1223 0 12 0C11.4889 0 10.9852 0.0322031 10.4909 0.0942187L4.69568 6.78263L0.379761 15.0061C0.658573 16.0871 1.08485 17.1087 1.63484 18.0491L12 12L20.1004 3.14705Z" fill="#FFDA44"/>
<path d="M21.9905 18.6487L5.20142 21.8887C7.13403 23.2199 9.47581 24 12 24C16.1682 24 19.8394 21.8745 21.9905 18.6487Z" fill="#6DA544"/>
<path d="M20.1021 3.14864L1.6416 18.0607C2.12446 18.8842 2.70257 19.6451 3.36102 20.328L23.9999 12C23.9999 8.49567 22.4976 5.34248 20.1021 3.14864Z" fill="#D80027"/>
<path d="M0 12C0 13.0381 0.131906 14.0454 0.379734 15.0061L10.4909 0.094223C4.57584 0.836442 0 5.88375 0 12Z" fill="#0052B4"/>
</g>
<defs>
<clipPath id="clip0_43_2389">
<rect width="24" height="24" fill="white"/>
</clipPath>
</defs>
</svg>
