<svg width="24" height="24" viewBox="0 0 24 24" fill="none" xmlns="http://www.w3.org/2000/svg">
<g clip-path="url(#clip0_43_1418)">
<path d="M12 24C18.6274 24 24 18.6274 24 12C24 5.37258 18.6274 0 12 0C5.37258 0 0 5.37258 0 12C0 18.6274 5.37258 24 12 24Z" fill="#FFDA44"/>
<path d="M12 0C9.06203 0 6.37113 1.05642 4.2851 2.80941L17.2174 12L4.2851 21.1906C6.37113 22.9436 9.06203 24 12 24C18.6274 24 24 18.6274 24 12C24 5.37262 18.6274 0 12 0Z" fill="#D80027"/>
<path d="M3.51471 3.51469C-1.17157 8.20097 -1.17157 15.799 3.51471 20.4853C5.45126 18.5488 7.31374 16.6863 12 12L3.51471 3.51469Z" fill="black"/>
<path d="M3.32714 9.25101L5.15339 10.9794L7.36158 9.77639L6.28228 12.0475L8.10858 13.7759L5.61511 13.4512L4.53567 15.7222L4.0741 13.2504L1.58063 12.9255L3.78872 11.7227L3.32714 9.25101Z" fill="#F0F0F0"/>
</g>
<defs>
<clipPath id="clip0_43_1418">
<rect width="24" height="24" fill="white"/>
</clipPath>
</defs>
</svg>
