<svg width="24" height="24" viewBox="0 0 24 24" fill="none" xmlns="http://www.w3.org/2000/svg">
<g clip-path="url(#clip0_43_2794)">
<path d="M0.566625 8.34788C0.199031 9.4995 -4.68667e-05 10.7264 8.276e-09 11.9999C-4.68667e-05 13.2735 0.199078 14.5005 0.566672 15.6521L12 16.1739L23.4333 15.6522C23.8009 14.5005 24 13.2735 24 12C24 10.7264 23.8009 9.4995 23.4333 8.34783L12 7.82611L0.566625 8.34788Z" fill="#F0F0F0"/>
<path d="M23.4333 8.34786L12 7.82614L0.566622 8.34786C0.457685 8.6893 0.363888 9.03744 0.285278 9.39134H23.7145C23.636 9.03739 23.5423 8.6892 23.4333 8.34786Z" fill="#D80027"/>
<path d="M0.2854 14.6086C0.363916 14.9625 0.457713 15.3106 0.56665 15.6521L0.567775 15.6521L11.9999 16.1738L23.4333 15.6521C23.5422 15.3107 23.636 14.9625 23.7146 14.6086H0.2854Z" fill="#D80027"/>
<path d="M11.9999 24C17.3538 24 21.888 20.4936 23.4333 15.6521H0.56665C2.11188 20.4935 6.6462 24 11.9999 24Z" fill="#6DA544"/>
<path d="M12 6.10356e-05C6.6462 0.000107911 2.11198 3.5065 0.56665 8.34789L23.4333 8.34794C21.8881 3.50645 17.3539 1.41606e-05 12 6.10356e-05Z" fill="#338AF3"/>
<path d="M5.48376 4.95655C5.48376 3.83262 6.27365 2.89372 7.32848 2.66337C7.16638 2.62794 6.99815 2.60876 6.82537 2.60876C5.52871 2.60876 4.47754 3.65989 4.47754 4.95659C4.47754 6.2533 5.52862 7.30442 6.82537 7.30442C6.99815 7.30442 7.16634 7.2852 7.32848 7.24981C6.2737 7.01937 5.48376 6.08047 5.48376 4.95655Z" fill="#F0F0F0"/>
<path d="M8.71616 6.02374L8.87507 6.51288H9.38938L8.97332 6.81523L9.13222 7.30437L8.71616 7.00207L8.3 7.30437L8.45896 6.81523L8.04285 6.51288H8.55716L8.71616 6.02374Z" fill="#F0F0F0"/>
<path d="M10.3577 6.02374L10.5166 6.51288H11.0309L10.6148 6.81523L10.7738 7.30437L10.3577 7.00207L9.94156 7.30437L10.1005 6.81523L9.68445 6.51288H10.1987L10.3577 6.02374Z" fill="#F0F0F0"/>
<path d="M11.9994 6.02374L12.1583 6.51288H12.6726L12.2565 6.81523L12.4154 7.30437L11.9994 7.00207L11.5832 7.30437L11.7422 6.81523L11.326 6.51288H11.8404L11.9994 6.02374Z" fill="#F0F0F0"/>
<path d="M13.641 6.02374L13.7999 6.51288H14.3142L13.8981 6.81523L14.0571 7.30437L13.641 7.00207L13.2248 7.30437L13.3838 6.81523L12.9677 6.51288H13.482L13.641 6.02374Z" fill="#F0F0F0"/>
<path d="M15.2825 6.02374L15.4414 6.51288H15.9557L15.5397 6.81523L15.6986 7.30437L15.2825 7.00207L14.8664 7.30437L15.0253 6.81523L14.6093 6.51288H15.1235L15.2825 6.02374Z" fill="#F0F0F0"/>
<path d="M10.3577 4.31622L10.5166 4.80532H11.0309L10.6148 5.10771L10.7738 5.5968L10.3577 5.2945L9.94156 5.5968L10.1005 5.10771L9.68445 4.80532H10.1987L10.3577 4.31622Z" fill="#F0F0F0"/>
<path d="M11.9994 4.31622L12.1583 4.80532H12.6726L12.2565 5.10771L12.4154 5.5968L11.9994 5.2945L11.5832 5.5968L11.7422 5.10771L11.326 4.80532H11.8404L11.9994 4.31622Z" fill="#F0F0F0"/>
<path d="M13.641 4.31622L13.7999 4.80532H14.3142L13.8981 5.10771L14.0571 5.5968L13.641 5.2945L13.2248 5.5968L13.3838 5.10771L12.9677 4.80532H13.482L13.641 4.31622Z" fill="#F0F0F0"/>
<path d="M15.2825 4.31622L15.4414 4.80532H15.9557L15.5397 5.10771L15.6986 5.5968L15.2825 5.2945L14.8664 5.5968L15.0253 5.10771L14.6093 4.80532H15.1235L15.2825 4.31622Z" fill="#F0F0F0"/>
<path d="M11.9994 2.60867L12.1583 3.09786H12.6726L12.2565 3.40016L12.4154 3.88934L11.9994 3.58705L11.5832 3.88934L11.7422 3.40016L11.326 3.09786H11.8404L11.9994 2.60867Z" fill="#F0F0F0"/>
<path d="M13.641 2.60867L13.7999 3.09786H14.3142L13.8981 3.40016L14.0571 3.88934L13.641 3.58705L13.2248 3.88934L13.3838 3.40016L12.9677 3.09786H13.482L13.641 2.60867Z" fill="#F0F0F0"/>
<path d="M15.2825 2.60867L15.4414 3.09786H15.9557L15.5397 3.40016L15.6986 3.88934L15.2825 3.58705L14.8664 3.88934L15.0253 3.40016L14.6093 3.09786H15.1235L15.2825 2.60867Z" fill="#F0F0F0"/>
</g>
<defs>
<clipPath id="clip0_43_2794">
<rect width="24" height="24" fill="white"/>
</clipPath>
</defs>
</svg>
