<svg width="24" height="24" viewBox="0 0 24 24" fill="none" xmlns="http://www.w3.org/2000/svg">
<g clip-path="url(#clip0_43_1086)">
<path d="M24 12C24 18.6274 18.6274 24 12 24C5.37262 24 0 18.6274 0 12C0 12.0029 12 0.0013125 12 0C18.6274 0 24 5.37262 24 12Z" fill="#0052B4"/>
<path d="M11.9679 12H12C12 11.9892 12 11.9787 12 11.9679C11.9893 11.9786 11.9786 11.9893 11.9679 12Z" fill="#F0F0F0"/>
<path d="M12 6.26086C12 4.14937 12 2.76586 12 0H11.998C5.37145 0.001125 0 5.37323 0 12H6.26086V8.47448L9.78638 12H11.9679C11.9786 11.9893 11.9893 11.9786 12 11.9679C12 11.1594 12 10.4381 12 9.78647L8.47444 6.26086H12Z" fill="#F0F0F0"/>
<path d="M6.071 1.5652C4.19417 2.6339 2.63384 4.19419 1.56519 6.07101V12H4.69564V4.69575V4.69565H12C12 3.70833 12 2.76773 12 1.5652H6.071Z" fill="#D80027"/>
<path d="M17.2174 12L13.9739 15.2434C14.5818 16.4158 15.8056 17.2174 17.2174 17.2174C18.6291 17.2174 19.8529 16.4158 20.4608 15.2434L17.2174 12Z" fill="#FFDA44"/>
<path d="M12 10.5243L7.73649 6.26091H6.26086V6.261L11.9999 12H12C12 12 12 10.9825 12 10.5243Z" fill="#D80027"/>
<path d="M13.5652 6.26086V11.9999V12C13.5652 14.7956 17.2174 15.6522 17.2174 15.6522C17.2174 15.6522 20.8695 14.7956 20.8695 12V11.9999V6.26086H13.5652Z" fill="#6DA544"/>
<path d="M16.4348 8.86954H18V13.0434H16.4348V8.86954Z" fill="#F0F0F0"/>
<path d="M17.2174 9.65217C17.6496 9.65217 18 9.30178 18 8.86955C18 8.43731 17.6496 8.08692 17.2174 8.08692C16.7851 8.08692 16.4348 8.43731 16.4348 8.86955C16.4348 9.30178 16.7851 9.65217 17.2174 9.65217Z" fill="#A2001D"/>
<path d="M14.6087 7.30434H15.6522V8.34783H14.6087V7.30434Z" fill="#FFDA44"/>
<path d="M14.6087 9.65217H15.6522V10.6957H14.6087V9.65217Z" fill="#FFDA44"/>
<path d="M14.6087 12H15.6522V13.0435H14.6087V12Z" fill="#FFDA44"/>
<path d="M18.7827 7.30434H19.8261V8.34783H18.7827V7.30434Z" fill="#FFDA44"/>
<path d="M18.7827 9.65217H19.8261V10.6957H18.7827V9.65217Z" fill="#FFDA44"/>
<path d="M18.7827 12H19.8261V13.0435H18.7827V12Z" fill="#FFDA44"/>
</g>
<defs>
<clipPath id="clip0_43_1086">
<rect width="24" height="24" fill="white"/>
</clipPath>
</defs>
</svg>
