<svg width="24" height="24" viewBox="0 0 24 24" fill="none" xmlns="http://www.w3.org/2000/svg">
<g clip-path="url(#clip0_43_1784)">
<path d="M12 24C18.6274 24 24 18.6274 24 12C24 5.37258 18.6274 0 12 0C5.37258 0 0 5.37258 0 12C0 18.6274 5.37258 24 12 24Z" fill="#0052B4"/>
<path d="M5.27105 7.30441L5.53008 8.10166H6.3682L5.69015 8.59427L5.94914 9.39138L5.27105 8.89877L4.5929 9.39138L4.85198 8.59427L4.17389 8.10166H5.01197L5.27105 7.30441Z" fill="#F0F0F0"/>
<path d="M7.87976 6.52182L8.13879 7.31902H8.97692L8.29887 7.81163L8.55786 8.60874L7.87976 8.11613L7.20167 8.60874L7.4607 7.81163L6.78265 7.31902H7.62078L7.87976 6.52182Z" fill="#F0F0F0"/>
<path d="M10.4884 5.7392L10.7474 6.5364H11.5856L10.9075 7.02906L11.1665 7.82617L10.4884 7.33351L9.81031 7.82617L10.0693 7.02906L9.3913 6.5364H10.2294L10.4884 5.7392Z" fill="#F0F0F0"/>
<path d="M18.7289 7.30441L18.4699 8.10166H17.6318L18.3099 8.59427L18.0508 9.39138L18.7289 8.89877L19.4071 9.39138L19.148 8.59427L19.8261 8.10166H18.988L18.7289 7.30441Z" fill="#F0F0F0"/>
<path d="M16.1203 6.52182L15.8613 7.31902H15.0231L15.7012 7.81163L15.4422 8.60874L16.1203 8.11613L16.7984 8.60874L16.5394 7.81163L17.2174 7.31902H16.3793L16.1203 6.52182Z" fill="#F0F0F0"/>
<path d="M13.5116 5.7392L13.2526 6.5364H12.4144L13.0925 7.02906L12.8335 7.82617L13.5116 7.33351L14.1897 7.82617L13.9306 7.02906L14.6087 6.5364H13.7706L13.5116 5.7392Z" fill="#F0F0F0"/>
<path d="M14.087 12.5217L12 9.91302L10.9565 10.4347V11.4782L9.39132 12.5217H8.34784V13.8698C9.87728 14.4891 10.9565 15.9876 10.9565 17.7391H12V16.6957L13.0435 15.6522L14.087 16.6957L15.1305 15.6522V14.6087L16.1739 13.0435L14.087 12.5217Z" fill="#FFDA44"/>
</g>
<defs>
<clipPath id="clip0_43_1784">
<rect width="24" height="24" fill="white"/>
</clipPath>
</defs>
</svg>
