<svg width="24" height="24" viewBox="0 0 24 24" fill="none" xmlns="http://www.w3.org/2000/svg">
<g clip-path="url(#clip0_43_2883)">
<path d="M12 24C18.6274 24 24 18.6274 24 12C24 5.37258 18.6274 0 12 0C5.37258 0 0 5.37258 0 12C0 18.6274 5.37258 24 12 24Z" fill="#496E2D"/>
<path d="M16.6957 12H12V24C13.4027 24 14.7488 23.7585 16 23.3163L16.6957 12Z" fill="#D80027"/>
<path d="M19.9999 20.9434C22.4547 18.7462 24 15.5537 24 12H19.3043L19.9999 20.9434Z" fill="#FF9811"/>
<path d="M16 12V23.3163C17.4905 22.7894 18.8458 21.9766 20 20.9435V12H16Z" fill="black"/>
<path d="M22.1739 7.82611H19.0434C19.0434 7.24983 18.5762 6.78262 17.9999 6.78262C17.4236 6.78262 16.9564 7.24983 16.9564 7.82611H13.826C13.826 8.40244 14.328 8.86959 14.9042 8.86959H14.8695C14.8695 9.44592 15.3366 9.91308 15.913 9.91308C15.913 10.4894 16.3801 10.9566 16.9564 10.9566H19.0434C19.6197 10.9566 20.0869 10.4894 20.0869 9.91308C20.6632 9.91308 21.1304 9.44592 21.1304 8.86959H21.0956C21.6719 8.86955 22.1739 8.40239 22.1739 7.82611Z" fill="#FF9811"/>
</g>
<defs>
<clipPath id="clip0_43_2883">
<rect width="24" height="24" fill="white"/>
</clipPath>
</defs>
</svg>
