<?xml version="1.0" encoding="UTF-8"?>
<svg id="Layer_1" xmlns="http://www.w3.org/2000/svg" viewBox="0 0 100 100">
  <defs>
    <style>
      .cls-1 {
        fill: #00599d;
      }

      .cls-2 {
        fill: none;
        stroke: #00599d;
        stroke-miterlimit: 23.48;
        stroke-width: 1.14px;
      }
    </style>
  </defs>
  <path class="cls-2" d="M50,1c26.99,0,49,22.02,49,49s-22.01,48.99-49,48.99S1,76.99,1,50,23.01,1,50,1h0Z"/>
  <path class="cls-1" d="M83.15,64.77l-3.31,5.98,1.33.74,2.46-4.45,7.62,4.25.84-1.53-8.95-4.99ZM85.93,54.91l-.26,1.8,2.34,1.52-1.14,3.83-2.77.17-.63,1.75,10.99-.75.51-1.79-9.05-6.53ZM93.08,61.82v.03s0,.01,0,.01l-4.78.12.87-2.93,3.92,2.77ZM86.05,46.06l.09,1.67,7.41-.4v.04l-7.4,4.89-.09,1.85,10.08.84.17-1.89-7.57-.5v-.11l7.65-4.94-.13-1.98-10.21.52ZM93.56,38.2c.57,2.02-1.07,3.55-2.93,4.03-1.86.48-3.86.17-4.41-1.86-.56-2.07,1.06-3.53,2.89-4.09,1.83-.55,3.86-.14,4.45,1.92ZM94.93,37.76c-.81-2.87-3.61-4.06-6.34-3.14-2.71.91-4.53,3.29-3.75,6.17.77,2.81,3.5,3.79,6.25,3.05,2.79-.76,4.64-3.24,3.83-6.09ZM82.33,33.63l.74,1.59,9.23-4.36-.74-1.59-9.23,4.36ZM85.03,21.98l1.65,2.4-7.11,4.76.95,1.47,7.11-4.75,1.8,2.63,1.3-.75-4.51-6.68-1.2.93ZM72.42,21.52l1.41,1.18,2.53-1.33,2.81,2.85-1.22,2.77,1.16,1.45,4.52-10.44-1.36-1.3-9.85,4.81ZM81.75,18.57l.02.02h0s-2.04,4.35-2.04,4.35l-2.13-2.22,4.14-2.14ZM65.01,16.98l1.54.72,3.44-6.47.04.02.54,8.88,1.45,1.07,5.46-8.56-1.39-1.09-4.06,6.34-.52-9.06-1.7-.84-4.79,9ZM56.29,14.26l1.6.36,1.14-4,2.58.71c1.55.43,1.58,1.33,1.08,3.09-.14.47-.29,1.04-.15,1.53l1.77.72c-.26-.49-.08-1.81.24-2.93.44-1.52-.19-2.19-.75-2.44v-.03c.35-.01,1.67-.12,2.19-1.97.47-1.63-.23-3.07-2.33-3.65l-4.62-1.28-2.74,9.88ZM60.32,6.24l2.77.75c.88.24,1.5.86,1.15,2.08-.29,1.01-.92,1.35-1.98,1.06l-2.86-.79.93-3.11ZM48.02,13.82l7.3.27.03-1.51-5.54-.24.09-3.06,5.04.12.02-1.43-5.03-.13.04-2.72,5.4.27.03-1.51-7.14-.3-.22,10.24ZM38.55,6.64l2.98-.5,1.31,8.26,1.73-.27-1.31-8.29,3.11-.54-.16-1.59-8.08,1.37.42,1.56ZM33.04,17.95l1.46-.71-2.96-6.77h.04s6.76,5.18,6.76,5.18l1.76-.52-3.1-9.68-1.66.48,2.24,7.22h-.09s-6.86-5.36-6.86-5.36l-1.69.86,4.1,9.31ZM30.18,19.67l1.48-.92-5.36-8.66-1.48.93,5.36,8.65ZM20.09,29.46l4.64-5.48-1.05-1.08-3.54,4.25-2.3-2.02,3.15-3.85-.99-.99-3.28,3.86-2-1.82,3.53-4.03-1.08-1.14-4.68,5.55,7.6,6.76ZM8.71,32.35l1.49-2.82,7.28,4.53.82-1.54-7.25-4.53,1.56-2.84-1.27-.78-4.05,7.36,1.41.63ZM15.67,38.56l.6-1.65-9.57-3.56-.6,1.65,9.57,3.56ZM13.72,49.83l.07-1.59-7.58-.68,7.84-1.97.14-1.43-7.25-4.32,7.83,1.51.4-1.55-10.07-1.99-.48,2.34,7.34,4.35v.03s-8.26,1.83-8.26,1.83l-.12,2.68,10.13.8ZM5.29,55.87c-.24-2.15,1.46-3.12,3.36-3.32,1.93-.21,3.93.47,4.21,2.59.27,2.15-1.56,3.15-3.45,3.44-1.89.3-3.87-.58-4.11-2.71ZM3.85,56.09c.35,2.97,3.08,4.66,5.9,4.22,2.82-.44,4.92-2.4,4.51-5.39-.4-2.97-2.84-4.2-5.67-4.03-2.85.17-5.1,2.22-4.75,5.2h0ZM8.66,62.37c-1.9,1.05-2.66,3.4-1.72,5.36,1.3,2.87,4.28,3.62,6.89,2.46,2.61-1.16,4.13-3.72,2.87-6.44-.96-2.06-3.02-2.99-5.33-2.27l.56,1.56c1.39-.46,2.86,0,3.49,1.41.87,1.96-.67,3.43-2.42,4.2-1.75.78-3.79.52-4.66-1.43-.59-1.33-.05-2.41.87-3.15M72.77,90.6l5.93-4.06-.85-1.27-4.48,3.11-1.68-2.49,4.06-2.88-.8-1.2-4.06,2.88-1.51-2.34,4.44-3.06-.85-1.26-5.88,4.01M65.15,94.03l1.81-.66-.6-10.99-1.6.72.58,8.62h-.03s-5.31-6.88-5.31-6.88l-1.7.5M52.19,96.43l7.14-.86-.31-1.46-5.34.6-.37-3.06,4.68-.56-.28-1.4-4.63.55-.31-2.77,5.17-.52-.28-1.5-6.62.79M30.23,92.03l6.76,2.52.39-1.45-5.01-1.88,1.02-2.88,4.5,1.73.36-1.37-4.4-1.7.92-2.65,4.82,1.94.39-1.42-6.27-2.48M30.36,86.11l-3.56-2.25-.74,1.08,2.31,1.48c-.97,1.37-2.52,1.7-3.99.65-1.77-1.25-1.43-3.37-.36-4.93,1.07-1.57,2.83-2.52,4.61-1.29,1.05.73,1.63,1.94,1.03,3.11l1.49.85c1.04-2,.1-3.87-1.72-5.13-2.48-1.73-5.26-.89-6.86,1.45s-1.47,5.38,1.01,7.11c1.02.7,1.96.84,3.33.51l-.24,1.43.93.55M39.81,95.31l1.67.36,1.33-7.44h.04s4.02,8.11,4.02,8.11l1.88.09.48-10.2-1.57-.04-.32,7.48h-.03s-4-8.05-4-8.05l-1.78-.37"/>
  <path class="cls-2" d="M50,16.37c18.52,0,33.63,15.12,33.63,33.63s-15.11,33.63-33.63,33.63-33.63-15.11-33.63-33.63S31.47,16.37,50,16.37Z"/>
  <path class="cls-1" d="M42.87,42.87v-17.13h14.26v17.13h17.13v14.27h-17.13v17.13h-14.26v-17.13h-17.14v-14.27"/>
</svg>