<?xml version="1.0" encoding="utf-8"?>
<svg version="1.1" xmlns="http://www.w3.org/2000/svg" x="0px" y="0px" viewBox="0 0 1120 156"
     style="enable-background:new 0 0 1120 156;" xml:space="preserve">
<style type="text/css">
	.st0{fill:#7D878C;}
</style>
    <g>
		<path class="st0" d="M656.1,54.7c-8.9,0.2-17.4,0.3-25.8,0.3c-0.7-0.9-0.6-1.8-0.8-2.6c-0.5-1.9-1-3.7-1.8-5.5
			c-3.1-7.7-9-11.8-17.1-13c-4.5-0.7-9.1-0.5-13.5,0.7c-6,1.7-11.1,5.8-14,11.2c-2.4,4.2-4,8.8-4.7,13.5
			c-1.9,13.1-1.8,26.4,0.4,39.4c0.7,4.2,2.2,8.2,4.3,11.9c4.6,8.1,11.7,12.5,20.9,13.4c5.6,0.6,11.2,0.1,16.6-1.4
			c2.9-0.8,5.6-2.1,7.9-4c0.7-0.4,1.1-1.2,1.1-2c0-7,0-14,0-21.3h-24.5V75.6c16.9-0.4,33.9-0.3,50.8-0.4c0.5,0.6,0.6,1.3,0.5,2
			c0.1,16.2,0.1,32.3,0.2,48.5c0.1,1.2-0.4,2.4-1.2,3.2c-4.1,4.3-9,7.8-14.5,10.2c-7.6,3.4-15.7,5.6-24,6.4
			c-6.4,0.8-12.9,0.8-19.4,0c-21.6-2.9-36.1-14.7-43.5-35.2c-2.5-7.2-3.9-14.7-4.1-22.3c-0.2-6.6-0.4-13.3,0-19.9
			c0.4-9.4,2.6-18.6,6.5-27.1c7.4-15.7,19.7-25.1,36.7-28.1c10.8-2,22-1.3,32.5,1.9c14.1,4.4,23.3,13.9,27.9,27.8
			C654.9,46.4,655.8,50.5,656.1,54.7z"/>
        <path class="st0" d="M1114.1,48.6h-26.6c-0.3-0.8-0.5-1.7-0.5-2.5c-0.7-6.6-4-11.5-10.2-14c-7.4-3-15.6-2.9-22.9,0.2
			c-5.3,2.2-8.6,6.2-8.9,12.3c-0.2,3.2,1,6.4,3.3,8.7c1.7,1.7,3.7,3.1,5.8,4.2c5,2.6,10.2,4.7,15.6,6.2c8,2.2,15.8,5.3,23.1,9.2
			c4.4,2.3,8.4,5.3,11.9,8.8c7.4,7.6,10.3,16.9,9.8,27.4c-0.5,8.5-3.6,15.8-9.9,21.7c-3.9,3.7-8.6,6.5-13.7,8.3
			c-9.6,3.5-19.4,4.4-29.5,3.7c-8.6-0.5-16.9-2.7-24.6-6.6c-8.6-4.4-15.3-10.7-19.3-19.6c-2.2-5-3.3-10.5-3.2-16h26.8
			c0.2,1.5,0.3,3,0.6,4.6c1.2,7,4.9,12,11.6,14.4c7.4,2.6,15.3,3,22.9,1c0.6-0.2,1.2-0.4,1.8-0.6c5.1-2,8.7-5.4,9.3-11.1
			c0.6-6.1-1.2-11.2-6.7-14.6c-4.6-2.7-9.4-4.8-14.5-6.3c-6.3-2.1-12.6-4.1-18.7-6.7c-6.1-2.4-11.8-5.8-16.9-9.9
			c-6.5-5.4-11-12.1-12.1-20.6c-2-14.5,3.5-25.6,15.6-33.5c6-3.8,12.8-6.3,19.9-7.4c9.4-1.7,19-1.4,28.3,0.9
			c10.1,2.6,18.8,7.5,25,16.2c4.3,6.1,6.7,13.4,6.9,20.9C1114.2,47.8,1114.2,48.2,1114.1,48.6z"/>
        <path class="st0" d="M841.9,11.9h25L916.6,142h-28.7c-3-8.7-6.1-17.5-9.1-26.4h-47.1c-3,9-5.9,17.9-8.8,27h-28.6
			C810.1,99.1,826,55.6,841.9,11.9z M871.3,93.6c-5.6-16.2-11-32.1-16.5-47.9l-0.5,0.1c-5.2,16-10.4,31.9-15.5,47.9H871.3z"/>
        <path class="st0" d="M924.1,11.4h26.7c0.3,36.2,0.5,72.3,0.8,108.6h57v21.1c-1.4,0.4-79.2,1.1-83.5,0.8c-0.6-0.5-0.3-1.2-0.3-1.8
			c0-5.8-0.1-11.5-0.1-17.3c-0.2-25.2-0.2-50.4-0.5-75.6c-0.1-11-0.2-21.9-0.3-32.9C923.7,13.3,923.8,12.3,924.1,11.4z"/>
        <path class="st0" d="M329.9,90.3h9.5c2,0,4,0,6,0c1-0.2,2,0.5,2.2,1.5c0,0,0,0.1,0,0.1c1.3,4.4,2.8,8.7,4.2,13
			c2.2,7,4.5,14,6.7,21c0.2,0.6,0.5,1.3,0.9,1.8c4-12.5,8-24.8,11.9-37.2h17.2v54.3h-13c-0.5-12.4,0.7-24.7,0.7-37
			c-4.2,12.3-8.4,24.6-12.6,37h-8.9c-4.2-12.2-8.4-24.6-12.6-36.9l-0.4,0.1c0.3,6.1,0.5,12.1,0.9,18.2c0.4,6.1,0.4,12.3,0.3,18.4
			c-1.8,0.5-9.7,0.6-13.1,0.2L329.9,90.3z"/>
        <path class="st0" d="M333.7,69.6c-2.9,0-5.7,0-8.5,0c-1.6,0-3.4,0.5-4.7-0.2s-1.8-2.6-2.5-4c-5.2-9-10.3-18-15.4-27.1
			c-0.4-0.8-1-1.5-1.7-2.1v33.3h-13.1c-0.5-1.7-0.7-50.9-0.2-55.4h13.3c6.3,11.1,12.7,22.3,19.1,33.6c0.2-0.5,0-0.1,0.3-0.2
			c0.1,0,0.2-0.1,0.2-0.1c0-0.3,0-0.6,0-1V14.6c0-0.1,0-0.2,0.1-0.2l0.1-0.2c1.7-0.5,10.3-0.6,13.2-0.1L333.7,69.6z"/>
        <path class="st0" d="M480.6,144.8h-13.1c-6.2-10.9-12.5-21.9-18.8-32.9l-0.4,0.1v32.4c-1.8,0.6-9.9,0.7-13.1,0.2V90.5
			c1.8-0.5,3.5-0.2,5.3-0.2c1.9-0.1,3.8,0.1,5.8,0c1.3-0.2,2.5,0.6,3,1.7c5.4,9.6,10.9,19.2,16.3,28.8c0.4,0.9,1.1,1.6,1.8,2.2V90.8
			c1.8-0.6,9.6-0.8,13.1-0.3L480.6,144.8z"/>
        <path class="st0" d="M432.8,41c0.2,0.3,0.2,0.5,0.4,0.5c6.1,2.2,8.6,7.7,7.6,14.6c-1.1,7.2-5.5,11.4-13.2,12.9
			c-2.1,0.4-4.3,0.6-6.4,0.6c-7.3,0-14.5,0-21.8,0c-0.4,0-0.8,0-1.2-0.1c-0.5-1.8-0.7-49.8-0.3-55.3c0.5-0.6,1.2-0.4,1.8-0.4
			c6.1,0,12.1,0,18.2,0c3.6,0,7.2,0.4,10.6,1.4c1.2,0.4,2.4,0.8,3.6,1.4c6.7,3.4,9.6,11.5,6.5,18.4c-0.9,2.1-2.4,3.8-4.3,5
			C433.8,40.4,433.3,40.7,432.8,41z M411.2,46c0,2.5,0,4.6,0,6.8s-0.3,4.2,0.3,6.5c3.7-0.2,7.4,0.4,11-0.4c3.4-0.7,5.1-2.9,5-6.5
			s-2-6.1-5.5-6.3S415,46,411.2,46z M411.2,37.1c3.6-0.1,7,0.3,10.3-0.4c2.8-0.3,5-2.8,4.8-5.6c0.2-3.5-1.3-5.6-4.5-6.4
			c-3.4-0.9-6.9-0.4-10.5-0.5c-0.1,0.7-0.1,1.1-0.1,1.5C411.2,29.4,411.2,33.1,411.2,37.1z"/>
        <path class="st0" d="M10.9,144.5V90.6c0.3-0.2,0.4-0.3,0.5-0.3c6.7,0,13.4-0.4,20.1,0.2c11,0.9,20,9.2,21.6,20.2
			c1.1,5.8,0.8,11.7-0.9,17.3c-3,9.9-12.1,16.7-22.4,16.8c-5.9,0.1-11.8,0-17.8,0.1C11.7,144.9,11.2,144.8,10.9,144.5z M24.1,134.7
			H28c6.2,0,9.9-2.8,11.4-8.9c1.3-5.4,1.3-11,0-16.4c-1.6-6.7-6.3-10.3-15.3-8.5L24.1,134.7z"/>
        <path class="st0" d="M60.7,14h12.9c0.6,0.8,0.4,1.7,0.4,2.5c0,11,0,22.1,0,33.1c0,1.5,0.1,3,0.5,4.5c0.6,3.3,3.4,5.7,6.7,5.8
			c0.7,0,1.4,0,2.1,0c4.3-0.2,6.8-2.5,7.4-6.8c0.1-1.2,0.2-2.4,0.2-3.6c0-11,0-21.9,0-32.9V14h13.3c0.4,0.8,0.5,1.6,0.3,2.4
			c0,11,0,22.1,0,33.1c0,2.1-0.2,4.2-0.6,6.2C102.6,62,98,67.1,91.9,68.9C86,71,79.6,71,73.7,69.2c-8.1-2.5-13-9-13.2-17.5
			c-0.1-5.5,0-11,0-16.5c0-6.2,0-12.5,0-18.7C60.3,15.6,60.4,14.8,60.7,14z"/>
        <path class="st0" d="M276.8,117.4c0.2,4.9-0.6,9.8-2.4,14.3c-4.5,10.6-14.4,14.8-24,13.8c-12.5-1.2-19.3-10.1-21-21.2
			c-1-5.9-0.7-12,0.9-17.8c3.5-12.5,16.4-19.8,28.9-16.3c2.5,0.7,4.9,1.8,7,3.3c6,4.1,8.9,10.1,10.1,17
			C276.7,112.8,276.9,115.1,276.8,117.4z M263.4,117.4c0-0.8,0.1-2,0-3.1c-0.1-3.2-0.8-6.4-2.2-9.3c-2.3-4.6-7.9-6.5-12.5-4.2
			c-2,1-3.6,2.7-4.4,4.7c-0.4,0.9-0.8,1.9-1,2.9c-1.1,5.4-1.2,10.9-0.3,16.4c0.3,1.9,0.9,3.7,1.8,5.4c3.3,6.4,12.6,6.4,16,0.4
			c0.8-1.3,1.3-2.7,1.7-4.2C263.3,123.7,263.5,120.5,263.4,117.4L263.4,117.4z"/>
        <path class="st0" d="M52.6,30.4H40c-0.4-0.4-0.6-0.9-0.6-1.4c-0.3-2.7-2.3-4.9-5-5.4c-2.3-0.6-4.8-0.4-7,0.6
			c-3.9,1.9-4.3,6-0.8,8.6c1.6,1.1,3.4,2,5.3,2.6c3.3,1,6.5,2.3,9.6,3.6c2.4,1.1,4.6,2.6,6.6,4.3c6.8,6,7.6,20.4-4.6,25
			c-8.5,3.4-18,2.8-25.9-1.8c-5.4-3-8.1-7.8-8.5-13.9c0-0.4,0-0.7,0.1-1.1h13.2c0.2,1,0.4,1.9,0.6,2.8c0.4,2.4,2.2,4.4,4.6,5
			c2.5,0.8,5.2,0.9,7.8,0.3c2-0.6,3.6-1.7,4-4c0.5-2.2-0.4-4.5-2.3-5.8c-1.7-1.1-3.5-2-5.4-2.6c-3.3-1.1-6.6-2.4-9.8-3.8
			c-3.1-1.4-5.8-3.4-8-6c-4.8-5.8-4-14.5,1.8-19.4c0.1-0.1,0.2-0.2,0.3-0.2c3.1-2.4,6.8-3.9,10.7-4.4c5.5-0.8,11-0.7,16.2,1.7
			c5.8,2.7,9.3,7.1,10,13.6C53.1,29.4,52.9,30,52.6,30.4z"/>
        <path class="st0" d="M224.8,13.9h12.7c6.8,18.5,13.6,36.9,20.5,55.6h-14.5l-3.2-10.1H222c-1,3.3-2.1,6.7-3.2,10.1h-14.3
			C211.3,50.8,218,32.4,224.8,13.9z M237.1,48.7c-2-6.3-3.7-12.4-6-18.8l-5.8,18.8H237.1z"/>
        <path class="st0" d="M372.5,14c6.8,18.5,13.6,36.9,20.5,55.5h-14.4l-3.2-10.1H357c-1,3.3-2.1,6.6-3.2,10h-14.4L359.8,14H372.5z
			 M366.4,30.6l-0.6,0c-1.8,6-3.7,11.9-5.5,18H372C370.1,42.5,368.3,36.5,366.4,30.6z"/>
        <path class="st0" d="M155.4,30.4h-12.9c-0.5-0.4-0.4-0.9-0.5-1.3c-0.3-2.6-2.2-4.8-4.8-5.4c-2.3-0.7-4.8-0.5-7,0.4
			c-4.1,1.8-4.6,6-1,8.7c2,1.3,4.2,2.3,6.5,3c2.9,0.9,5.7,2,8.5,3.2c2,0.9,3.8,2,5.5,3.4c5.3,4.4,6.9,10,5.3,16.5
			c-0.9,4-3.6,6.7-7.1,8.6c-2.8,1.5-6,2.4-9.1,2.6c-5.8,0.7-11.7-0.2-17-2.8c-6.1-3.1-9.7-7.9-10-14.9c0-0.3,0.1-0.6,0.1-0.8H125
			c0.2,1.1,0.4,2.2,0.7,3.3c0.5,2.2,2.1,3.9,4.2,4.5c2.6,0.9,5.4,1,8,0.4c2-0.6,3.6-1.7,4-3.9c0.5-2.2-0.3-4.4-2.1-5.8
			c-1.8-1.2-3.7-2.2-5.8-2.8c-3.3-1.1-6.5-2.3-9.6-3.7c-2.3-1.1-4.5-2.5-6.4-4.2c-5.8-5-6.5-13.8-1.4-19.6c0.9-1,1.9-1.9,3.1-2.7
			c2.9-1.9,6.2-3.1,9.6-3.6c6.1-0.8,12.1-0.6,17.7,2.5c4.2,2.2,7.2,6.1,8.2,10.7C155.5,27.9,155.6,29.1,155.4,30.4z"/>
        <path class="st0" d="M530.6,24.4h-24.7v11.5h21c0,3.4,0,6.5,0,10h-21v13.3h24.6v10.2h-38V14h38.1L530.6,24.4z"/>
        <path class="st0" d="M282.2,90.5c0.7-0.3,1.5-0.4,2.3-0.3c6.4,0,12.8,0,19.2,0c3.4,0,6.7,0.5,9.9,1.7c10.7,4.2,13.2,15,10.3,23.1
			c-2.2,5.9-6.9,9-12.8,10.5c-3,0.7-6,1-9,0.9c-2.3-0.1-4.6-0.1-6.9,0.2v18.1h-13V90.5z M295.2,116c3.6,0,7,0.2,10.3,0
			c3.6-0.2,5.8-2.8,5.9-6.3c0-0.8,0-1.6,0-2.4c-0.2-3.8-3.4-6.7-7.2-6.7c-2.5-0.1-5,0-7.4,0c-0.5,0-1.1-0.2-1.6,0.4L295.2,116z"/>
        <path class="st0" d="M394.6,90.4h36.1v10.1c-7.5,0.1-15.2,0-22.9,0.1v11.3H427v9.8c-2.1,0.2-4.2,0.1-6.3,0.1s-4.2,0-6.2,0h-6.5
			v12.9h22.8v10.1h-36.1V90.4z"/>
        <path class="st0" d="M95,100.6H72.1v11.2c6.4,0.3,12.7,0,19.1,0.2v9.7H72.2v12.9c7.5,0.3,15,0,22.7,0.1v10H59.2
			c-0.4-1.8-0.6-50.2-0.2-54.1c1.7-0.5,33.3-0.6,35.9-0.1L95,100.6z"/>
        <path class="st0" d="M166.7,121.6v13h22.7v10.1h-35.5c-0.5-1.6-0.6-51.4-0.1-54.2c2.1-0.4,33.6-0.4,35.7,0v9.9h-22.7v11.4h18.8
			v9.7L166.7,121.6z"/>
        <path class="st0" d="M124.2,128.9l10.5-38.5h14.8c-6.1,18.2-12.2,36.2-18.3,54.3h-14.6L98.5,90.4c2.6-0.3,5-0.1,7.3-0.2
			s4.6,0,7.2,0c3.5,12.9,7.1,25.8,10.6,38.7L124.2,128.9z"/>
        <path class="st0" d="M176.8,24.3h-16.3V14h46.4v10.3h-16.5v45.1h-13.6V24.3z"/>
        <path class="st0" d="M530.6,100.6h-16.2v44.1h-13.3v-44.1h-15.9V90.4h45.3V100.6z"/>
        <path class="st0" d="M485.7,69.3c-1.9,0.3-32.3,0.4-36.2,0.2c-0.5-1.7-0.7-50.5-0.2-55.4h13.3v45.2h23.2V69.3z"/>
        <path class="st0"
              d="M194.1,90.4h13.1v44.3h20.7v9.8c-1.6,0.5-30.1,0.6-33.6,0.2C193.8,142.9,193.7,94,194.1,90.4z"/>
        <path class="st0" d="M277.1,69.4H264V14h12.9C277.4,15.6,277.6,63.2,277.1,69.4z"/>
        <path class="st0" d="M678.5,117c-4-5.6-7.1-11.8-9.2-18.4l27.8-8c1.2,3.1,2.7,6.1,4.5,8.9L678.5,117z"/>
        <path class="st0" d="M728.1,115.5c3.3,0.3,6.5,0.3,9.8-0.1l5.4,28.3c-6.8,1.3-13.7,1.4-20.5,0.2
			C724.5,134.5,726.3,125.2,728.1,115.5z"/>
        <path class="st0" d="M668.2,94.6c-1.7-6.7-2.3-13.6-1.9-20.4l28.8,2.6c0,3.3,0.2,6.6,0.8,9.9L668.2,94.6z"/>
        <path class="st0" d="M698.4,63.4c-1.3,3-2.2,6.1-2.8,9.3l-28.8-2.6c0.8-6.8,2.7-13.5,5.7-19.7L698.4,63.4z"/>
        <path class="st0"
              d="M699.6,136l15.2-24.5c3,1.4,6.1,2.6,9.3,3.4c-1.8,9.5-3.6,18.9-5.4,28.4C712,142,705.5,139.5,699.6,136z"/>
        <path class="st0"
              d="M710.8,15.9c6.4-2.3,13.1-3.5,19.9-3.6v28.9c-3.2,0.3-6.3,0.9-9.4,1.8C717.8,34,714.3,25.1,710.8,15.9z"/>
        <path class="st0" d="M758.4,17.5c6.3,2.7,12.2,6.4,17.4,10.9l-19.5,21.3c-2.6-2-5.3-3.7-8.2-5.1C751.5,35.5,754.9,26.6,758.4,17.5
			z"/>
        <path class="st0" d="M784.3,119.4c-2.3,4-10,11.2-14.9,13.9l-15.1-24.4c2.5-2,4.9-4.3,7-6.7L784.3,119.4z"/>
        <path class="st0"
              d="M704,102.7c2.2,2.4,4.6,4.7,7.3,6.6c-5.1,8.2-10.1,16.3-15.2,24.6c-5.7-3.7-10.8-8.4-15.1-13.7L704,102.7z"/>
        <path class="st0"
              d="M759.2,52.5l19.6-21.4c4.9,4.7,9,10.1,12.2,16.1L765,60.2C763.4,57.4,761.4,54.8,759.2,52.5z"/>
        <path class="st0" d="M686.8,30.6l19.4,21.3c-2.2,2.4-4.3,5-6,7.7l-25.7-12.8C676.3,42.5,682.1,34.8,686.8,30.6z"/>
        <path class="st0" d="M747.3,142.9c-1.8-9.4-3.5-18.7-5.3-28.2c3.1-1,6.1-2.2,8.9-3.8l15,24.3C763.4,137.9,752.6,142.3,747.3,142.9
			z"/>
        <path class="st0" d="M792.8,50.9c2.9,6.1,4.7,12.7,5.4,19.4L769.6,73c-0.8-3.1-1.4-6.2-2.8-9.2L792.8,50.9z"/>
        <path class="st0" d="M734.9,12.3c6.7,0.2,13.3,1.5,19.7,3.7l-10.4,27c-3-0.8-6.1-1.4-9.3-1.8L734.9,12.3z"/>
        <path class="st0" d="M796.8,94.5l-27.7-8c0.2-3.1,0.9-6,0.6-9.4l28.9-2.8C799.1,81.1,798.5,87.9,796.8,94.5z"/>
        <path class="st0" d="M707,17.5l10.4,26.9c-2.8,1.4-5.5,3.1-8,5L689.9,28C693.3,24.5,701.3,19.5,707,17.5z"/>
        <path class="st0" d="M786.9,116.4L763.9,99c1.6-2.7,2.9-5.5,4-8.4l27.8,8C793.7,104.9,790.8,110.9,786.9,116.4z"/>
	</g>
</svg>
