<svg width="43" height="24" viewBox="0 0 43 24" fill="none" xmlns="http://www.w3.org/2000/svg">
<rect x="0.5" y="0.5" width="42" height="23" rx="4" fill="white"/>
<rect x="0.5" y="0.5" width="42" height="23" rx="4" stroke="#E2E8F0"/>
<path d="M30.9653 18.106C30.7749 18.106 30.5527 18.0996 30.3623 18.0806V16.8682C30.4893 16.8809 30.667 16.8872 30.832 16.8872C31.4795 16.8872 31.8667 16.6206 32.0381 15.9922L32.1206 15.6748L29.6387 8.73047H31.3652L32.9839 14.1514H33.1045L34.7168 8.73047H36.3799L33.8916 15.8145C33.2949 17.5537 32.5015 18.106 30.9653 18.106Z" fill="black"/>
<path d="M26.0601 15.7832C24.7397 15.7832 23.7812 14.9707 23.7812 13.7075V13.6948C23.7812 12.457 24.7271 11.7334 26.4155 11.6318L28.1992 11.5239V10.9272C28.1992 10.2354 27.7485 9.85449 26.8979 9.85449C26.1743 9.85449 25.7046 10.1147 25.5459 10.5718L25.5396 10.5972H24.0479L24.0542 10.54C24.2065 9.37207 25.3237 8.59766 26.9741 8.59766C28.7578 8.59766 29.7607 9.46094 29.7607 10.9272V15.6689H28.1992V14.7168H28.0913C27.7104 15.3896 26.9741 15.7832 26.0601 15.7832ZM25.3428 13.6313C25.3428 14.2217 25.8442 14.5708 26.5425 14.5708C27.4946 14.5708 28.1992 13.9487 28.1992 13.1235V12.5649L26.6377 12.6665C25.7554 12.7236 25.3428 13.0474 25.3428 13.6187V13.6313Z" fill="black"/>
<path d="M17.2246 15.6675V6.50781H20.8809C22.7407 6.50781 23.9976 7.73291 23.9976 9.56738V9.58008C23.9976 11.4082 22.7407 12.6396 20.8809 12.6396H18.8623V15.6675H17.2246ZM20.481 7.84717H18.8623V11.3193H20.481C21.6553 11.3193 22.3408 10.6846 22.3408 9.58643V9.57373C22.3408 8.47559 21.6553 7.84717 20.481 7.84717Z" fill="black"/>
<path d="M12.0737 7.46484C11.7437 7.86475 11.1851 8.16309 10.7407 8.16309C10.6899 8.16309 10.6392 8.15674 10.6074 8.15039C10.6011 8.125 10.5884 8.04883 10.5884 7.97266C10.5884 7.46484 10.8486 6.95703 11.1279 6.63965C11.4834 6.2207 12.0801 5.90967 12.5752 5.89062C12.5879 5.94775 12.5942 6.01758 12.5942 6.0874C12.5942 6.59521 12.3784 7.09668 12.0737 7.46484ZM12.4229 8.271C12.7021 8.271 13.7114 8.29639 14.3716 9.24854C14.3145 9.29297 13.3115 9.85791 13.3115 11.1211C13.3115 12.5811 14.5874 13.1016 14.6255 13.1143C14.6191 13.146 14.4224 13.8188 13.9526 14.5107C13.5337 15.1138 13.0894 15.7231 12.4229 15.7231C11.75 15.7231 11.5786 15.3296 10.8105 15.3296C10.0552 15.3296 9.78857 15.7358 9.1792 15.7358C8.56348 15.7358 8.13818 15.1709 7.64941 14.4854C7.07812 13.6729 6.62109 12.416 6.62109 11.2227C6.62109 9.31201 7.86523 8.29639 9.09033 8.29639C9.73779 8.29639 10.2773 8.72168 10.6899 8.72168C11.0771 8.72168 11.6802 8.271 12.4229 8.271Z" fill="black"/>
</svg>
