<svg width="62" height="24" viewBox="0 0 62 24" fill="none" xmlns="http://www.w3.org/2000/svg">
<rect x="0.5" y="0.5" width="61" height="23" rx="3.5" fill="#FEF2F2" stroke="#E2E8F0"/>
<path d="M16.875 14.8125H15C14.6685 14.8125 14.3505 14.9442 14.1161 15.1786C13.8817 15.413 13.75 15.731 13.75 16.0625V17.9375M16.875 17.9375V17.9438M11.25 9.1875V11.0625C11.25 11.394 11.1183 11.712 10.8839 11.9464C10.6495 12.1808 10.3315 12.3125 10 12.3125H8.125M5.625 12.3125H5.63125M11.25 6.6875H11.2563M11.25 14.8125V14.8188M13.75 12.3125H14.375M16.875 12.3125V12.3188M11.25 17.9375V17.3125M6.25 6.6875H8.125C8.47018 6.6875 8.75 6.96732 8.75 7.3125V9.1875C8.75 9.53268 8.47018 9.8125 8.125 9.8125H6.25C5.90482 9.8125 5.625 9.53268 5.625 9.1875V7.3125C5.625 6.96732 5.90482 6.6875 6.25 6.6875ZM14.375 6.6875H16.25C16.5952 6.6875 16.875 6.96732 16.875 7.3125V9.1875C16.875 9.53268 16.5952 9.8125 16.25 9.8125H14.375C14.0298 9.8125 13.75 9.53268 13.75 9.1875V7.3125C13.75 6.96732 14.0298 6.6875 14.375 6.6875ZM6.25 14.8125H8.125C8.47018 14.8125 8.75 15.0923 8.75 15.4375V17.3125C8.75 17.6577 8.47018 17.9375 8.125 17.9375H6.25C5.90482 17.9375 5.625 17.6577 5.625 17.3125V15.4375C5.625 15.0923 5.90482 14.8125 6.25 14.8125Z" stroke="#083344" stroke-width="1.3" stroke-linecap="round" stroke-linejoin="round"/>
<path d="M49.3193 18.7522C48.8573 18.7522 48.5843 18.6262 48.3953 18.3462C48.2553 18.1432 48.2203 17.9332 48.2203 17.4502V15.8052H47.6953V15.0772H48.2203V14.1602H49.2073V15.0772H49.8653V15.8052H49.2073V17.4292C49.2073 17.8212 49.3543 17.9752 49.6343 17.9752C49.6833 17.9752 49.7463 17.9682 49.8653 17.9542V18.6892C49.6763 18.7382 49.5293 18.7522 49.3193 18.7522Z" fill="#083344"/>
<path d="M43.9912 18.6867V15.0747H44.9082V15.5507C45.1672 15.2077 45.5942 15.0117 46.0492 15.0117C47.0852 15.0117 47.2602 15.7467 47.2602 16.6777V18.6867H46.2732V16.6847C46.2732 16.1527 46.1822 15.7537 45.6922 15.7537C45.2302 15.7537 44.9782 16.0617 44.9782 16.9017V18.6867H43.9912Z" fill="#083344"/>
<path d="M41.6361 18.7846C40.4321 18.7846 39.8301 18.0286 39.8301 16.8526C39.8301 15.7676 40.5231 14.9766 41.6221 14.9766C42.7281 14.9766 43.3161 15.7326 43.3161 16.9436C43.3161 16.9786 43.3161 17.0486 43.3091 17.1536H40.8381C40.8381 17.6856 41.0481 18.0846 41.6291 18.0846C41.9651 18.0846 42.1611 17.8956 42.2661 17.6086H43.3021C43.0851 18.3926 42.5531 18.7846 41.6361 18.7846ZM40.8031 16.4746H42.3361C42.3151 15.9566 41.9791 15.6626 41.5801 15.6626C41.1741 15.6626 40.8241 15.9566 40.8031 16.4746Z" fill="#083344"/>
<path d="M33.8057 18.6867V15.0747H34.6737L34.6667 15.5787C34.8837 15.2287 35.3247 15.0117 35.8007 15.0117C36.3117 15.0117 36.6267 15.1657 36.8437 15.5787C37.0817 15.1727 37.5227 15.0117 38.0407 15.0117C38.9647 15.0117 39.2167 15.5927 39.2167 16.4887V18.6867H38.2297V16.4817C38.2297 16.0197 38.0687 15.7537 37.6977 15.7537C37.2287 15.7537 37.0047 16.1177 37.0047 16.9087V18.6867H36.0177V16.4817C36.0177 16.0197 35.8427 15.7537 35.4787 15.7537C35.0027 15.7537 34.7927 16.1177 34.7927 16.9087V18.6867H33.8057Z" fill="#083344"/>
<path d="M30.5972 20.1212C30.3732 20.1212 30.2472 20.1212 29.9672 20.0792V19.2952C30.1072 19.3512 30.2402 19.3512 30.3732 19.3512C30.7162 19.3512 30.9892 19.2182 30.9892 18.6862L29.7432 15.0742H30.8492L31.3112 16.8802C31.3882 17.1882 31.4582 17.4962 31.5212 17.8042H31.5702L31.7732 16.8802L32.2842 15.0742H33.3272L32.1302 18.5182C31.6892 19.7922 31.3602 20.1212 30.5972 20.1212Z" fill="#083344"/>
<path d="M27.3375 18.7566C26.5395 18.7566 26.0215 18.3996 26.0215 17.6926C26.0215 16.6216 27.3095 16.5166 28.4155 16.4046V16.2226C28.4155 15.8586 28.1985 15.6556 27.8345 15.6556C27.4215 15.6556 27.1975 15.8586 27.1765 16.1806H26.1545C26.2035 15.4036 26.8475 14.9766 27.8415 14.9766C28.3735 14.9766 28.7515 15.0886 29.0315 15.3546C29.3185 15.6276 29.3745 15.9356 29.3745 16.6076V17.4406C29.3745 17.9446 29.4025 18.3856 29.4725 18.6866H28.5835C28.5555 18.5186 28.5415 18.3716 28.5345 18.2316C28.2335 18.5676 27.9325 18.7566 27.3375 18.7566ZM27.6035 18.0846C28.1215 18.0846 28.4155 17.8046 28.4155 17.1536V17.0346C27.7225 17.1256 27.0505 17.1326 27.0505 17.6646C27.0505 17.9376 27.2815 18.0846 27.6035 18.0846Z" fill="#083344"/>
<path d="M21.9883 18.6875V13.6055H23.6963C24.2353 13.6055 24.6763 13.6685 25.0053 13.8575C25.4953 14.1375 25.7543 14.6415 25.7543 15.2855C25.7543 15.8945 25.4953 16.3845 25.0263 16.6645C24.7183 16.8465 24.3473 16.9165 23.6893 16.9165H23.0313V18.6875H21.9883ZM23.0313 16.0765H23.5983C23.9133 16.0765 24.1513 16.0415 24.3263 15.9365C24.5713 15.7895 24.6833 15.5375 24.6833 15.2085C24.6833 14.9145 24.5503 14.6905 24.2843 14.5575C24.1163 14.4735 23.8853 14.4525 23.6123 14.4525H23.0313V16.0765Z" fill="#083344"/>
<path d="M27.2451 10.6875V5.60547H28.8061C29.4011 5.60547 29.8771 5.67547 30.2131 5.87147C30.5981 6.09547 30.8081 6.48747 30.8081 7.00547C30.8081 7.64947 30.4511 8.11847 29.7091 8.27247V8.31447C30.3041 8.39147 30.4721 8.88147 30.7031 9.50447L31.1371 10.6875H30.0311L29.6181 9.54647C29.3871 8.90247 29.2261 8.72047 28.5891 8.72047H28.2881V10.6875H27.2451ZM28.2881 7.88047H28.7431C29.0581 7.88047 29.3031 7.83847 29.4781 7.71247C29.6461 7.59347 29.7371 7.36947 29.7371 7.13147C29.7371 6.89347 29.6461 6.71147 29.4851 6.59947C29.3241 6.48747 29.1001 6.45247 28.7781 6.45247H28.2881V7.88047Z" fill="#083344"/>
<path d="M26.02 11.254L25.278 10.512C24.949 10.694 24.557 10.792 24.123 10.792C22.66 10.792 21.75 9.742 21.75 8.146C21.75 6.592 22.688 5.5 24.13 5.5C25.565 5.5 26.503 6.557 26.503 8.146C26.503 8.916 26.272 9.567 25.866 10.029L26.552 10.722L26.02 11.254ZM24.123 9.966C24.305 9.966 24.473 9.924 24.627 9.847L23.983 9.196L24.536 8.678L25.159 9.315C25.334 9 25.439 8.601 25.439 8.146C25.439 7.019 24.956 6.326 24.13 6.326C23.29 6.326 22.814 7.04 22.814 8.146C22.814 9.266 23.311 9.966 24.123 9.966Z" fill="#083344"/>
</svg>
