<svg width="62" height="24" viewBox="0 0 62 24" fill="none" xmlns="http://www.w3.org/2000/svg">
<rect x="0.5" y="0.5" width="61" height="23" rx="3.5" fill="black" stroke="#E2E8F0"/>
<path d="M19.8896 15.964C19.8896 16.185 19.731 16.4586 19.5406 16.5638L12.7387 20.4679C12.5483 20.5836 12.231 20.5836 12.0406 20.4679L5.23873 16.5638C5.04832 16.4481 4.88965 16.185 4.88965 15.964V8.14537C4.88965 7.92439 5.04832 7.65079 5.23873 7.54556L12.0406 3.6415C12.231 3.52575 12.5483 3.52575 12.7387 3.6415L19.5406 7.54556C19.731 7.66131 19.8896 7.92439 19.8896 8.14537V15.964Z" fill="white"/>
<path d="M46.7807 8.55469C44.8527 8.55469 43.7772 9.7952 43.7772 11.5812V16.5547H45.4918V11.5391C45.4918 10.7584 45.9502 10.1588 46.8024 10.1588C47.6438 10.1588 48.1013 10.8654 48.1013 11.5391V16.5547H49.8167V11.5812C49.8167 9.7952 48.7086 8.55469 46.7807 8.55469ZM22.8896 8.80074V10.266H25.0943V16.5547H26.8306V10.266H29.0244V8.80074H22.8896ZM29.9192 8.80074L32.1138 16.5547H32.8167L34.4245 12.2233L34.4787 11.8812L34.5422 12.2233L36.1507 16.5547H36.8536L39.0474 8.80074H37.3545L36.2994 12.8758L36.2467 13.3139L36.1608 12.8758L34.755 8.80074H34.2016L32.8059 12.8758L32.7207 13.3139L32.6565 12.8758L31.613 8.80074H29.9192ZM40.2945 8.80074V16.5547H42.0192V8.80074H40.2945ZM50.7541 8.80074V10.266H52.9479V16.5547H54.6842V10.266H56.8896V8.80074H50.7541Z" fill="white"/>
<path d="M16.3861 12.2014L14.678 14.7573L13.7983 13.3859L14.8109 11.8482C14.9951 11.5781 15.4042 10.8196 14.9337 9.79105C14.5552 8.95988 13.737 8.55469 13.021 8.55469C12.305 8.55469 11.5175 8.92871 11.1083 9.79105C10.6378 10.7781 11.047 11.5573 11.2208 11.817C11.2208 11.817 11.7834 12.6586 12.2539 13.3651L13.021 14.4872L14.1666 16.2638C14.1768 16.2742 14.3609 16.5547 14.678 16.5547C14.9848 16.5547 15.1689 16.2742 15.1996 16.243L17.8896 12.2014H16.3861ZM13.021 12.2638C13.021 12.2638 12.571 11.5677 12.2846 11.0898C11.9675 10.5703 12.3255 9.80144 13.021 9.80144C13.7268 9.80144 14.0745 10.5703 13.7574 11.0898C13.471 11.5781 13.021 12.2638 13.021 12.2638Z" fill="url(#paint0_radial_30901_17569)"/>
<path d="M10.2877 14.648L8.34416 12.2542C8.34416 12.2542 7.82588 11.5599 7.49607 11.0832C7.13092 10.5651 7.54319 9.79822 8.34416 9.79822C8.45017 9.79822 8.5444 9.80857 8.62686 9.8293L9.31004 8.73085C8.99201 8.61687 8.66219 8.55469 8.34416 8.55469C7.51963 8.55469 6.61264 8.92775 6.14148 9.78785C5.59964 10.7723 6.0708 11.5495 6.27105 11.8086L9.66341 16.2334C9.68695 16.2749 9.91077 16.5547 10.2641 16.5547C10.6293 16.5547 10.8295 16.2853 10.8649 16.2438L11.8896 14.8759L11.0062 13.736L10.2877 14.648Z" fill="url(#paint1_radial_30901_17569)"/>
<defs>
<radialGradient id="paint0_radial_30901_17569" cx="0" cy="0" r="1" gradientUnits="userSpaceOnUse" gradientTransform="translate(12.4546 9.25957) scale(7.92414 9.05616)">
<stop stop-color="#FFCC00"/>
<stop offset="0.09157" stop-color="#FFC800"/>
<stop offset="0.1739" stop-color="#FFBD00"/>
<stop offset="0.2528" stop-color="#FFAB00"/>
<stop offset="0.3295" stop-color="#FF9100"/>
<stop offset="0.4046" stop-color="#FF7000"/>
<stop offset="0.4786" stop-color="#FF4700"/>
<stop offset="0.5503" stop-color="#FF1800"/>
<stop offset="0.5822" stop-color="#FF0000"/>
<stop offset="1" stop-color="#FF0000"/>
</radialGradient>
<radialGradient id="paint1_radial_30901_17569" cx="0" cy="0" r="1" gradientUnits="userSpaceOnUse" gradientTransform="translate(6.04277 9.70926) scale(8.36742 11.1566)">
<stop stop-color="#00B4E6"/>
<stop offset="0.201" stop-color="#00B0E3"/>
<stop offset="0.3898" stop-color="#01A5DB"/>
<stop offset="0.5737" stop-color="#0292CD"/>
<stop offset="0.7546" stop-color="#0377BA"/>
<stop offset="0.9316" stop-color="#0455A1"/>
<stop offset="1" stop-color="#054696"/>
</radialGradient>
</defs>
</svg>
