<svg width="84" height="84" viewBox="0 0 84 84" fill="none" xmlns="http://www.w3.org/2000/svg">
    <path d="M10 10H13.2967C13.8217 10.9 15.325 13.7731 16.1859 15.4185C16.4614 15.945 16.6711 16.3458 16.7619 16.516C17.8296 18.532 18.5039 19.864 18.8598 20.71H18.9909C18.916 19.414 18.8785 17.578 18.8785 16.498L18.8598 10H21.0701V23.068H17.7547C17.3677 22.4257 16.3273 20.4005 15.5113 18.8123C15.0241 17.8637 14.6168 17.071 14.4767 16.822C13.0906 14.284 12.5287 13.096 12.1728 12.232H12.0417C12.0563 12.7429 12.0821 13.349 12.1083 13.9625C12.1496 14.927 12.1915 15.9099 12.1915 16.57L12.2103 23.068H10V10Z"
          fill="#01579B"/>
    <path d="M32.8223 10H24V23.068H33.0846V21.16H26.3788V17.362H32.4477V15.472H26.3788V11.89H32.8223V10Z"
          fill="#01579B"/>
    <path d="M34 10H36.4538L38.0084 17.344C38.177 18.136 38.4767 19.846 38.6078 20.638H38.739C38.8888 19.846 39.2447 18.136 39.4507 17.344L41.2864 10H44.4707L46.2876 17.344C46.4463 17.9659 46.5573 18.5266 46.7035 19.2654C46.7816 19.6599 46.8698 20.1054 46.9806 20.638H47.093C47.1544 20.3248 47.2094 20.0425 47.26 19.7833L47.2705 19.7294C47.461 18.7529 47.5877 18.103 47.7486 17.344L49.3033 10H51.5323L48.4417 23.068H45.3885L43.5716 15.616C43.3281 14.608 43.1595 13.78 42.8411 12.214H42.7287C42.4103 13.762 42.2229 14.626 41.9794 15.616L40.1625 23.068H37.0906L34 10Z"
          fill="#01579B"/>
    <path d="M54.4538 18.964C54.4538 20.746 55.5402 21.79 57.3758 21.79C58.9867 21.79 59.9982 21.052 59.9982 19.918C59.9982 18.568 58.5371 18.118 56.8888 17.65L56.749 17.6103C54.6285 17.0091 52.2435 16.3329 52.2435 13.744C52.2435 11.512 54.229 10 57.2447 10C60.2604 10 62.1148 11.62 62.171 14.266H59.7547C59.7547 12.736 58.5933 11.8 57.1323 11.8C55.8586 11.8 54.7347 12.448 54.7347 13.546C54.7347 14.788 55.971 15.274 58.3124 15.904C60.4852 16.498 62.5081 17.326 62.5081 19.63C62.5081 22.024 60.4477 23.608 57.3758 23.608C54.0604 23.608 52 21.88 52 18.964H54.4538Z"
          fill="#01579B"/>
    <path fill-rule="evenodd" clip-rule="evenodd" d="M10 52V30H35V52H10ZM12 32H33V50H12V32Z" fill="#01579B"/>
    <path d="M39 40.0586H63V42.0586H39V40.0586Z" fill="#01579B"/>
    <path d="M63 35.0586H39V37.0586H63V35.0586Z" fill="#01579B"/>
    <path d="M39 30.0586H63V32.0586H39V30.0586Z" fill="#01579B"/>
    <path d="M63 45.0586H39V47.0586H63V45.0586Z" fill="#01579B"/>
    <path d="M39 50.0586H63V52.0586H39V50.0586Z" fill="#01579B"/>
    <path d="M63 55H10V57H63V55Z" fill="#01579B"/>
    <path d="M10 60H63V62.1176H10V60Z" fill="#01579B"/>
    <path d="M63 65H10V67.1176H63V65Z" fill="#01579B"/>
    <path d="M10 70H63V72.1176H10V70Z" fill="#01579B"/>
    <path fill-rule="evenodd" clip-rule="evenodd"
          d="M0.000976562 77.5C0.000976562 81.0899 2.91113 84 6.50098 84H77.001V83.9811C77.166 83.9936 77.3327 84 77.501 84C81.0908 84 84.001 81.0898 84.001 77.5L84 8H73V0H0L0.000976562 77.5ZM2 2L71 2L71.001 77.5C71.001 79.2465 71.6898 80.8321 72.8105 82H6.50098C4.0157 82 2.00098 79.9853 2.00098 77.5L2 2ZM73 10H82L82.001 77.5C82.001 79.9853 79.9863 82 77.501 82C75.0157 82 73.001 79.9853 73.001 77.5L73 10Z"
          fill="#01579B"/>
</svg>
