<svg id="Layer_1" data-name="Layer 1" xmlns="http://www.w3.org/2000/svg" width="308.67" height="70" viewBox="0 0 308.67 70">
  <g>
    <path d="M44.59,7.9h2.9v5.6h5.62V7.9H56V22.2h-2.9V15.9H47.49v6.3h-2.9Z" style="fill: #010101"/>
    <path d="M64.47,22.2V21h-.06a3.29,3.29,0,0,1-2.94,1.48,3.35,3.35,0,0,1-3.56-3.7V11.94h2.7v6.38c0,1.2.54,1.86,1.7,1.86a2.07,2.07,0,0,0,2.06-2.32V11.94h2.72V22.2Z" style="fill: #010101"/>
    <path d="M68.85,11.94h2.62v1.38h.06a3.35,3.35,0,0,1,3-1.66,3.06,3.06,0,0,1,2.84,1.8h0a3.58,3.58,0,0,1,3.08-1.8c2.16,0,3.38,1.4,3.38,3.64v6.9H81.13V15.76c0-1.16-.58-1.76-1.58-1.76s-1.84.88-1.84,2.24v6H75V15.76C75,14.6,74.41,14,73.41,14s-1.84.88-1.84,2.24v6H68.85Z" style="fill: #010101"/>
    <path d="M91.67,21.06h0a3.15,3.15,0,0,1-3,1.38c-2.1,0-3.58-1.1-3.58-3.14,0-2.26,1.84-3,4.12-3.3,1.7-.24,2.48-.38,2.48-1.16s-.58-1.22-1.72-1.22-1.9.46-2,1.44H85.51c.08-1.8,1.42-3.38,4.42-3.38s4.32,1.38,4.32,3.78v5.22c0,.78.12,1.24.36,1.42v.1H92A2.78,2.78,0,0,1,91.67,21.06Zm0-2.48V17a7.58,7.58,0,0,1-1.9.6c-1.42.32-2.12.64-2.12,1.6s.64,1.3,1.6,1.3C90.83,20.54,91.69,19.58,91.69,18.58Z" style="fill: #010101"/>
    <path d="M98.63,13.34h.06a3.33,3.33,0,0,1,3-1.68,3.53,3.53,0,0,1,3.54,3.84v6.7h-2.72V15.9A1.71,1.71,0,0,0,100.77,14a2.14,2.14,0,0,0-2.08,2.36V22.2H96V11.94h2.66Z" style="fill: #010101"/>
    <path d="M107,7.9h2.72v2.44H107Zm0,4h2.72V22.2H107Z" style="fill: #010101"/>
    <path d="M110.83,11.94h1.42V8.74h2.66v3.2h1.76v1.8h-1.76v5.44a.9.9,0,0,0,1,1l.8,0v2s-.62,0-1.7,0c-1.32,0-2.78-.52-2.78-2.46v-6h-1.42Z" style="fill: #010101"/>
    <path d="M124.31,21.06h0a3.15,3.15,0,0,1-3,1.38c-2.1,0-3.58-1.1-3.58-3.14,0-2.26,1.84-3,4.12-3.3,1.7-.24,2.48-.38,2.48-1.16s-.58-1.22-1.72-1.22-1.9.46-2,1.44h-2.42c.08-1.8,1.42-3.38,4.42-3.38s4.32,1.38,4.32,3.78v5.22c0,.78.12,1.24.36,1.42v.1h-2.62A2.78,2.78,0,0,1,124.31,21.06Zm0-2.48V17a7.58,7.58,0,0,1-1.9.6c-1.42.32-2.12.64-2.12,1.6s.64,1.3,1.6,1.3C123.47,20.54,124.33,19.58,124.33,18.58Z" style="fill: #010101"/>
    <path d="M131.23,13.58h.06a2.69,2.69,0,0,1,2.52-1.76,1.78,1.78,0,0,1,.64.08v2.38h-.06c-1.78-.18-3.06.76-3.06,2.92v5h-2.72V11.94h2.62Z" style="fill: #010101"/>
    <path d="M135.63,7.9h2.72v2.44h-2.72Zm0,4h2.72V22.2h-2.72Z" style="fill: #010101"/>
    <path d="M146.25,21.06h0a3.15,3.15,0,0,1-3,1.38c-2.1,0-3.58-1.1-3.58-3.14,0-2.26,1.84-3,4.12-3.3,1.7-.24,2.48-.38,2.48-1.16s-.58-1.22-1.72-1.22-1.9.46-2,1.44h-2.42c.08-1.8,1.42-3.38,4.42-3.38s4.32,1.38,4.32,3.78v5.22c0,.78.12,1.24.36,1.42v.1h-2.62A2.78,2.78,0,0,1,146.25,21.06Zm0-2.48V17a7.58,7.58,0,0,1-1.9.6c-1.42.32-2.12.64-2.12,1.6s.64,1.3,1.6,1.3C145.41,20.54,146.27,19.58,146.27,18.58Z" style="fill: #010101"/>
    <path d="M153.21,13.34h.06a3.33,3.33,0,0,1,3-1.68,3.53,3.53,0,0,1,3.54,3.84v6.7h-2.72V15.9A1.71,1.71,0,0,0,155.35,14a2.14,2.14,0,0,0-2.08,2.36V22.2h-2.72V11.94h2.66Z" style="fill: #010101"/>
    <path d="M165.13,7.9H168V22.2h-2.9Z" style="fill: #010101"/>
    <path d="M172.69,13.34h.06a3.33,3.33,0,0,1,3-1.68,3.53,3.53,0,0,1,3.54,3.84v6.7h-2.72V15.9A1.71,1.71,0,0,0,174.83,14a2.14,2.14,0,0,0-2.08,2.36V22.2H170V11.94h2.66Z" style="fill: #010101"/>
    <path d="M183.67,13.34h.06a3.33,3.33,0,0,1,3-1.68,3.53,3.53,0,0,1,3.54,3.84v6.7h-2.72V15.9A1.71,1.71,0,0,0,185.81,14a2.14,2.14,0,0,0-2.08,2.36V22.2H181V11.94h2.66Z" style="fill: #010101"/>
    <path d="M191.49,17.08a5.36,5.36,0,1,1,10.72,0,5.36,5.36,0,1,1-10.72,0Zm8,0c0-2-.94-3.36-2.6-3.36s-2.6,1.36-2.6,3.36.92,3.34,2.6,3.34S199.45,19.08,199.45,17.08Z" style="fill: #010101"/>
    <path d="M202.33,11.94h2.76l1.64,5.32c.3,1,.46,1.64.46,1.64h0s.14-.66.44-1.64l1.68-5.32h2.72L208.49,22.2h-2.6Z" style="fill: #010101"/>
    <path d="M218.83,21.06h0a3.15,3.15,0,0,1-3,1.38c-2.1,0-3.58-1.1-3.58-3.14,0-2.26,1.84-3,4.12-3.3,1.7-.24,2.48-.38,2.48-1.16s-.58-1.22-1.72-1.22-1.9.46-2,1.44h-2.42c.08-1.8,1.42-3.38,4.42-3.38s4.32,1.38,4.32,3.78v5.22c0,.78.12,1.24.36,1.42v.1h-2.62A2.78,2.78,0,0,1,218.83,21.06Zm0-2.48V17a7.58,7.58,0,0,1-1.9.6c-1.42.32-2.12.64-2.12,1.6s.64,1.3,1.6,1.3C218,20.54,218.85,19.58,218.85,18.58Z" style="fill: #010101"/>
    <path d="M222.33,11.94h1.42V8.74h2.66v3.2h1.76v1.8h-1.76v5.44a.9.9,0,0,0,1,1l.8,0v2s-.62,0-1.7,0c-1.32,0-2.78-.52-2.78-2.46v-6h-1.42Z" style="fill: #010101"/>
    <path d="M229.57,7.9h2.72v2.44h-2.72Zm0,4h2.72V22.2h-2.72Z" style="fill: #010101"/>
    <path d="M233.55,17.08a5.36,5.36,0,1,1,10.72,0,5.36,5.36,0,1,1-10.72,0Zm8,0c0-2-.94-3.36-2.6-3.36s-2.6,1.36-2.6,3.36.92,3.34,2.6,3.34S241.51,19.08,241.51,17.08Z" style="fill: #010101"/>
    <path d="M248.19,13.34h.06a3.33,3.33,0,0,1,3-1.68,3.53,3.53,0,0,1,3.54,3.84v6.7h-2.72V15.9A1.71,1.71,0,0,0,250.33,14a2.14,2.14,0,0,0-2.08,2.36V22.2h-2.72V11.94h2.66Z" style="fill: #010101"/>
    <path d="M44.59,31.9H55.11v2.44H47.49v3.2h6.68v2.38H47.49v3.86h7.68V46.2H44.59Z" style="fill: #010101"/>
    <path d="M59.77,40.76l-3.34-4.82h3.1l1.82,2.94h0l1.72-2.94h2.82l-3.18,4.8,3.66,5.46H63.17l-1.9-3.4h0L59,46.2H56Z" style="fill: #010101"/>
    <path d="M66.25,41.08c0-3.06,2-5.42,5.12-5.42A4.36,4.36,0,0,1,76,39.42H73.37a1.88,1.88,0,0,0-1.88-1.58c-1.64,0-2.48,1.26-2.48,3.24s.78,3.24,2.44,3.24a1.92,1.92,0,0,0,2.06-1.74h2.62a4.3,4.3,0,0,1-4.62,3.92A5.1,5.1,0,0,1,66.25,41.08Z" style="fill: #010101"/>
    <path d="M80,37.28h.06a3.27,3.27,0,0,1,3-1.62,3.53,3.53,0,0,1,3.54,3.84v6.7H83.89V39.9A1.71,1.71,0,0,0,82.11,38,2.14,2.14,0,0,0,80,40.38V46.2H77.31V31.9H80Z" style="fill: #010101"/>
    <path d="M94.43,45.06h0a3.15,3.15,0,0,1-3,1.38c-2.1,0-3.58-1.1-3.58-3.14,0-2.26,1.84-3,4.12-3.3,1.7-.24,2.48-.38,2.48-1.16s-.58-1.22-1.72-1.22-1.9.46-2,1.44H88.27c.08-1.8,1.42-3.38,4.42-3.38S97,37.06,97,39.46v5.22c0,.78.12,1.24.36,1.42v.1H94.75A2.78,2.78,0,0,1,94.43,45.06Zm0-2.48V41a7.58,7.58,0,0,1-1.9.6c-1.42.32-2.12.64-2.12,1.6s.64,1.3,1.6,1.3C93.59,44.54,94.45,43.58,94.45,42.58Z" style="fill: #010101"/>
    <path d="M101.39,37.34h.06a3.33,3.33,0,0,1,3-1.68A3.53,3.53,0,0,1,108,39.5v6.7h-2.72V39.9A1.71,1.71,0,0,0,103.53,38a2.14,2.14,0,0,0-2.08,2.36V46.2H98.73V35.94h2.66Z" style="fill: #010101"/>
    <path d="M109.43,46.5h2.7c.22.64.8,1.14,2.06,1.14,1.54,0,2.28-.74,2.28-2.14V44.38h-.06a3.32,3.32,0,0,1-2.68,1.2,4.61,4.61,0,0,1-4.52-4.9c0-3.06,1.84-5,4.44-5A3.31,3.31,0,0,1,116.49,37h0V35.94h2.62v9.48a4,4,0,0,1-1.22,3.12,5.37,5.37,0,0,1-3.7,1.16C111.43,49.7,109.71,48.5,109.43,46.5Zm7.18-5.88c0-1.5-.8-2.78-2.44-2.78-1.38,0-2.3,1.08-2.3,2.8s.92,2.76,2.32,2.76C115.91,43.4,116.61,42.14,116.61,40.62Z" style="fill: #010101"/>
    <path d="M120.41,41.06a5.08,5.08,0,0,1,5.06-5.4c3.3,0,5.06,2.52,5.06,6.18h-7.44a2.55,2.55,0,0,0,2.62,2.56,1.92,1.92,0,0,0,2-1.26h2.68a4.4,4.4,0,0,1-4.64,3.36A5.08,5.08,0,0,1,120.41,41.06Zm2.72-1.1h4.56a2.16,2.16,0,0,0-2.18-2.2A2.28,2.28,0,0,0,123.13,40Z" style="fill: #010101"/>
    <path d="M141.29,45.06h0a3.15,3.15,0,0,1-3,1.38c-2.1,0-3.58-1.1-3.58-3.14,0-2.26,1.84-3,4.12-3.3,1.7-.24,2.48-.38,2.48-1.16s-.58-1.22-1.72-1.22-1.9.46-2,1.44h-2.42c.08-1.8,1.42-3.38,4.42-3.38s4.32,1.38,4.32,3.78v5.22c0,.78.12,1.24.36,1.42v.1h-2.62A2.78,2.78,0,0,1,141.29,45.06Zm0-2.48V41a7.58,7.58,0,0,1-1.9.6c-1.42.32-2.12.64-2.12,1.6s.64,1.3,1.6,1.3C140.45,44.54,141.31,43.58,141.31,42.58Z" style="fill: #010101"/>
    <path d="M148.25,37.34h.06a3.33,3.33,0,0,1,3-1.68,3.53,3.53,0,0,1,3.54,3.84v6.7h-2.72V39.9A1.71,1.71,0,0,0,150.39,38a2.14,2.14,0,0,0-2.08,2.36V46.2h-2.72V35.94h2.66Z" style="fill: #010101"/>
    <path d="M156.07,41.08c0-3.2,1.82-5.42,4.38-5.42a3.25,3.25,0,0,1,2.9,1.52h.06V31.9h2.72V46.2h-2.62V44.86h0a3.41,3.41,0,0,1-3.06,1.64C157.83,46.5,156.07,44.4,156.07,41.08Zm7.4.06c0-2-.64-3.28-2.38-3.28-1.5,0-2.26,1.32-2.26,3.22s.78,3.14,2.18,3.14C162.63,44.22,163.47,43,163.47,41.14Z" style="fill: #010101"/>
    <path d="M175.41,31.9h3l5,14.3h-3l-1-3h-5.16l-.94,3h-2.94Zm-.42,9h3.78l-1.28-4.12c-.24-.76-.58-2.2-.58-2.2h0s-.36,1.44-.6,2.2Z" style="fill: #010101"/>
    <path d="M183.53,41.08c0-3.06,2-5.42,5.12-5.42a4.36,4.36,0,0,1,4.66,3.76h-2.66a1.88,1.88,0,0,0-1.88-1.58c-1.64,0-2.48,1.26-2.48,3.24s.78,3.24,2.44,3.24a1.92,1.92,0,0,0,2.06-1.74h2.62a4.3,4.3,0,0,1-4.62,3.92A5.1,5.1,0,0,1,183.53,41.08Z" style="fill: #010101"/>
    <path d="M194.09,41.08c0-3.06,2-5.42,5.12-5.42a4.36,4.36,0,0,1,4.66,3.76h-2.66a1.88,1.88,0,0,0-1.88-1.58c-1.64,0-2.48,1.26-2.48,3.24s.78,3.24,2.44,3.24a1.92,1.92,0,0,0,2.06-1.74H204a4.3,4.3,0,0,1-4.62,3.92A5.1,5.1,0,0,1,194.09,41.08Z" style="fill: #010101"/>
    <path d="M204.65,41.06a5.08,5.08,0,0,1,5.06-5.4c3.3,0,5.06,2.52,5.06,6.18h-7.44A2.55,2.55,0,0,0,210,44.4a1.92,1.92,0,0,0,2-1.26h2.68A4.4,4.4,0,0,1,210,46.5,5.08,5.08,0,0,1,204.65,41.06Zm2.72-1.1h4.56a2.16,2.16,0,0,0-2.18-2.2A2.28,2.28,0,0,0,207.37,40Z" style="fill: #010101"/>
    <path d="M216.07,31.9h2.72V46.2h-2.72Z" style="fill: #010101"/>
    <path d="M220.09,41.06a5.08,5.08,0,0,1,5.06-5.4c3.3,0,5.06,2.52,5.06,6.18h-7.44a2.55,2.55,0,0,0,2.62,2.56,1.92,1.92,0,0,0,2-1.26h2.68a4.4,4.4,0,0,1-4.64,3.36A5.08,5.08,0,0,1,220.09,41.06Zm2.72-1.1h4.56a2.16,2.16,0,0,0-2.18-2.2A2.28,2.28,0,0,0,222.81,40Z" style="fill: #010101"/>
    <path d="M234.09,37.58h.06a2.69,2.69,0,0,1,2.52-1.76,1.78,1.78,0,0,1,.64.08v2.38h-.06c-1.78-.18-3.06.76-3.06,2.92v5h-2.72V35.94h2.62Z" style="fill: #010101"/>
    <path d="M244.33,45.06h0a3.15,3.15,0,0,1-3,1.38c-2.1,0-3.58-1.1-3.58-3.14,0-2.26,1.84-3,4.12-3.3,1.7-.24,2.48-.38,2.48-1.16s-.58-1.22-1.72-1.22-1.9.46-2,1.44h-2.42c.08-1.8,1.42-3.38,4.42-3.38s4.32,1.38,4.32,3.78v5.22c0,.78.12,1.24.36,1.42v.1h-2.62A2.78,2.78,0,0,1,244.33,45.06Zm0-2.48V41a7.58,7.58,0,0,1-1.9.6c-1.42.32-2.12.64-2.12,1.6s.64,1.3,1.6,1.3C243.49,44.54,244.35,43.58,244.35,42.58Z" style="fill: #010101"/>
    <path d="M247.83,35.94h1.42v-3.2h2.66v3.2h1.76v1.8h-1.76v5.44a.9.9,0,0,0,1,1l.8,0v2s-.62,0-1.7,0c-1.32,0-2.78-.52-2.78-2.46v-6h-1.42Z" style="fill: #010101"/>
    <path d="M254.47,41.08a5.36,5.36,0,1,1,10.72,0,5.36,5.36,0,1,1-10.72,0Zm8,0c0-2-.94-3.36-2.6-3.36s-2.6,1.36-2.6,3.36.92,3.34,2.6,3.34S262.43,43.08,262.43,41.08Z" style="fill: #010101"/>
    <path d="M269.07,37.58h.06a2.69,2.69,0,0,1,2.52-1.76,1.78,1.78,0,0,1,.64.08v2.38h-.06c-1.78-.18-3.06.76-3.06,2.92v5h-2.72V35.94h2.62Z" style="fill: #010101"/>
  </g>
  <g>
    <path id="path3133" d="M33.93,11.07S27.75,8.36,17.39,8.36h0C7,8.36.83,11.07.83,11.07s-.55,12,1.8,18.78A25.08,25.08,0,0,0,17.38,45.13h0A25.08,25.08,0,0,0,32.14,29.85c2.35-6.78,1.79-18.78,1.79-18.78" style="fill: #db3b32"/>
    <path id="path3135" d="M28.38,21.41V28H20.67v7.72H14.06V28H6.34V21.41h7.72V13.7h6.61v7.71h7.71" style="fill: #fff"/>
  </g>
  <g>
    <path d="M46,60c-1.14-.23-2.09-.82-2.09-2s1.41-2,2.74-2a2.6,2.6,0,0,1,2.84,2.16H48.3a1.54,1.54,0,0,0-1.68-1.12c-.56,0-1.39.25-1.39,1s.46.84,1.08,1l.89.17c1.27.25,2.48.71,2.48,2.17S48.23,63.4,46.8,63.4a2.77,2.77,0,0,1-3-2.53H45a1.74,1.74,0,0,0,1.86,1.49c.86,0,1.55-.39,1.55-1.09s-.8-1-1.49-1.12Z" style="fill: #221f20"/>
    <path d="M53,57.89h1.23l.93,3.82L56,57.89h1.29l-1.43,5.38H54.7l-1.06-4-1.06,4H51.45L50,57.89h1.29l.79,3.82Z" style="fill: #221f20"/>
    <path d="M59.17,56v1.2H58V56Zm0,1.87v5.38H58V57.89Z" style="fill: #221f20"/>
    <path d="M63.64,59.4c-.12-.51-.59-.72-1.26-.72s-1,.22-1,.58.26.55.78.66l.73.15c1.08.24,1.93.56,1.93,1.6s-1,1.73-2.3,1.73a2.17,2.17,0,0,1-2.39-1.81h1.16c.1.57.51.91,1.27.91s1.1-.26,1.1-.69-.39-.63-1-.75l-.81-.17c-.93-.19-1.63-.58-1.63-1.57s1-1.55,2.2-1.55a2.13,2.13,0,0,1,2.3,1.63Z" style="fill: #221f20"/>
    <path d="M68.9,59.4c-.12-.51-.59-.72-1.26-.72s-1,.22-1,.58.26.55.78.66l.73.15c1.08.24,1.93.56,1.93,1.6s-1,1.73-2.3,1.73a2.17,2.17,0,0,1-2.39-1.81h1.16c.1.57.51.91,1.27.91s1.1-.26,1.1-.69-.39-.63-1-.75l-.81-.17c-.93-.19-1.63-.58-1.63-1.57s1-1.55,2.2-1.55A2.13,2.13,0,0,1,70,59.4Z" style="fill: #221f20"/>
    <path d="M75.36,56H76.7l2.72,7.25H78l-.57-1.61H74.52L74,63.27h-1.3Zm-.47,4.58h2.19L76,57.49Z" style="fill: #221f20"/>
    <path d="M83.47,57.89h1.19v4.84c0,1.76-.89,2.48-2.56,2.48-1.18,0-2.12-.47-2.3-1.65H81c.11.5.44.71,1.15.71,1.06,0,1.34-.6,1.34-1.3v-.63a1.78,1.78,0,0,1-1.6.84c-1.31,0-2.31-1-2.31-2.71s1-2.7,2.31-2.7a1.78,1.78,0,0,1,1.6.84Zm-1.34.83c-.83,0-1.33.67-1.33,1.75s.5,1.77,1.33,1.77,1.39-.56,1.39-1.77S82.91,58.72,82.13,58.72Z" style="fill: #221f20"/>
    <path d="M85.63,60.54a2.57,2.57,0,0,1,2.61-2.77c1.68,0,2.65,1.34,2.55,3.15h-4a1.45,1.45,0,0,0,1.43,1.49,1.25,1.25,0,0,0,1.29-.75h1.17a2.37,2.37,0,0,1-2.41,1.74A2.64,2.64,0,0,1,85.63,60.54Zm1.21-.49h2.74a1.31,1.31,0,0,0-1.34-1.35A1.35,1.35,0,0,0,86.84,60.05Z" style="fill: #221f20"/>
    <path d="M93,58.64a1.75,1.75,0,0,1,1.63-.87c1.3,0,1.83.84,1.83,2.12v3.38H95.24V60.18c0-.73-.11-1.44-1-1.44S93,59.44,93,60.41v2.86H91.78V57.89H93Z" style="fill: #221f20"/>
    <path d="M102.3,59.73h-1.16a1.16,1.16,0,0,0-1.25-1c-.75,0-1.35.55-1.35,1.82s.61,1.83,1.35,1.83a1.19,1.19,0,0,0,1.29-1h1.16a2.41,2.41,0,0,1-2.47,2,2.83,2.83,0,0,1,0-5.63A2.32,2.32,0,0,1,102.3,59.73Z" style="fill: #221f20"/>
    <path d="M103,65v-.91h.45c.52,0,.74,0,1-.74l.06-.13-2-5.35h1.3L105,61.75l1.22-3.86h1.22l-1.89,5.37c-.5,1.39-.86,1.76-2.07,1.76Z" style="fill: #221f20"/>
    <path d="M110.58,57.56c0-1.26.48-1.54,1.78-1.54h.47v.91h-.34c-.59,0-.72.11-.72.67v.29h1.06v.86h-1.06v4.52h-1.19V58.75h-.75v-.86h.75Z" style="fill: #221f20"/>
    <path d="M118.42,60.59a2.62,2.62,0,1,1-2.61-2.82A2.55,2.55,0,0,1,118.42,60.59Zm-1.23,0c0-1.24-.59-1.85-1.38-1.85s-1.39.61-1.39,1.85.6,1.84,1.39,1.84S117.19,61.83,117.19,60.59Z" style="fill: #221f20"/>
    <path d="M122.35,59.1l-.57,0c-.75,0-1.18.3-1.18,1.38v2.82h-1.19V57.89h1.17v1a1.61,1.61,0,0,1,1.46-1l.31,0Z" style="fill: #221f20"/>
    <path d="M127.44,56c2.3,0,4,.79,4,3.62s-1.74,3.63-4,3.63h-2V56Zm-.06,1h-.65v5.21h.65c1.39,0,2.78-.31,2.78-2.61S128.77,57,127.38,57Z" style="fill: #221f20"/>
    <path d="M132.07,60.54a2.57,2.57,0,0,1,2.61-2.77c1.68,0,2.64,1.34,2.54,3.15h-3.94a1.45,1.45,0,0,0,1.43,1.49,1.24,1.24,0,0,0,1.28-.75h1.17a2.36,2.36,0,0,1-2.4,1.74A2.64,2.64,0,0,1,132.07,60.54Zm1.21-.49H136a1.31,1.31,0,0,0-1.34-1.35A1.35,1.35,0,0,0,133.28,60.05Z" style="fill: #221f20"/>
    <path d="M140,61.73l1.23-3.84h1.24l-1.94,5.38h-1.12l-2-5.38h1.31Z" style="fill: #221f20"/>
    <path d="M142.68,60.54a2.57,2.57,0,0,1,2.61-2.77c1.68,0,2.65,1.34,2.54,3.15h-3.94a1.45,1.45,0,0,0,1.43,1.49,1.25,1.25,0,0,0,1.29-.75h1.17a2.37,2.37,0,0,1-2.41,1.74A2.64,2.64,0,0,1,142.68,60.54Zm1.21-.49h2.74a1.31,1.31,0,0,0-1.34-1.35A1.35,1.35,0,0,0,143.89,60.05Z" style="fill: #221f20"/>
    <path d="M150,63.27h-1.19V56H150Z" style="fill: #221f20"/>
    <path d="M156.24,60.59a2.63,2.63,0,1,1-2.62-2.82A2.55,2.55,0,0,1,156.24,60.59Zm-1.23,0c0-1.24-.6-1.85-1.39-1.85s-1.39.61-1.39,1.85.6,1.84,1.39,1.84S155,61.83,155,60.59Z" style="fill: #221f20"/>
    <path d="M158.41,57.89v.72a1.78,1.78,0,0,1,1.6-.84c1.31,0,2.3,1.09,2.3,2.81s-1,2.82-2.3,2.82a1.78,1.78,0,0,1-1.6-.84V65h-1.19V57.89Zm1.34,4.54c.82,0,1.32-.71,1.32-1.85s-.5-1.84-1.32-1.84-1.39.6-1.39,1.84S159,62.43,159.75,62.43Z" style="fill: #221f20"/>
    <path d="M164.48,63.27h-1.19V57.89h1.19v.75a1.67,1.67,0,0,1,1.56-.87,1.53,1.53,0,0,1,1.57.95,2,2,0,0,1,1.74-.95c1.27,0,1.76.84,1.76,2.12v3.38h-1.19V60.18c0-.73-.07-1.44-.95-1.44s-1.18.7-1.18,1.67v2.86h-1.18V60.18c0-.73-.07-1.44-1-1.44s-1.18.7-1.18,1.67Z" style="fill: #221f20"/>
    <path d="M172,60.54a2.57,2.57,0,0,1,2.61-2.77c1.67,0,2.64,1.34,2.54,3.15h-3.94a1.45,1.45,0,0,0,1.43,1.49,1.25,1.25,0,0,0,1.28-.75h1.17a2.36,2.36,0,0,1-2.4,1.74A2.64,2.64,0,0,1,172,60.54Zm1.21-.49h2.73a1.3,1.3,0,0,0-1.33-1.35A1.35,1.35,0,0,0,173.21,60.05Z" style="fill: #221f20"/>
    <path d="M179.34,58.64a1.75,1.75,0,0,1,1.63-.87c1.29,0,1.82.84,1.82,2.12v3.38h-1.18V60.18c0-.73-.12-1.44-1-1.44s-1.25.7-1.25,1.67v2.86h-1.19V57.89h1.19Z" style="fill: #221f20"/>
    <path d="M184.21,56.47h1.19v1.42h1.08v.86H185.4v2.93c0,.55.13.68.64.68h.43v.91h-.88c-1.15,0-1.38-.31-1.38-1.41V58.75h-.8v-.86h.8Z" style="fill: #221f20"/>
    <path d="M194.22,60c0,.27,0,.91,0,1.4a9.46,9.46,0,0,0,.16,1.84h-1.08a5,5,0,0,1-.11-.77,1.89,1.89,0,0,1-1.76.9c-1.17,0-2-.63-2-1.61,0-1.34,1.65-1.68,3.61-1.88v-.13a1,1,0,0,0-1.15-1.17,1,1,0,0,0-1.1,1h-1.17a2.1,2.1,0,0,1,2.33-1.85A2,2,0,0,1,194.22,60Zm-1.15.71c-1.7.16-2.39.4-2.39,1s.39.75,1,.75c.88,0,1.4-.45,1.4-1.58Z" style="fill: #221f20"/>
    <path d="M196.62,58.64a1.75,1.75,0,0,1,1.63-.87c1.29,0,1.82.84,1.82,2.12v3.38h-1.18V60.18c0-.73-.11-1.44-1-1.44s-1.25.7-1.25,1.67v2.86h-1.19V57.89h1.19Z" style="fill: #221f20"/>
    <path d="M204.86,56H206v7.25h-1.18v-.71a1.79,1.79,0,0,1-1.6.84c-1.31,0-2.31-1.09-2.31-2.82s1-2.81,2.31-2.81a1.79,1.79,0,0,1,1.6.84Zm-1.34,2.72c-.83,0-1.33.71-1.33,1.84s.5,1.85,1.33,1.85,1.38-.61,1.38-1.85S204.3,58.74,203.52,58.74Z" style="fill: #221f20"/>
    <path d="M215.93,60.86a3,3,0,0,1-3.13,2.54c-2.11,0-3.34-1.51-3.34-3.78s1.31-3.73,3.4-3.73a2.9,2.9,0,0,1,3,2.54h-1.22a1.8,1.8,0,0,0-1.87-1.5c-1.15,0-2,.94-2,2.69s.88,2.74,2,2.74a1.8,1.8,0,0,0,1.9-1.5Z" style="fill: #221f20"/>
    <path d="M221.82,60.59a2.62,2.62,0,1,1-2.62-2.82A2.55,2.55,0,0,1,221.82,60.59Zm-1.23,0c0-1.24-.6-1.85-1.39-1.85s-1.38.61-1.38,1.85.59,1.84,1.38,1.84S220.59,61.83,220.59,60.59Z" style="fill: #221f20"/>
    <path d="M227.74,60.59a2.62,2.62,0,1,1-2.62-2.82A2.55,2.55,0,0,1,227.74,60.59Zm-1.23,0c0-1.24-.6-1.85-1.39-1.85s-1.38.61-1.38,1.85.59,1.84,1.38,1.84S226.51,61.83,226.51,60.59Z" style="fill: #221f20"/>
    <path d="M229.92,57.89v.72a1.76,1.76,0,0,1,1.59-.84c1.31,0,2.31,1.09,2.31,2.81s-1,2.82-2.31,2.82a1.76,1.76,0,0,1-1.59-.84V65h-1.19V57.89Zm1.33,4.54c.83,0,1.33-.71,1.33-1.85s-.5-1.84-1.33-1.84-1.39.6-1.39,1.84S230.48,62.43,231.25,62.43Z" style="fill: #221f20"/>
    <path d="M234.5,60.54a2.57,2.57,0,0,1,2.6-2.77c1.68,0,2.65,1.34,2.55,3.15h-3.94a1.44,1.44,0,0,0,1.42,1.49,1.25,1.25,0,0,0,1.29-.75h1.17a2.37,2.37,0,0,1-2.41,1.74A2.63,2.63,0,0,1,234.5,60.54Zm1.21-.49h2.73a1.31,1.31,0,0,0-1.34-1.35A1.34,1.34,0,0,0,235.71,60.05Z" style="fill: #221f20"/>
    <path d="M243.58,59.1l-.57,0c-.74,0-1.17.3-1.17,1.38v2.82h-1.19V57.89h1.17v1a1.6,1.6,0,0,1,1.45-1l.31,0Z" style="fill: #221f20"/>
    <path d="M248.62,60c0,.27,0,.91,0,1.4a9.46,9.46,0,0,0,.16,1.84h-1.09a5.22,5.22,0,0,1-.1-.77,1.9,1.9,0,0,1-1.77.9c-1.17,0-2-.63-2-1.61,0-1.34,1.64-1.68,3.61-1.88v-.13a1,1,0,0,0-1.16-1.17,1,1,0,0,0-1.1,1H244a2.09,2.09,0,0,1,2.32-1.85A2,2,0,0,1,248.62,60Zm-1.16.71c-1.7.16-2.39.4-2.39,1s.39.75,1,.75c.88,0,1.4-.45,1.4-1.58Z" style="fill: #221f20"/>
    <path d="M250,56.47h1.19v1.42h1.07v.86h-1.07v2.93c0,.55.13.68.63.68h.43v.91h-.88c-1.14,0-1.37-.31-1.37-1.41V58.75h-.8v-.86h.8Z" style="fill: #221f20"/>
    <path d="M254.41,56v1.2h-1.18V56Zm0,1.87v5.38h-1.18V57.89Z" style="fill: #221f20"/>
    <path d="M260.63,60.59A2.62,2.62,0,1,1,258,57.77,2.55,2.55,0,0,1,260.63,60.59Zm-1.23,0c0-1.24-.6-1.85-1.39-1.85s-1.39.61-1.39,1.85.6,1.84,1.39,1.84S259.4,61.83,259.4,60.59Z" style="fill: #221f20"/>
    <path d="M262.81,58.64a1.72,1.72,0,0,1,1.62-.87c1.3,0,1.83.84,1.83,2.12v3.38h-1.19V60.18c0-.73-.11-1.44-1-1.44s-1.24.7-1.24,1.67v2.86h-1.19V57.89h1.19Z" style="fill: #221f20"/>
    <path d="M271.68,60c-1.14-.23-2.08-.82-2.08-2s1.4-2,2.73-2a2.6,2.6,0,0,1,2.84,2.16h-1.23a1.54,1.54,0,0,0-1.68-1.12c-.56,0-1.39.25-1.39,1s.46.84,1.08,1l.89.17c1.27.25,2.48.71,2.48,2.17s-1.45,2.21-2.88,2.21a2.76,2.76,0,0,1-3-2.53h1.24a1.74,1.74,0,0,0,1.86,1.49c.86,0,1.55-.39,1.55-1.09s-.8-1-1.49-1.12Z" style="fill: #221f20"/>
    <path d="M278.32,56c2.3,0,4.05.79,4.05,3.62s-1.75,3.63-4.05,3.63h-2V56Zm-.06,1h-.65v5.21h.65c1.39,0,2.79-.31,2.79-2.61S279.65,57,278.26,57Z" style="fill: #221f20"/>
    <path d="M289.81,60.86a3,3,0,0,1-3.13,2.54c-2.12,0-3.35-1.51-3.35-3.78s1.31-3.73,3.41-3.73a2.9,2.9,0,0,1,3.05,2.54h-1.22a1.8,1.8,0,0,0-1.87-1.5c-1.15,0-2.06.94-2.06,2.69s.89,2.74,2.05,2.74a1.8,1.8,0,0,0,1.9-1.5Z" style="fill: #221f20"/>
  </g>
</svg>
