<svg id="Layer_1" data-name="Layer 1" xmlns="http://www.w3.org/2000/svg" xmlns:xlink="http://www.w3.org/1999/xlink" width="215.02" height="70" viewBox="0 0 215.02 70">
  <defs>
    <clipPath id="clip-path">
      <path d="M26.38,42.32v4.61H23.86V35.13c2.21.08,4.41-.3,6.56.31a3.19,3.19,0,0,1,2.28,3.79,3.27,3.27,0,0,1-3.37,3.08C28.39,42.37,27.44,42.32,26.38,42.32Zm.06-5.06V40.1c.85,0,1.64.06,2.42,0A1.21,1.21,0,0,0,30,38.78a1.16,1.16,0,0,0-1-1.3C28.15,37.34,27.31,37.33,26.44,37.26Z"/>
    </clipPath>
    <clipPath id="clip-path-2">
      <path d="M97.64,61.4c-.63.08-1.09.21-1.09-.59,0-3.56,0-7.12,0-10.69a2.55,2.55,0,0,1,.05-.42,37.52,37.52,0,0,1,4.63,0,2.79,2.79,0,0,1,2.54,3.13,3,3,0,0,1-2.88,2.87,19.73,19.73,0,0,1-2.55,0c-.56,0-.74.18-.73.74,0,1.32,0,2.65,0,4Zm0-6.58h2.28a5.67,5.67,0,0,0,.71,0,2.06,2.06,0,0,0,2.07-2,2,2,0,0,0-2-2.17,18.92,18.92,0,0,0-2.61-.06c-.17,0-.46.23-.46.37C97.63,52.19,97.65,53.45,97.65,54.82Z"/>
    </clipPath>
    <clipPath id="clip-path-3">
      <path d="M60.22,61.39c-.92.33-.85-.37-.93-1.13a3.16,3.16,0,0,1-3,1.39,2.4,2.4,0,0,1-2.45-1.87,2.27,2.27,0,0,1,1.81-2.68,14.27,14.27,0,0,1,2.36-.33,11.78,11.78,0,0,1,1.19,0,1.8,1.8,0,0,0-.64-2c-.88-.64-2.15-.5-3.88.41l-.49-.56a4.41,4.41,0,0,1,4.58-.79,2.51,2.51,0,0,1,1.4,2.48c0,.85,0,1.7,0,2.55Zm-1-3.82a6.83,6.83,0,0,0-3.62.52,1.16,1.16,0,0,0-.72,1.37,2.07,2.07,0,0,0,1,1.16C57.93,61.38,59.66,59.78,59.2,57.57Z"/>
    </clipPath>
    <clipPath id="clip-path-4">
      <path d="M111.92,61.4c-1,.34-.73-.5-.94-1.09a3.1,3.1,0,0,1-3,1.33,2.33,2.33,0,0,1-2.34-1.89,2.24,2.24,0,0,1,1.71-2.61,7.76,7.76,0,0,1,1.79-.34c.6-.06,1.21,0,1.85,0a1.66,1.66,0,0,0-.53-1.92c-1.35-.88-2.68-.49-4,.35l-.52-.65a4.61,4.61,0,0,1,4-.92A2.26,2.26,0,0,1,111.91,56C112,57.75,111.92,59.55,111.92,61.4Zm-1-3.85a7.46,7.46,0,0,0-3.55.49,1.33,1.33,0,0,0-.83,1.41,1.4,1.4,0,0,0,1.18,1.24C109.83,61.21,111.34,59.78,111,57.55Z"/>
    </clipPath>
    <clipPath id="clip-path-5">
      <path d="M80.24,57.58a3.86,3.86,0,0,1-4,4.06,4.06,4.06,0,1,1,0-8.11A3.85,3.85,0,0,1,80.24,57.58Zm-1,0a3.09,3.09,0,1,0-3.08,3.14A3,3,0,0,0,79.27,57.62Z"/>
    </clipPath>
    <clipPath id="clip-path-6">
      <path d="M40.07,53.53a4.06,4.06,0,1,1-4.08,4A3.87,3.87,0,0,1,40.07,53.53Zm0,7.23a3,3,0,0,0,3.06-3.18,3.11,3.11,0,1,0-6.21,0A3,3,0,0,0,40.09,60.76Z"/>
    </clipPath>
  </defs>
  <g id="ewcHDO">
    <g>
      <path d="M16,42.16v2.45h5.64v2.33H13.36V35.18h8v2.3H15.9a16.76,16.76,0,0,0,0,1.9c0,.15.39.37.6.38,1.23,0,2.45,0,3.67,0l.82,0v2.35Z"/>
      <g>
        <path d="M26.38,42.32v4.61H23.86V35.13c2.21.08,4.41-.3,6.56.31a3.19,3.19,0,0,1,2.28,3.79,3.27,3.27,0,0,1-3.37,3.08C28.39,42.37,27.44,42.32,26.38,42.32Zm.06-5.06V40.1c.85,0,1.64.06,2.42,0A1.21,1.21,0,0,0,30,38.78a1.16,1.16,0,0,0-1-1.3C28.15,37.34,27.31,37.33,26.44,37.26Z"/>
        <g style="clip-path: url(#clip-path)">
          <path d="M26.44,37.26c.87.07,1.71.08,2.53.22a1.16,1.16,0,0,1,1,1.3,1.21,1.21,0,0,1-1.14,1.3c-.78.08-1.57,0-2.42,0Z"/>
        </g>
      </g>
      <path d="M42,39.94v2.39H37.12v4.61H34.58V35.17h7.83v2.32H37.16v2.45Z"/>
      <path d="M51.9,44.6v2.33H44.52V35.18h2.53V44.6Z"/>
      <g>
        <path d="M97.64,61.4c-.63.08-1.09.21-1.09-.59,0-3.56,0-7.12,0-10.69a2.55,2.55,0,0,1,.05-.42,37.52,37.52,0,0,1,4.63,0,2.79,2.79,0,0,1,2.54,3.13,3,3,0,0,1-2.88,2.87,19.73,19.73,0,0,1-2.55,0c-.56,0-.74.18-.73.74,0,1.32,0,2.65,0,4Zm0-6.58h2.28a5.67,5.67,0,0,0,.71,0,2.06,2.06,0,0,0,2.07-2,2,2,0,0,0-2-2.17,18.92,18.92,0,0,0-2.61-.06c-.17,0-.46.23-.46.37C97.63,52.19,97.65,53.45,97.65,54.82Z"/>
        <g style="clip-path: url(#clip-path-2)">
          <path d="M97.65,54.82c0-1.37,0-2.63,0-3.89,0-.14.29-.37.46-.37a18.92,18.92,0,0,1,2.61.06,2,2,0,0,1,2,2.17,2.06,2.06,0,0,1-2.07,2,5.67,5.67,0,0,1-.71,0Z"/>
        </g>
      </g>
      <path d="M121.25,48.74v8.5c1.12-1,2.12-1.89,3.06-2.81a1.9,1.9,0,0,1,2.08-.61l-3.84,3.44,4.34,4.11A1.82,1.82,0,0,1,125,61c-1-1-2-2-3-2.94-.18-.17-.38-.32-.71-.62v4h-.91V48.79Z"/>
      <g>
        <path d="M60.22,61.39c-.92.33-.85-.37-.93-1.13a3.16,3.16,0,0,1-3,1.39,2.4,2.4,0,0,1-2.45-1.87,2.27,2.27,0,0,1,1.81-2.68,14.27,14.27,0,0,1,2.36-.33,11.78,11.78,0,0,1,1.19,0,1.8,1.8,0,0,0-.64-2c-.88-.64-2.15-.5-3.88.41l-.49-.56a4.41,4.41,0,0,1,4.58-.79,2.51,2.51,0,0,1,1.4,2.48c0,.85,0,1.7,0,2.55Zm-1-3.82a6.83,6.83,0,0,0-3.62.52,1.16,1.16,0,0,0-.72,1.37,2.07,2.07,0,0,0,1,1.16C57.93,61.38,59.66,59.78,59.2,57.57Z"/>
        <g style="clip-path: url(#clip-path-3)">
          <path d="M59.2,57.57c.46,2.21-1.27,3.81-3.31,3a2.07,2.07,0,0,1-1-1.16,1.16,1.16,0,0,1,.72-1.37A6.83,6.83,0,0,1,59.2,57.57Z"/>
        </g>
      </g>
      <g>
        <path d="M111.92,61.4c-1,.34-.73-.5-.94-1.09a3.1,3.1,0,0,1-3,1.33,2.33,2.33,0,0,1-2.34-1.89,2.24,2.24,0,0,1,1.71-2.61,7.76,7.76,0,0,1,1.79-.34c.6-.06,1.21,0,1.85,0a1.66,1.66,0,0,0-.53-1.92c-1.35-.88-2.68-.49-4,.35l-.52-.65a4.61,4.61,0,0,1,4-.92A2.26,2.26,0,0,1,111.91,56C112,57.75,111.92,59.55,111.92,61.4Zm-1-3.85a7.46,7.46,0,0,0-3.55.49,1.33,1.33,0,0,0-.83,1.41,1.4,1.4,0,0,0,1.18,1.24C109.83,61.21,111.34,59.78,111,57.55Z"/>
        <g style="clip-path: url(#clip-path-4)">
          <path d="M111,57.55c.39,2.23-1.12,3.66-3.2,3.14a1.4,1.4,0,0,1-1.18-1.24A1.33,1.33,0,0,1,107.4,58,7.46,7.46,0,0,1,111,57.55Z"/>
        </g>
      </g>
      <g>
        <path d="M80.24,57.58a3.86,3.86,0,0,1-4,4.06,4.06,4.06,0,1,1,0-8.11A3.85,3.85,0,0,1,80.24,57.58Zm-1,0a3.09,3.09,0,1,0-3.08,3.14A3,3,0,0,0,79.27,57.62Z"/>
        <g style="clip-path: url(#clip-path-5)">
          <path d="M79.27,57.62a3.09,3.09,0,1,1-6.17-.08,3.09,3.09,0,1,1,6.17.08Z"/>
        </g>
      </g>
      <g>
        <path d="M40.07,53.53a4.06,4.06,0,1,1-4.08,4A3.87,3.87,0,0,1,40.07,53.53Zm0,7.23a3,3,0,0,0,3.06-3.18,3.11,3.11,0,1,0-6.21,0A3,3,0,0,0,40.09,60.76Z"/>
        <g style="clip-path: url(#clip-path-6)">
          <path d="M40.09,60.76a3,3,0,0,1-3.15-3.18,3.11,3.11,0,1,1,6.21,0A3,3,0,0,1,40.09,60.76Z"/>
        </g>
      </g>
      <path d="M24.31,61.43h-.94V59.68c0-1,0-2.07,0-3.11a2,2,0,0,0-1.28-2.09,2.36,2.36,0,0,0-2.74.94,5.43,5.43,0,0,0-.62,2.17c-.1,1.24,0,2.49,0,3.78-.46.06-1,.35-1-.39,0-2.39,0-4.77,0-7.22l.82-.06.14,1.11.19.15a2.94,2.94,0,0,1,.37-.55,3.14,3.14,0,0,1,3.47-.67,2.51,2.51,0,0,1,1.6,2.6C24.34,58,24.31,59.68,24.31,61.43Z"/>
      <path d="M89,61.43h-.83v-2.7c0-.72,0-1.44,0-2.15,0-1.13-.48-1.87-1.26-2.1a2.37,2.37,0,0,0-2.7.87,5.07,5.07,0,0,0-.65,2.08c-.1,1.29,0,2.59,0,4l-1,0v-7.7l.79,0L83.55,55a3.3,3.3,0,0,1,3-1.46A2.33,2.33,0,0,1,89,55.58c.16,1.9.08,3.82.1,5.73C89.12,61.34,89.06,61.38,89,61.43Z"/>
      <path d="M28,61.42h-.94V53.75l.82,0L28.06,55a3.42,3.42,0,0,1,3-1.43,2.33,2.33,0,0,1,2.45,2.07,52.89,52.89,0,0,1,.13,5.49c0,.16-.47.32-.72.49l-.21-.2V58.45c0-.69,0-1.39,0-2.07-.06-.88-.34-1.66-1.29-1.9a2.22,2.22,0,0,0-2.62.85,5.25,5.25,0,0,0-.71,2.3C28,58.86,28,60.11,28,61.42Z"/>
      <path d="M63.35,54.58H61.87l0-.83,1.64-.07v-2.1c.72-.23,1.06-.11,1,.63,0,.47,0,.94,0,1.48h2.15l0,.9H64.49c0,1.82,0,3.54,0,5.26,0,.63.47.92,1.09.9.33,0,.67-.07,1-.11.33.58.1.83-.47,1a2,2,0,0,1-2.65-2.13c0-1.54,0-3.08,0-4.62C63.46,54.79,63.42,54.75,63.35,54.58Z"/>
      <path d="M52.51,53.81c-1,2.49-1.92,4.91-2.89,7.33a.72.72,0,0,1-1.22,0c-1-2.44-2-4.89-3-7.36.72-.23,1.1-.11,1.35.58.7,1.94,1.48,3.85,2.32,6,.31-.8.52-1.39.75-2,.51-1.36,1-2.72,1.53-4.1C51.52,53.74,51.84,53.61,52.51,53.81Z"/>
      <path d="M13.68,49.61h1c0,.28,0,.54,0,.8,0,3.4,0,6.81,0,10.21,0,.82-.3,1-1,.77Z"/>
      <path d="M114.67,53.75h.84l.16,1.17a2.74,2.74,0,0,1,3-1.3l-.06.8-.43.06a2.42,2.42,0,0,0-2.51,2.61c0,1.4,0,2.81,0,4.31l-1,.06Z"/>
      <path d="M68.75,61.47V53.76l.84-.06v7.7Z"/>
      <path d="M70.18,50.6c-.43.33-.73.71-1,.67s-.53-.42-.8-.66c.26-.24.49-.63.78-.69S69.73,50.27,70.18,50.6Z"/>
    </g>
  </g>
  <g>
    <path d="M13.36,6.28h1.45v7.15H13.36Z"/>
    <path d="M17.14,9h0a1.67,1.67,0,0,1,1.52-.84,1.77,1.77,0,0,1,1.77,1.92v3.35H19.1V10.28a.85.85,0,0,0-.89-.94,1.07,1.07,0,0,0-1,1.18v2.91H15.81V8.3h1.33Z"/>
    <path d="M22.63,9h0a1.67,1.67,0,0,1,1.52-.84A1.77,1.77,0,0,1,26,10.08v3.35H24.59V10.28a.85.85,0,0,0-.89-.94,1.07,1.07,0,0,0-1,1.18v2.91H21.3V8.3h1.33Z"/>
    <path d="M26.54,10.87a2.68,2.68,0,1,1,5.36,0,2.68,2.68,0,1,1-5.36,0Zm4,0c0-1-.47-1.68-1.3-1.68s-1.3.68-1.3,1.68.46,1.67,1.3,1.67S30.52,11.87,30.52,10.87Z"/>
    <path d="M32.21,11.77h1.26a1,1,0,0,0,1.12.85c.6,0,.94-.23.94-.59s-.65-.54-1.35-.68c-.92-.18-1.82-.43-1.82-1.55s.92-1.64,2.09-1.64c1.35,0,2.1.67,2.2,1.7H35.42c-.06-.55-.41-.75-1-.75s-.88.2-.88.57.68.48,1.41.63,1.81.42,1.81,1.62c0,1-.88,1.65-2.16,1.65C33.12,13.58,32.29,12.86,32.21,11.77Z"/>
    <path d="M40.62,13.43v-.6h0a1.65,1.65,0,0,1-1.47.74,1.67,1.67,0,0,1-1.78-1.85V8.3h1.35v3.19c0,.6.27.93.85.93a1,1,0,0,0,1-1.16v-3h1.36v5.13Z"/>
    <path d="M42.81,6.28h1.36V7.5H42.81Zm0,2h1.36v5.13H42.81Z"/>
    <path d="M44.73,11.77H46a1,1,0,0,0,1.12.85c.6,0,.94-.23.94-.59s-.65-.54-1.35-.68c-.92-.18-1.82-.43-1.82-1.55S45.8,8.16,47,8.16c1.35,0,2.1.67,2.2,1.7H47.94c-.06-.55-.41-.75-1-.75s-.88.2-.88.57.68.48,1.41.63,1.81.42,1.81,1.62c0,1-.88,1.65-2.16,1.65C45.64,13.58,44.81,12.86,44.73,11.77Z"/>
    <path d="M49.58,11.77h1.26a1,1,0,0,0,1.12.85c.6,0,.94-.23.94-.59s-.65-.54-1.35-.68c-.92-.18-1.82-.43-1.82-1.55s.92-1.64,2.09-1.64c1.35,0,2.1.67,2.2,1.7H52.79c-.06-.55-.41-.75-1-.75s-.88.2-.88.57.68.48,1.41.63,1.81.42,1.81,1.62c0,1-.88,1.65-2.16,1.65C50.49,13.58,49.66,12.86,49.58,11.77Z"/>
    <path d="M54.55,10.86a2.54,2.54,0,0,1,2.53-2.7c1.65,0,2.53,1.26,2.53,3.09H55.89a1.28,1.28,0,0,0,1.31,1.28,1,1,0,0,0,1-.63h1.34a2.2,2.2,0,0,1-2.32,1.68A2.54,2.54,0,0,1,54.55,10.86Zm1.36-.55h2.28a1.08,1.08,0,0,0-1.09-1.1A1.14,1.14,0,0,0,55.91,10.31Z"/>
    <path d="M61.71,11.22h1.42c.1.86.59,1.2,1.61,1.2.74,0,1.39-.26,1.39-.92s-.68-.84-1.77-1.09c-1.28-.29-2.45-.63-2.45-2.12s1.15-2.14,2.74-2.14,2.65.79,2.76,2.23H66A1.23,1.23,0,0,0,64.64,7.3c-.78,0-1.29.33-1.29.84s.5.75,1.56,1c1.47.32,2.67.67,2.67,2.21s-1.17,2.26-2.78,2.26C62.86,13.59,61.76,12.73,61.71,11.22Z"/>
    <path d="M68,8.3h.71V6.7H70V8.3h.88v.9H70v2.72a.45.45,0,0,0,.51.51h.4v1s-.31,0-.85,0-1.39-.26-1.39-1.23v-3H68Z"/>
    <path d="M74.73,12.86h0a1.57,1.57,0,0,1-1.51.69c-1,0-1.79-.55-1.79-1.57s.92-1.49,2.06-1.65c.85-.12,1.24-.19,1.24-.58s-.29-.61-.86-.61-.95.23-1,.72H71.65c0-.9.71-1.69,2.21-1.69S76,8.86,76,10.06v2.61c0,.39.06.62.18.71v0H74.89A1.39,1.39,0,0,1,74.73,12.86Zm0-1.24v-.77a3.79,3.79,0,0,1-.95.3c-.71.16-1.06.32-1.06.8s.32.65.8.65C74.31,12.6,74.74,12.12,74.74,11.62Z"/>
    <path d="M78.19,9.12h0a1.35,1.35,0,0,1,1.26-.88.89.89,0,0,1,.32,0V9.47h0a1.29,1.29,0,0,0-1.53,1.46v2.5H76.88V8.3h1.31Z"/>
    <path d="M80.14,8.3h.71V6.7h1.33V8.3h.88v.9h-.88v2.72a.45.45,0,0,0,.51.51h.4v1s-.31,0-.85,0-1.39-.26-1.39-1.23v-3h-.71Z"/>
    <path d="M83.61,10.37h2.71v1.17H83.61Z"/>
    <path d="M90.34,13.43v-.6h0a1.65,1.65,0,0,1-1.47.74,1.67,1.67,0,0,1-1.78-1.85V8.3h1.35v3.19c0,.6.27.93.85.93a1,1,0,0,0,1-1.16v-3h1.36v5.13Z"/>
    <path d="M92.53,8.3h1.31v.64h0a1.79,1.79,0,0,1,1.51-.78c1.36,0,2.23,1.11,2.23,2.71s-.9,2.71-2.22,2.71a1.65,1.65,0,0,1-1.48-.73h0v2.26H92.53Zm3.7,2.61c0-1-.34-1.65-1.18-1.65s-1.19.73-1.19,1.65.43,1.54,1.24,1.54S96.23,11.88,96.23,10.91Z"/>
    <path d="M99.66,6.28h5.75V7.5h-2.15v5.93h-1.45V7.5H99.66Z"/>
    <path d="M106.64,9.12h0a1.35,1.35,0,0,1,1.26-.88.89.89,0,0,1,.32,0V9.47h0a1.29,1.29,0,0,0-1.53,1.46v2.5h-1.36V8.3h1.31Z"/>
    <path d="M111.76,12.86h0a1.57,1.57,0,0,1-1.51.69c-1,0-1.79-.55-1.79-1.57s.92-1.49,2.06-1.65c.85-.12,1.24-.19,1.24-.58s-.29-.61-.86-.61-.95.23-1,.72h-1.21c0-.9.71-1.69,2.21-1.69s2.16.69,2.16,1.89v2.61c0,.39.06.62.18.71v0h-1.31A1.39,1.39,0,0,1,111.76,12.86Zm0-1.24v-.77a3.79,3.79,0,0,1-1,.3c-.71.16-1.06.32-1.06.8s.32.65.8.65C111.34,12.6,111.77,12.12,111.77,11.62Z"/>
    <path d="M113.91,6.28h1.36V7.5h-1.36Zm0,2h1.36v5.13h-1.36Z"/>
    <path d="M117.48,9h0A1.67,1.67,0,0,1,119,8.16a1.77,1.77,0,0,1,1.77,1.92v3.35h-1.36V10.28a.85.85,0,0,0-.89-.94,1.07,1.07,0,0,0-1,1.18v2.91h-1.36V8.3h1.33Z"/>
    <path d="M121.64,6.28H123V7.5h-1.36Zm0,2H123v5.13h-1.36Z"/>
    <path d="M125.21,9h0a1.67,1.67,0,0,1,1.52-.84,1.77,1.77,0,0,1,1.77,1.92v3.35h-1.36V10.28a.85.85,0,0,0-.89-.94,1.07,1.07,0,0,0-1,1.18v2.91h-1.36V8.3h1.33Z"/>
    <path d="M129.23,13.58h1.35c.11.32.4.57,1,.57s1.14-.37,1.14-1.07v-.56h0a1.66,1.66,0,0,1-1.34.6,2.31,2.31,0,0,1-2.26-2.45,2.25,2.25,0,0,1,2.22-2.51,1.65,1.65,0,0,1,1.42.68h0V8.3h1.31V13a2,2,0,0,1-.61,1.56,2.68,2.68,0,0,1-1.85.58C130.23,15.18,129.37,14.58,129.23,13.58Zm3.59-2.94a1.23,1.23,0,0,0-1.22-1.39c-.69,0-1.15.54-1.15,1.4s.46,1.38,1.16,1.38C132.47,12,132.82,11.4,132.82,10.64Z"/>
    <path d="M13.47,18.28h3a2.25,2.25,0,0,1,1.72.62,1.7,1.7,0,0,1,.46,1.22,1.48,1.48,0,0,1-1.15,1.5v0A1.72,1.72,0,0,1,19,23.38a2,2,0,0,1-.52,1.37,2.38,2.38,0,0,1-1.79.68H13.47Zm2.92,3.06c.87,0,1.39-.43,1.39-1.17s-.47-1.11-1.27-1.11H14.37v2.28Zm.23,3.28a1.57,1.57,0,0,0,1.12-.36,1.17,1.17,0,0,0,.32-.83c0-.89-.63-1.33-1.5-1.33H14.37v2.52Z"/>
    <path d="M23.08,25.43v-.71h0a1.79,1.79,0,0,1-1.56.83,1.6,1.6,0,0,1-1.74-1.71V20.26h.81v3.56a1,1,0,0,0,1.16,1.06,1.34,1.34,0,0,0,1.35-1.44V20.26h.81v5.17Z"/>
    <path d="M24.66,23.75h.83c.11.9.71,1.15,1.48,1.15s1.2-.37,1.2-.85-.4-.73-1.35-.93-1.93-.42-1.93-1.55c0-.86.66-1.42,1.86-1.42a1.76,1.76,0,0,1,2,1.62H28c-.08-.68-.45-1-1.22-1s-1,.33-1,.74.5.67,1.39.85c1,.21,1.91.44,1.91,1.63,0,1-.85,1.57-2,1.57C25.53,25.58,24.74,24.91,24.66,23.75Z"/>
    <path d="M29.77,18.28h.81v1h-.81Zm0,2h.81v5.17h-.81Z"/>
    <path d="M32.49,20.94h0a1.94,1.94,0,0,1,1.64-.8,1.55,1.55,0,0,1,1.74,1.66v3.63h-.81V21.87c0-.67-.44-1.05-1.17-1.05a1.37,1.37,0,0,0-1.42,1.43v3.18h-.81V20.26h.81Z"/>
    <path d="M36.67,22.85a2.52,2.52,0,0,1,2.45-2.72c1.55,0,2.38,1.2,2.38,2.91h-4c.06,1.05.63,1.85,1.67,1.85a1.34,1.34,0,0,0,1.43-1.06h.79a2.1,2.1,0,0,1-2.22,1.74A2.5,2.5,0,0,1,36.67,22.85Zm.85-.42h3.11c-.05-1-.58-1.66-1.51-1.66S37.64,21.49,37.52,22.43Z"/>
    <path d="M42,23.75h.83c.11.9.71,1.15,1.48,1.15s1.2-.37,1.2-.85-.4-.73-1.35-.93-1.93-.42-1.93-1.55c0-.86.66-1.42,1.86-1.42a1.76,1.76,0,0,1,2,1.62h-.83c-.08-.68-.45-1-1.22-1s-1,.33-1,.74.5.67,1.39.85,1.91.44,1.91,1.63c0,1-.85,1.57-2,1.57C42.83,25.58,42,24.91,42,23.75Z"/>
    <path d="M46.74,23.75h.83c.11.9.71,1.15,1.48,1.15s1.2-.37,1.2-.85-.4-.73-1.35-.93S47,22.7,47,21.57c0-.86.66-1.42,1.86-1.42a1.76,1.76,0,0,1,2,1.62H50c-.08-.68-.45-1-1.22-1s-1,.33-1,.74.5.67,1.39.85c1,.21,1.91.44,1.91,1.63,0,1-.85,1.57-2,1.57C47.61,25.58,46.82,24.91,46.74,23.75Z"/>
    <path d="M53.29,21.85c0-2.1,1.26-3.73,3.39-3.73a2.65,2.65,0,0,1,2.87,2.28h-.88a1.86,1.86,0,0,0-2-1.5c-1.57,0-2.45,1.27-2.45,3s1,2.93,2.46,2.93a2,2,0,0,0,2.08-2h.89a3,3,0,0,1-.86,2,3,3,0,0,1-2.14.75C54.61,25.57,53.29,24,53.29,21.85Z"/>
    <path d="M61.34,21.12h0a1.83,1.83,0,0,1,1.54-.92.78.78,0,0,1,.33.06V21h0a1,1,0,0,0-.36-.05,1.49,1.49,0,0,0-1.5,1.57v2.87h-.81V20.26h.81Z"/>
    <path d="M63.47,22.85a2.52,2.52,0,0,1,2.45-2.72c1.55,0,2.38,1.2,2.38,2.91h-4c.06,1.05.63,1.85,1.67,1.85a1.34,1.34,0,0,0,1.43-1.06h.79A2.1,2.1,0,0,1,66,25.57,2.5,2.5,0,0,1,63.47,22.85Zm.85-.42h3.11c-.05-1-.58-1.66-1.51-1.66S64.44,21.49,64.32,22.43Z"/>
    <path d="M72.26,24.71h0a2.08,2.08,0,0,1-1.72.82c-1,0-1.75-.46-1.75-1.44,0-1.22,1-1.47,2.25-1.67.73-.11,1.24-.18,1.24-.74s-.42-.91-1.16-.91-1.26.36-1.29,1.14H69c0-1,.69-1.75,2.06-1.75,1.1,0,1.91.41,1.91,1.64v2.46c0,.42.1.65.55.55h0v.59a1.11,1.11,0,0,1-.44.08A.79.79,0,0,1,72.26,24.71Zm0-1.19v-.88A3.72,3.72,0,0,1,71.1,23c-.81.15-1.46.29-1.46,1.05s.54.84,1.07.84A1.46,1.46,0,0,0,72.28,23.52Z"/>
    <path d="M73.76,20.26h.75V18.63h.81v1.63h1v.66h-1v3.36c0,.36.19.48.52.48a1.54,1.54,0,0,0,.43-.07h0v.7a3.16,3.16,0,0,1-.65.07c-.66,0-1.14-.27-1.14-1V20.92h-.75Z"/>
    <path d="M77.16,18.28H78v1h-.81Zm0,2H78v5.17h-.81Z"/>
    <path d="M78.78,22.85a2.5,2.5,0,1,1,5,0,2.5,2.5,0,1,1-5,0Zm4.16,0c0-1.14-.56-2.05-1.66-2.05s-1.67.91-1.67,2.05.57,2,1.67,2S82.94,24,82.94,22.85Z"/>
    <path d="M85.39,20.94h0a1.94,1.94,0,0,1,1.64-.8,1.55,1.55,0,0,1,1.74,1.66v3.63H88V21.87c0-.67-.44-1.05-1.17-1.05a1.37,1.37,0,0,0-1.42,1.43v3.18h-.81V20.26h.81Z"/>
    <path d="M91.12,20.26h.71v-.83c0-.89.51-1.21,1.37-1.21l.41,0v.69h-.26c-.52,0-.71.13-.71.55v.79h1v.66h-1v4.51h-.81V20.92h-.71Z"/>
    <path d="M94,22.85a2.5,2.5,0,1,1,5,0,2.5,2.5,0,1,1-5,0Zm4.16,0c0-1.14-.56-2.05-1.66-2.05s-1.67.91-1.67,2.05.57,2,1.67,2S98.11,24,98.11,22.85Z"/>
    <path d="M100.56,21.12h0a1.83,1.83,0,0,1,1.54-.92.78.78,0,0,1,.33.06V21h0a1,1,0,0,0-.36-.05,1.49,1.49,0,0,0-1.5,1.57v2.87h-.81V20.26h.81Z"/>
    <path d="M104.44,23h.88a1.93,1.93,0,0,0,2.21,1.84c1,0,1.7-.45,1.7-1.34s-.86-1.21-2.14-1.49-2.34-.64-2.34-2c0-1.18,1-1.89,2.43-1.89a2.38,2.38,0,0,1,2.71,2.23H109a1.65,1.65,0,0,0-1.84-1.53c-1,0-1.61.41-1.61,1.15s.8,1.05,1.87,1.26c1.39.28,2.66.62,2.66,2.23,0,1.34-1.09,2.09-2.63,2.09C105.48,25.57,104.52,24.45,104.44,23Z"/>
    <path d="M110.74,22.85a2.5,2.5,0,1,1,5,0,2.5,2.5,0,1,1-5,0Zm4.16,0c0-1.14-.56-2.05-1.66-2.05s-1.67.91-1.67,2.05.57,2,1.67,2S114.9,24,114.9,22.85Z"/>
    <path d="M116.25,22.85a2.52,2.52,0,0,1,2.5-2.72,2.08,2.08,0,0,1,2.21,1.8h-.82a1.29,1.29,0,0,0-1.39-1.13c-1.1,0-1.67.91-1.67,2.05s.57,2,1.67,2a1.3,1.3,0,0,0,1.41-1.28h.8a2,2,0,0,1-2.21,2A2.52,2.52,0,0,1,116.25,22.85Z"/>
    <path d="M121.73,18.28h.81v1h-.81Zm0,2h.81v5.17h-.81Z"/>
    <path d="M126.81,24.71h0a2.08,2.08,0,0,1-1.72.82c-1,0-1.75-.46-1.75-1.44,0-1.22,1-1.47,2.25-1.67.73-.11,1.24-.18,1.24-.74s-.42-.91-1.16-.91-1.26.36-1.29,1.14h-.78c0-1,.69-1.75,2.06-1.75,1.1,0,1.91.41,1.91,1.64v2.46c0,.42.1.65.55.55h0v.59a1.11,1.11,0,0,1-.44.08A.79.79,0,0,1,126.81,24.71Zm0-1.19v-.88a3.72,3.72,0,0,1-1.18.38c-.81.15-1.46.29-1.46,1.05s.54.84,1.07.84A1.46,1.46,0,0,0,126.83,23.52Z"/>
    <path d="M128.77,18.28h.81v7.15h-.81Z"/>
    <path d="M132.42,18.28h5.05v.79h-4.15v2.26h3.77v.76h-3.77V24.6h4.27v.83h-5.17Z"/>
    <path d="M139.33,20.94h0a1.94,1.94,0,0,1,1.64-.8,1.55,1.55,0,0,1,1.74,1.66v3.63h-.81V21.87c0-.67-.44-1.05-1.17-1.05a1.37,1.37,0,0,0-1.42,1.43v3.18h-.81V20.26h.81Z"/>
    <path d="M143.37,20.26h.75V18.63h.81v1.63h1v.66h-1v3.36c0,.36.19.48.52.48a1.54,1.54,0,0,0,.43-.07h0v.7a3.16,3.16,0,0,1-.65.07c-.66,0-1.14-.27-1.14-1V20.92h-.75Z"/>
    <path d="M147.58,21.12h0a1.83,1.83,0,0,1,1.54-.92.78.78,0,0,1,.33.06V21h0a1,1,0,0,0-.36-.05,1.49,1.49,0,0,0-1.5,1.57v2.87h-.81V20.26h.81Z"/>
    <path d="M149.71,22.85a2.52,2.52,0,0,1,2.45-2.72c1.55,0,2.38,1.2,2.38,2.91h-4c.06,1.05.63,1.85,1.67,1.85a1.34,1.34,0,0,0,1.43-1.06h.79a2.1,2.1,0,0,1-2.22,1.74A2.5,2.5,0,0,1,149.71,22.85Zm.85-.42h3.11c0-1-.58-1.66-1.51-1.66S150.68,21.49,150.56,22.43Z"/>
    <path d="M155.33,20.26h.81V21h0a1.94,1.94,0,0,1,1.66-.85c1.31,0,2.22,1,2.22,2.72s-.85,2.72-2.25,2.72a1.87,1.87,0,0,1-1.63-.76h0v2.27h-.81Zm3.88,2.61c0-1.16-.49-2-1.47-2-1.13,0-1.65.92-1.65,2s.45,2,1.64,2C158.72,24.9,159.21,24,159.21,22.87Z"/>
    <path d="M161.66,21.12h0a1.83,1.83,0,0,1,1.54-.92.78.78,0,0,1,.33.06V21h0a1,1,0,0,0-.36-.05,1.49,1.49,0,0,0-1.5,1.57v2.87h-.81V20.26h.81Z"/>
    <path d="M163.79,22.85a2.52,2.52,0,0,1,2.45-2.72c1.55,0,2.38,1.2,2.38,2.91h-4c.06,1.05.63,1.85,1.67,1.85a1.34,1.34,0,0,0,1.43-1.06h.79a2.1,2.1,0,0,1-2.22,1.74A2.5,2.5,0,0,1,163.79,22.85Zm.85-.42h3.11c-.05-1-.58-1.66-1.51-1.66S164.76,21.49,164.64,22.43Z"/>
    <path d="M170.22,20.94h0a1.94,1.94,0,0,1,1.64-.8,1.55,1.55,0,0,1,1.74,1.66v3.63h-.81V21.87c0-.67-.44-1.05-1.17-1.05a1.37,1.37,0,0,0-1.42,1.43v3.18h-.81V20.26h.81Z"/>
    <path d="M174.4,22.85a2.52,2.52,0,0,1,2.45-2.72c1.55,0,2.38,1.2,2.38,2.91h-4c.06,1.05.63,1.85,1.67,1.85a1.34,1.34,0,0,0,1.43-1.06h.79a2.1,2.1,0,0,1-2.22,1.74A2.5,2.5,0,0,1,174.4,22.85Zm.85-.42h3.11c-.05-1-.58-1.66-1.51-1.66S175.37,21.49,175.25,22.43Z"/>
    <path d="M183.31,25.43v-.71h0a1.79,1.79,0,0,1-1.56.83A1.6,1.6,0,0,1,180,23.84V20.26h.81v3.56A1,1,0,0,0,182,24.88a1.34,1.34,0,0,0,1.35-1.44V20.26h.81v5.17Z"/>
    <path d="M186,21.12h0a1.83,1.83,0,0,1,1.54-.92.78.78,0,0,1,.33.06V21h0a1,1,0,0,0-.36-.05,1.49,1.49,0,0,0-1.5,1.57v2.87h-.81V20.26H186Z"/>
    <path d="M188.32,23.75h.83c.11.9.71,1.15,1.48,1.15s1.2-.37,1.2-.85-.4-.73-1.35-.93-1.93-.42-1.93-1.55c0-.86.66-1.42,1.86-1.42a1.76,1.76,0,0,1,2,1.62h-.83c-.08-.68-.45-1-1.22-1s-1,.33-1,.74.5.67,1.39.85,1.91.44,1.91,1.63c0,1-.85,1.57-2,1.57C189.19,25.58,188.4,24.91,188.32,23.75Z"/>
  </g>
  <g>
    <path id="path3133" d="M10,6.81a9.78,9.78,0,0,0-3.58-.58h0a9.78,9.78,0,0,0-3.58.58,14.08,14.08,0,0,0,.39,4.07,5.39,5.39,0,0,0,3.19,3.3h0a5.42,5.42,0,0,0,3.19-3.3A14.08,14.08,0,0,0,10,6.81" style="fill: #db3b32"/>
    <path id="path3135" d="M8.8,9.05v1.43H7.13v1.67H5.7V10.48H4V9.05H5.7V7.38H7.13V9.05H8.8" style="fill: #fff"/>
  </g>
</svg>
