<?xml version="1.0" encoding="UTF-8"?>
<svg id="Vrstva_1" xmlns="http://www.w3.org/2000/svg" viewBox="0 0 146.24 146.22">
  <defs>
    <style>
      .cls-1 {
        fill: #e23623;
      }

      .cls-2 {
        fill: #f39d19;
      }

      .cls-3 {
        fill: #de1931;
      }

      .cls-4 {
        fill: #2693d1;
      }

      .cls-5 {
        fill: #489835;
      }

      .cls-6 {
        fill: #f8c300;
      }

      .cls-7 {
        fill: #e86120;
      }

      .cls-8 {
        fill: #417f3d;
      }

      .cls-9 {
        fill: #d80460;
      }

      .cls-10 {
        fill: #3cb9e1;
      }

      .cls-11 {
        fill: #c31a23;
      }

      .cls-12 {
        fill: #1b4469;
      }

      .cls-13 {
        fill: #ca9a12;
      }

      .cls-14 {
        fill: #05659b;
      }

      .cls-15 {
        fill: #64ad35;
      }

      .cls-16 {
        fill: #e7b717;
      }

      .cls-17 {
        fill: #a4183d;
      }
    </style>
  </defs>
  <g id="g40">
    <path id="path6" class="cls-15" d="M37.56,52.25c1.82-3.09,4.02-5.92,6.55-8.43l-21.49-23.57c-5.41,5.17-10.02,11.16-13.65,17.76l28.59,14.24Z"/>
    <path id="path8" class="cls-16" d="M90.25,35.6c3.26,1.49,6.28,3.4,9.01,5.65l21.55-23.53c-5.68-4.89-12.11-8.93-19.1-11.92l-11.46,29.8Z"/>
    <path id="path10" class="cls-11" d="M139.6,42.69l-28.56,14.24c1.36,3.18,2.33,6.57,2.86,10.09l31.77-3c-.94-7.52-3.02-14.69-6.07-21.33"/>
    <path id="path12" class="cls-5" d="M108.99,52.8l28.56-14.24c-3.54-6.57-8.05-12.55-13.35-17.72l-21.55,23.53c2.46,2.52,4.59,5.35,6.34,8.43"/>
    <path id="path14" class="cls-8" d="M31.89,73.1c0-.64.02-1.29.05-1.92L.16,68.34c-.1,1.57-.16,3.17-.16,4.77,0,6.09.76,12.02,2.16,17.68l30.7-8.81c-.63-2.87-.97-5.83-.97-8.88"/>
    <path id="path16" class="cls-6" d="M104.99,99.22c-2.26,2.75-4.87,5.2-7.75,7.29l16.78,27.17c6.23-4.22,11.77-9.38,16.43-15.26l-25.46-19.2Z"/>
    <path id="path18" class="cls-1" d="M114.35,73.1c0,3.01-.33,5.94-.95,8.77l30.69,8.82c1.4-5.63,2.15-11.53,2.15-17.59,0-1.5-.05-3-.14-4.49l-31.78,3c.02.5.03.99.03,1.49"/>
    <path id="path20" class="cls-2" d="M41.76,99.82l-25.4,19.31c4.72,5.82,10.32,10.89,16.59,15.03l16.78-27.14c-2.97-2.04-5.64-4.46-7.97-7.2"/>
    <path id="path22" class="cls-4" d="M32.4,66.59c.57-3.59,1.61-7.02,3.05-10.24l-28.56-14.22c-3.15,6.71-5.31,13.98-6.3,21.61l31.81,2.85Z"/>
    <path id="path24" class="cls-17" d="M110.12,136.14l-16.76-27.13c-3.05,1.72-6.32,3.07-9.78,3.97l5.92,31.39c7.35-1.7,14.29-4.5,20.62-8.23"/>
    <path id="path26" class="cls-10" d="M112.18,86.31c-1.11,3.27-2.62,6.35-4.46,9.19l25.49,19.22c4.14-5.95,7.41-12.54,9.64-19.59l-30.67-8.82Z"/>
    <path id="path28" class="cls-7" d="M79.06,113.89c-1.94.28-3.93.43-5.94.43-1.62,0-3.23-.1-4.8-.28l-5.91,31.39c3.5.52,7.07.79,10.71.79,4.03,0,7.99-.33,11.85-.96l-5.91-31.37Z"/>
    <path id="path30" class="cls-3" d="M75.75,31.95c3.54.23,6.96.9,10.2,1.97l11.46-29.79C90.59,1.72,83.31.3,75.74.03v31.92h.01Z"/>
    <path id="path32" class="cls-9" d="M63.78,113.26c-3.57-.83-6.97-2.13-10.12-3.83l-16.79,27.15c6.46,3.7,13.52,6.44,21.01,8.03l5.9-31.35Z"/>
    <path id="path34" class="cls-12" d="M60.73,33.77c3.31-1.05,6.8-1.68,10.42-1.85V0c-7.68.2-15.04,1.6-21.96,4l11.54,29.77Z"/>
    <path id="path36" class="cls-13" d="M38.96,96.16c-2.02-2.99-3.67-6.27-4.86-9.75l-30.67,8.8c2.32,7.32,5.76,14.13,10.13,20.25l25.4-19.3Z"/>
    <path id="path38" class="cls-14" d="M47.57,40.76c2.7-2.13,5.66-3.93,8.84-5.35l-11.54-29.75c-6.87,2.88-13.2,6.79-18.81,11.52l21.51,23.58Z"/>
  </g>
</svg>