<svg id="Layer_1" data-name="Layer 1" xmlns="http://www.w3.org/2000/svg" width="200" height="70" viewBox="0 0 200 70">
  <g>
    <path id="path2960" d="M0,70.42H200V1.16H0Z" style="fill: #af1f24"/>
    <path id="path2972" d="M12.89,46.81l-.6,3.87c-.1.75.26,1,.92,1.15a78.48,78.48,0,0,0,8.71.46c8,0,13.85-2.61,13.85-10.07,0-4.39-1.92-7.66-8.56-9.38l-3.73-1c-2.51-.65-3.67-1.45-3.67-3.33,0-2.61,2.41-3.13,4.73-3.13,3.11,0,6.3.26,7.56.36s1.65-.06,1.85-1.16l.6-3.77c.1-.76-.26-1.05-.92-1.15a72.31,72.31,0,0,0-8.75-.46c-8.3,0-12.33,3.63-12.33,9.37,0,5.19,2.81,8.26,7.7,9.52l3.73,1c3.07.79,4.39,1.71,4.39,3.63,0,2.81-1.92,3.33-6.55,3.33-2.11,0-5.78-.3-7-.4s-1.69,0-1.89,1.16" style="fill: #fff"/>
    <path id="path2976" d="M51.89,35.26l-.5,2.11a4.58,4.58,0,0,0-.2,1.12,2.75,2.75,0,0,0,.5,1.51l6,10.78A2,2,0,0,0,59.78,52h5.49c.7,0,1.56-.46.76-1.71L58.67,38.09c2.47-1.56,5.24-3.77,5.24-8.66,0-6.3-3.53-9.81-11.29-9.81H41.39c-1,0-1.31.36-1.31,1.35V50.64c0,1,.3,1.35,1.31,1.35H46c1,0,1.32-.36,1.32-1.35v-25h4.78c3,0,4.47,1.12,4.47,3.93,0,2.57-1.15,3.37-2.31,3.87-1.44.6-1.94-.06-2.39,1.86" style="fill: #fff"/>
    <path id="path2980" d="M94.49,50.08V33.9c0-1-.29-1.36-1.31-1.36H84.92c-1,0-1.32.36-1.32,1.36v3.47c0,1,.3,1.36,1.32,1.36h2.37v7.06a20.07,20.07,0,0,1-2.47.1c-6.84,0-8.62-4.43-8.62-10.53,0-7.7,2.93-9.68,9.28-9.68,1.91,0,4.49.16,5.94.26s1.66-.06,1.86-1.16l.6-3.63c.16-1,0-1.45-1.12-1.55a56.56,56.56,0,0,0-7.8-.36c-11.83,0-16.62,6.1-16.62,16.12s3.93,17,16.16,17c5.49,0,7.56-.26,8.62-.5s1.37-.66,1.37-1.75" style="fill: #fff"/>
    <path id="path2984" d="M108.24,46.81l-.6,3.87c-.1.75.26,1,.92,1.15a78.54,78.54,0,0,0,8.72.46c8,0,13.84-2.61,13.84-10.07,0-4.39-1.92-7.66-8.56-9.38l-3.73-1c-2.51-.65-3.67-1.45-3.67-3.33,0-2.61,2.41-3.13,4.73-3.13,3.11,0,6.3.26,7.54.36s1.65-.06,1.87-1.16l.6-3.77c.1-.76-.26-1.05-.9-1.15a72.17,72.17,0,0,0-8.75-.46c-8.32,0-12.35,3.63-12.35,9.37,0,5.19,2.81,8.26,7.7,9.52l3.73,1c3.07.79,4.39,1.71,4.39,3.63,0,2.81-1.92,3.33-6.54,3.33-2.12,0-5.81-.3-7.05-.4s-1.69,0-1.89,1.16" style="fill: #fff"/>
    <path id="path2988" d="M134.27,46.81l-.6,3.87c-.1.75.26,1,.9,1.15a79.17,79.17,0,0,0,8.72.46c8,0,13.84-2.61,13.84-10.07,0-4.39-1.91-7.66-8.56-9.38l-3.73-1c-2.51-.65-3.67-1.45-3.67-3.33,0-2.61,2.42-3.13,4.73-3.13,3.13,0,6.3.26,7.56.36s1.66-.06,1.86-1.16l.59-3.77c.1-.76-.23-1.05-.89-1.15a72.52,72.52,0,0,0-8.76-.46c-8.32,0-12.35,3.63-12.35,9.37,0,5.19,2.83,8.26,7.7,9.52l3.73,1c3.07.79,4.39,1.71,4.39,3.63,0,2.81-1.91,3.33-6.54,3.33-2.12,0-5.79-.3-7-.4s-1.68,0-1.88,1.16" style="fill: #fff"/>
    <path id="path2992" d="M173.25,35.26l-.5,2.11a5.92,5.92,0,0,0-.2,1.12,2.79,2.79,0,0,0,.52,1.51l6,10.78A2,2,0,0,0,181.17,52h5.48c.72,0,1.56-.46.76-1.71l-7.36-12.19c2.48-1.56,5.25-3.77,5.25-8.66,0-6.3-3.53-9.81-11.27-9.81H162.78c-1,0-1.32.36-1.32,1.35V50.64c0,1,.3,1.35,1.32,1.35h4.62c1,0,1.32-.36,1.32-1.35v-25h4.79c3,0,4.49,1.12,4.49,3.93,0,2.57-1.16,3.37-2.32,3.87-1.47.6-2-.06-2.43,1.86" style="fill: #fff"/>
  </g>
</svg>
